<svg width="1920" height="1143" viewBox="0 0 1920 1143" fill="none" xmlns="http://www.w3.org/2000/svg">
<g clip-path="url(#clip0_131_2108)">
<rect width="1920" height="1143" fill="#FAFBFF"/>
<g clip-path="url(#clip1_131_2108)">
<rect width="1920" height="1465" fill="#FAFBFF"/>
<path fill-rule="evenodd" clip-rule="evenodd" d="M1888.74 366.486C1888.15 366.667 1887.67 366.817 1887.05 367.01C1887.2 366.685 1887.3 366.47 1887.43 366.198C1887.01 365.573 1886.54 365.013 1885.69 365.137C1885.62 364.884 1885.58 364.721 1885.52 364.495H1884.02C1883.88 364.346 1883.75 364.275 1883.71 364.173C1883.48 363.484 1883.44 362.665 1883.02 362.124C1882.49 361.429 1882.75 360.747 1882.73 360.074C1882.71 359.527 1882.93 358.967 1883.06 358.419C1883.55 356.458 1884.29 354.592 1885.24 352.819C1885.83 351.728 1886.48 350.666 1887.2 349.658C1887.9 348.674 1888.72 347.775 1889.52 346.808C1889.3 346.67 1889.07 346.51 1888.82 346.365C1886.45 344.963 1884.37 343.197 1882.45 341.24C1881.54 340.317 1881.54 339.077 1881.27 337.936C1881.16 337.479 1881.25 336.976 1881.25 336.495C1881.74 335.568 1882.72 335.49 1883.67 335.113C1883.99 335.676 1884.32 336.255 1884.69 336.906C1884.75 336.859 1884.86 336.776 1885.07 336.627C1885.19 336.75 1885.41 336.868 1885.47 337.043C1885.85 338.117 1886.72 338.663 1887.66 339.129C1889.55 340.077 1891.47 340.988 1893.5 341.977C1893.98 341.473 1894.46 340.701 1895.15 340.315C1895.79 339.958 1895.82 338.938 1896.81 339.036C1896.67 338.862 1896.57 338.741 1896.43 338.561C1896.73 338.347 1897.04 338.131 1897.47 337.831C1897.61 337.531 1897.81 337.075 1898.02 336.627C1898.32 336.609 1898.61 336.593 1899.02 336.569C1898.85 336.344 1898.75 336.226 1898.61 336.044C1899.38 335.932 1899.43 335.137 1899.91 334.71C1900.42 334.259 1900.78 333.64 1901.27 333.02C1901.38 333.098 1901.49 333.181 1901.7 333.338C1901.8 333.116 1901.88 332.908 1901.99 332.646C1902.12 332.751 1902.25 332.848 1902.46 333.024C1902.7 331.755 1903.42 330.738 1904.18 329.823C1904.97 328.879 1905.68 327.796 1906.97 327.164C1907.13 327.298 1907.35 327.476 1907.59 327.677C1907.08 328.656 1906.59 329.626 1905.54 330.137V331.582C1905.79 331.521 1906.04 331.533 1906.1 331.436C1906.3 331.046 1906.45 330.622 1906.54 330.423C1907.39 329.715 1908.1 329.137 1908.98 328.409C1909.03 329.084 1909.06 329.524 1909.09 329.947C1908.83 330.058 1908.62 330.142 1908.4 330.231C1908.46 330.308 1908.53 330.458 1908.57 330.45C1909 330.36 1909.44 330.246 1909.97 330.114C1910.12 330.38 1910.31 330.704 1910.49 331.03C1910.39 331.141 1910.27 331.272 1910.15 331.414C1910.22 331.938 1910.85 332.399 1910.36 332.999C1910.22 332.871 1910.1 332.757 1909.97 332.64C1909.91 332.752 1909.79 332.87 1909.82 332.945C1909.88 333.157 1910.01 333.351 1910.15 333.626C1910.05 334.543 1909.31 335.153 1908.63 335.773C1907.99 336.359 1907.28 336.874 1906.45 337.538C1906.79 337.734 1907.09 337.905 1907.42 338.097C1907.21 338.496 1907.09 338.738 1906.96 338.991C1907.03 339.076 1907.15 339.202 1907.33 339.4C1906.93 339.462 1906.6 339.516 1906.13 339.594C1906.26 339.923 1906.37 340.203 1906.5 340.529H1905.29C1905.07 340.986 1904.87 341.386 1904.69 341.766C1904.86 341.952 1904.98 342.082 1905.16 342.268C1904.79 342.337 1904.46 342.398 1903.97 342.488C1904.09 342.796 1904.2 343.073 1904.32 343.402C1904.01 343.448 1903.68 343.497 1903.25 343.561C1903.38 343.904 1903.48 344.182 1903.65 344.643C1903.18 344.46 1902.84 344.327 1902.42 344.167C1902.23 344.538 1902.03 344.917 1901.84 345.285C1901.91 345.416 1901.93 345.56 1902.01 345.605C1902.16 345.683 1902.35 345.668 1902.49 345.748C1903.05 346.056 1903.18 346.772 1903.72 347.079C1904.31 347.41 1904.56 347.979 1904.94 348.485C1905.27 348.941 1905.52 349.325 1905.48 349.902C1905.47 350.1 1905.65 350.309 1905.76 350.556C1905.66 350.718 1905.52 350.95 1905.34 351.266C1904.85 351.323 1904.5 351.977 1903.6 351.631C1902.05 351.028 1900.43 350.487 1898.74 350.284C1898.64 350.272 1898.57 350.123 1898.41 349.969C1897.92 350.526 1897.43 351.079 1896.81 351.775C1896.8 351.84 1896.77 352.124 1896.73 352.431C1896.39 352.485 1896.06 352.538 1895.54 352.619C1895.88 353.096 1896.13 353.452 1896.51 353.984C1896.09 353.858 1895.8 353.775 1895.44 353.669C1895.36 353.758 1895.21 353.938 1895.05 354.133C1895.26 354.711 1895.09 355.065 1894.41 355.45C1894.21 356.179 1894.01 356.879 1893.85 357.463C1893.54 357.576 1893.37 357.639 1893.15 357.72L1893.55 358.116C1893.01 358.529 1892.39 358.864 1891.97 359.366C1891.59 359.819 1891.43 360.455 1891.14 361.096C1891.17 361.14 1891.29 361.318 1891.48 361.599C1891.08 362.009 1890.69 362.412 1890.31 362.799C1890.46 362.982 1890.56 363.117 1890.75 363.35C1890.49 363.653 1890.22 363.951 1889.93 364.283V365.337C1889.51 365.748 1889.07 366.164 1888.74 366.486" fill="black"/>
<path fill-rule="evenodd" clip-rule="evenodd" d="M1933.18 373.687C1934.01 374.696 1934.01 374.698 1935.03 374.139C1935.05 374.462 1935.04 374.744 1935.11 375.003C1935.16 375.187 1935.32 375.343 1935.42 375.5C1935.29 375.629 1935.21 375.714 1935.1 375.822C1935.35 375.94 1935.59 376.053 1935.99 376.238C1935.58 376.823 1935.19 377.375 1934.8 377.927C1935.3 378.824 1934.24 378.983 1934.09 379.463C1933.86 380.205 1932.96 380.365 1932.93 381.158C1932.9 382.083 1931.95 382.197 1931.54 382.736C1931.18 383.204 1930.55 383.51 1930.46 384.108C1930.61 384.352 1930.72 384.544 1930.9 384.862C1930.37 385.164 1929.9 385.428 1929.44 385.693L1928.31 386.225C1927.97 386.63 1927.62 387.034 1927.17 387.573V387.928C1926.01 388.775 1924.94 389.568 1923.68 390.488C1924.04 390.67 1924.26 390.781 1924.62 390.964C1924.12 391.659 1923.62 392.363 1923.08 393.119C1924.47 393.592 1925.77 394.038 1927.12 394.498C1926.99 394.765 1926.87 394.991 1926.72 395.297C1927.32 395.511 1927.88 395.711 1928.52 395.94V396.726C1928.93 397.096 1929.28 397.42 1929.64 397.757C1929.67 398.182 1929.69 398.587 1929.71 398.975L1930.36 399.629L1928.7 401.013C1928.31 401.449 1927.9 401.368 1927.46 401.077C1927.33 400.989 1927.14 400.939 1926.98 400.942C1925.11 400.983 1923.43 400.273 1921.73 399.652C1920.48 399.195 1919.27 398.61 1917.97 398.05C1917.62 398.404 1917.07 398.671 1917 399.4C1916.25 399.578 1915.48 399.761 1914.76 399.931C1914.39 399.555 1914.09 399.256 1913.79 398.955C1913.91 398.83 1914.02 398.702 1914.2 398.512C1914.02 398.139 1913.82 397.738 1913.71 397.5C1913.15 397.586 1912.66 397.663 1912.17 397.737C1911.91 397.21 1911.67 396.733 1911.42 396.246C1911.3 396.366 1911.22 396.451 1911.19 396.482C1910.79 396.076 1910.38 395.667 1909.83 395.103C1910 393.849 1909.2 392.409 1909.41 390.853C1909.46 390.527 1909.21 390.055 1908.95 389.809C1907.88 388.808 1907.83 387.362 1907.33 386.132C1907.14 385.662 1906.94 385.066 1906.92 384.498C1906.89 383.596 1906.79 382.67 1906.94 381.794C1907.19 380.409 1907.45 378.931 1909.06 378.386C1909.59 378.205 1910.18 378.186 1910.88 378.069V380.887C1911.5 380.493 1911.91 380.23 1912.52 379.836C1912.6 380.085 1912.7 380.382 1912.8 380.679C1912.89 380.61 1912.99 380.541 1913.08 380.472V382.135C1913.39 381.977 1913.61 381.863 1913.82 381.755C1914.59 382.425 1914.57 383.284 1914.46 384.167C1914.72 384.258 1914.93 384.332 1915.26 384.45C1915.12 384.837 1914.98 385.222 1914.81 385.686C1915.02 385.648 1915.12 385.66 1915.18 385.612C1915.32 385.501 1915.42 385.302 1915.57 385.244C1917.11 384.658 1917.89 383.017 1919.44 382.447C1919.75 381.325 1920.93 381.086 1921.62 380.33C1922.34 379.544 1923.36 379.032 1924.22 378.377C1925.06 377.742 1925.54 376.673 1926.63 376.337C1927.35 375.027 1928.39 374.035 1929.68 373.294C1929.63 372.407 1930.85 372.297 1930.82 371.361H1932.45C1932.57 371.477 1932.74 371.647 1932.91 371.818C1932.13 372.206 1931.84 372.959 1931.35 373.756C1932.42 373.979 1933.05 372.665 1934.06 373.271C1933.77 373.409 1933.53 373.522 1933.18 373.687" fill="black"/>
<path fill-rule="evenodd" clip-rule="evenodd" d="M1936.82 319.132C1936.2 319.28 1935.66 319.412 1934.89 319.596C1934.09 319.011 1933.15 318.283 1932.17 317.599C1931 316.783 1929.99 315.744 1928.66 315.17C1928.35 315.037 1928.03 314.941 1927.6 314.787C1927.08 314.01 1927.02 312.567 1925.5 312.726C1924.81 312.096 1924.73 311.003 1923.72 310.897C1923.39 310.336 1923.18 309.694 1922.75 309.293C1920.78 307.461 1919.35 305.26 1918.12 302.605C1918.01 301.786 1918.01 300.693 1917.83 299.597C1917.56 297.871 1918.48 296.389 1919.97 295.432C1920.38 295.169 1920.6 294.589 1921.28 294.65C1921.76 294.693 1922.26 294.44 1922.9 294.284C1923.08 294.451 1923.33 294.672 1923.65 294.95C1923.14 295.805 1922.17 296.345 1922.1 297.494C1923.23 297.873 1923.74 296.613 1924.88 296.468C1925.02 296.592 1925.27 296.812 1925.5 297.02C1925.1 297.627 1924.82 298.035 1924.32 298.787C1925.1 298.54 1925.66 298.536 1925.86 298.267C1926.38 297.584 1927.22 297.311 1927.7 296.551C1928.15 295.844 1928.9 295.318 1929.66 294.825C1930.73 294.128 1931.6 293.127 1932.6 292.317C1934.08 291.127 1935.47 289.824 1937.11 288.834C1937.76 288.444 1938.25 287.764 1938.79 287.198C1939.28 286.682 1940.06 286.457 1940.21 285.688H1942.64V287.256C1942.58 287.324 1942.34 287.557 1942.06 287.838C1942.38 287.781 1942.71 287.735 1943.02 287.664C1943.34 287.591 1943.66 287.493 1944.14 287.359C1944.07 288.526 1944.13 289.559 1944.97 290.312C1944.79 290.551 1944.69 290.688 1944.49 290.964C1944.74 291.106 1945.04 291.269 1945.6 291.573C1945.02 291.729 1944.83 291.782 1944.57 291.855C1944.67 292.086 1944.8 292.301 1944.85 292.535C1944.9 292.765 1944.86 293.014 1944.86 293.25C1944.19 294.17 1943.52 295.09 1942.78 296.099C1942.65 296.115 1942.36 296.146 1941.95 296.192C1942.07 296.366 1942.15 296.476 1942.25 296.618C1942.15 296.876 1942.03 297.163 1941.89 297.482C1940.3 297.405 1940.29 299.044 1939.31 299.682C1939.51 299.956 1939.62 300.091 1939.67 300.154C1939.01 300.808 1938.35 301.468 1937.68 302.134C1937.74 302.183 1937.65 302.106 1937.69 302.139C1937.39 302.435 1937.09 302.741 1936.78 303.048C1936.68 302.97 1936.58 302.894 1936.48 302.816V303.767C1936.27 303.595 1936.15 303.494 1935.88 303.269C1935.94 303.675 1935.98 303.944 1936.04 304.323C1935.58 304.908 1935.04 305.611 1934.45 306.373C1934.19 306.179 1934.01 306.046 1933.85 305.928C1933.2 306.689 1932.53 307.469 1931.86 308.256C1932.12 308.385 1932.36 308.504 1932.7 308.677C1932.38 309.088 1932.1 309.442 1931.84 309.774C1931.88 309.92 1931.88 310.055 1931.95 310.131C1933.05 311.365 1934.35 312.468 1935.21 313.85C1936.18 315.406 1937.39 317.013 1936.82 319.132" fill="black"/>
<path fill-rule="evenodd" clip-rule="evenodd" d="M1856.22 272.592C1855.77 272.648 1855.5 272.681 1855.16 272.724C1855.37 272.954 1855.48 273.085 1855.67 273.295C1855.23 274.129 1854.38 274.629 1853.8 275.359L1854.08 275.641C1853.62 276.002 1853.16 276.362 1852.77 276.669C1852.56 277.238 1853.02 277.88 1852.26 278.233C1852.93 278.684 1853.55 279.087 1854.15 279.504C1856.05 280.815 1858.08 281.939 1859.64 283.704C1860.54 284.715 1861.38 285.691 1861.39 287.142C1861.4 287.387 1861.65 287.628 1861.84 287.986C1861.3 288.332 1860.79 288.654 1860.15 289.059C1856.54 286.946 1852.81 285.063 1849.39 282.303C1849.15 282.443 1848.61 282.561 1848.51 282.836C1848.12 283.925 1847.36 284.69 1846.57 285.47C1846.48 285.565 1846.51 285.791 1846.49 285.958C1846.15 285.995 1845.87 286.026 1845.44 286.074C1845.52 286.359 1845.59 286.602 1845.71 287.026C1845.02 287.609 1844.5 288.475 1844.23 289.551C1844.07 290.176 1843.47 290.688 1842.93 291.443V295.369C1842.59 295.391 1842.3 295.409 1841.98 295.43C1841.91 295.625 1841.84 295.835 1841.75 296.086H1840.5C1840.31 295.521 1840.11 294.942 1839.88 294.275C1839.53 294.427 1839.19 294.579 1838.77 294.76C1838.69 294.498 1838.62 294.292 1838.56 294.087C1838.45 294.044 1838.34 293.95 1838.25 293.967C1837.48 294.113 1836.96 293.466 1836.87 293.054C1836.48 291.379 1835.4 289.723 1836.44 287.925C1836.46 286.144 1837.56 284.785 1838.19 283.236C1838.4 282.73 1839.28 282.819 1839.04 281.946C1838.94 281.587 1839.59 281.017 1839.91 280.55C1840.2 280.127 1840.48 279.688 1840.81 279.301C1841.2 278.847 1841.68 278.467 1842.07 278.011C1842.4 277.631 1842.65 277.188 1842.96 276.721C1840.77 275.072 1839.42 272.729 1837.89 270.545C1837.39 268.431 1836.54 266.378 1836.87 263.904C1837.38 263.32 1838.03 262.572 1838.73 261.77C1839.5 261.929 1840.37 261.449 1841.08 262.256C1840.62 262.88 1840.16 263.499 1839.69 264.126C1839.82 264.261 1839.94 264.388 1840.06 264.513C1841.04 264.715 1841.4 263.288 1842.42 263.619C1842.57 263.914 1842.72 264.21 1842.88 264.518C1842.57 264.72 1842.21 264.952 1841.83 265.194C1842.06 265.426 1842.23 265.597 1842.4 265.767C1842.91 265.237 1843.41 265.231 1844.01 265.955C1843.95 266.358 1844.27 266.942 1843.66 267.411C1843.91 267.532 1844.16 267.65 1844.51 267.817C1844.22 268.205 1843.97 268.548 1843.7 268.9C1843.95 268.987 1844.16 269.06 1844.6 269.216C1844.19 269.325 1844 269.376 1843.67 269.466C1843.7 269.759 1843.63 270.161 1843.8 270.386C1844.49 271.316 1845.25 272.192 1846.07 273.187C1846.52 272.783 1846.87 272.482 1847.2 272.17C1849.18 270.327 1850.84 268.116 1853.29 266.811C1853.27 266.132 1853.99 266.18 1854.29 265.816C1854.64 265.404 1855.02 265.025 1855.27 264.76H1856.49C1855.94 265.57 1855 266.028 1855.3 267.195C1856.09 266.728 1856.86 266.27 1857.79 265.712C1857.71 266.247 1857.64 266.659 1857.57 267.128C1857.9 267.293 1858.38 267.54 1858.91 267.804C1858.77 268.083 1858.66 268.315 1858.53 268.587C1858.72 268.627 1858.88 268.661 1859.05 268.697C1859.07 268.767 1859.14 268.887 1859.11 268.931C1858.67 269.525 1858.08 270.05 1857.8 270.708C1857.45 271.533 1856.67 271.905 1856.22 272.592" fill="black"/>
<path fill-rule="evenodd" clip-rule="evenodd" d="M1889.2 291.036C1890.64 289.27 1891.86 287.801 1893.05 286.313C1894.18 284.903 1895.14 283.38 1896.02 281.82C1895.91 281.681 1895.8 281.547 1895.61 281.318C1895.92 280.971 1896.22 280.626 1896.54 280.261H1897.73C1898.18 280.706 1898.54 281.342 1899.05 281.504C1899.67 281.702 1899.76 282.199 1900.01 282.571C1900.88 283.858 1901.48 285.165 1900.82 286.843C1900.4 287.874 1899.99 288.907 1899.56 289.934C1899.43 290.243 1899.34 290.567 1899.17 291.038L1898.26 291.951V293.088C1897.55 294.382 1896.95 295.461 1896.3 296.64C1897.2 297.251 1898.03 297.84 1898.88 298.39C1900.57 299.48 1901.97 300.834 1902.81 302.693C1902.99 303.094 1903.07 303.538 1903.26 304.163C1903.19 304.306 1903.03 304.656 1902.86 305.04C1902.49 305.214 1902.09 305.401 1901.77 305.547C1900.92 305.254 1900.17 305.034 1899.45 304.736C1898.73 304.437 1898.05 304.06 1897.35 303.717C1897.23 302.671 1896.04 303.094 1895.55 302.382C1895.14 301.798 1894.25 301.554 1893.46 301.097C1891.11 303.499 1889.03 306.124 1887.13 308.888C1886.98 309.1 1887.03 309.445 1886.99 309.728C1886.16 310.367 1885.34 310.269 1884.51 309.689V309.115C1883.45 308.474 1882.44 307.874 1881.35 307.216C1880.82 306.601 1881.09 305.635 1880.75 304.888C1880.37 304.056 1880.69 303.25 1880.54 302.638C1881.74 299.974 1883.15 297.64 1885.18 295.626V294.397C1884.01 293.581 1883.28 292.31 1882.54 291.063C1882.3 290.644 1882.26 290.099 1882.14 289.607C1881.91 288.606 1881.57 287.638 1881.6 286.576C1881.66 284.543 1882.81 283.092 1884.75 282.363C1885.98 281.903 1887.17 282.134 1888.48 282.005C1887.78 283.471 1886.08 283.346 1885.09 284.575C1886.8 284.5 1887.84 282.888 1889.58 283.196C1889.52 283.607 1889.45 284.018 1889.38 284.451C1889.7 284.564 1890.17 284.73 1890.62 284.891V287.185C1890.15 287.997 1889.64 288.806 1889.23 289.663C1889.09 289.938 1889.2 290.334 1889.2 291.036" fill="black"/>
<path fill-rule="evenodd" clip-rule="evenodd" d="M1919.74 268.543C1919.06 269.391 1918.45 270.166 1917.76 271.022V273.341C1917.13 273.596 1916.51 273.845 1915.81 274.125C1914.99 273.323 1914.65 272.26 1914.39 271.255C1914.03 271.387 1913.72 271.503 1913.26 271.675C1912.89 271.151 1912.45 270.688 1912.21 270.136C1911.49 268.484 1911.55 266.721 1911.63 265.061C1911.93 264.377 1912.2 263.766 1912.53 263.004C1912.03 262.929 1911.59 262.998 1911.4 262.813C1910.24 261.633 1909.08 260.432 1908.01 259.165C1907.44 258.481 1906.83 257.708 1906.6 256.875C1906.26 255.656 1906.26 254.346 1906.1 252.985C1906.65 252.212 1907.1 251.306 1907.79 250.682C1908.44 250.108 1909.35 249.838 1910.34 249.333C1910.57 249.583 1910.79 249.825 1911.02 250.071C1910.89 250.198 1909.12 251.897 1909.12 251.897C1909.25 252.025 1909.38 252.153 1909.57 252.341C1910.38 251.752 1911.18 250.981 1912.49 251.489C1912.17 251.936 1911.91 252.283 1911.47 252.893C1912.07 252.658 1912.41 252.528 1912.87 252.346C1913.09 252.677 1913.33 253.033 1913.62 253.465C1913.12 253.964 1912.73 254.356 1912.25 254.829C1912.56 254.891 1912.72 254.925 1913 254.982C1912.59 255.672 1912.82 256.627 1911.76 256.979C1912.81 258.268 1913.98 258.978 1915.16 259.764C1919.14 256.461 1923.04 253.23 1926.99 249.955H1928.73C1928.43 250.568 1928.18 251.056 1927.94 251.55C1928.46 251.95 1928.87 251.501 1929.34 251.3C1930.68 252.55 1930.99 254.111 1930.72 255.852C1930.16 256.567 1929.59 257.3 1929.01 258.049C1929.04 258.083 1929.13 258.164 1929.37 258.385C1929.05 258.426 1928.74 258.466 1928.43 258.505C1928.55 258.635 1928.67 258.766 1928.79 258.896H1928.12C1926.88 261.227 1924.79 262.812 1923.26 264.935C1925.36 266.105 1927.71 266.976 1929.93 268.3C1930 268.634 1930.07 269.013 1930.16 269.461C1930.43 269.172 1930.64 268.956 1930.84 268.747C1931.73 268.867 1931.71 269.896 1932.46 270.272C1933.12 270.602 1933.5 271.478 1934.02 272.121V274.266C1933.84 274.44 1933.67 274.61 1933.43 274.849C1931.57 274.65 1930.03 273.59 1928.34 272.732C1928.31 272.763 1928.18 272.877 1928.12 272.927C1926.94 272.634 1926.23 271.362 1924.86 271.552C1924.23 270.733 1923.18 270.669 1922.36 270.186C1921.54 269.698 1920.74 269.169 1919.74 268.543" fill="black"/>
<path fill-rule="evenodd" clip-rule="evenodd" d="M1863.69 315.971C1863.89 316.175 1864.07 316.346 1864.31 316.587C1863.2 317.534 1862.1 318.474 1861 319.416C1861.02 319.48 1861.05 319.543 1861.07 319.606C1861.31 319.538 1861.59 319.532 1861.76 319.389C1862.08 319.122 1862.33 318.777 1862.77 318.691C1863.54 318.256 1864.31 317.82 1865.06 317.396C1865.72 317.925 1865.24 318.343 1864.96 318.985C1865.39 318.823 1865.66 318.718 1865.96 318.604C1866.09 318.734 1866.26 318.904 1866.43 319.075C1866.43 319.797 1866.43 320.519 1866.43 321.25C1866.22 321.455 1866.01 321.666 1865.78 321.887C1865.82 321.971 1865.82 322.086 1865.89 322.131C1866.3 322.439 1866.71 322.751 1867.14 323.026C1867.61 323.32 1868.26 323.405 1868.28 324.158C1868.28 324.245 1868.42 324.343 1868.52 324.411C1868.89 324.673 1869.33 324.871 1869.63 325.195C1869.93 325.518 1870.1 325.962 1870.41 326.484C1870.41 326.79 1870.41 327.272 1870.41 327.753C1870.11 328.051 1869.81 328.349 1869.56 328.598C1867.29 327.784 1865.03 326.979 1862.78 326.175C1862.28 326.442 1861.74 326.729 1861.2 327.016C1861.18 326.979 1861.16 326.943 1861.14 326.906C1860.67 327.374 1860.2 327.843 1859.6 328.441C1859.59 328.583 1859.57 328.863 1859.55 329.22C1858.6 330.132 1857.61 331.088 1856.81 331.859C1856.41 333.107 1856.61 334.388 1854.95 334.651C1854.61 334.101 1853.37 334.013 1853.65 332.731C1853.31 332.632 1852.89 332.51 1852.43 332.377C1852.33 332.447 1852.14 332.572 1852 332.668C1851.53 332.177 1851.13 331.746 1850.54 331.121C1850.4 329.994 1850.24 328.552 1850.06 327.034C1851.56 325.411 1853.04 323.812 1854.61 322.115C1853.99 321.731 1853.36 321.41 1852.82 320.976C1852.26 320.526 1851.78 319.967 1851.26 319.442C1851.4 318.973 1851.55 318.496 1851.71 317.98C1851.42 317.879 1851.21 317.807 1850.95 317.716V316.496C1851.05 316.395 1851.17 316.267 1851.32 316.119C1851.84 316.016 1852.38 315.908 1853.05 315.774C1854.84 316.776 1856.79 317.872 1858.69 318.936C1860.59 318.212 1861.83 316.542 1863.69 315.971" fill="black"/>
<path fill-rule="evenodd" clip-rule="evenodd" d="M1816.39 1061.61C1816.33 1061.77 1816.27 1061.92 1816.21 1062.08C1816.89 1062.36 1817.56 1062.64 1818.24 1062.92C1818.31 1062.73 1818.38 1062.55 1818.45 1062.36C1817.76 1062.11 1817.08 1061.86 1816.39 1061.61V1061.61ZM1954.12 1152.94C1954.24 1152.8 1954.36 1152.67 1954.47 1152.53C1953.88 1151.94 1953.3 1151.34 1952.69 1150.77C1952.64 1150.72 1952.38 1150.8 1952.31 1150.89C1952.22 1151 1952.13 1151.28 1952.19 1151.33C1952.81 1151.89 1953.47 1152.41 1954.12 1152.94V1152.94ZM1962.25 1130.94C1962.16 1131.04 1962.07 1131.14 1961.98 1131.25C1962.87 1132.01 1963.76 1132.76 1964.65 1133.52C1964.75 1133.4 1964.86 1133.27 1964.97 1133.14L1962.25 1130.94ZM1947.72 1285.75L1947.78 1285.66C1947.04 1284.75 1946.29 1283.84 1945.54 1282.94C1945.42 1282.8 1945.29 1282.65 1945.13 1282.55C1945.09 1282.52 1944.95 1282.63 1944.85 1282.67C1944.95 1282.84 1945.02 1283.04 1945.16 1283.17C1946 1284.04 1946.86 1284.89 1947.72 1285.75V1285.75ZM1910.14 1141.39C1910.07 1141.48 1909.99 1141.58 1909.92 1141.67C1911.01 1142.56 1912.11 1143.44 1913.2 1144.33C1913.28 1144.23 1913.36 1144.14 1913.44 1144.04C1912.34 1143.16 1911.24 1142.27 1910.14 1141.39V1141.39ZM1861.33 1038.35C1861.39 1038.18 1861.46 1038.01 1861.52 1037.83C1860.35 1037.48 1859.18 1037.13 1858.01 1036.77C1857.95 1036.97 1857.9 1037.17 1857.84 1037.37C1859 1037.69 1860.17 1038.02 1861.33 1038.35V1038.35ZM1982.42 1093.53C1982.35 1093.71 1982.27 1093.9 1982.2 1094.09C1982.91 1094.55 1983.61 1095.04 1984.35 1095.46C1984.5 1095.55 1984.83 1095.41 1985.02 1095.28C1985.08 1095.24 1985.02 1094.8 1984.91 1094.74C1984.09 1094.3 1983.25 1093.92 1982.42 1093.53V1093.53ZM1926 1228.84C1926.1 1228.7 1926.2 1228.57 1926.3 1228.44C1924.72 1227.15 1923.13 1225.87 1921.55 1224.58C1921.46 1224.69 1921.36 1224.8 1921.27 1224.91C1922.85 1226.22 1924.43 1227.53 1926 1228.84V1228.84ZM1956.21 1248.52C1956.08 1248.65 1955.95 1248.78 1955.81 1248.91L1958.98 1252.47C1959.13 1252.33 1959.27 1252.2 1959.41 1252.06C1958.35 1250.88 1957.28 1249.7 1956.21 1248.52V1248.52ZM1965.16 1202.15C1965.26 1202.01 1965.35 1201.88 1965.44 1201.74C1964.12 1200.66 1962.8 1199.57 1961.48 1198.49C1961.35 1198.66 1961.23 1198.82 1961.1 1198.99C1962.46 1200.04 1963.81 1201.09 1965.16 1202.15V1202.15ZM1995.31 1104.43L1995.62 1104.13C1994.65 1103.3 1993.7 1102.46 1992.69 1101.68C1992.55 1101.57 1992.17 1101.75 1991.9 1101.8C1992 1102.01 1992.05 1102.31 1992.22 1102.42C1993.24 1103.11 1994.28 1103.76 1995.31 1104.43V1104.43ZM1955.95 1116.56C1956.01 1116.47 1956.07 1116.38 1956.12 1116.29C1954.34 1115.11 1952.55 1113.92 1950.76 1112.74C1950.66 1112.9 1950.57 1113.05 1950.47 1113.21C1952.3 1114.32 1954.12 1115.44 1955.95 1116.56V1116.56ZM1874.44 1052.19C1874.47 1052.04 1874.51 1051.89 1874.55 1051.74L1866.37 1047.9C1866.3 1048.05 1866.23 1048.2 1866.16 1048.34C1868.92 1049.62 1871.68 1050.91 1874.44 1052.19V1052.19ZM1837.54 1160.66C1838 1159.58 1837.47 1158.01 1836.67 1157.71C1836.43 1157.62 1836.26 1157.35 1836.04 1157.18C1835.75 1156.95 1835.45 1156.74 1835.15 1156.53C1835.14 1156.91 1834.99 1157.39 1835.16 1157.65C1835.87 1158.66 1836.68 1159.59 1837.54 1160.66V1160.66ZM1941.73 1174.82C1941.63 1174.9 1941.54 1174.98 1941.44 1175.06L1947.02 1180.64C1947.11 1180.55 1947.19 1180.46 1947.27 1180.37L1941.73 1174.82ZM1926.85 1241.57C1926.81 1241.61 1926.77 1241.65 1926.73 1241.69L1937.53 1252.5C1937.58 1252.46 1937.62 1252.42 1937.66 1252.38L1926.85 1241.57ZM1997.54 1105.62L1997.05 1106.15C1998.38 1107.66 1999.7 1109.19 2001.06 1110.68C2001.21 1110.84 2001.62 1110.76 2001.91 1110.79C2001.93 1110.51 2002.09 1110.09 2001.95 1109.96C2000.51 1108.49 1999.02 1107.06 1997.54 1105.62V1105.62ZM1926.97 1318.07C1926.91 1318.12 1926.85 1318.17 1926.79 1318.22C1930.64 1321.16 1934.48 1324.11 1938.35 1327.01C1938.77 1327.33 1939.39 1327.38 1939.91 1327.55C1939.52 1327.33 1939.13 1327.1 1938.74 1326.88C1938.69 1326.85 1938.66 1326.8 1938.61 1326.77C1934.73 1323.87 1930.85 1320.97 1926.97 1318.07V1318.07ZM1840.58 1056.83C1839.18 1055.04 1833.06 1052.65 1831.83 1053.32C1834.7 1054.47 1837.45 1055.57 1840.58 1056.83V1056.83ZM1840.24 1049.81C1839.2 1049.14 1837.63 1051.05 1837.11 1048.88C1836.9 1048.95 1836.71 1049.03 1836.5 1049.1C1836.4 1049.14 1836.29 1049.18 1836.19 1049.17C1835.99 1049.13 1835.66 1048.97 1835.64 1049.01C1835.51 1049.22 1835.32 1049.57 1835.4 1049.71C1835.72 1050.21 1836.04 1050.81 1836.53 1051.06C1838.21 1051.96 1838.76 1051.73 1840.24 1049.81V1049.81ZM1998.5 1260.03C1998.67 1259.81 1998.84 1259.59 1999 1259.37C1995.82 1256.8 1992.63 1254.22 1989.44 1251.65C1989.36 1251.74 1989.28 1251.83 1989.2 1251.92C1992.3 1254.63 1995.4 1257.33 1998.5 1260.03V1260.03ZM1949.23 1173.92C1949.37 1173.78 1949.52 1173.64 1949.67 1173.5C1945.46 1169.01 1941.26 1164.52 1937.05 1160.03C1941.14 1164.63 1944.72 1169.71 1949.23 1173.92V1173.92ZM1952 1141.06C1951.89 1141.16 1951.78 1141.27 1951.67 1141.37C1951.95 1141.71 1952.23 1142.05 1952.52 1142.37C1954.55 1144.59 1956.55 1146.83 1958.62 1149.01C1959 1149.4 1959.9 1149.9 1960.08 1149.75C1960.86 1149.14 1960.61 1148.42 1959.89 1147.81C1957.25 1145.57 1954.63 1143.31 1952 1141.06V1141.06ZM1830.65 1020.79C1830.69 1021.01 1830.74 1021.22 1830.78 1021.44L1849.61 1017.04C1848.09 1017.02 1846.57 1017.19 1845.04 1017.33C1844.62 1017.36 1843.69 1017.97 1844.12 1016.7C1843.95 1016.66 1843.75 1016.54 1843.6 1016.59C1843.39 1016.65 1843.06 1016.93 1843.06 1016.94C1843.7 1017.96 1842.74 1017.73 1842.33 1017.83C1838.44 1018.83 1834.54 1019.81 1830.65 1020.79V1020.79ZM1966.65 1267.29C1966.74 1267.2 1966.83 1267.11 1966.92 1267.02L1947.85 1249.01C1947.67 1249.21 1947.49 1249.41 1947.3 1249.61C1953.75 1255.5 1960.2 1261.4 1966.65 1267.29V1267.29ZM2037.82 1196.87C2037.92 1196.8 2038.02 1196.73 2038.13 1196.66C2038.02 1195.05 2037.56 1193.36 2037.89 1191.85C2038.45 1189.39 2038.18 1187.01 2037.94 1184.59C2037.92 1184.42 2037.7 1184.27 2037.57 1184.11C2037.41 1184.28 2037.13 1184.44 2037.1 1184.64C2036.57 1188.38 2035.44 1192.13 2037.23 1195.85C2037.4 1196.2 2037.62 1196.53 2037.82 1196.87V1196.87ZM1999.36 1269.63C1992.2 1264 1985.45 1258.69 1978.71 1253.38C1984.8 1259.55 1991.27 1265.22 1999.36 1269.63V1269.63ZM1960.34 1225.69C1960.64 1225.9 1960.85 1226.09 1961.1 1226.2C1961.48 1226.38 1961.88 1226.52 1962.28 1226.67C1962.17 1226.22 1962.19 1225.66 1961.92 1225.35C1958.63 1221.5 1955.31 1217.68 1951.97 1213.87C1951.8 1213.68 1951.31 1213.53 1951.12 1213.64C1950.92 1213.75 1950.72 1214.31 1950.83 1214.46C1951.54 1215.46 1952.28 1216.43 1953.1 1217.34C1954 1218.34 1955.07 1219.2 1955.94 1220.23C1957.48 1222.03 1958.92 1223.92 1960.34 1225.69V1225.69ZM1985.77 1250.3C1985.46 1249.86 1985.21 1249.35 1984.83 1248.98C1980.29 1244.49 1975.74 1240.02 1971.15 1235.57C1970.84 1235.27 1970.28 1235.23 1969.83 1235.06C1969.99 1235.49 1970.06 1236 1970.34 1236.33C1974.92 1241.56 1980.12 1246.14 1985.77 1250.3V1250.3ZM1930.56 1129.43C1930.37 1129.66 1930.18 1129.89 1930 1130.12C1931.94 1131.78 1933.9 1133.44 1935.84 1135.12C1936.72 1135.89 1937.59 1136.66 1938.39 1137.51C1939.47 1138.65 1940.37 1139.95 1941.52 1141.01C1943.52 1142.85 1945.7 1144.51 1947.7 1146.36C1948.67 1147.25 1949.35 1148.44 1950.24 1149.42C1950.45 1149.66 1950.94 1149.65 1951.3 1149.75C1951.32 1149.52 1951.46 1149.2 1951.36 1149.05C1950.75 1148.17 1950.16 1147.25 1949.43 1146.48C1948.23 1145.24 1946.91 1144.12 1945.68 1142.91C1944.19 1141.46 1942.76 1139.92 1941.25 1138.49C1939.63 1136.95 1937.97 1135.46 1936.27 1134.02C1934.4 1132.44 1932.47 1130.95 1930.56 1129.43V1129.43ZM1938.04 1116.15C1938.48 1116.74 1938.81 1117.5 1939.39 1117.9C1944.9 1121.66 1950.48 1125.32 1955.99 1129.09C1958.56 1130.86 1960.99 1132.84 1963.5 1134.7C1963.71 1134.85 1964.06 1134.8 1964.34 1134.84C1964.3 1134.58 1964.34 1134.26 1964.2 1134.06C1963.99 1133.74 1963.69 1133.47 1963.38 1133.23C1959.76 1130.52 1956.15 1127.79 1952.51 1125.12C1950.5 1123.65 1948.49 1122.16 1946.38 1120.87C1943.7 1119.22 1940.9 1117.76 1938.04 1116.15V1116.15ZM1888.58 1036.2C1896.67 1042.12 1904.76 1048.03 1912.85 1053.95C1906.15 1046.12 1897.69 1040.71 1888.58 1036.2V1036.2ZM1937.39 1124.19L1937.03 1124.67C1937.37 1124.98 1937.67 1125.34 1938.05 1125.59C1939.79 1126.71 1941.62 1127.69 1943.28 1128.9C1949.54 1133.49 1955.75 1138.15 1962 1142.76C1962.2 1142.91 1962.56 1142.85 1962.85 1142.89C1962.79 1142.6 1962.84 1142.19 1962.66 1142.03C1960.67 1140.25 1958.78 1138.34 1956.62 1136.81C1951.96 1133.49 1947.17 1130.34 1942.39 1127.17C1940.78 1126.1 1939.06 1125.18 1937.39 1124.19V1124.19ZM2000.78 1279.12C1988.98 1271.4 1978.33 1262.22 1967.69 1253.03C1977.58 1263.17 1988.17 1272.43 2000.78 1279.12V1279.12ZM1938.4 1128.43C1938.93 1129.11 1939.1 1129.49 1939.39 1129.66C1942.07 1131.25 1943.56 1134.18 1946.7 1135.43C1949.05 1136.36 1950.9 1138.56 1952.92 1140.27C1953.34 1140.63 1953.51 1141.29 1953.8 1141.81C1955.73 1140.61 1955.15 1144.08 1956.98 1143.53C1957.36 1143.42 1958.16 1145.05 1958.91 1145.71C1959.34 1146.07 1960.07 1146.09 1960.66 1146.26C1960.63 1145.78 1960.79 1145.14 1960.54 1144.84C1959.81 1143.95 1958.95 1143.15 1958.07 1142.41C1952.04 1137.3 1945.61 1132.76 1938.4 1128.43V1128.43ZM1971.25 1273.29C1971.35 1273.19 1971.44 1273.08 1971.54 1272.97C1970.39 1271.97 1969.21 1271 1968.1 1269.95C1961.05 1263.29 1954.04 1256.59 1946.96 1249.98C1946.17 1249.24 1944.98 1248.92 1943.97 1248.4C1943.87 1248.59 1943.76 1248.78 1943.66 1248.97C1952.18 1257.84 1961.5 1265.82 1971.25 1273.29V1273.29ZM2022.11 1116.47C2001.27 1097.41 1979.42 1079.67 1954.87 1065.45C1979.11 1080.07 2000.78 1098.05 2022.11 1116.47V1116.47ZM2023.44 1132.68C2023.54 1132.58 2023.64 1132.48 2023.74 1132.38C2022.93 1130.93 2022.12 1129.47 2021.28 1128.03C2021.21 1127.92 2020.95 1127.92 2020.85 1127.81C2019.4 1126.29 2017.96 1124.75 2016.52 1123.22C2016.05 1122.71 2015.58 1122.2 2015.12 1121.68C2014.28 1120.73 2013.51 1119.7 2012.59 1118.84C2011.4 1117.72 2010.1 1116.72 2008.83 1115.68C2007.73 1114.79 2006.62 1113.89 2005.48 1113.04C2004.92 1112.63 2004.28 1112.31 2003.65 1111.99C2003.45 1111.89 2003.05 1111.85 2002.96 1111.97C2002.82 1112.13 2002.79 1112.51 2002.89 1112.69C2003.09 1113.02 2003.41 1113.28 2003.69 1113.55C2005.39 1115.18 2007.12 1116.79 2008.8 1118.45C2009.89 1119.51 2010.86 1120.69 2011.94 1121.75C2013.51 1123.31 2015.13 1124.81 2016.73 1126.32C2018.97 1128.44 2021.2 1130.56 2023.44 1132.68V1132.68ZM1933.56 1267.68C1933.5 1267.74 1933.44 1267.79 1933.38 1267.84C1934.1 1268.9 1934.71 1270.05 1935.55 1271C1939.64 1275.62 1944.36 1279.6 1949 1283.65C1950.76 1285.19 1952.28 1287.01 1954 1288.62C1955.03 1289.59 1956.16 1291 1957.35 1291.11C1958.45 1291.22 1959.05 1291.67 1959.69 1292.23C1960.29 1292.75 1960.62 1293.61 1961.24 1294.09C1961.98 1294.66 1962.91 1294.99 1963.77 1295.43C1963.98 1295.54 1964.21 1295.64 1964.43 1295.74C1964.42 1295.43 1964.55 1295 1964.39 1294.83C1963.73 1294.15 1963.01 1293.55 1962.28 1292.94C1957.46 1288.86 1952.56 1284.86 1947.82 1280.69C1942.99 1276.45 1938.31 1272.03 1933.56 1267.68V1267.68ZM1956.59 1246.96C1960.1 1253.01 1984.55 1275.06 1993.37 1277.82C1992.9 1277.45 1992.6 1277.21 1992.3 1276.98C1986.29 1272.32 1980.14 1267.83 1974.3 1262.97C1968.9 1258.46 1963.45 1253.96 1958.98 1248.44C1958.51 1247.85 1957.64 1247.59 1956.59 1246.96V1246.96ZM1924.55 1241.51C1936.16 1255.37 1950.75 1269.61 1966.26 1281.4C1952.27 1268.02 1937.54 1253.93 1924.55 1241.51V1241.51ZM1964.51 1290.4C1957.71 1284.37 1950.86 1278.58 1944.34 1272.43C1937.77 1266.24 1931.53 1259.71 1925.15 1253.32C1925.03 1253.44 1924.92 1253.55 1924.81 1253.67C1926.56 1258.68 1957.9 1287.71 1964.51 1290.4V1290.4ZM2037.78 1176.4C2037.88 1177.31 2037.99 1178.21 2038.13 1179.47C2038.7 1178.25 2039.08 1177.44 2039.41 1176.74C2038.86 1176.63 2038.29 1176.51 2037.72 1176.39C2039.29 1175.68 2039.7 1174.84 2038.52 1172.99C2038.25 1174.19 2038 1175.29 2037.78 1176.4V1176.4ZM1828.4 1156.85C1828.12 1156.49 1827.83 1156.14 1827.54 1155.78C1827.27 1155.44 1827.02 1155.07 1826.71 1154.77C1826.47 1154.52 1825.98 1154.11 1825.88 1154.18C1824.99 1154.82 1824.38 1155.15 1823.79 1153.73C1823.53 1153.1 1822.49 1152.73 1821.74 1152.4C1820.73 1151.96 1820.97 1151.6 1821.63 1151.04C1821.83 1150.87 1821.81 1150.43 1821.9 1150.12C1821.67 1150.16 1821.42 1150.28 1821.23 1150.22C1820.41 1149.94 1819.38 1149.83 1818.83 1149.26C1816.74 1147.12 1814.95 1144.69 1812.8 1142.63C1809.57 1139.54 1806.01 1136.79 1802.81 1133.67C1796.41 1127.42 1788.73 1122.5 1783.44 1115.13C1781.29 1112.13 1778.97 1109.18 1777.36 1105.9C1775.81 1102.73 1774.97 1099.19 1774 1095.77C1772.43 1090.24 1771.14 1084.65 1771.26 1078.85C1771.43 1071.13 1772.15 1063.52 1775.51 1056.39C1776.86 1053.51 1777.94 1050.5 1779.42 1047.7C1780.46 1045.75 1781.67 1043.7 1783.33 1042.33C1786.16 1039.98 1788.06 1036.99 1790.15 1034.11C1797 1024.67 1805.96 1017.94 1816.56 1013.26C1822.91 1010.45 1829.44 1008.18 1836.19 1006.52C1845.23 1004.3 1854.38 1003.56 1863.64 1004.55C1868.49 1005.06 1873.31 1005.73 1877.89 1007.68C1882.85 1009.78 1888.04 1011.35 1892.92 1013.61C1900.93 1017.33 1908.76 1021.5 1915.12 1027.8C1919.74 1032.36 1924.04 1037.25 1928.54 1041.93C1931.14 1044.63 1933.87 1047.19 1936.5 1049.85C1942.04 1055.47 1948.94 1059.17 1955.57 1063.16C1969.69 1071.66 1983.26 1080.91 1995.95 1091.45C2003.61 1097.82 2011.53 1103.91 2018.91 1110.58C2028.88 1119.59 2036.9 1130.12 2041.05 1143.13C2043.24 1150.01 2043.86 1157.15 2043.86 1164.36C2043.86 1170.88 2044.3 1177.41 2044.04 1183.92C2043.85 1188.82 2044.76 1193.53 2045.45 1198.29C2045.94 1201.63 2046.79 1204.92 2047.58 1208.2C2049.62 1216.6 2054.02 1223.97 2057.72 1231.66C2060.52 1237.49 2063 1243.47 2065.58 1249.4C2065.73 1249.75 2065.47 1250.27 2065.42 1250.71C2065.41 1250.82 2065.43 1250.98 2065.5 1251.06C2066.6 1252.15 2066.85 1253.45 2066.84 1254.99C2066.83 1256 2067.66 1257 2067.77 1258.04C2068.26 1262.81 2068.99 1267.59 2068.93 1272.36C2068.87 1276.5 2068.14 1280.7 2067.2 1284.75C2066.24 1288.87 2064.9 1292.95 2063.3 1296.87C2061.68 1300.84 2059.65 1304.67 2057.58 1308.44C2053.49 1315.93 2048.06 1322.41 2041.51 1327.82C2034.82 1333.33 2027.23 1337.44 2019.08 1340.45C2015.87 1341.63 2012.56 1342.61 2009.24 1343.5C2007.49 1343.97 2005.63 1344 2003.84 1344.32C2002.6 1344.54 2001.4 1344.98 2000.16 1345.19C1993.1 1346.4 1986.06 1345.96 1979.02 1344.91C1977.76 1344.72 1976.49 1344.66 1975.22 1344.51C1974.83 1344.47 1974.44 1344.38 1974.07 1344.26C1970.8 1343.12 1967.53 1341.94 1964.25 1340.84C1963.75 1340.67 1963.06 1340.98 1962.61 1340.76C1961.18 1340.05 1959.85 1339.1 1958.13 1339.3C1958.27 1338.03 1957 1338.65 1956.98 1338.61C1955.97 1336.75 1953.95 1337.81 1952.6 1337.03C1952.07 1336.72 1951.37 1336.6 1950.99 1336.18C1950.57 1335.71 1948.95 1336.15 1949.77 1334.7C1949.17 1334.55 1948.56 1334.42 1947.96 1334.26C1947.25 1334.08 1946.55 1333.88 1945.93 1333.36C1946.27 1333.41 1946.61 1333.46 1946.95 1333.51C1937.08 1327.5 1927.38 1321.3 1919.92 1312.23C1919.77 1312.39 1919.63 1312.56 1919.48 1312.72C1924 1316.98 1928.51 1321.25 1933.02 1325.51C1933.02 1325.53 1933.01 1325.55 1933 1325.57C1931.03 1323.97 1928.99 1322.45 1927.09 1320.76C1918.63 1313.25 1912.31 1304.12 1907.44 1294C1903.98 1286.8 1901 1279.36 1897.77 1272.04C1896.11 1268.27 1894.33 1264.55 1892.71 1260.77C1891.99 1259.11 1891.65 1257.29 1890.93 1255.63C1889.96 1253.38 1888.77 1251.23 1887.72 1249.02C1886.83 1247.17 1885.68 1245.35 1885.31 1243.39C1885.15 1242.55 1884.77 1242.24 1884.44 1241.68C1884.25 1241.35 1884.48 1240.78 1884.45 1240.32C1884.44 1240.1 1884.28 1239.69 1884.21 1239.7C1882.97 1239.8 1882.93 1238.81 1882.53 1238.04C1880.75 1234.64 1878.95 1231.24 1877.06 1227.89C1874.7 1223.72 1872.38 1219.51 1869.81 1215.46C1866.93 1210.91 1863.88 1206.46 1860.76 1202.06C1857.71 1197.77 1854.52 1193.59 1851.33 1189.39C1848.73 1185.96 1846 1182.61 1843.4 1179.17C1842.35 1177.78 1841.54 1176.2 1840.53 1174.79C1840.1 1174.2 1839.2 1173.9 1838.9 1173.28C1838.14 1171.7 1836.45 1170.77 1836.1 1168.85C1835.97 1168.18 1834.72 1167.79 1834.21 1167.1C1833.67 1166.38 1833.4 1165.45 1833 1164.62C1832.94 1164.5 1832.85 1164.32 1832.75 1164.29C1831.22 1163.87 1830.81 1162.88 1831.38 1161.91C1830.7 1161.32 1830.11 1160.84 1829.57 1160.31C1829.07 1159.82 1828.71 1159.15 1828.15 1158.75C1826.91 1157.87 1827.63 1157.39 1828.42 1156.86C1828.37 1157.3 1828.09 1158 1828.26 1158.14C1828.88 1158.63 1829.65 1158.93 1830.37 1159.28C1830.46 1159.32 1830.75 1159.18 1830.75 1159.1C1830.77 1158.91 1830.76 1158.61 1830.63 1158.51C1829.91 1157.93 1829.15 1157.4 1828.4 1156.85V1156.85Z" fill="#3734A9"/>
<path fill-rule="evenodd" clip-rule="evenodd" d="M82.6031 1043.22C81.5759 1044.02 81.0938 1045.19 80.8872 1046.5C80.7735 1047.22 80.1135 1047.32 79.617 1047.45C79.1873 1047.56 78.7908 1047.57 78.4434 1047.93C78.2999 1048.07 77.8514 1048.11 77.6631 1047.99C77.0606 1047.62 76.4155 1047.36 75.8594 1046.87C73.901 1045.14 72.4657 1043.01 71.122 1040.84C69.7513 1038.62 68.3165 1036.42 67.2666 1034.02C66.9402 1033.27 66.927 1033.27 67.7488 1032.69C68.417 1033.96 69.04 1035.25 69.7612 1036.49C70.3334 1037.46 71.0254 1038.37 71.7223 1039.39C71.8864 1038.98 71.8825 1038.72 71.6279 1038.35C70.2417 1036.35 68.9257 1034.3 67.8819 1031.96C68.0487 1031.85 68.2502 1031.72 68.4507 1031.59C68.4971 1031.63 68.6004 1031.71 68.7771 1031.87V1031.03C69.2725 1030.93 69.7215 1030.84 70.3058 1030.73C70.7614 1030.94 70.9779 1031.75 71.7279 1031.85C71.7036 1032.66 72.4165 1033.07 72.775 1033.67C73.2195 1034.4 73.8221 1035.05 74.2484 1035.59C74.73 1035.53 75.0901 1035.46 75.4535 1035.44C76.7292 1035.35 76.6983 1035.39 77.493 1036.09C78.3761 1036.87 78.9802 1037.96 80.119 1038.45C80.1925 1038.48 80.2742 1038.6 80.2781 1038.67C80.3134 1039.49 80.7724 1039.79 81.5417 1039.99C82.1873 1040.16 82.3706 1040.84 82.401 1041.51C82.4242 1042.02 82.5186 1042.53 82.6031 1043.22" fill="black"/>
<path fill-rule="evenodd" clip-rule="evenodd" d="M66.3347 1005.07C65.5892 1004.32 64.9635 1003.59 64.2339 1002.99C62.1414 1001.25 61.1478 998.793 59.8964 996.507C59.3342 995.48 59.4949 994.327 59.5192 993.216C59.5236 993.024 59.7898 992.836 59.9455 992.634C60.1582 993.055 60.3575 993.449 60.6486 994.025V991.969C61.0865 991.752 61.519 991.634 61.8139 991.365C62.18 991.032 62.5937 991.098 62.9294 991.182C63.3205 991.281 63.654 991.607 64.0472 991.857C63.8169 992.936 64.2416 993.839 64.7679 994.781C65.239 994.653 65.7952 994.988 66.2668 994.504C66.3668 994.402 66.6948 994.393 66.8362 994.478C67.9915 995.174 69.4092 995.543 69.9935 996.97C70.0984 997.227 70.215 997.559 70.4259 997.674C70.744 997.846 70.4585 998.384 71.0047 998.405C71.4543 998.422 71.1671 998.88 71.2477 999.13C71.3477 999.439 71.4841 999.742 71.5382 1000.06C71.5879 1000.35 71.5487 1000.66 71.5487 1000.96C70.3923 1001.95 69.6489 1003.21 69.079 1004.62C68.1539 1004.77 67.2151 1004.92 66.3347 1005.07" fill="black"/>
<path fill-rule="evenodd" clip-rule="evenodd" d="M28.7288 946.769C28.0865 947.205 27.4679 947.642 26.8234 948.036C26.761 948.074 26.5368 947.847 26.2949 947.678C26.1469 947.944 26.0464 948.187 25.8896 948.386C25.7051 948.621 25.4682 948.814 25.2589 949.03C24.8347 949.467 24.426 949.954 23.7992 949.29C23.7512 949.24 23.6054 949.289 23.5065 949.279C22.8024 949.203 22.1314 949.378 21.4228 948.812C20.8523 948.355 20.1261 948.04 19.5898 947.48C19.0873 946.954 18.567 946.461 18.2163 945.793C17.6784 944.769 17.1471 943.756 17.3388 942.554C17.3868 942.252 17.5939 941.976 17.7812 941.572C18.16 941.882 18.4163 942.092 18.7156 942.338C18.9608 941.524 18.9105 940.579 19.6644 939.862C19.9599 940.083 20.2454 940.296 20.6016 940.562V939.464C21.5913 939.295 22.4903 938.955 23.4822 939.014C24.0511 939.049 24.5426 939.229 24.9027 939.574C25.3655 940.017 25.9321 940.334 26.3098 940.901C26.6511 941.415 27.1178 941.845 27.4762 942.374C28.0644 943.244 28.2632 944.26 28.6934 945.186C28.8989 945.627 28.7288 946.243 28.7288 946.769" fill="black"/>
<path fill-rule="evenodd" clip-rule="evenodd" d="M-5.91457 991.859C-6.54857 991.225 -7.22068 990.553 -7.97729 989.796C-7.97729 989.296 -8.02921 988.699 -7.95078 988.119C-7.92096 987.904 -7.61003 987.686 -7.37863 987.56C-7.29082 987.511 -7.06494 987.715 -6.90037 987.806C-6.68167 987.373 -6.55354 986.787 -5.81406 986.929C-5.67654 986.956 -5.48159 986.964 -5.38771 986.889C-5.01934 986.591 -4.6184 986.286 -4.14731 986.417C-3.30289 986.652 -2.36183 986.79 -1.70352 987.373C-0.402381 988.525 0.8347 989.778 1.48251 991.442C1.86855 992.435 2.21703 993.46 2.40369 994.502C2.48488 994.958 2.36172 995.585 1.84204 995.948C0.986574 996.547 0.163143 997.195 -0.711098 997.765C-1.00877 997.958 -1.42849 998.093 -1.77587 998.062C-3.96451 997.873 -5.52412 996.843 -6.17082 994.371C-6.26526 994.011 -6.49114 993.636 -6.44254 993.299C-6.37185 992.811 -6.10565 992.351 -5.91457 991.859" fill="black"/>
<path fill-rule="evenodd" clip-rule="evenodd" d="M89.2628 976.053C89.3026 975.775 89.3423 975.497 89.3865 975.191C89.4959 975.271 89.5931 975.302 89.6185 975.363C90.0045 976.308 90.4855 977.213 90.7125 978.223C90.855 978.858 91.0367 979.466 90.422 979.961C90.0034 980.298 90.4281 981.266 89.4865 981.211C89.0424 981.924 88.3311 981.853 87.6507 981.805C87.4972 982.282 87.4017 982.747 87.2012 983.161C86.9753 983.629 86.2535 983.761 85.4798 983.54C85.303 983.489 85.1324 983.318 84.9706 983.332C83.7169 983.441 83.7191 983.451 83.1917 982.462C82.9283 981.969 82.6102 981.498 82.4058 980.982C82.1573 980.352 81.7707 979.959 81.1351 979.687C80.1912 979.283 79.5782 978.465 79.4153 977.491C79.2678 976.61 79.6804 975.801 80.4674 975.166C80.8573 975.675 81.2461 976.183 81.7912 976.894C81.7912 976.166 81.7834 975.677 81.7934 975.187C81.8033 974.701 81.8563 974.8 82.6262 974.453C83.1762 974.205 83.9732 974.506 84.2896 973.743C84.8331 973.722 85.3759 973.702 85.9194 973.681C86.9228 973.641 87.8131 973.75 88.2809 974.866C88.4664 975.308 88.911 975.641 89.2628 976.053" fill="black"/>
<path fill-rule="evenodd" clip-rule="evenodd" d="M51.6442 1052.63C50.8649 1052.61 50.1276 1052.4 49.751 1053.26C49.1148 1052.43 49.0397 1051.83 49.6875 1051.17C50.1348 1050.71 50.4297 1050.13 50.9997 1049.73C51.4984 1049.39 51.6817 1048.62 52.1114 1048.13C52.4416 1047.75 52.9376 1047.52 53.3601 1047.22C53.4921 1047.35 53.6345 1047.49 53.8593 1047.71C53.6207 1047.88 53.3866 1048.05 53.1519 1048.22C53.1778 1048.28 53.2043 1048.34 53.2303 1048.4C53.5738 1048.34 53.9168 1048.29 54.3028 1048.23C54.4055 1048.38 54.5248 1048.78 54.7805 1048.91C56.3164 1049.71 57.2966 1051.04 58.23 1052.41C58.5365 1052.86 58.642 1053.45 58.8883 1053.94C59.4963 1055.17 59.6532 1055.4 59.4682 1056.52C59.3345 1057.33 59.187 1058.19 58.5525 1058.85C58.3018 1059.11 58.0345 1059.48 58.0212 1059.81C57.9881 1060.65 57.5269 1060.79 56.8487 1060.74C56.6593 1060.73 56.4588 1060.76 56.2744 1060.81C55.0914 1061.12 54.9694 1061.09 54.3796 1060.18C53.5059 1058.84 53.0883 1057.31 52.5803 1055.81C52.2213 1054.76 51.9474 1053.67 51.6442 1052.63" fill="black"/>
<path fill-rule="evenodd" clip-rule="evenodd" d="M32.491 1036.11C31.6543 1035.63 30.8071 1035.22 30.125 1034.53C28.8543 1033.25 27.4902 1032.05 26.3177 1030.68C25.085 1029.24 23.78 1027.82 23.0361 1026.14C23.1146 1025.47 23.9816 1026.18 23.9982 1025.39C24.0032 1025.17 24.5527 1024.95 24.8575 1024.74C25.6141 1024.21 26.0366 1024.12 26.5878 1024.71C27.1318 1025.29 27.7608 1025.5 28.4727 1025.65C29.5722 1025.88 30.331 1026.73 31.2721 1027.25C32.2789 1027.8 32.9963 1028.7 33.8142 1029.47C34.2378 1029.87 34.7641 1030.18 35.128 1030.63C35.4942 1031.08 35.8305 1031.62 35.9603 1032.17C36.0387 1032.5 35.7869 1033.01 35.5307 1033.31C35.2142 1033.67 35.0645 1034.21 34.5106 1034.38C34.1903 1034.49 34.2356 1034.84 34.1732 1035.14C34.1014 1035.48 34.0069 1035.89 33.4193 1035.46C33.0084 1035.17 32.6627 1035.59 32.491 1036.11" fill="black"/>
<path fill-rule="evenodd" clip-rule="evenodd" d="M93.1267 1027.4C91.4102 1026.69 90.6724 1025.38 89.939 1024.1C89.2945 1022.98 88.7069 1021.81 88.2275 1020.61C87.7498 1019.4 86.9164 1018.27 87.2881 1016.76C88.3739 1017.51 88.2838 1018.96 89.3265 1019.93C89.1354 1018.4 88.3418 1017.21 87.9458 1015.6C88.4937 1015.9 88.6925 1016.01 88.9355 1016.15C88.9825 1015.88 89.0316 1015.61 89.0802 1015.33C89.5342 1015.25 89.9821 1015.16 90.5111 1015.06C90.6514 1015.29 90.8353 1015.62 91.054 1015.92C91.9067 1017.12 91.9117 1017.11 93.4602 1017.66C93.6331 1017.73 93.7949 1017.83 93.9518 1017.93C95.1513 1018.68 96.2431 1019.54 96.9031 1020.85C97.1472 1021.34 97.4797 1022.24 97.4647 1022.76C97.4614 1022.88 97.563 1023.02 97.6514 1023.12C97.8767 1023.38 97.7751 1023.61 97.5421 1023.74C96.8655 1024.12 96.5723 1024.87 95.9714 1025.32C95.7152 1025.51 95.6693 1025.77 95.6229 1026.08C95.5589 1026.51 94.7139 1027.07 94.3207 1026.98C94.0771 1026.93 93.9197 1026.48 93.5878 1026.81C93.4139 1026.98 93.2813 1027.2 93.1267 1027.4" fill="black"/>
<path fill-rule="evenodd" clip-rule="evenodd" d="M44.3533 992.298C44.0904 992.342 43.8148 992.387 43.4343 992.45C43.5845 992.732 43.6916 992.932 43.8037 993.142C43.0886 993.857 42.3441 994.601 41.5764 995.37C41.4527 995.37 41.3014 995.347 41.1589 995.373C39.4695 995.686 38.3446 994.727 37.4063 993.571C36.6734 992.668 36.0433 991.673 35.5529 990.588C35.2469 989.91 34.9735 989.286 35.1922 988.366C35.7047 989.492 36.1615 990.495 36.6182 991.499C36.6994 991.472 36.7805 991.446 36.8623 991.42C36.8253 991.229 36.8198 991.024 36.7458 990.848C36.4404 990.123 36.093 989.413 35.8052 988.682C35.6777 988.357 35.4043 987.954 36.1007 987.803C36.3155 987.757 36.4415 987.293 36.6055 987.019C36.7491 986.778 36.8882 986.534 37.002 986.34C37.7062 986.275 37.7128 986.891 38.1518 987.145C38.0497 986.758 37.9475 986.37 37.8127 985.86C38.0381 985.681 38.339 985.443 38.64 985.203C38.83 985.392 39.0819 985.693 39.3155 985.138C39.569 984.539 39.9434 984.305 40.5503 984.699C40.6056 984.735 40.7199 984.762 40.7563 984.732C41.4594 984.153 41.8736 984.73 42.1989 985.173C42.9753 986.232 43.3409 987.503 43.806 988.713C43.9153 988.996 44.1533 989.663 43.3525 989.695C43.3073 989.697 43.2725 989.946 43.2333 990.079C43.4 990.12 43.6563 990.249 43.7198 990.185C44.1688 989.735 44.4107 990.322 44.3665 990.426C44.0964 991.06 44.7222 991.673 44.3533 992.298" fill="black"/>
<path fill-rule="evenodd" clip-rule="evenodd" d="M38.8984 960.159C39.0752 960.336 39.2524 960.513 39.5214 960.781C39.5706 960.356 39.6114 960.004 39.6562 959.621C40.2758 959.491 40.9148 959.328 41.5637 959.232C41.9558 959.174 42.37 959.175 42.761 959.236C43.0592 959.282 42.8251 959.838 43.3812 959.886C43.7407 959.918 44.0169 960.528 44.2726 960.954C44.4802 961.299 44.1693 962.046 44.9579 962.001C44.985 962.49 45.0121 962.979 45.0402 963.468C45.0424 963.516 45.0535 963.563 45.0607 963.61L47.2984 965.848C47.5381 965.848 47.7922 965.817 48.0346 965.855C48.4085 965.915 48.8111 966.286 48.6195 966.516C48.1931 967.026 48.9575 967.379 48.6543 967.796C47.4895 968.145 47.1223 968.184 46.1746 968.018C46.4121 968.531 46.6186 968.979 46.8782 969.541C46.7268 969.686 46.5275 970.04 46.3309 970.039C45.0899 970.03 43.7838 970.345 42.6776 969.464C42.3777 969.225 42.0154 969.037 41.7824 968.745C41.2506 968.079 40.7745 967.368 40.2891 966.666C40.0499 966.32 39.8456 965.948 39.6158 965.595C39.2602 965.048 39.3657 964.259 38.7134 963.868C38.8123 963.204 38.4379 962.702 38.1987 962.129C37.8734 961.351 38.075 960.606 38.8984 960.159" fill="black"/>
<path fill-rule="evenodd" clip-rule="evenodd" d="M18.2292 993.373C18.2292 993.224 18.1933 993.015 18.2419 992.829C18.2745 992.704 18.4882 992.619 18.507 992.499C18.5275 992.368 18.3739 992.218 18.3723 992.075C18.3712 991.949 18.549 991.794 18.5142 991.7C18.4507 991.529 18.3082 991.37 18.1619 991.25C18.0647 991.171 17.9028 991.17 17.7029 991.116C17.7968 991.442 17.8725 991.705 17.9487 991.968C17.4168 991.644 16.8259 991.386 17.086 990.604C17.3058 990.698 17.5218 990.791 17.7896 990.906C17.8758 989.966 17.0037 990.455 16.668 990.01C17.1595 990.068 17.487 989.729 17.9813 989.795C18.2105 989.826 18.5087 989.338 18.8599 989.006C19.3476 989.404 19.8943 989.85 20.5338 990.372C20.5963 989.99 20.641 989.718 20.6951 989.388C21.418 989.248 22.1592 989.105 22.9086 988.96C23.2935 989.452 23.5945 989.9 23.9612 990.286C24.2793 990.62 24.7167 990.842 25.0232 991.184C25.8881 992.149 26.2802 993.368 26.6359 994.574C26.7634 995.005 26.9037 995.688 26.0792 995.803C26.083 996.595 25.248 996.713 24.8714 997.215C24.3992 997.844 23.5641 997.952 22.6628 997.588C21.3131 997.043 20.4262 995.989 19.5641 994.963C19.1327 994.449 18.6484 993.964 18.2292 993.373" fill="black"/>
<path fill-rule="evenodd" clip-rule="evenodd" d="M43.0507 1012.91C43.2937 1012.99 43.5285 1013.07 43.7974 1013.16C43.8521 1011.89 42.5427 1011.54 42.3604 1010.37C42.6255 1010.49 42.8414 1010.54 42.9977 1010.66C43.2485 1010.86 43.4594 1011.11 43.772 1011.42C43.6654 1010.79 43.5947 1010.64 43.2324 1010.21C44.0244 1009.25 44.0244 1009.25 44.9594 1009.25C45.4735 1009.83 45.9126 1010.59 46.5715 1010.99C47.2988 1011.44 47.5131 1012.19 48.0493 1012.74C48.5618 1013.26 48.902 1013.97 49.2417 1014.63C49.4283 1015 49.5868 1015.46 49.5261 1015.85C49.4488 1016.33 49.2422 1017.04 48.8998 1017.18C48.3365 1017.41 48.4624 1017.81 48.2851 1018.15C48.0421 1018.62 47.7097 1019.07 47.1 1019.17C46.7438 1019.23 46.3196 1019.5 46.0584 1019.38C45.4227 1019.1 44.7661 1018.73 44.2961 1018.23C43.4092 1017.29 42.6161 1016.25 41.8573 1015.19C41.6668 1014.93 41.7546 1014.46 41.6982 1013.94C41.9512 1014.15 42.0517 1014.23 42.2649 1014.4C42.1544 1013.63 42.826 1013.37 43.0507 1012.91" fill="black"/>
<path fill-rule="evenodd" clip-rule="evenodd" d="M35.1323 1068.14C34.7208 1067.92 34.5226 1067.81 34.3304 1067.7C33.9918 1068.93 33.9079 1068.99 32.9077 1068.55C33.1717 1069.16 33.3832 1069.66 33.6135 1070.19C33.3523 1070.34 33.085 1070.5 32.815 1070.65C32.3268 1070.17 31.8314 1069.67 31.2901 1069.13C30.9643 1069.86 31.8612 1070.2 31.7728 1070.91C30.9682 1071.02 30.5015 1070.48 30.0382 1069.97C29.7852 1069.7 29.6482 1069.31 29.3876 1069.05C28.2256 1067.87 27.1818 1066.59 26.2087 1065.26C26.1215 1065.14 26.0005 1065.04 25.8923 1064.94C25.3058 1064.38 24.6911 1063.84 24.6475 1062.93C25.2329 1062.57 25.5438 1063.12 25.942 1063.46C26.3468 1062.79 25.4101 1062.7 25.4521 1062.21C25.488 1061.61 26.6207 1062.37 26.333 1061.4H27.9638C28.4305 1061.73 28.9038 1062.05 29.3677 1062.39C29.8333 1062.73 30.1409 1063.21 30.7108 1063.49C31.2642 1063.76 31.6309 1064.39 32.118 1064.82C32.4355 1065.1 32.6371 1065.49 33.1447 1065.61C33.5119 1065.7 33.708 1066.26 34.2658 1066.19C34.421 1066.17 34.701 1066.45 34.7799 1066.65C34.9307 1067.03 34.9771 1067.45 35.1323 1068.14" fill="black"/>
<path fill-rule="evenodd" clip-rule="evenodd" d="M24.784 967.411C25.302 967.445 25.6599 967.177 26.1338 967.519C25.893 967.602 25.7185 967.662 25.5279 967.728C25.7057 968.331 25.9035 968.931 26.0487 969.543C26.0857 969.7 26.0034 970.01 25.8946 970.056C25.2904 970.311 25.1076 970.961 24.6371 971.317C24.4289 971.475 24.1169 971.526 23.8446 971.557C23.7082 971.572 23.5475 971.366 23.4111 971.38C23.2448 971.398 23.0924 971.543 22.9173 971.643C22.6589 970.729 22.6721 970.692 21.6543 970.346C21.0452 970.138 20.9187 969.539 20.4868 969.163C20.3902 969.369 20.2968 969.567 20.1925 969.79C20.0406 969.631 19.7849 969.487 19.7854 969.343C19.7932 967.549 19.7915 967.509 18.9725 966.433C18.5108 967.245 19.3955 967.714 19.4436 968.508C19.2243 968.473 18.8968 968.499 18.8587 968.405C18.4738 967.47 17.8873 966.586 18.4887 965.464C18.6754 965.116 18.7091 964.933 19.1282 964.926C19.3867 964.922 19.6645 964.77 19.8948 964.624C20.4918 964.247 21.0667 963.836 21.7046 963.401C21.8504 963.619 21.9851 963.82 21.9525 963.771C22.4556 964.122 22.9803 963.178 23.0642 964.162C23.0885 964.442 23.7132 963.775 23.7132 964.507C23.7132 964.79 24.2328 965.073 24.4941 965.334C24.4007 965.576 24.3124 965.807 24.2235 966.038C24.2975 966.089 24.3715 966.141 24.446 966.192C24.5769 965.943 24.7078 965.694 24.8729 965.381C25.1419 965.838 25.2982 966.102 25.5031 966.45C25.2805 966.747 25.0325 967.079 24.784 967.411" fill="black"/>
<path fill-rule="evenodd" clip-rule="evenodd" d="M7.51725 1030.61C7.73264 1031.11 7.88948 1031.48 8.1137 1031.99C8.25619 1031.62 8.32191 1031.44 8.3915 1031.26C8.45887 1031.3 8.56933 1031.33 8.58368 1031.38C8.71954 1031.9 8.96475 1032.34 9.33753 1032.73C9.56065 1032.97 9.72191 1033.27 9.87378 1033.56C10.1416 1034.08 10.5216 1034.43 11.1368 1034.54C11.2335 1034.34 11.3329 1034.14 11.3793 1034.05C11.6642 1034.26 11.9741 1034.49 12.2049 1034.66C12.2049 1034.85 12.2248 1034.93 12.2021 1034.95C11.9293 1035.13 11.6504 1035.29 11.3958 1035.45C11.4698 1035.86 11.5361 1036.23 11.6361 1036.79C11.1849 1036.57 10.938 1036.45 10.5823 1036.28C10.3852 1036.67 10.1875 1037.07 9.97485 1037.5C9.77272 1037.52 9.5358 1037.55 9.24585 1037.58V1038.25C8.48925 1038.82 7.87015 1038.74 7.21406 1038.15C6.49942 1037.49 5.69366 1036.94 4.96467 1036.17C5.27118 1035.97 5.5672 1035.77 5.89193 1035.56C5.72625 1034.95 5.42858 1034.41 4.99946 1033.88C4.57035 1033.34 4.33509 1032.66 4.02637 1032.06C4.46763 1031.51 4.81611 1031.92 5.22092 1032.09C5.23804 1031.94 5.30818 1031.77 5.26013 1031.66C4.95804 1030.99 5.08893 1030.65 5.72901 1030.62C6.32988 1030.59 6.93296 1030.61 7.51725 1030.61" fill="black"/>
<path fill-rule="evenodd" clip-rule="evenodd" d="M12.9509 1009.47C13.3253 1009.58 13.7163 1009.7 14.1968 1009.84C14.4006 1009.35 14.4608 1008.89 14.0311 1008.45C14.5591 1007.97 14.9103 1008.7 15.4278 1008.62C15.4758 1008.36 15.5272 1008.08 15.5769 1007.81C15.9823 1007.38 16.3479 1008.18 16.8377 1007.8C17.3386 1007.41 17.4651 1008.25 17.8909 1008.34C18.13 1008.4 18.3537 1008.65 18.5244 1008.86C19.0899 1009.55 19.1782 1010.53 19.9398 1011.14C20.1221 1011.28 20.0249 1011.78 20.0657 1012.22C19.2213 1011.81 19.17 1013.15 18.3565 1012.83C18.1063 1013.24 18.3427 1013.97 17.4276 1014.06C17.3309 1013.89 17.1796 1013.63 16.9642 1013.27C16.7809 1013.65 16.6919 1013.84 16.6008 1014.03C16.0883 1014.15 15.8536 1013.71 15.6852 1013.42C15.1257 1012.49 14.4011 1011.77 13.4639 1011.21C12.8874 1010.87 12.5709 1010.31 12.9509 1009.47" fill="black"/>
<path fill-rule="evenodd" clip-rule="evenodd" d="M5.62335 969.458C4.91258 970.014 4.38848 970.425 3.71195 970.956H2.4467C1.95408 970.244 1.79392 969.306 1.06769 968.718C0.991475 967.726 0.305558 967.112 -0.29034 966.42C-0.479768 966.2 -0.4389 965.781 -0.519531 965.372C-0.301938 965.311 -0.0865529 965.315 0.0261098 965.21C1.18201 964.129 2.27108 964.736 3.19226 965.474C3.97869 966.103 4.64252 966.935 5.19976 967.782C5.51566 968.262 5.50737 968.955 5.62335 969.458" fill="black"/>
</g>
</g>
<defs>
<clipPath id="clip0_131_2108">
<rect width="1920" height="1143" fill="white"/>
</clipPath>
<clipPath id="clip1_131_2108">
<rect width="1920" height="1465" fill="white"/>
</clipPath>
</defs>
</svg>
