<svg width="652" height="380" viewBox="0 0 652 380" fill="none" xmlns="http://www.w3.org/2000/svg">
<path d="M482.105 369.267H126.723C118.678 369.267 112.156 362.745 112.156 354.7V129.557C112.156 121.512 118.678 114.99 126.723 114.99H482.105C490.15 114.99 496.672 121.512 496.672 129.557V354.7C496.673 362.745 490.15 369.267 482.105 369.267Z" fill="#455A64"/>
<path d="M495.926 375.095H114.927C105.098 375.095 97.1289 367.127 97.1289 357.297V352.846H513.723V357.297C513.724 367.127 505.755 375.095 495.926 375.095Z" fill="#455A64"/>
<path d="M485.276 125.092H122.477V339.825H485.276V125.092Z" fill="#263238"/>
<path d="M266.512 350.461L271.681 358.684H344.424L349.224 350.461H266.512Z" fill="#263238"/>
<path d="M475.276 339.139H133.222C131.414 339.139 129.949 337.673 129.949 335.866V135.636C129.949 133.829 131.414 132.363 133.222 132.363H475.276C477.083 132.363 478.549 133.828 478.549 135.636V335.868C478.548 337.674 477.083 339.139 475.276 339.139Z" fill="#EBEBEB"/>
<path d="M478.177 339.44H129.578L129.951 147.814H478.177V339.44Z" fill="#FAFAFA"/>
<path d="M158.541 140.348C158.541 141.886 157.295 143.132 155.757 143.132C154.219 143.132 152.973 141.885 152.973 140.348C152.973 138.81 154.219 137.564 155.757 137.564C157.295 137.564 158.541 138.81 158.541 140.348Z" fill="#39B54A"/>
<path d="M141.67 140.348C141.67 141.886 140.424 143.132 138.886 143.132C137.349 143.132 136.102 141.885 136.102 140.348C136.102 138.81 137.349 137.564 138.886 137.564C140.424 137.564 141.67 138.81 141.67 140.348Z" fill="#EB5757"/>
<path d="M149.767 140.348C149.767 141.886 148.521 143.132 146.983 143.132C145.445 143.132 144.199 141.885 144.199 140.348C144.199 138.81 145.445 137.564 146.983 137.564C148.521 137.564 149.767 138.81 149.767 140.348Z" fill="#F2C94C"/>
<path d="M493.368 350.46C493.368 350.598 408.024 350.709 302.771 350.709C197.481 350.709 112.156 350.597 112.156 350.46C112.156 350.323 197.482 350.211 302.771 350.211C408.024 350.212 493.368 350.323 493.368 350.46Z" fill="#263238"/>
<path d="M241.58 222.671L383.404 221.346L387.558 317.762L240.699 316.706L241.58 222.671Z" fill="#39B54A"/>
<path d="M241.578 222.671L308.588 168.218C311.425 165.912 315.492 165.917 318.325 168.229L383.403 221.346" fill="#39B54A"/>
<path d="M241.578 222.671L308.588 168.218C311.425 165.912 315.492 165.917 318.325 168.229L383.403 221.346" fill="#2D993C"/>
<path d="M240.697 316.707C240.52 316.541 251.848 304.121 265.996 288.968C280.149 273.81 291.763 261.661 291.94 261.826C292.117 261.992 280.791 274.409 266.638 289.567C252.49 304.72 240.875 316.872 240.697 316.707Z" fill="#FAFAFA"/>
<path d="M387.554 317.762C387.373 317.923 376.29 305.8 362.803 290.687C349.311 275.569 338.524 263.186 338.705 263.025C338.886 262.864 349.966 274.985 363.458 290.103C376.946 305.215 387.735 317.6 387.554 317.762Z" fill="#FAFAFA"/>
<path d="M383.402 221.346L312.303 278.387L241.578 222.671" fill="#2D993C"/>
<path d="M248.731 227.925L248.418 183.63L372.603 181.904L374.099 228.507L312.294 277.643L248.731 227.925Z" fill="#FAFAFA"/>
<path d="M248.732 227.925C248.732 227.925 249.142 228.221 249.91 228.809C250.685 229.407 251.818 230.28 253.295 231.42C256.261 233.723 260.602 237.094 266.15 241.402C277.235 250.043 293.132 262.435 312.426 277.474L312.162 277.475C329.964 263.306 351.085 246.495 373.939 228.305L373.842 228.515C373.556 219.624 373.255 210.297 372.949 200.805C372.744 194.416 372.542 188.101 372.344 181.911L372.607 182.162C322.567 182.821 278.422 183.402 248.421 183.797L248.586 183.629C248.65 197.556 248.7 208.615 248.735 216.208C248.743 219.997 248.749 222.919 248.754 224.907C248.752 225.889 248.75 226.638 248.749 227.155C248.745 227.662 248.732 227.925 248.732 227.925C248.732 227.925 248.716 227.676 248.705 227.176C248.697 226.663 248.684 225.92 248.668 224.946C248.644 222.962 248.609 220.048 248.564 216.268C248.491 208.662 248.385 197.583 248.252 183.631L248.25 183.465L248.416 183.463C278.416 183.024 322.56 182.377 372.599 181.645L372.853 181.641L372.861 181.896C373.06 188.086 373.263 194.401 373.469 200.79C373.773 210.282 374.071 219.609 374.356 228.5L374.36 228.63L374.259 228.711C351.385 246.876 330.245 263.663 312.427 277.813L312.295 277.918L312.162 277.814C292.892 262.69 277.015 250.228 265.944 241.539C260.436 237.199 256.126 233.804 253.181 231.483C251.727 230.33 250.613 229.446 249.85 228.841C249.103 228.24 248.732 227.925 248.732 227.925Z" fill="#263238"/>
<path d="M353.022 204.246C353.023 204.39 334.033 204.661 310.609 204.852C287.178 205.043 268.19 205.081 268.188 204.937C268.187 204.793 287.173 204.522 310.604 204.331C334.028 204.14 353.021 204.102 353.022 204.246Z" fill="#263238"/>
<path d="M353.05 216.759C353.051 216.903 334.06 217.174 310.637 217.365C287.206 217.556 268.217 217.594 268.215 217.45C268.214 217.306 287.201 217.035 310.632 216.844C334.056 216.653 353.049 216.615 353.05 216.759Z" fill="#263238"/>
<path d="M353.077 231.179C353.078 231.323 334.087 231.594 310.664 231.785C287.233 231.976 268.244 232.014 268.242 231.87C268.241 231.726 287.228 231.455 310.659 231.264C334.083 231.074 353.076 231.035 353.077 231.179Z" fill="#263238"/>
<path d="M353.108 245.6C353.109 245.744 334.991 246.008 312.644 246.19C290.29 246.372 272.173 246.403 272.172 246.259C272.171 246.115 290.286 245.851 312.64 245.669C334.987 245.488 353.107 245.456 353.108 245.6Z" fill="#263238"/>
<path d="M337.251 258.291C337.251 258.309 337.08 258.328 336.754 258.348C336.368 258.365 335.897 258.385 335.328 258.409C334.009 258.442 332.236 258.486 330.082 258.54C325.578 258.622 319.496 258.732 312.774 258.855C306.012 258.982 299.889 259.021 295.458 259.017C293.303 259.003 291.53 258.991 290.21 258.982C289.64 258.967 289.17 258.955 288.783 258.946C288.457 258.932 288.285 258.916 288.285 258.898C288.285 258.88 288.456 258.861 288.782 258.841C289.168 258.824 289.639 258.804 290.208 258.78C291.527 258.747 293.3 258.703 295.454 258.649C299.958 258.567 306.041 258.457 312.764 258.334C319.524 258.207 325.646 258.168 330.077 258.172C332.232 258.186 334.005 258.198 335.325 258.207C335.895 258.221 336.366 258.234 336.752 258.243C337.08 258.257 337.251 258.273 337.251 258.291Z" fill="#263238"/>
<path d="M321.291 270.493C321.291 270.637 317.242 270.762 312.248 270.772C307.252 270.782 303.203 270.674 303.203 270.53C303.203 270.386 307.251 270.261 312.247 270.251C317.241 270.241 321.29 270.349 321.291 270.493Z" fill="#263238"/>
<path d="M338.023 181.512C338.166 181.527 338.227 182.096 338.159 182.782C338.091 183.469 337.92 184.014 337.777 184.002C337.634 183.989 337.573 183.42 337.641 182.731C337.709 182.043 337.88 181.497 338.023 181.512Z" fill="#263238"/>
<path d="M339.357 171.772C339.499 171.796 339.448 172.902 339.244 174.241C339.04 175.581 338.758 176.651 338.616 176.632C338.474 176.613 338.524 175.508 338.729 174.163C338.934 172.818 339.216 171.748 339.357 171.772Z" fill="#263238"/>
<path d="M341.318 162.139C341.458 162.173 341.333 163.273 341.04 164.595C340.747 165.918 340.394 166.967 340.253 166.938C340.112 166.91 340.237 165.81 340.531 164.482C340.826 163.154 341.178 162.105 341.318 162.139Z" fill="#263238"/>
<path d="M343.982 152.677C344.119 152.722 343.912 153.809 343.52 155.105C343.128 156.401 342.698 157.421 342.559 157.382C342.42 157.344 342.627 156.257 343.022 154.954C343.416 153.652 343.846 152.632 343.982 152.677Z" fill="#263238"/>
<path d="M347.415 143.465C347.547 143.522 347.249 144.588 346.749 145.846C346.249 147.104 345.734 148.084 345.599 148.034C345.464 147.984 345.762 146.919 346.266 145.653C346.768 144.389 347.283 143.409 347.415 143.465Z" fill="#263238"/>
<path d="M351.675 134.617C351.801 134.686 351.404 135.718 350.789 136.922C350.173 138.126 349.569 139.051 349.439 138.99C349.309 138.928 349.706 137.897 350.326 136.685C350.945 135.473 351.549 134.547 351.675 134.617Z" fill="#263238"/>
<path d="M356.816 126.238C356.934 126.321 356.416 127.298 355.664 128.423C354.941 129.568 354.255 130.435 354.132 130.361C354.009 130.287 354.499 129.292 355.227 128.139C355.985 127.006 356.699 126.156 356.816 126.238Z" fill="#263238"/>
<path d="M362.869 118.498C362.976 118.594 362.363 119.515 361.499 120.555C360.635 121.596 359.842 122.367 359.728 122.279C359.614 122.191 360.228 121.27 361.098 120.222C361.969 119.175 362.762 118.403 362.869 118.498Z" fill="#263238"/>
<path d="M369.801 111.529C369.896 111.637 369.177 112.479 368.196 113.408C367.214 114.338 366.335 115.01 366.232 114.909C366.129 114.808 366.848 113.967 367.838 113.03C368.826 112.093 369.706 111.421 369.801 111.529Z" fill="#263238"/>
<path d="M377.535 105.471C377.615 105.59 376.797 106.335 375.706 107.134C374.615 107.933 373.659 108.489 373.569 108.377C373.48 108.264 374.298 107.52 375.398 106.714C376.498 105.909 377.455 105.352 377.535 105.471Z" fill="#263238"/>
<path d="M386.012 100.494C386.075 100.623 385.163 101.25 383.974 101.894C382.785 102.538 381.761 102.96 381.688 102.836C381.614 102.713 382.527 102.086 383.726 101.436C384.926 100.786 385.949 100.365 386.012 100.494Z" fill="#263238"/>
<path d="M395.114 96.7919C395.157 96.9289 394.162 97.4149 392.893 97.8759C391.623 98.3369 390.549 98.6029 390.494 98.4699C390.439 98.3369 391.433 97.8519 392.715 97.3859C393.997 96.9209 395.071 96.6549 395.114 96.7919Z" fill="#263238"/>
<path d="M404.677 94.5654C404.697 94.7094 403.632 94.9994 402.302 95.2294C400.98 95.5094 399.882 95.6224 399.848 95.4824C399.814 95.3424 400.869 95.0004 402.204 94.7184C403.549 94.4854 404.658 94.4244 404.677 94.5654Z" fill="#263238"/>
<path d="M414.486 94.0246C414.48 94.1686 413.381 94.2976 412.031 94.3126C410.681 94.3276 409.579 94.2236 409.57 94.0806C409.561 93.9376 410.66 93.8076 412.025 93.7926C413.389 93.7766 414.491 93.8806 414.486 94.0246Z" fill="#263238"/>
<path d="M424.244 95.1741C424.214 95.3151 423.109 95.2541 421.776 95.0391C420.443 94.8241 419.375 94.5331 419.391 94.3901C419.407 94.2471 420.512 94.3071 421.859 94.5251C423.206 94.7421 424.274 95.0331 424.244 95.1741Z" fill="#263238"/>
<path d="M433.654 97.9839C433.6 98.1169 432.522 97.8669 431.246 97.4239C429.97 96.9809 428.969 96.5099 429.009 96.3719C429.049 96.2339 430.127 96.4839 431.417 96.9319C432.707 97.3799 433.709 97.8509 433.654 97.9839Z" fill="#263238"/>
<path d="M442.406 102.445C442.328 102.566 441.314 102.122 440.142 101.453C438.97 100.784 438.072 100.137 438.136 100.009C438.2 99.8796 439.214 100.324 440.4 101.001C441.586 101.677 442.484 102.324 442.406 102.445Z" fill="#263238"/>
<path d="M450.105 108.527C450.004 108.629 449.099 107.991 448.085 107.102C447.071 106.213 446.321 105.399 446.409 105.285C446.497 105.171 447.401 105.809 448.429 106.71C449.456 107.611 450.206 108.425 450.105 108.527Z" fill="#263238"/>
<path d="M454.963 114.126C454.846 114.21 454.411 113.839 453.992 113.298C453.572 112.756 453.322 112.242 453.433 112.151C453.544 112.059 453.978 112.43 454.404 112.98C454.83 113.528 455.08 114.042 454.963 114.126Z" fill="#263238"/>
<path d="M501.21 174.377C501.154 174.509 500.089 174.144 498.833 173.56C497.576 172.976 496.61 172.399 496.675 172.27C496.74 172.142 497.804 172.507 499.052 173.087C500.3 173.667 501.266 174.244 501.21 174.377Z" fill="#263238"/>
<path d="M510.65 177.66C510.615 177.799 509.511 177.584 508.184 177.179C506.857 176.774 505.821 176.335 505.869 176.2C505.918 176.065 507.022 176.28 508.335 176.681C509.649 177.082 510.685 177.521 510.65 177.66Z" fill="#263238"/>
<path d="M520.512 179.235C520.505 179.379 519.379 179.372 517.999 179.22C516.618 179.068 515.519 178.83 515.543 178.688C515.567 178.546 516.692 178.552 518.056 178.703C519.419 178.853 520.519 179.091 520.512 179.235Z" fill="#263238"/>
<path d="M530.497 178.923C530.515 179.066 529.407 179.266 528.024 179.371C526.64 179.475 525.516 179.443 525.512 179.299C525.508 179.155 526.616 178.955 527.986 178.851C529.354 178.748 530.479 178.78 530.497 178.923Z" fill="#263238"/>
<path d="M540.316 177.082C540.356 177.22 539.293 177.6 537.943 177.93C536.587 178.221 535.462 178.311 535.438 178.173C535.411 178.027 536.488 177.709 537.832 177.421C539.164 177.096 540.276 176.944 540.316 177.082Z" fill="#263238"/>
<path d="M549.599 173.402C549.667 173.529 548.699 174.103 547.437 174.683C546.174 175.264 545.109 175.625 545.057 175.491C545.005 175.357 545.973 174.783 547.22 174.21C548.465 173.637 549.531 173.276 549.599 173.402Z" fill="#263238"/>
<path d="M557.881 167.831C557.974 167.938 557.196 168.763 556.085 169.6C554.975 170.439 553.969 170.961 553.892 170.842C553.812 170.721 554.677 170.011 555.772 169.184C556.867 168.358 557.786 167.72 557.881 167.831Z" fill="#263238"/>
<path d="M564.682 160.529C564.798 160.61 564.241 161.6 563.354 162.673C562.469 163.748 561.606 164.484 561.503 164.386C561.397 164.285 562.08 163.4 562.952 162.342C563.825 161.285 564.563 160.445 564.682 160.529Z" fill="#263238"/>
<path d="M569.366 151.728C569.5 151.774 569.239 152.881 568.669 154.153C568.102 155.426 567.455 156.361 567.331 156.292C567.203 156.222 567.636 155.192 568.193 153.941C568.753 152.691 569.228 151.68 569.366 151.728Z" fill="#263238"/>
<path d="M571.213 141.945C571.354 141.945 571.469 143.078 571.326 144.467C571.186 145.857 570.841 146.944 570.703 146.914C570.56 146.884 570.672 145.775 570.809 144.414C570.949 143.055 571.067 141.944 571.213 141.945Z" fill="#263238"/>
<path d="M569.772 132.089C569.906 132.045 570.365 133.086 570.674 134.445C570.986 135.805 571.022 136.942 570.881 136.96C570.736 136.98 570.472 135.895 570.166 134.561C569.864 133.226 569.633 132.133 569.772 132.089Z" fill="#263238"/>
<path d="M565.427 123.123C565.542 123.041 566.292 123.896 566.992 125.102C567.695 126.307 568.069 127.381 567.941 127.44C567.809 127.502 567.232 126.546 566.542 125.364C565.856 124.181 565.307 123.208 565.427 123.123Z" fill="#263238"/>
<path d="M558.486 115.99C558.566 115.874 559.564 116.425 560.617 117.342C561.673 118.256 562.364 119.161 562.26 119.257C562.153 119.358 561.309 118.629 560.275 117.735C559.246 116.839 558.402 116.11 558.486 115.99Z" fill="#263238"/>
<path d="M549.419 111.93C549.445 111.792 550.584 111.896 551.914 112.336C553.246 112.773 554.224 113.364 554.163 113.49C554.101 113.624 553.048 113.255 551.751 112.83C550.456 112.401 549.39 112.074 549.419 111.93Z" fill="#263238"/>
<path d="M539.501 112.094C539.463 111.959 540.533 111.549 541.923 111.369C543.313 111.185 544.452 111.304 544.45 111.444C544.45 111.591 543.342 111.706 541.99 111.886C540.639 112.06 539.539 112.237 539.501 112.094Z" fill="#263238"/>
<path d="M530.886 116.92C530.781 116.828 531.468 115.899 532.595 115.051C533.718 114.199 534.791 113.778 534.853 113.902C534.923 114.034 533.992 114.645 532.91 115.467C531.824 116.282 530.995 117.02 530.886 116.92Z" fill="#263238"/>
<path d="M526.928 125.892C526.79 125.886 526.735 124.734 527.072 123.364C527.404 121.991 527.997 120.997 528.121 121.059C528.256 121.121 527.895 122.17 527.577 123.488C527.254 124.803 527.078 125.901 526.928 125.892Z" fill="#263238"/>
<path d="M528.88 135.589C528.757 135.655 528.122 134.698 527.663 133.368C527.2 132.04 527.108 130.894 527.246 130.87C527.391 130.843 527.706 131.911 528.155 133.197C528.599 134.486 529.012 135.521 528.88 135.589Z" fill="#263238"/>
<path d="M535.414 143.025C535.336 143.141 534.328 142.601 533.28 141.671C532.227 140.744 531.572 139.804 531.68 139.713C531.791 139.617 532.602 140.379 533.625 141.281C534.644 142.185 535.498 142.903 535.414 143.025Z" fill="#263238"/>
<path d="M544.489 147.093C544.457 147.23 543.328 147.083 542.008 146.631C540.686 146.182 539.704 145.603 539.764 145.475C539.825 145.342 540.881 145.699 542.176 146.138C543.47 146.581 544.523 146.951 544.489 147.093Z" fill="#263238"/>
<path d="M554.413 148.037C554.422 148.178 553.301 148.363 551.908 148.332C550.515 148.305 549.403 148.072 549.418 147.932C549.433 147.786 550.55 147.786 551.919 147.812C553.288 147.841 554.404 147.891 554.413 148.037Z" fill="#263238"/>
<path d="M564.214 146.222C564.259 146.356 563.227 146.825 561.879 147.168C560.531 147.513 559.399 147.594 559.375 147.454C559.35 147.31 560.423 147.003 561.75 146.663C563.077 146.326 564.168 146.083 564.214 146.222Z" fill="#263238"/>
<path d="M573.285 142.068C573.36 142.191 572.426 142.817 571.197 143.466C569.969 144.116 568.925 144.535 568.866 144.404C568.807 144.273 569.742 143.647 570.954 143.006C572.166 142.365 573.21 141.946 573.285 142.068Z" fill="#263238"/>
<path d="M581.3 136.109C581.397 136.215 580.606 137.016 579.533 137.897C578.46 138.778 577.52 139.398 577.436 139.282C577.351 139.166 578.142 138.366 579.203 137.494C580.264 136.623 581.203 136.003 581.3 136.109Z" fill="#263238"/>
<path d="M588.111 128.8C588.225 128.888 587.586 129.815 586.685 130.87C585.783 131.925 584.967 132.7 584.863 132.601C584.759 132.502 585.397 131.576 586.289 130.531C587.181 129.488 587.997 128.713 588.111 128.8Z" fill="#263238"/>
<path d="M593.606 120.457C593.733 120.525 593.256 121.544 592.541 122.734C591.826 123.924 591.149 124.823 591.03 124.743C590.911 124.663 591.387 123.644 592.095 122.466C592.802 121.288 593.479 120.389 593.606 120.457Z" fill="#263238"/>
<path d="M597.661 111.322C597.797 111.37 597.497 112.455 596.991 113.746C596.496 115.041 595.956 116.031 595.815 115.969C595.693 115.914 596.016 114.839 596.507 113.554C597.009 112.273 597.526 111.274 597.661 111.322Z" fill="#263238"/>
<path d="M600.46 101.725C600.6 101.757 600.432 102.869 600.085 104.21C599.737 105.551 599.343 106.605 599.205 106.564C599.067 106.523 599.235 105.411 599.58 104.079C599.926 102.748 600.32 101.694 600.46 101.725Z" fill="#263238"/>
<path d="M602.207 91.885C602.35 91.903 602.296 93.027 602.086 94.395C601.876 95.764 601.592 96.852 601.45 96.827C601.309 96.801 601.363 95.677 601.571 94.316C601.78 92.955 602.065 91.866 602.207 91.885Z" fill="#263238"/>
<path d="M603.129 81.9278C603.273 81.9358 603.306 83.0608 603.203 84.4398C603.1 85.8198 602.901 86.9268 602.758 86.9138C602.615 86.8998 602.582 85.7758 602.684 84.4008C602.786 83.0268 602.986 81.9198 603.129 81.9278Z" fill="#263238"/>
<path d="M603.446 71.9355C603.59 71.9365 603.685 73.0585 603.658 74.4405C603.631 75.8235 603.493 76.9395 603.349 76.9345C603.205 76.9295 603.11 75.8085 603.137 74.4295C603.164 73.0515 603.302 71.9345 603.446 71.9355Z" fill="#263238"/>
<path d="M603.375 61.9375C603.519 61.9345 603.651 63.0525 603.671 64.4335C603.691 65.8155 603.59 66.9365 603.447 66.9375C603.304 66.9385 603.171 65.8215 603.151 64.4415C603.131 63.0615 603.232 61.9405 603.375 61.9375Z" fill="#263238"/>
<path d="M603.226 55.7872C603.37 55.7832 603.493 56.0372 603.502 56.3542C603.511 56.6712 603.401 56.9312 603.257 56.9352C603.113 56.9392 602.99 56.6852 602.981 56.3682C602.972 56.0512 603.082 55.7912 603.226 55.7872Z" fill="#263238"/>
<path d="M625.173 26.1019L557.195 33.4863L562.173 79.306L630.15 71.9216L625.173 26.1019Z" fill="#FBB040"/>
<path d="M562.118 79.3497L562.116 79.3257L557.137 33.4837L557.162 33.4807L625.162 26.0957L625.164 26.1197L630.143 71.9617L630.119 71.9647L562.118 79.3497ZM557.192 33.5277L562.163 79.2947L630.088 71.9187L625.117 26.1507L557.192 33.5277Z" fill="white"/>
<path d="M625.418 26.6512C625.433 26.6662 625.238 26.8992 624.851 27.3302C624.419 27.8002 623.85 28.4202 623.138 29.1942C621.584 30.8442 619.415 33.1472 616.751 35.9752C611.271 41.7062 603.77 49.5512 595.462 58.2412L595.287 58.4242L595.072 58.2882C594.908 58.1842 594.731 58.0712 594.553 57.9582C584.302 51.4092 575.025 45.4822 568.242 41.1492C564.934 39.0002 562.238 37.2492 560.307 35.9952C559.417 35.4022 558.706 34.9272 558.166 34.5672C557.68 34.2352 557.431 34.0522 557.442 34.0332C557.453 34.0152 557.725 34.1632 558.233 34.4612C558.788 34.7962 559.52 35.2382 560.436 35.7902C562.392 37.0032 565.125 38.6982 568.477 40.7772C575.285 45.0712 584.596 50.9442 594.885 57.4332C595.063 57.5462 595.24 57.6592 595.404 57.7632L595.014 57.8102C603.374 49.1712 610.922 41.3712 616.436 35.6722C619.159 32.9012 621.376 30.6432 622.964 29.0272C623.71 28.2862 624.307 27.6932 624.76 27.2432C625.177 26.8412 625.402 26.6362 625.418 26.6512Z" fill="white"/>
<path d="M562.417 79.8501C562.275 79.7541 566.704 72.9191 572.309 64.5841C577.916 56.2471 582.575 49.5681 582.718 49.6631C582.86 49.7591 578.432 56.5931 572.825 64.9301C567.219 73.2651 562.559 79.9451 562.417 79.8501Z" fill="white"/>
<path d="M605.252 46.6366C605.375 46.5176 611.103 52.2036 618.044 59.3356C624.988 66.4706 630.515 72.3486 630.393 72.4686C630.271 72.5886 624.543 66.9036 617.599 59.7686C610.658 52.6366 605.129 46.7566 605.252 46.6366Z" fill="white"/>
<path d="M314.735 165.036C314.877 165.012 315.085 165.545 315.201 166.226C315.316 166.908 315.295 167.479 315.153 167.503C315.011 167.527 314.803 166.994 314.687 166.313C314.572 165.631 314.594 165.06 314.735 165.036Z" fill="#263238"/>
<path d="M313.135 155.278C313.277 155.256 313.568 156.33 313.785 157.677C314.002 159.024 314.063 160.135 313.921 160.159C313.779 160.182 313.488 159.109 313.271 157.76C313.054 156.412 312.993 155.3 313.135 155.278Z" fill="#263238"/>
<path d="M311.707 145.494C311.85 145.475 312.118 146.555 312.307 147.906C312.496 149.257 312.533 150.369 312.391 150.39C312.249 150.411 311.98 149.331 311.791 147.978C311.602 146.625 311.565 145.513 311.707 145.494Z" fill="#263238"/>
<path d="M310.584 135.674C310.727 135.661 310.959 136.749 311.101 138.105C311.243 139.461 311.243 140.574 311.1 140.59C310.957 140.607 310.726 139.518 310.583 138.159C310.441 136.8 310.441 135.687 310.584 135.674Z" fill="#263238"/>
<path d="M309.898 125.811C310.042 125.805 310.221 126.904 310.298 128.264C310.375 129.625 310.321 130.736 310.178 130.746C310.035 130.756 309.856 129.658 309.778 128.293C309.7 126.928 309.754 125.817 309.898 125.811Z" fill="#263238"/>
<path d="M309.791 115.922C309.935 115.926 310.045 117.034 310.037 118.397C310.029 119.76 309.906 120.867 309.762 120.869C309.618 120.871 309.508 119.763 309.516 118.393C309.524 117.025 309.647 115.918 309.791 115.922Z" fill="#263238"/>
<path d="M310.412 106.061C310.555 106.077 310.579 107.189 310.466 108.546C310.353 109.903 310.145 110.996 310.001 110.987C309.857 110.979 309.833 109.866 309.947 108.502C310.061 107.139 310.269 106.045 310.412 106.061Z" fill="#263238"/>
<path d="M311.9 96.2877C312.041 96.3167 311.963 97.4277 311.726 98.7677C311.489 100.109 311.182 101.178 311.04 101.157C310.898 101.136 310.975 100.026 311.214 98.6767C311.451 97.3287 311.759 96.2587 311.9 96.2877Z" fill="#263238"/>
<path d="M314.422 86.7339C314.558 86.7799 314.355 87.8739 313.967 89.1769C313.579 90.4799 313.152 91.5079 313.013 91.4719C312.874 91.4359 313.076 90.3419 313.467 89.0289C313.858 87.7149 314.286 86.6879 314.422 86.7339Z" fill="#263238"/>
<path d="M318.118 77.5692C318.247 77.6322 317.908 78.6922 317.361 79.9362C316.813 81.1812 316.261 82.1462 316.127 82.0932C315.993 82.0402 316.332 80.9802 316.885 79.7262C317.436 78.4732 317.988 77.5072 318.118 77.5692Z" fill="#263238"/>
<path d="M322.941 68.9443C323.061 69.0233 322.59 70.0313 321.889 71.1963C321.187 72.3613 320.517 73.2493 320.391 73.1793C320.265 73.1103 320.736 72.1023 321.443 70.9273C322.149 69.7533 322.82 68.8653 322.941 68.9443Z" fill="#263238"/>
<path d="M328.866 61.039C328.974 61.134 328.37 62.069 327.518 63.127C326.665 64.185 325.88 64.974 325.764 64.888C325.648 64.803 326.252 63.868 327.112 62.8C327.973 61.733 328.758 60.944 328.866 61.039Z" fill="#263238"/>
<path d="M335.892 54.0922C335.984 54.2032 335.246 55.0362 334.244 55.9522C333.241 56.8692 332.346 57.5292 332.244 57.4282C332.142 57.3272 332.88 56.4942 333.892 55.5672C334.905 54.6422 335.8 53.9812 335.892 54.0922Z" fill="#263238"/>
<path d="M343.973 48.4121C344.044 48.5371 343.174 49.2311 342.03 49.9611C340.886 50.6911 339.89 51.1881 339.806 51.0711C339.722 50.9541 340.592 50.2601 341.75 49.5221C342.907 48.7831 343.902 48.2861 343.973 48.4121Z" fill="#263238"/>
<path d="M352.978 44.3574C353.022 44.4944 352.034 45.0064 350.771 45.5004C349.508 45.9944 348.435 46.2884 348.374 46.1584C348.314 46.0274 349.302 45.5164 350.581 45.0154C351.86 44.5154 352.934 44.2214 352.978 44.3574Z" fill="#263238"/>
<path d="M360.199 42.5801C360.221 42.7221 359.694 42.9412 359.022 43.0692C358.349 43.1972 357.779 43.1872 357.747 43.0472C357.716 42.9072 358.243 42.6882 358.924 42.5582C359.606 42.4282 360.176 42.4381 360.199 42.5801Z" fill="#263238"/>
<path d="M307.024 5.03195L288.949 51.7695L358.29 78.5854L376.365 31.8478L307.024 5.03195Z" fill="#FBB040"/>
<path d="M358.288 78.615L358.265 78.606L288.902 51.784L288.911 51.761L306.993 5L307.016 5.009L376.379 31.831L376.37 31.854L358.288 78.615ZM288.966 51.756L358.259 78.551L376.314 31.86L307.021 5.065L288.966 51.756Z" fill="white"/>
<path d="M376.353 32.4931C376.361 32.5151 376.055 32.6421 375.467 32.8651C374.815 33.1031 373.956 33.4171 372.882 33.8101C370.558 34.6271 367.312 35.7691 363.327 37.1711C355.172 39.9701 344.01 43.8021 331.646 48.0461L331.385 48.1361L331.246 47.8971C331.14 47.7151 331.024 47.5171 330.909 47.3191C324.278 35.8741 318.278 25.5181 313.89 17.9451C311.768 14.2181 310.038 11.1801 308.8 9.00506C308.237 7.98806 307.787 7.17406 307.446 6.55706C307.143 5.99406 306.993 5.69206 307.014 5.68006C307.034 5.66806 307.223 5.94706 307.564 6.48806C307.933 7.08806 308.419 7.88106 309.028 8.87206C310.312 11.0211 312.104 14.0221 314.304 17.7041C318.735 25.2511 324.796 35.5721 331.493 46.9781C331.608 47.1761 331.724 47.3731 331.83 47.5561L331.43 47.4071C343.819 43.2371 355.004 39.4731 363.175 36.7221C367.188 35.4051 370.458 34.3321 372.799 33.5631C373.89 33.2201 374.762 32.9451 375.424 32.7371C376.025 32.5561 376.345 32.4711 376.353 32.4931Z" fill="white"/>
<path d="M288.938 52.4182C288.848 52.2552 296.54 47.8642 306.116 42.6132C315.695 37.3602 323.53 33.2362 323.62 33.3992C323.71 33.5622 316.02 37.9522 306.441 43.2052C296.864 48.4562 289.027 52.5812 288.938 52.4182Z" fill="white"/>
<path d="M346.896 41.7268C347.074 41.6728 349.767 50.0248 352.91 60.3798C356.054 70.7378 358.457 79.1768 358.279 79.2308C358.101 79.2848 355.408 70.9348 352.264 60.5758C349.122 50.2208 346.718 41.7808 346.896 41.7268Z" fill="white"/>
<path d="M285.614 175.981C285.758 175.991 285.829 176.559 285.773 177.249C285.717 177.94 285.556 178.489 285.412 178.475C285.269 178.462 285.198 177.894 285.253 177.207C285.309 176.521 285.471 175.971 285.614 175.981Z" fill="#263238"/>
<path d="M285.868 165.811C286.012 165.807 286.126 166.947 286.122 168.355C286.119 169.764 286 170.903 285.856 170.899C285.712 170.895 285.598 169.756 285.602 168.354C285.605 166.954 285.724 165.815 285.868 165.811Z" fill="#263238"/>
<path d="M285.178 155.662C285.321 155.645 285.542 156.768 285.671 158.171C285.801 159.574 285.789 160.719 285.645 160.728C285.502 160.737 285.281 159.614 285.152 158.219C285.024 156.825 285.035 155.68 285.178 155.662Z" fill="#263238"/>
<path d="M283.48 145.632C283.62 145.6 283.954 146.695 284.224 148.078C284.495 149.461 284.599 150.601 284.457 150.625C284.315 150.648 283.982 149.553 283.713 148.178C283.444 146.805 283.34 145.664 283.48 145.632Z" fill="#263238"/>
<path d="M280.715 135.841C280.851 135.793 281.302 136.846 281.723 138.191C282.144 139.537 282.373 140.659 282.234 140.697C282.095 140.735 281.644 139.683 281.226 138.346C280.808 137.011 280.579 135.889 280.715 135.841Z" fill="#263238"/>
<path d="M276.827 126.448C276.956 126.384 277.53 127.375 278.109 128.661C278.688 129.947 279.049 131.034 278.916 131.088C278.783 131.142 278.209 130.152 277.634 128.875C277.06 127.598 276.699 126.512 276.827 126.448Z" fill="#263238"/>
<path d="M271.775 117.622C271.893 117.542 272.612 118.438 273.37 119.629C274.091 120.843 274.574 121.884 274.449 121.955C274.324 122.026 273.642 121.107 272.926 119.903C272.176 118.721 271.655 117.704 271.775 117.622Z" fill="#263238"/>
<path d="M265.547 109.586C265.654 109.489 266.473 110.289 267.376 111.373C268.28 112.457 268.919 113.406 268.805 113.494C268.691 113.582 267.872 112.782 266.976 111.707C266.081 110.632 265.441 109.682 265.547 109.586Z" fill="#263238"/>
<path d="M258.242 102.51C258.334 102.399 259.258 103.075 260.305 104.02C261.353 104.965 262.121 105.814 262.02 105.917C261.919 106.02 260.995 105.344 259.956 104.407C258.918 103.47 258.15 102.62 258.242 102.51Z" fill="#263238"/>
<path d="M249.993 96.5645C250.067 96.4415 251.08 96.9755 252.255 97.7575C253.43 98.5395 254.313 99.2685 254.228 99.3845C254.143 99.5005 253.13 98.9665 251.966 98.1915C250.802 97.4165 249.919 96.6875 249.993 96.5645Z" fill="#263238"/>
<path d="M240.932 91.945C240.986 91.812 242.07 92.183 243.352 92.774C244.635 93.365 245.621 93.948 245.555 94.076C245.489 94.204 244.405 93.833 243.134 93.247C241.864 92.661 240.878 92.078 240.932 91.945Z" fill="#263238"/>
<path d="M231.239 88.8795C231.269 88.7385 232.399 88.9225 233.763 89.2905C235.127 89.6585 236.196 90.0675 236.152 90.2045C236.108 90.3415 234.978 90.1575 233.628 89.7935C232.278 89.4295 231.209 89.0205 231.239 88.8795Z" fill="#263238"/>
<path d="M221.156 87.5906C221.159 87.4486 222.306 87.3896 223.717 87.4756C225.122 87.6226 226.246 87.8576 226.226 87.9996C226.206 88.1426 225.064 88.1396 223.675 87.9946C222.281 87.9096 221.153 87.7356 221.156 87.5906Z" fill="#263238"/>
<path d="M211.02 88.289C210.995 88.147 212.112 87.897 213.516 87.731C214.92 87.565 216.064 87.547 216.073 87.691C216.082 87.834 214.965 88.084 213.577 88.248C212.19 88.413 211.045 88.431 211.02 88.289Z" fill="#263238"/>
<path d="M201.197 90.9034C201.146 90.7684 202.196 90.3134 203.543 89.8854C204.89 89.4584 206.011 89.2254 206.047 89.3644C206.083 89.5034 205.033 89.9594 203.701 90.3824C202.369 90.8044 201.248 91.0384 201.197 90.9034Z" fill="#263238"/>
<path d="M192.039 95.312C191.963 95.19 192.909 94.545 194.152 93.872C195.395 93.199 196.452 92.76 196.513 92.89C196.574 93.02 195.628 93.665 194.4 94.33C193.172 94.995 192.115 95.434 192.039 95.312Z" fill="#263238"/>
<path d="M183.915 101.419C183.816 101.315 184.616 100.495 185.701 99.5901C186.787 98.6841 187.736 98.0441 187.821 98.1601C187.906 98.2761 187.107 99.0951 186.034 99.9891C184.964 100.883 184.014 101.523 183.915 101.419Z" fill="#263238"/>
<path d="M177.266 109.093C177.148 109.014 177.691 107.996 178.558 106.878C179.423 105.758 180.271 104.976 180.377 105.07C180.486 105.166 179.823 106.092 178.97 107.197C178.115 108.3 177.387 109.175 177.266 109.093Z" fill="#263238"/>
<path d="M173.554 115.697C173.422 115.639 173.562 115.084 173.865 114.459C174.169 113.833 174.518 113.38 174.645 113.448C174.772 113.515 174.633 114.07 174.333 114.687C174.034 115.303 173.685 115.756 173.554 115.697Z" fill="#263238"/>
<path d="M110.016 174.711C110.006 174.567 110.548 174.384 111.226 174.302C111.904 174.22 112.474 174.268 112.499 174.41C112.524 174.552 111.982 174.735 111.289 174.819C110.595 174.903 110.025 174.854 110.016 174.711Z" fill="#263238"/>
<path d="M100.111 173.587C100.156 173.447 101.25 173.677 102.591 173.957C103.931 174.241 105.026 174.467 105.011 174.613C104.998 174.753 103.855 174.757 102.484 174.467C101.113 174.181 100.067 173.721 100.111 173.587Z" fill="#263238"/>
<path d="M91.1618 169.161C91.2468 169.042 92.2218 169.594 93.4008 170.297C94.5788 171.002 95.5298 171.592 95.4658 171.724C95.4048 171.852 94.3328 171.462 93.1338 170.744C91.9338 170.029 91.0788 169.276 91.1618 169.161Z" fill="#263238"/>
<path d="M83.7185 162.481C83.8285 162.385 84.6495 163.15 85.6175 164.127C86.5835 165.106 87.3415 165.933 87.2445 166.042C87.1505 166.149 86.2265 165.486 85.2475 164.493C84.2665 163.503 83.6115 162.574 83.7185 162.481Z" fill="#263238"/>
<path d="M77.8348 154.381C77.9588 154.309 78.6718 155.183 79.4258 156.333C80.1798 157.484 80.6968 158.486 80.5808 158.571C80.4648 158.656 79.7528 157.782 78.9898 156.618C78.2278 155.455 77.7108 154.453 77.8348 154.381Z" fill="#263238"/>
<path d="M73.5184 145.348C73.6534 145.298 74.2004 146.284 74.7404 147.551C75.2804 148.818 75.6124 149.896 75.4834 149.959C75.3544 150.022 74.8074 149.036 74.2614 147.756C73.7154 146.476 73.3834 145.398 73.5184 145.348Z" fill="#263238"/>
<path d="M70.6425 135.751C70.7825 135.72 71.1805 136.775 71.5305 138.108C71.8805 139.442 72.0525 140.556 71.9155 140.598C71.7785 140.64 71.3805 139.585 71.0275 138.241C70.6745 136.897 70.5025 135.782 70.6425 135.751Z" fill="#263238"/>
<path d="M68.9041 125.881C69.0471 125.863 69.3302 126.955 69.5372 128.319C69.7442 129.684 69.7961 130.811 69.6551 130.836C69.5141 130.861 69.2302 129.77 69.0222 128.397C68.8142 127.026 68.7621 125.899 68.9041 125.881Z" fill="#263238"/>
<path d="M67.943 115.904C68.087 115.894 68.2931 117.003 68.4051 118.381C68.5171 119.759 68.491 120.886 68.348 120.9C68.205 120.914 67.9981 119.805 67.8861 118.423C67.7741 117.041 67.8 115.913 67.943 115.904Z" fill="#263238"/>
<path d="M67.5275 108.397C67.6715 108.391 67.8145 108.944 67.8475 109.633C67.8805 110.322 67.7905 110.887 67.6465 110.894C67.5025 110.901 67.3595 110.348 67.3275 109.658C67.2935 108.968 67.3835 108.403 67.5275 108.397Z" fill="#263238"/>
<path d="M105.179 47.7668L22.0273 51.6875L24.67 107.734L107.821 103.813L105.179 47.7668Z" fill="#FBB040"/>
<path d="M24.644 107.761L24.643 107.736L22 51.6651L22.025 51.6641L105.2 47.7441L105.201 47.7691L107.844 103.84L107.819 103.841L24.644 107.761ZM22.052 51.7121L24.691 107.708L107.791 103.791L105.152 47.7951L22.052 51.7121Z" fill="white"/>
<path d="M105.476 48.4308C105.494 48.4498 105.239 48.7188 104.737 49.2138C104.177 49.7528 103.439 50.4638 102.517 51.3518C100.507 53.2408 97.6988 55.8788 94.2518 59.1178C87.1668 65.6748 77.4688 74.6508 66.7268 84.5928L66.4998 84.8028L66.2488 84.6208C66.0578 84.4828 65.8498 84.3318 65.6418 84.1818C53.6718 75.4618 42.8388 67.5698 34.9188 61.7998C31.0588 58.9428 27.9118 56.6148 25.6598 54.9468C24.6228 54.1598 23.7928 53.5298 23.1648 53.0528C22.5998 52.6128 22.3098 52.3718 22.3248 52.3508C22.3398 52.3298 22.6598 52.5298 23.2538 52.9298C23.9028 53.3778 24.7608 53.9698 25.8318 54.7088C28.1188 56.3288 31.3128 58.5908 35.2318 61.3668C43.1858 67.0908 54.0638 74.9188 66.0848 83.5698C66.2928 83.7198 66.4998 83.8708 66.6908 84.0088L66.2138 84.0368C77.0148 74.1598 86.7668 65.2418 93.8908 58.7268C97.4048 55.5618 100.268 52.9828 102.318 51.1368C103.28 50.2918 104.049 49.6158 104.633 49.1028C105.169 48.6438 105.458 48.4118 105.476 48.4308Z" fill="white"/>
<path d="M24.9644 108.396C24.7984 108.269 30.6894 100.292 38.1194 90.5802C45.5524 80.8652 51.7104 73.0952 51.8764 73.2222C52.0424 73.3492 46.1524 81.3242 38.7194 91.0392C31.2894 100.751 25.1304 108.522 24.9644 108.396Z" fill="white"/>
<path d="M79.4834 71.2187C79.6414 71.0827 86.1794 78.4177 94.0844 87.6007C101.992 96.7867 108.272 104.341 108.114 104.477C107.956 104.613 101.419 97.2787 93.5114 88.0937C85.6074 78.9107 79.3254 71.3547 79.4834 71.2187Z" fill="white"/>
</svg>
