<svg width="410" height="410" viewBox="0 0 410 410" fill="none" xmlns="http://www.w3.org/2000/svg">
<path d="M0 12C0 5.37257 5.37258 0 12 0H397.315C403.942 0 409.315 5.37258 409.315 12V408.771H0V12Z" fill="#469D52"/>
<path d="M97.424 351.523C97.424 351.523 92.7114 351.523 91.4899 357.019C90.2683 362.516 90.0938 364.412 90.0938 364.412C90.0938 364.412 84.7307 369.645 90.0938 371.046C95.4569 372.448 97.4249 364.602 97.4249 364.602L98.2509 351.523C97.424 351.523 97.424 351.523 97.424 351.523Z" fill="#FFBE9D"/>
<path d="M151.129 251.256C151.129 251.256 167.888 190.151 169.594 187.515C172.412 183.163 199.535 170.068 199.535 170.068L206.809 153.95L251.902 146.124L263.069 161.741L294.471 186.722L292.28 273.161L291.115 333.517L297.057 408.856L154.437 408.621L160.889 392.753L167.663 255.723L151.129 251.256Z" fill="#39B54A"/>
<path d="M170.455 243.017C170.438 243.017 170.419 242.847 170.398 242.524C170.379 242.14 170.356 241.673 170.329 241.108C170.276 239.878 170.229 238.097 170.191 235.896C170.116 231.494 170.113 225.41 170.289 218.694C170.468 211.976 170.792 205.901 171.1 201.511C171.253 199.316 171.395 197.541 171.512 196.316C171.569 195.753 171.617 195.288 171.656 194.906C171.694 194.585 171.722 194.416 171.738 194.418C171.755 194.419 171.758 194.591 171.751 194.915C171.736 195.298 171.718 195.766 171.696 196.331C171.63 197.639 171.543 199.397 171.436 201.534C171.215 205.927 170.944 211.997 170.765 218.708C170.59 225.416 170.54 231.493 170.529 235.892C170.522 238.032 170.518 239.794 170.514 241.103C170.506 241.669 170.499 242.137 170.494 242.521C170.484 242.846 170.471 243.017 170.455 243.017Z" fill="#263238"/>
<path d="M202.758 225.447C202.727 224.729 202.928 224.082 203.284 223.537C204.351 221.901 206.812 221.171 208.607 222.101C210.999 223.343 212.186 226.318 212.665 229.149C213.191 232.246 213.114 235.437 213.651 238.533C214.188 241.628 215.495 244.787 217.993 246.389C221.09 248.374 225.155 247.474 228.409 249.138C233.254 251.615 234.375 258.452 234.618 264.262C235.078 275.261 234.639 286.278 234.202 297.278C233.269 320.7 232.335 344.122 231.402 367.544L228.858 402.794L215.733 408.85L198.376 285.007L202.758 225.447Z" fill="#34A143"/>
<path d="M206.497 215.429C206.504 215.442 206.393 215.523 206.157 215.627C205.919 215.724 205.537 215.813 205.048 215.747C204.102 215.632 202.657 214.772 202.068 212.917C201.784 212.014 201.714 210.956 201.803 209.862C201.889 208.764 202.116 207.624 202.328 206.432C202.769 204.036 203.249 201.417 203.755 198.668C204.78 193.162 205.733 188.182 206.447 184.584C206.801 182.854 207.093 181.421 207.316 180.327C207.532 179.324 207.666 178.774 207.699 178.781C207.731 178.788 207.658 179.352 207.498 180.367C207.312 181.469 207.069 182.913 206.777 184.656C206.147 188.274 205.246 193.264 204.221 198.771C203.703 201.517 203.21 204.133 202.759 206.526C202.285 208.891 201.865 211.078 202.388 212.804C202.881 214.516 204.203 215.386 205.077 215.547C205.996 215.724 206.485 215.362 206.497 215.429Z" fill="#263238"/>
<path d="M211.136 192.443C211.138 192.492 210.763 192.489 210.142 192.702C209.529 192.908 208.654 193.401 207.941 194.386C207.229 195.341 206.735 196.899 207.262 198.452C207.737 199.969 209.116 201.415 210.838 201.58C212.563 201.714 214.135 200.523 214.826 199.107C215.572 197.664 215.312 196.04 214.748 194.976C214.187 193.88 213.396 193.243 212.821 192.934C212.238 192.618 211.868 192.556 211.877 192.507C211.879 192.489 211.972 192.494 212.149 192.52C212.325 192.543 212.584 192.609 212.898 192.751C213.524 193.018 214.398 193.641 215.041 194.793C215.354 195.366 215.609 196.068 215.676 196.864C215.738 197.656 215.607 198.538 215.214 199.33C214.469 200.907 212.764 202.24 210.801 202.096C208.843 201.9 207.355 200.291 206.848 198.607C206.576 197.757 206.576 196.864 206.752 196.093C206.934 195.319 207.288 194.669 207.681 194.158C208.483 193.131 209.437 192.666 210.094 192.51C210.425 192.425 210.69 192.403 210.867 192.411C211.044 192.413 211.136 192.424 211.136 192.443Z" fill="#263238"/>
<path d="M226.478 255.608L144.101 239.422L105.652 248.581L191.7 265.405L226.478 255.608Z" fill="#DB9A39"/>
<path d="M173.807 294.617C174.924 278.131 179.088 236.256 182.212 220.075C183.147 215.234 184.223 210.279 186.817 206.212C189.411 202.145 193.887 199.118 198.39 199.871C202.41 200.543 205.636 204.086 207.268 208.131C208.901 212.176 209.511 216.692 209.341 221.105C208.566 241.104 206.974 263.512 206.989 282.055" fill="#FFBF9D"/>
<path d="M201.704 255.354C201.721 255.433 200.534 255.764 198.649 256.404C196.763 257.041 194.189 258.026 191.447 259.374C188.706 260.727 186.327 262.181 184.643 263.301C182.958 264.42 181.946 265.171 181.902 265.105C181.883 265.076 182.114 264.857 182.55 264.482C182.984 264.105 183.637 263.594 184.461 262.992C186.108 261.786 188.484 260.267 191.249 258.902C194.016 257.542 196.633 256.603 198.554 256.051C199.514 255.774 200.298 255.579 200.845 255.472C201.393 255.364 201.697 255.319 201.704 255.354Z" fill="#EB996E"/>
<path d="M203.075 236.32C203.09 236.404 201.836 236.702 199.863 237.364C197.891 238.023 195.211 239.108 192.423 240.694C189.638 242.289 187.296 244.071 185.677 245.462C184.056 246.851 183.119 247.804 183.064 247.743C183.041 247.717 183.253 247.455 183.658 247C184.058 246.541 184.674 245.915 185.464 245.179C187.041 243.704 189.383 241.851 192.202 240.237C195.024 238.631 197.757 237.587 199.77 237.013C200.777 236.723 201.6 236.527 202.175 236.429C202.748 236.326 203.068 236.285 203.075 236.32Z" fill="#EB996E"/>
<path d="M201.222 221.003C201.225 221.091 200.245 221.14 198.702 221.448C197.16 221.751 195.06 222.387 192.919 223.54C190.781 224.702 189.047 226.138 187.895 227.291C186.739 228.443 186.114 229.264 186.05 229.207C186.024 229.185 186.158 228.961 186.423 228.572C186.682 228.179 187.104 227.648 187.661 227.028C188.772 225.788 190.517 224.266 192.706 223.078C194.897 221.897 197.066 221.302 198.648 221.086C199.439 220.976 200.084 220.931 200.53 220.943C200.976 220.948 201.221 220.967 201.222 221.003Z" fill="#EB996E"/>
<path d="M190.993 268.71C190.993 268.754 191.008 268.782 191.008 268.796V326.038C191.008 328.548 189.149 331.143 185.721 333.106C182.306 335.065 177.312 336.409 171.081 336.424H171.002C158.528 336.397 151.075 331.073 151.075 326.039V268.796C151.075 268.781 151.089 268.753 151.089 268.71C151.089 268.682 151.075 268.639 151.075 268.596C151.103 262.998 154.889 257.156 158.701 251.385C161.264 247.534 161.875 241.979 161.994 238.72C162.008 238.33 162.022 237.984 162.022 237.666H161.677C160.029 237.666 158.701 236.425 158.701 234.895V232.472C158.701 230.929 160.029 229.688 161.677 229.688H180.407C181.642 229.688 182.706 230.382 183.156 231.376C183.302 231.722 183.383 232.083 183.383 232.472V234.895C183.383 236.425 182.054 237.666 180.407 237.666H180.063C180.063 237.984 180.076 238.33 180.088 238.72C180.208 241.979 180.82 247.534 183.383 251.385C187.195 257.155 190.982 262.997 191.008 268.596C191.008 268.639 190.993 268.681 190.993 268.71Z" fill="#FAFAFA"/>
<path d="M190.993 268.71C190.993 268.71 190.998 268.513 190.964 268.125C190.953 267.736 190.888 267.161 190.771 266.412C190.51 264.921 189.872 262.76 188.592 260.204C187.326 257.639 185.448 254.703 183.198 251.323C182.069 249.603 181.287 247.477 180.754 245.165C180.224 242.847 179.948 240.326 179.908 237.666L179.905 237.491L180.064 237.498C180.769 237.527 181.456 237.406 182.053 237.002C182.642 236.614 183.103 235.959 183.198 235.205C183.241 234.441 183.207 233.577 183.216 232.751C183.275 231.929 182.986 231.157 182.402 230.638C181.832 230.113 181.068 229.854 180.287 229.881C179.478 229.882 178.658 229.884 177.83 229.885C176.172 229.888 174.478 229.89 172.749 229.893C169.29 229.898 165.688 229.903 161.96 229.908C161.053 229.857 160.154 230.153 159.533 230.848C159.235 231.195 159.011 231.622 158.944 232.09C158.88 232.533 158.924 233.103 158.911 233.612C158.918 234.123 158.896 234.689 158.927 235.16C158.985 235.635 159.184 236.087 159.491 236.446C160.113 237.183 161.053 237.499 162.023 237.433L162.24 237.418L162.237 237.665C162.208 239.958 162.003 242.284 161.536 244.603C161.061 246.909 160.321 249.239 159.035 251.283C157.748 253.272 156.418 255.252 155.202 257.353C153.991 259.448 152.842 261.647 152.093 264.034C151.719 265.225 151.446 266.461 151.35 267.721C151.29 268.968 151.317 270.292 151.311 271.587C151.312 274.194 151.312 276.827 151.313 279.483C151.314 284.796 151.314 290.205 151.315 295.687C151.313 305.328 151.311 314.741 151.31 323.831C151.332 324.96 151.235 326.13 151.451 327.15C151.664 328.204 152.237 329.139 152.891 329.948C154.233 331.57 155.993 332.728 157.813 333.588C159.643 334.448 161.561 335.016 163.479 335.423C165.397 335.846 167.332 336.037 169.241 336.133C173.062 336.312 176.821 335.973 180.337 335.036C182.089 334.553 183.785 333.925 185.345 333.065C186.9 332.209 188.346 331.134 189.422 329.739C189.962 329.047 190.376 328.257 190.622 327.42C190.873 326.586 190.811 325.697 190.82 324.79C190.823 322.998 190.824 321.239 190.827 319.516C190.833 316.068 190.837 312.759 190.843 309.6C190.875 296.977 190.9 286.76 190.919 279.679C190.938 272.615 190.993 268.71 190.993 268.71C191.015 268.709 191.027 268.952 191.032 269.429C191.037 269.923 191.046 270.627 191.056 271.545C191.066 273.421 191.081 276.158 191.1 279.68C191.119 286.761 191.144 296.978 191.176 309.601C191.181 312.76 191.186 316.069 191.192 319.517C191.195 321.241 191.196 322.999 191.199 324.791C191.198 325.241 191.197 325.692 191.196 326.145C191.194 326.619 191.106 327.086 190.992 327.542C190.729 328.446 190.288 329.287 189.724 330.012C188.6 331.475 187.114 332.581 185.527 333.459C183.935 334.342 182.212 334.983 180.436 335.477C176.873 336.434 173.08 336.782 169.221 336.61C167.293 336.515 165.336 336.326 163.392 335.9C161.448 335.492 159.5 334.917 157.63 334.041C155.77 333.163 153.959 331.984 152.543 330.28C151.855 329.427 151.239 328.431 150.999 327.27C150.759 326.09 150.87 324.967 150.843 323.832C150.841 314.741 150.84 305.329 150.839 295.688C150.84 290.205 150.84 284.797 150.84 279.484C150.841 276.827 150.841 274.195 150.842 271.588C150.85 270.276 150.82 269.008 150.885 267.682C150.986 266.37 151.271 265.094 151.655 263.873C152.426 261.426 153.593 259.202 154.817 257.09C156.043 254.976 157.386 252.981 158.666 251.009C159.908 249.043 160.638 246.769 161.107 244.501C161.57 242.225 161.777 239.921 161.81 237.667L162.024 237.9C161.02 237.97 159.888 237.62 159.179 236.757C158.82 236.335 158.579 235.792 158.511 235.217C158.475 234.635 158.502 234.149 158.494 233.613C158.51 233.078 158.458 232.598 158.536 232.014C158.619 231.452 158.889 230.943 159.237 230.541C159.948 229.734 161.014 229.412 161.96 229.47C165.689 229.475 169.29 229.48 172.749 229.485C174.478 229.488 176.172 229.491 177.83 229.493C178.658 229.494 179.477 229.496 180.287 229.497C181.123 229.471 181.989 229.758 182.626 230.352C183.285 230.922 183.629 231.896 183.553 232.751C183.54 233.599 183.575 234.391 183.524 235.254C183.41 236.131 182.876 236.87 182.221 237.296C181.568 237.743 180.77 237.87 180.064 237.834L180.219 237.665C180.294 242.9 181.228 247.745 183.398 251.17C185.626 254.561 187.493 257.526 188.741 260.117C190.005 262.7 190.623 264.888 190.857 266.394C190.962 267.15 191.013 267.73 191.01 268.121C191.028 268.513 191.011 268.71 190.993 268.71Z" fill="#263238"/>
<path d="M179.002 237.526C179.002 237.669 175.269 237.784 170.664 237.784C166.058 237.784 162.325 237.668 162.325 237.526C162.325 237.384 166.058 237.269 170.664 237.269C175.268 237.269 179.002 237.384 179.002 237.526Z" fill="#263238"/>
<path d="M189.326 276.358C187.641 275.17 185.422 275.692 183.612 276.62C181.802 277.547 180.096 278.855 178.131 279.197C175.817 279.601 173.49 278.6 171.432 277.336C169.376 276.072 167.435 274.518 165.22 273.66C160.978 272.017 155.959 273.301 152.758 276.848V326.003C152.758 326.003 155.246 334.389 172.752 333.072C190.257 331.754 188.879 323.367 188.879 323.367L189.326 276.358Z" fill="#E8505B"/>
<path d="M142.949 242.902C143.464 239.282 142.596 235.452 140.592 232.504C138.588 229.557 135.475 227.527 132.137 226.993C131.825 226.943 131.479 226.913 131.219 227.108C130.85 227.386 130.834 227.964 130.876 228.449C131.18 231.961 132.533 235.358 134.681 238.004C136.829 240.65 139.762 242.533 142.933 243.3" fill="#455A64"/>
<path d="M124.972 268.609C128.21 275.853 132.86 280.731 138.62 280.967C139.772 281.011 140.643 280.188 141.743 280.119C142.306 280.161 142.96 280.592 143.586 280.872C143.92 281.011 144.252 281.121 144.547 281.108C150.501 280.761 155.572 276.213 158.99 268.608C163.75 257.957 162.28 246.515 155.711 243.04C154.775 242.539 153.893 242.165 153.023 241.899C151.96 241.594 150.911 241.441 149.757 241.483C147.734 241.526 145.418 242.123 142.293 243.318C142.192 243.36 142.076 243.403 141.973 243.444C136.636 240.885 132.372 240.87 128.238 243.04C121.668 246.517 120.208 257.959 124.972 268.609Z" fill="#E8505B"/>
<path d="M125.087 257.821C125.044 257.84 124.704 257.056 124.534 255.681C124.358 254.314 124.446 252.347 125.122 250.349C125.805 248.354 126.917 246.797 127.869 245.883C128.822 244.96 129.55 244.604 129.571 244.648C129.618 244.726 128.965 245.187 128.103 246.146C127.24 247.099 126.225 248.616 125.569 250.529C124.922 252.445 124.785 254.314 124.871 255.647C124.948 256.983 125.169 257.795 125.087 257.821Z" fill="#FAFAFA"/>
<path d="M126.293 262.884C126.165 262.916 125.95 262.415 125.811 261.764C125.673 261.113 125.665 260.56 125.793 260.528C125.921 260.496 126.136 260.997 126.275 261.648C126.413 262.299 126.422 262.852 126.293 262.884Z" fill="#FAFAFA"/>
<path d="M156.521 225.479C156.556 225.571 155.293 226.086 153.443 227.29C152.515 227.885 151.467 228.692 150.37 229.673C149.289 230.676 148.17 231.865 147.123 233.237C146.09 234.623 145.238 236.051 144.546 237.399C143.878 238.762 143.356 240.038 143.004 241.143C142.283 243.349 142.068 244.796 141.978 244.777C141.946 244.771 141.982 244.408 142.075 243.753C142.117 243.425 142.181 243.025 142.293 242.57C142.401 242.113 142.501 241.585 142.684 241.026C143.001 239.889 143.499 238.575 144.159 237.174C144.842 235.787 145.701 234.323 146.754 232.909C147.821 231.509 148.974 230.306 150.09 229.304C151.224 228.325 152.31 227.535 153.274 226.973C153.743 226.666 154.2 226.456 154.59 226.251C154.978 226.041 155.326 225.893 155.615 225.783C156.19 225.555 156.511 225.445 156.521 225.479Z" fill="#263238"/>
<path d="M105.652 248.581L95.2979 390.389L191.783 415.718C191.783 415.718 225.435 403.327 225.894 402.48C226.353 401.634 226.479 255.608 226.479 255.608L191.701 265.405L105.652 248.581Z" fill="#FBB040"/>
<path d="M256.977 83.4061L251.598 166.165C250.719 179.678 240.369 190.151 227.896 190.151C214.163 190.151 203.284 177.541 204.186 162.66C204.663 154.782 205.094 148.332 205.094 148.332C205.094 148.332 186.645 145.217 186.416 125.186C186.285 113.616 188.122 87.3619 189.697 67.2478C190.762 53.6502 201.244 43.2117 213.811 43.2117H224.955C244.148 44.4291 258.629 62.6064 256.977 83.4061Z" fill="#FFBE9D"/>
<path d="M205.095 148.331C205.095 148.331 216.723 149.072 229.113 140.621C229.113 140.621 223.172 155.194 204.765 153.389L205.095 148.331Z" fill="#EB996E"/>
<path d="M193.161 87.9095C193.488 88.2826 195.482 86.6783 198.318 86.6872C201.15 86.6515 203.23 88.2349 203.537 87.8579C203.689 87.6912 203.356 87.0176 202.45 86.3012C201.558 85.5879 200.037 84.8944 198.272 84.9023C196.506 84.9132 195.02 85.6186 194.167 86.3409C193.295 87.0672 193 87.7428 193.161 87.9095Z" fill="#263238"/>
<path d="M223.844 91.4436C223.795 92.9547 224.932 94.2455 226.384 94.3298C227.833 94.4141 229.05 93.2612 229.099 91.7502C229.148 90.2401 228.011 88.9473 226.561 88.862C225.11 88.7777 223.892 89.9335 223.844 91.4436Z" fill="#263238"/>
<path d="M195.718 91.4436C195.67 92.9547 196.806 94.2455 198.258 94.3298C199.707 94.4141 200.924 93.2612 200.973 91.7502C201.023 90.2401 199.885 88.9473 198.435 88.862C196.984 88.7777 195.766 89.9335 195.718 91.4436Z" fill="#263238"/>
<path d="M220.742 87.9095C221.069 88.2826 223.068 86.6792 225.901 86.6872C228.732 86.6515 230.812 88.234 231.12 87.8569C231.27 87.6903 230.941 87.0166 230.032 86.3012C229.14 85.5879 227.62 84.8944 225.854 84.9023C224.088 84.9132 222.603 85.6186 221.749 86.3419C220.879 87.0682 220.582 87.7428 220.742 87.9095Z" fill="#263238"/>
<path d="M210.454 110.738C210.467 110.564 208.706 110.233 205.851 109.836C205.127 109.755 204.442 109.599 204.319 109.062C204.148 108.495 204.452 107.648 204.803 106.733C205.483 104.831 206.196 102.837 206.943 100.747C209.916 92.2245 212.068 85.2179 211.751 85.0899C211.434 84.9629 208.766 91.7671 205.794 100.29C205.078 102.391 204.394 104.394 203.744 106.311C203.47 107.204 202.999 108.217 203.368 109.396C203.563 109.983 204.094 110.41 204.559 110.546C205.023 110.7 205.43 110.707 205.787 110.731C208.661 110.9 210.443 110.914 210.454 110.738Z" fill="#263238"/>
<path d="M218.797 112.868C218.335 112.839 218.33 116.181 215.697 118.552C213.068 120.932 209.788 120.557 209.764 121.024C209.721 121.233 210.495 121.673 211.879 121.714C213.236 121.764 215.22 121.291 216.832 119.839C218.438 118.385 219.129 116.444 219.235 115.073C219.351 113.677 219.008 112.849 218.797 112.868Z" fill="#263238"/>
<path d="M220.01 77.9037C220.29 78.741 223.12 78.3442 226.446 78.7797C229.781 79.1419 232.462 80.1995 232.904 79.4494C233.1 79.0903 232.633 78.3025 231.549 77.4919C230.474 76.6833 228.759 75.9144 226.763 75.6723C224.766 75.4361 222.938 75.7804 221.727 76.3152C220.505 76.849 219.89 77.5068 220.01 77.9037Z" fill="#263238"/>
<path d="M193.556 79.0962C194.055 79.7957 196.008 79.0694 198.357 79.0357C200.704 78.9127 202.693 79.506 203.15 78.7748C203.351 78.4196 203.038 77.7191 202.169 77.0573C201.313 76.3976 199.881 75.8588 198.268 75.9114C196.654 75.9669 195.256 76.6009 194.439 77.3163C193.608 78.0356 193.336 78.7559 193.556 79.0962Z" fill="#263238"/>
<path d="M250.759 98.4414C251.073 98.2936 263.433 94.3706 263.03 108.065C262.627 121.76 250.049 118.497 250.039 118.103C250.029 117.709 250.759 98.4414 250.759 98.4414Z" fill="#FFBE9D"/>
<path d="M254.044 113.048C254.101 113.006 254.26 113.223 254.626 113.42C254.982 113.612 255.601 113.758 256.266 113.513C257.615 113.028 258.804 110.77 258.938 108.304C259.007 107.059 258.802 105.864 258.424 104.868C258.068 103.852 257.492 103.131 256.825 102.978C256.162 102.787 255.674 103.208 255.509 103.587C255.329 103.964 255.401 104.24 255.334 104.261C255.297 104.294 255.07 104.023 255.187 103.461C255.248 103.191 255.405 102.872 255.708 102.62C256.019 102.363 256.468 102.242 256.934 102.314C257.905 102.42 258.752 103.423 259.166 104.517C259.635 105.618 259.893 106.962 259.816 108.361C259.654 111.117 258.277 113.655 256.437 114.164C255.543 114.384 254.811 114.069 254.438 113.733C254.057 113.379 254 113.071 254.044 113.048Z" fill="#EB996E"/>
<path d="M257.775 97.9771C255.852 97.472 252.524 99.3998 251.704 101.355C250.883 103.311 250.702 105.527 249.886 107.484C249.068 109.44 247.22 111.211 245.294 110.715C243.965 110.374 243.016 109.023 242.665 107.59C242.314 106.157 242.457 104.643 242.628 103.173C243.37 96.7765 244.609 90.4346 244.846 83.9935C245.083 77.5524 244.238 70.8603 241.124 65.3726C238.009 59.885 232.288 55.8499 226.371 56.3678C222.451 56.7111 218.857 58.9305 214.963 59.5229C210.346 60.2243 205.465 58.4553 202.163 54.8825C201.739 54.4251 199.771 53.0153 199.771 53.0153C199.771 52.6829 200.06 49.8235 201.098 48.7807C208.823 41.023 222.743 38.8571 232.947 41.6461C243.151 44.4351 252.715 52.2583 257.105 62.6422C261.496 73.0262 260.194 87.4691 257.775 97.9771Z" fill="#263238"/>
<path d="M187.681 63.6314C189.334 67.7915 193.55 70.2124 197.701 70.6708C201.852 71.1292 205.997 69.9594 210.011 68.7232C214.026 67.4869 224.794 65.5473 228.965 65.6862C229.589 65.707 230.339 65.6941 230.671 65.1196C231.109 64.3596 230.407 63.4399 229.756 62.8863C224.258 58.2092 210.967 55.3409 203.989 55.0224C197.012 54.7029 189.683 57.9602 185.906 64.3388" fill="#263238"/>
<path d="M189.494 64.1552C189.494 64.1552 237.888 47.2478 258.822 92.7146C258.822 92.7146 261.951 81.3365 261.951 75.2377C261.951 71.1638 259.706 46.9035 236.72 39.2728C236.719 39.2718 202.088 24.9192 189.494 64.1552Z" fill="#263238"/>
<path d="M189.494 64.1552C189.494 64.1552 195.002 57.0404 204.883 56.5672C219.158 55.8826 245.877 64.5987 258.822 92.7146C258.822 92.7146 261.951 81.3365 261.951 75.2377C261.951 71.1638 259.706 46.9035 236.72 39.2728C236.719 39.2718 202.088 24.9192 189.494 64.1552Z" fill="#39B54A"/>
<path d="M256.8 87.3917C249.623 75.4698 239.73 65.6117 228.606 58.0653C217.482 50.519 199.087 43.0549 186.41 39.4008C182.604 38.3035 178.636 37.345 174.756 38.0733C170.876 38.8015 167.078 41.6074 166.115 45.7536C164.91 50.9436 173.391 58.9523 177.377 62.1015C181.363 65.2506 189.493 69.8701 189.493 69.8701C189.493 69.8701 189.385 60.2441 203.572 58.2588C222.871 55.5591 256.8 87.3917 256.8 87.3917Z" fill="#31853D"/>
<path d="M217.111 48.1229C217.111 48.1229 210.138 43.934 203.135 42.9577C204.573 41.8138 205.341 41.2641 206.933 40.4823C210.515 41.2562 214.146 42.2434 217.825 44.4589L217.111 48.1229Z" fill="#FAFAFA"/>
<path d="M277.908 184.628C277.908 184.628 264.68 201.047 266.141 223.897C266.344 227.066 266.488 231.483 266.847 234.639C269.077 254.239 272.528 272.433 272.528 272.433H273.786L319.916 260.064C319.916 260.064 312.966 216.575 311.37 210.805C306.258 192.323 288.725 182.153 288.725 182.153L277.908 184.628Z" fill="#39B54A"/>
<path d="M225.893 402.48C225.893 402.48 225.879 402.23 225.874 401.74C225.871 401.237 225.867 400.513 225.86 399.566C225.858 397.639 225.856 394.818 225.852 391.179C225.864 383.866 225.881 373.277 225.903 360.103C225.988 333.726 226.107 297.014 226.241 255.607L226.536 255.856C220.926 257.437 214.999 259.107 208.988 260.802C203.086 262.463 197.265 264.103 191.759 265.653L191.935 265.401C192.17 286.16 192.106 305.744 192.017 323.441C191.919 341.134 191.832 356.944 191.759 370.165C191.71 383.381 191.713 394.002 191.743 401.32C191.757 404.97 191.768 407.798 191.776 409.73C191.776 410.679 191.776 411.406 191.776 411.91C191.773 412.401 191.76 412.652 191.76 412.652C191.76 412.652 191.743 412.401 191.73 411.911C191.72 411.407 191.705 410.68 191.686 409.731C191.66 407.798 191.62 404.971 191.57 401.321C191.486 394.003 191.435 383.381 191.441 370.164C191.485 356.943 191.536 341.132 191.595 323.439C191.658 305.743 191.703 286.161 191.462 265.408L191.459 265.207L191.639 265.156C197.144 263.604 202.965 261.964 208.866 260.301C214.878 258.608 220.806 256.938 226.416 255.359L226.713 255.275L226.711 255.609C226.515 297.015 226.342 333.728 226.217 360.104C226.134 373.277 226.068 383.866 226.022 391.179C225.989 394.818 225.964 397.638 225.947 399.565C225.933 400.512 225.923 401.236 225.917 401.739C225.91 402.23 225.893 402.48 225.893 402.48Z" fill="#263238"/>
<path d="M204.533 155.1C204.533 155.1 202.686 174.16 208.612 177.127C215.274 180.462 221.911 177.202 225.994 174.371C236.874 166.83 253.051 145.886 253.051 145.886L263.982 161.348C263.982 161.348 236.375 197.378 230.828 197.145C227.211 196.993 221.557 193.142 218.06 190.48C216.136 189.016 214.423 187.261 212.971 185.254L208.197 178.659C202.234 181.855 197.41 185.945 194.073 191.202C194.073 191.202 192.478 177.857 195.339 171.796C198.199 165.735 203.902 155.302 203.902 155.302L204.533 155.1Z" fill="#39B54A"/>
<path d="M194.98 172.32C194.987 172.324 194.951 172.435 194.871 172.647C194.781 172.884 194.663 173.193 194.515 173.582C194.268 174.429 193.903 175.684 193.698 177.363C193.241 180.702 193.122 185.64 193.707 191.653L193.382 191.583C194.734 188.982 196.773 186.479 199.298 184.261C201.813 182.024 204.749 179.972 208.047 178.237L208.197 178.158L208.31 178.3C210.233 180.732 212.27 183.266 214.423 185.83C216.57 188.394 218.878 190.974 221.629 193.052C222.919 194.026 224.294 194.838 225.73 195.407C226.449 195.683 227.184 195.913 227.92 196.05C228.658 196.174 229.402 196.205 230.135 196.139C233.104 195.844 235.629 193.996 237.702 192.05L237.686 192.067C245.336 183.209 251.904 175.604 256.584 170.185C258.91 167.519 260.765 165.392 262.064 163.905C262.69 163.2 263.182 162.646 263.538 162.245C263.695 162.075 263.822 161.936 263.926 161.825C264.014 161.731 264.062 161.687 264.066 161.692C264.071 161.697 264.033 161.751 263.954 161.853C263.859 161.972 263.74 162.12 263.595 162.302C263.251 162.716 262.778 163.287 262.173 164.016C260.898 165.526 259.075 167.685 256.79 170.392C252.14 175.843 245.615 183.492 238.016 192.401L238.008 192.411L238 192.419C236.935 193.418 235.785 194.387 234.479 195.152C233.186 195.931 231.722 196.494 230.177 196.647C229.405 196.718 228.62 196.686 227.844 196.557C227.067 196.413 226.314 196.177 225.57 195.891C224.087 195.304 222.675 194.471 221.36 193.477C218.557 191.36 216.228 188.746 214.079 186.173C211.922 183.598 209.891 181.059 207.971 178.615L208.234 178.678C204.984 180.375 202.049 182.406 199.556 184.602C197.048 186.781 195.03 189.233 193.688 191.765L193.416 192.28L193.364 191.697C192.818 185.638 192.991 180.688 193.509 177.329C193.744 175.643 194.144 174.383 194.423 173.542C194.591 173.131 194.736 172.828 194.828 172.621C194.92 172.418 194.972 172.316 194.98 172.32Z" fill="#263238"/>
<path d="M195.654 188.385C195.235 189.139 195.6 190.896 196.329 191.284C197.058 191.671 197.964 191.388 198.601 190.841C199.237 190.295 199.672 189.527 200.137 188.803C201.23 187.098 202.548 185.563 204.038 184.259C205.51 182.972 207.533 181.88 209.222 182.8C210.345 183.411 210.955 184.731 211.506 185.956C213.795 191.049 216.549 196.234 221.033 199.133C225.538 202.047 231.284 202.174 236.228 200.275C241.171 198.376 245.372 194.629 248.762 190.285C252.152 185.94 254.805 180.987 257.43 176.057C259.495 172.178 261.592 168.182 262.235 163.756C261.663 164.105 260.334 166.331 259.761 166.679C259.761 166.679 238.47 192.151 236.464 193.459C234.459 194.766 228.945 203.574 213.31 184.55L208.14 178.459C208.14 178.458 198.296 183.634 195.654 188.385Z" fill="#34A143"/>
<path d="M252.733 243.328L229.315 239.43L228.231 247.108L251.649 251.005L252.733 243.328Z" fill="white"/>
<path d="M316.047 261.026L279.46 270.617L283.681 308.058L213.698 365.132C210.896 365.558 208.034 366.047 206.442 366.48C202.613 367.52 195.855 377.945 193.941 378.985L180.303 390.417C180.303 390.417 179.107 395.614 185.327 394.574C191.548 393.534 198.486 388.338 199.205 388.338C199.923 388.338 202.102 389.922 201.073 393.275C200.157 396.258 196.407 406.488 196.407 406.488L191.781 415.717C191.781 415.717 211.804 416.427 217.405 408.36C221.208 402.883 232.915 387.354 232.915 387.354C232.915 387.354 315.291 343.344 320.236 334.13C326.952 321.619 316.047 261.026 316.047 261.026Z" fill="#FFBE9D"/>
<path d="M299.197 324.19C299.095 324.183 299.399 322.599 299.033 320.098C298.692 317.632 297.484 314.198 294.854 311.602C292.212 309.019 288.945 308.056 286.652 307.933C284.324 307.786 282.904 308.273 282.887 308.163C282.879 308.136 283.223 307.996 283.87 307.838C284.516 307.677 285.475 307.54 286.666 307.568C289.02 307.599 292.425 308.532 295.173 311.219C297.909 313.92 299.103 317.506 299.366 320.046C299.51 321.33 299.48 322.38 299.398 323.095C299.318 323.809 299.224 324.195 299.197 324.19Z" fill="#EB996E"/>
<path d="M208.236 401.761C208.296 401.78 208.125 402.737 207.755 404.265C207.377 405.785 206.8 407.903 205.734 410.052C204.671 412.21 203.174 413.837 201.879 414.624C201.234 415.022 200.664 415.245 200.26 415.337C199.857 415.435 199.628 415.44 199.623 415.41C199.599 415.315 200.51 415.163 201.702 414.313C202.896 413.48 204.285 411.894 205.315 409.805C206.353 407.716 206.975 405.647 207.433 404.16C207.884 402.667 208.17 401.74 208.236 401.761Z" fill="#EB996E"/>
<path d="M217.94 398.299C217.997 398.322 217.753 399.255 217.234 400.716C216.715 402.177 215.901 404.156 214.84 406.252C213.776 408.348 212.671 410.154 211.812 411.411C210.953 412.669 210.358 413.391 210.31 413.351C210.254 413.305 210.753 412.506 211.536 411.203C212.319 409.901 213.37 408.081 214.424 406.004C215.476 403.928 216.33 401.99 216.925 400.575C217.519 399.159 217.874 398.273 217.94 398.299Z" fill="#EB996E"/>
<path d="M217.674 333.517C217.707 333.514 217.763 333.964 217.837 334.779C217.917 335.595 217.983 336.779 218.02 338.244C218.098 341.174 217.975 345.239 217.387 349.673C216.791 354.107 215.846 358.043 215.005 360.828C214.587 362.222 214.214 363.338 213.924 364.095C213.64 364.854 213.468 365.266 213.438 365.254C213.407 365.242 213.52 364.805 213.751 364.027C213.985 363.251 214.309 362.122 214.684 360.722C215.439 357.923 216.325 354.003 216.916 349.6C217.5 345.197 217.675 341.166 217.684 338.249C217.69 336.79 217.676 335.609 217.653 334.792C217.635 333.973 217.641 333.52 217.674 333.517Z" fill="#263238"/>
<path d="M197.869 345.434C197.934 345.411 198.352 346.614 199.025 348.557C199.698 350.5 200.639 353.179 201.742 356.108C202.847 359.038 203.905 361.663 204.681 363.561C205.456 365.459 205.934 366.635 205.872 366.668C205.816 366.699 205.23 365.579 204.376 363.717C203.52 361.854 202.409 359.243 201.301 356.304C200.194 353.365 199.3 350.658 198.707 348.679C198.114 346.699 197.809 345.455 197.869 345.434Z" fill="#263238"/>
<path d="M192.57 371.115C192.573 371.133 192.375 371.195 191.993 371.3C191.562 371.411 191.006 371.555 190.317 371.732C189.59 371.922 188.697 372.136 187.649 372.328C186.603 372.529 185.416 372.795 184.087 372.972C182.763 373.181 181.311 373.399 179.742 373.543C178.178 373.738 176.498 373.824 174.731 373.937C171.194 374.085 167.297 374.062 163.221 373.739C159.146 373.387 155.291 372.767 151.815 372.038C150.085 371.634 148.436 371.274 146.916 370.822C145.386 370.422 143.981 369.967 142.701 369.543C141.413 369.149 140.277 368.69 139.271 368.32C138.262 367.957 137.409 367.598 136.716 367.29C136.061 367.002 135.531 366.768 135.121 366.587C134.758 366.421 134.571 366.326 134.578 366.309C134.584 366.292 134.783 366.356 135.156 366.49C135.574 366.647 136.112 366.85 136.78 367.101C137.481 367.379 138.342 367.709 139.356 368.045C140.367 368.389 141.507 368.821 142.796 369.192C144.078 369.593 145.482 370.025 147.01 370.406C148.527 370.837 150.173 371.181 151.898 371.569C155.362 372.27 159.2 372.871 163.256 373.222C167.312 373.543 171.189 373.581 174.71 373.46C176.47 373.359 178.144 373.292 179.704 373.114C181.268 372.99 182.716 372.794 184.039 372.609C185.365 372.455 186.551 372.215 187.599 372.043C188.648 371.877 189.545 371.693 190.277 371.534C190.972 371.395 191.533 371.284 191.968 371.196C192.36 371.127 192.566 371.097 192.57 371.115Z" fill="#263238"/>
<path d="M189.087 353.864C189.024 353.989 187.081 352.973 184.748 351.594C182.414 350.214 180.573 348.995 180.636 348.87C180.699 348.745 182.641 349.761 184.975 351.14C187.309 352.519 189.15 353.739 189.087 353.864Z" fill="#263238"/>
<path d="M319.915 260.063C319.917 260.07 319.84 260.098 319.689 260.145C319.517 260.195 319.295 260.26 319.016 260.342C318.395 260.514 317.519 260.757 316.396 261.068C314.08 261.69 310.747 262.585 306.569 263.707C298.142 265.93 286.31 269.051 272.58 272.673L272.339 272.736L272.302 272.47C271.337 265.652 270.025 258.296 268.758 250.643C267.924 245.534 267.202 240.524 266.71 235.655C266.224 230.786 265.991 226.063 265.934 221.564C265.881 217.067 266.035 212.771 266.618 208.805C267.192 204.842 268.211 201.223 269.615 198.16C271.047 195.111 272.831 192.643 274.655 190.788C276.486 188.935 278.328 187.669 279.929 186.883C281.533 186.088 282.878 185.769 283.78 185.568C284.237 185.495 284.588 185.456 284.823 185.426C285.057 185.398 285.178 185.388 285.179 185.397C285.18 185.406 285.061 185.434 284.828 185.479C284.573 185.526 284.232 185.59 283.797 185.671C282.907 185.904 281.582 186.252 280.006 187.066C278.433 187.873 276.627 189.149 274.835 190.999C273.051 192.851 271.308 195.305 269.914 198.324C268.548 201.357 267.557 204.942 267.006 208.873C266.445 212.807 266.305 217.075 266.371 221.559C266.44 226.044 266.682 230.748 267.173 235.602C267.669 240.454 268.392 245.452 269.226 250.555C270.492 258.199 271.798 265.566 272.751 272.397L272.473 272.195C286.219 268.645 298.065 265.587 306.502 263.407C310.692 262.344 314.036 261.497 316.36 260.908C317.49 260.631 318.372 260.415 318.997 260.261C319.28 260.196 319.506 260.145 319.679 260.104C319.834 260.069 319.914 260.056 319.915 260.063Z" fill="#263238"/>
<path d="M138.845 334.788C137.962 332.888 133.529 323.079 132.056 318.559C131.075 315.396 130.661 311.885 130.853 308.35C131.206 304.193 132.659 300.341 134.892 297.64C137.125 294.939 139.955 293.61 142.762 293.945L142.818 293.951C145.621 294.296 148.169 296.272 149.905 299.445C151.641 302.618 152.423 306.732 152.081 310.886C151.68 314.406 150.688 317.759 149.196 320.635C147.093 324.519 141.508 332.554 139.847 334.909L139.236 335.76L138.845 334.788Z" fill="white"/>
<path d="M142.739 294.869C145.379 295.189 147.779 297.048 149.412 300.037C151.045 303.026 151.777 306.902 151.449 310.813C151.058 314.147 150.115 317.322 148.706 320.053C146.501 324.142 140.317 332.987 139.413 334.278L139.381 334.323L139.357 334.271C138.684 332.789 134.094 322.66 132.616 318.139C131.689 315.128 131.295 311.79 131.47 308.427C131.633 306.489 132.053 304.601 132.705 302.87C133.357 301.14 134.228 299.601 135.268 298.341C136.309 297.081 137.499 296.126 138.771 295.529C140.042 294.932 141.37 294.705 142.678 294.862L142.744 294.87L142.739 294.869ZM142.901 293.019L142.836 293.011C139.862 292.662 136.864 294.073 134.499 296.936C132.134 299.799 130.596 303.879 130.22 308.283C130.017 311.995 130.45 315.682 131.479 319.003C132.982 323.569 137.408 333.391 138.297 335.34L138.294 335.375L139.085 337.194L140.227 335.658L140.259 335.613C141.927 333.231 147.54 325.15 149.672 321.2C151.233 318.177 152.268 314.656 152.684 310.962C153.051 306.556 152.223 302.192 150.382 298.826C148.542 295.46 145.838 293.368 142.864 293.008L142.901 293.019Z" fill="white"/>
<path d="M151.124 312.224C145.276 315.591 140.387 321.984 137.401 330.167C138.285 332.172 138.989 333.734 139.229 334.247L139.253 334.299L139.285 334.254C140.188 332.963 146.375 324.119 148.579 320.038C149.779 317.699 150.646 315.038 151.124 312.224V312.224Z" fill="#39B54A"/>
<path d="M151.326 310.84C150.803 310.725 150.272 310.635 149.735 310.57C143.703 309.826 137.601 312.421 132.605 317.855L132.686 318.115C133.054 319.29 133.666 320.85 134.346 322.529C138.904 315.79 144.963 311.778 151.276 311.319C151.291 311.148 151.304 310.996 151.315 310.859L151.326 310.84Z" fill="#39B54A"/>
<path d="M132.451 317.229C133.529 316.111 134.661 315.115 135.836 314.25C134.52 312.604 133.082 311.178 131.548 309.996C131.556 312.485 131.862 314.934 132.451 317.229V317.229Z" fill="#8DC63F"/>
<path d="M131.601 309.855C133.199 310.995 134.698 312.398 136.072 314.036C136.837 313.488 137.618 312.996 138.412 312.562C136.291 310.907 133.999 309.741 131.614 309.102C131.608 309.33 131.601 309.578 131.601 309.855Z" fill="#8DC63F"/>
<path d="M131.664 308.535L131.625 308.981C134.123 309.53 136.529 310.649 138.758 312.298C139.672 311.827 140.602 311.434 141.542 311.121C138.496 308.999 135.083 308.118 131.651 308.567L131.664 308.535Z" fill="#8DC63F"/>
<path d="M135.027 307.978C137.458 308.27 139.811 309.244 141.959 310.847C144.353 310.093 146.793 309.86 149.202 310.156C149.971 310.25 150.728 310.395 151.473 310.592C151.784 306.722 151.05 302.895 149.431 299.946C147.812 296.997 145.44 295.166 142.834 294.854L142.783 294.848C140.203 294.539 137.6 295.743 135.531 298.2C133.462 300.657 132.093 304.173 131.716 307.993C132.821 307.85 133.929 307.845 135.027 307.978V307.978Z" fill="white"/>
<path d="M151.163 312.066C151.182 311.845 151.228 311.641 151.253 311.456C144.959 312.165 138.98 316.379 134.528 323.244C135.38 325.329 136.338 327.56 137.177 329.477C140.291 321.402 145.276 315.197 151.163 312.066V312.066Z" fill="#39B54A"/>
<path d="M139.681 295.57L143.28 290.416L145.94 296.33L139.681 295.57Z" fill="#FBB040"/>
<path d="M143.152 291.844L144.69 295.243L141.092 294.807L143.152 291.844ZM143.395 288.981L142.325 290.548L140.242 293.507L138.275 296.328L147.195 297.411L145.764 294.178L144.212 290.777L143.395 288.981Z" fill="white"/>
<path d="M143.74 294.951L143.098 291.942L141.972 294.737C140.018 294.761 138.087 295.633 136.419 297.243C134.751 298.853 133.42 301.132 132.59 303.795L151.412 306.076C151.047 303.267 150.125 300.715 148.761 298.737C147.397 296.759 145.651 295.443 143.74 294.951V294.951Z" fill="#FBB040"/>
</svg>
