<svg width="448" height="413" viewBox="0 0 448 413" fill="none" xmlns="http://www.w3.org/2000/svg">
<path d="M0 12C0 5.37259 5.37258 0 12 0H436C442.627 0 448 5.37258 448 12V412H0V12Z" fill="#D2FFC5"/>
<path d="M134.532 137.415C131.271 129.199 128.039 120.918 126.238 112.263C124.439 103.608 124.124 94.4862 126.669 86.0209C127.055 84.7371 130.491 76.0748 131.831 76.1213C132.788 76.1543 130.841 84.1558 131.375 84.9513C136.468 92.5416 138.32 101.943 138.167 111.083C138.014 120.221 136.645 128.521 134.532 137.415Z" fill="#263238"/>
<path d="M163.046 209.683C149.352 210.267 137.701 199.801 136.821 186.123L131.521 103.809C129.393 81.7404 140.461 62.1076 162.581 60.5912L164.633 60.5704C185.286 60.3624 202.643 76.041 204.512 96.6101C206.25 115.747 207.925 136.916 207.902 147.193C207.854 168.468 186.611 171.991 186.611 171.991C186.563 171.994 186.806 176.917 187.138 183.153C187.884 197.157 177.058 209.086 163.046 209.683Z" fill="#B78876"/>
<path d="M186.613 171.994C186.613 171.994 173.213 172.916 158.833 164.086C158.833 164.086 165.741 179.488 186.949 177.358L186.613 171.994Z" fill="#995037"/>
<path d="M198.743 112.205C198.817 113.808 197.518 115.193 195.845 115.3C194.175 115.407 192.759 114.196 192.686 112.593C192.613 110.99 193.91 109.603 195.581 109.497C197.254 109.389 198.67 110.602 198.743 112.205Z" fill="#263238"/>
<path d="M200.054 105.49C199.681 105.89 197.363 104.21 194.094 104.251C190.829 104.246 188.446 105.952 188.087 105.555C187.911 105.38 188.288 104.66 189.325 103.889C190.345 103.122 192.092 102.367 194.128 102.356C196.165 102.347 197.886 103.079 198.877 103.836C199.89 104.596 200.239 105.31 200.054 105.49Z" fill="#263238"/>
<path d="M167.798 112.751C167.871 114.355 166.573 115.739 164.9 115.845C163.23 115.953 161.813 114.743 161.741 113.138C161.669 111.535 162.966 110.15 164.637 110.042C166.31 109.934 167.726 111.148 167.798 112.751Z" fill="#263238"/>
<path d="M168.047 107.136C167.674 107.536 165.353 105.857 162.086 105.899C158.821 105.894 156.438 107.6 156.08 107.202C155.904 107.026 156.277 106.309 157.318 105.537C158.339 104.768 160.085 104.014 162.12 104.002C164.157 103.993 165.878 104.725 166.87 105.482C167.881 106.244 168.23 106.956 168.047 107.136Z" fill="#263238"/>
<path d="M180.028 132.135C180.011 131.949 182.038 131.578 185.327 131.123C186.16 131.028 186.95 130.855 187.084 130.283C187.275 129.679 186.917 128.781 186.502 127.815C185.697 125.803 184.853 123.694 183.97 121.484C180.45 112.469 177.893 105.052 178.257 104.914C178.621 104.776 181.77 111.971 185.289 120.986C186.137 123.209 186.947 125.329 187.718 127.356C188.044 128.302 188.598 129.371 188.185 130.627C187.967 131.254 187.358 131.713 186.825 131.862C186.291 132.031 185.821 132.044 185.409 132.074C182.098 132.285 180.042 132.321 180.028 132.135Z" fill="#263238"/>
<path d="M170.427 134.492C170.958 134.456 171.001 138.005 174.063 140.492C177.12 142.988 180.898 142.551 180.931 143.047C180.983 143.269 180.096 143.745 178.5 143.805C176.934 143.874 174.642 143.393 172.768 141.872C170.901 140.346 170.083 138.294 169.948 136.839C169.797 135.358 170.184 134.475 170.427 134.492Z" fill="#263238"/>
<path d="M167.734 93.8724C167.421 94.7645 164.153 94.3766 160.322 94.8771C156.482 95.3006 153.4 96.4547 152.884 95.6641C152.653 95.2847 153.184 94.4427 154.426 93.5701C155.656 92.6987 157.626 91.8616 159.926 91.5826C162.225 91.3084 164.338 91.6523 165.74 92.2055C167.153 92.7574 167.869 93.4489 167.734 93.8724Z" fill="#263238"/>
<path d="M198.595 94.6348C198.027 95.3825 195.768 94.6348 193.059 94.6262C190.352 94.5222 188.064 95.1757 187.528 94.4047C187.293 94.0302 187.645 93.2824 188.64 92.5702C189.62 91.8603 191.266 91.2704 193.127 91.3084C194.988 91.3488 196.607 92.0047 197.557 92.7562C198.522 93.5076 198.844 94.2701 198.595 94.6348Z" fill="#263238"/>
<path d="M133.421 119.545C133.056 119.392 118.76 115.37 119.372 129.909C119.984 144.447 134.454 140.834 134.461 140.417C134.469 139.998 133.421 119.545 133.421 119.545Z" fill="#B78876"/>
<path d="M129.785 135.094C129.719 135.05 129.539 135.281 129.119 135.496C128.711 135.704 127.998 135.866 127.228 135.614C125.669 135.115 124.273 132.731 124.092 130.113C123.999 128.791 124.224 127.52 124.649 126.458C125.048 125.376 125.705 124.603 126.472 124.433C127.235 124.223 127.801 124.663 127.996 125.065C128.208 125.463 128.128 125.758 128.206 125.78C128.248 125.814 128.507 125.523 128.365 124.928C128.293 124.641 128.108 124.306 127.755 124.04C127.394 123.771 126.875 123.649 126.339 123.73C125.221 123.854 124.255 124.928 123.788 126.095C123.26 127.27 122.977 128.701 123.081 130.184C123.297 133.11 124.912 135.788 127.04 136.307C128.074 136.531 128.914 136.186 129.341 135.825C129.774 135.445 129.838 135.119 129.785 135.094Z" fill="#995037"/>
<path d="M193.881 73.0182C196.168 71.601 188.722 64.3436 182.808 62.0158C173.87 58.4973 160.408 56.7362 152.47 59.4299C142.913 62.673 135.103 67.9074 130.684 76.9822C126.264 86.0558 124.957 96.4327 125.753 106.494C125.995 109.563 126.477 112.751 128.252 115.268C130.445 118.377 134.443 120.203 134.498 124.643C134.518 126.266 135.064 127.878 136.234 129.003C139.036 131.696 142.153 128.873 143.514 126.133C146.418 120.278 146.428 113.465 146.378 106.93C146.341 102.284 146.289 97.5403 144.755 93.1553C143.921 90.7688 142.663 88.5389 141.961 86.1096C141.26 83.6803 141.193 80.8875 142.622 78.802C142.855 78.463 143.244 78.0298 143.742 77.5476C147.673 73.7304 153.38 72.3585 158.632 73.9201C166.963 76.3984 181.158 80.0112 184.667 77.0483C189.716 72.7856 190.838 70.1164 190.838 70.1164L193.881 73.0182Z" fill="#263238"/>
<path d="M153.133 57.4174C160.983 54.3406 170.081 54.0175 177.753 57.514C181.825 59.3706 185.577 62.4779 187.005 66.7186C188.434 70.9604 186.867 76.3477 182.814 78.2447L182.538 78.438C176.445 80.8405 172.372 80.2151 166.081 78.3903C160.788 76.8544 155.998 73.8805 150.698 72.3702C145.063 70.7646 138.945 70.898 133.387 72.7472C138.622 66.1397 145.285 60.4941 153.133 57.4174Z" fill="#263238"/>
<path d="M134.935 70.5404C134.968 70.5906 135.552 70.1843 136.712 69.6776C137.866 69.1685 139.643 68.6288 141.9 68.5235C144.153 68.4036 146.854 68.7659 149.677 69.7584C152.512 70.724 155.447 72.2636 158.488 73.9537C161.532 75.6451 164.472 77.252 167.334 78.3143C170.183 79.4023 172.943 79.8918 175.256 79.8686C177.574 79.8612 179.422 79.3913 180.612 78.9066C181.213 78.6729 181.66 78.444 181.95 78.269C182.241 78.0964 182.388 77.9973 182.378 77.9777C182.352 77.9251 181.73 78.2714 180.528 78.6729C179.332 79.0767 177.519 79.4671 175.259 79.417C173.001 79.3815 170.33 78.8613 167.542 77.7635C164.743 76.6915 161.842 75.087 158.795 73.3944C155.749 71.7031 152.768 70.1549 149.863 69.2003C146.973 68.2176 144.177 67.8884 141.871 68.0719C139.556 68.2384 137.749 68.8625 136.606 69.4512C136.028 69.7376 135.603 70.0081 135.332 70.2088C135.059 70.4095 134.922 70.5221 134.935 70.5404Z" fill="#455A64"/>
<path d="M140.822 65.466C140.862 65.6227 143.125 64.0549 147.292 64.0011C149.348 63.9729 151.807 64.3352 154.38 65.2286C156.958 66.1159 159.619 67.5563 162.312 69.2208C165.007 70.8913 167.522 72.5961 169.936 73.9607C172.343 75.3338 174.639 76.3619 176.647 76.9897C178.657 77.6163 180.355 77.8623 181.528 77.9137C182.115 77.9357 182.57 77.9382 182.879 77.91C183.187 77.8917 183.348 77.8709 183.348 77.8488C183.363 77.713 180.716 77.9259 176.789 76.5626C174.833 75.8907 172.596 74.8382 170.23 73.4528C167.86 72.0748 165.361 70.3614 162.649 68.6786C159.937 67.0019 157.226 65.5517 154.571 64.673C151.924 63.7881 149.392 63.4638 147.281 63.5507C145.166 63.6425 143.494 64.1149 142.416 64.5824C141.878 64.8223 141.469 65.0242 141.21 65.1943C140.944 65.3546 140.811 65.4477 140.822 65.466Z" fill="#455A64"/>
<path d="M126.629 84.7429C126.587 84.7576 126.693 85.1468 126.918 85.8419C127.133 86.5408 127.531 87.5247 128.096 88.7045C129.217 91.0665 131.184 94.1665 134.004 97.023C136.833 99.8708 139.915 101.867 142.266 103.01C143.441 103.586 144.42 103.994 145.117 104.215C145.81 104.448 146.199 104.557 146.214 104.515C146.254 104.408 144.742 103.85 142.475 102.611C140.209 101.38 137.233 99.3666 134.457 96.5738C131.692 93.7712 129.707 90.7777 128.498 88.4989C127.281 86.2226 126.737 84.7038 126.629 84.7429Z" fill="#455A64"/>
<path d="M125.33 95.0962C125.294 95.1011 125.306 95.4817 125.44 96.1524C125.569 96.8243 125.87 97.7813 126.426 98.8791C127.516 101.082 129.862 103.729 133.145 105.562C136.42 107.399 139.712 108.27 142.059 108.837C144.421 109.388 145.898 109.632 145.918 109.552C145.94 109.46 144.494 109.061 142.174 108.402C139.866 107.726 136.642 106.795 133.46 105.008C130.278 103.227 127.977 100.737 126.823 98.6637C125.637 96.5893 125.454 95.0644 125.33 95.0962Z" fill="#455A64"/>
<path d="M174.602 59.146C174.538 59.2169 175.432 60.0797 176.816 61.5129C178.185 62.9484 180.069 64.9886 181.471 67.6504C182.868 70.3111 183.291 73.0818 183.124 75.029C182.978 76.9932 182.408 78.1253 182.522 78.1693C182.556 78.1853 182.731 77.9234 182.958 77.4032C183.19 76.8843 183.436 76.0888 183.572 75.0755C183.864 73.0561 183.492 70.1287 182.036 67.3567C180.578 64.5933 178.593 62.5592 177.132 61.1934C175.653 59.8264 174.656 59.086 174.602 59.146Z" fill="#455A64"/>
<path d="M185.044 65.5928C184.947 65.6344 185.229 66.3626 185.463 67.5754C185.701 68.7846 185.824 70.5004 185.507 72.3496C185.181 74.1988 184.487 75.7727 183.856 76.8301C183.227 77.8924 182.716 78.4835 182.793 78.5557C182.842 78.6071 183.479 78.1188 184.234 77.0761C184.989 76.0419 185.793 74.4057 186.136 72.4585C186.47 70.5114 186.264 68.7001 185.902 67.4714C185.542 66.2353 185.107 65.5622 185.044 65.5928Z" fill="#455A64"/>
<path d="M226.822 225.184L266.142 274.782L328.828 234.277L343.312 260.324L289.924 304.441C281.543 313.807 268.63 317.701 256.469 314.531C249.295 312.661 242.943 308.467 238.406 302.605L196.332 248.247L226.822 225.184Z" fill="#B78876"/>
<path d="M205.69 276.032C205.866 276.033 206.078 263.887 206.163 248.907C206.249 233.921 206.176 221.777 205.999 221.775C205.823 221.774 205.611 233.917 205.526 248.903C205.441 263.883 205.515 276.031 205.69 276.032Z" fill="#263238"/>
<path d="M103.852 189.021C103.869 189.034 104.066 188.835 104.419 188.446C104.602 188.256 104.803 187.998 105.08 187.732C105.373 187.467 105.7 187.17 106.062 186.841C107.567 185.55 110.124 184.045 113.609 183.313C117.072 182.59 121.472 182.707 125.856 184.396C130.238 186.091 134.383 189.463 137.745 193.718C141.11 198.004 143.486 202.68 145.33 207.032C147.181 211.393 148.615 215.424 149.921 218.773C151.217 222.126 152.365 224.804 153.241 226.615C153.679 227.521 154.032 228.217 154.29 228.68C154.543 229.145 154.685 229.384 154.705 229.375C154.724 229.365 154.62 229.105 154.405 228.623C154.164 228.08 153.852 227.38 153.466 226.512C152.662 224.675 151.581 221.981 150.342 218.613C149.091 215.25 147.701 211.202 145.87 206.803C144.044 202.413 141.661 197.676 138.243 193.323C134.826 188.998 130.585 185.562 126.066 183.848C121.548 182.143 117.043 182.077 113.513 182.872C109.957 183.679 107.376 185.285 105.898 186.654C105.545 187.003 105.227 187.319 104.942 187.6C104.675 187.883 104.488 188.157 104.319 188.361C103.996 188.782 103.835 189.007 103.852 189.021Z" fill="#263238"/>
<path d="M205.552 194.406C205.552 194.406 208.583 194.322 233.147 226.613L246.941 245.756L210.711 271.065L206.059 263.564L205.552 194.406Z" fill="#455A64"/>
<path d="M71.0203 292.938C65.83 219.712 81.691 198.735 91.0974 189.016C100.504 179.297 126.417 173.713 135.807 170.461C153.141 187.048 168.154 191.908 186.95 187.836C190.91 186.975 199.185 190.809 205.551 194.404L208.59 412.002C208.59 412.002 94.2056 412.113 78.5 412C68 411.925 73.6173 399.194 73.6173 399.194C73.6173 399.194 76.2106 366.164 71.0203 292.938Z" fill="#455A64"/>
<path d="M78.9348 394.544C79.0143 394.607 79.8245 393.432 81.697 391.716C83.5743 390.028 86.6144 387.86 90.8819 386.319C95.1213 384.714 100.522 383.897 106.53 383.874C112.539 383.847 119.178 384.396 126.144 384.72C140.082 385.462 152.699 386.076 161.835 386.471C166.294 386.642 169.954 386.783 172.658 386.887C173.842 386.911 174.815 386.932 175.602 386.949C176.277 386.952 176.63 386.937 176.633 386.903C176.635 386.868 176.284 386.816 175.613 386.747C174.829 386.68 173.86 386.598 172.679 386.496C169.98 386.313 166.326 386.064 161.873 385.762C152.747 385.186 140.134 384.459 126.197 383.717C119.23 383.393 112.604 382.87 106.518 382.947C100.445 383.021 94.9292 383.929 90.6298 385.654C86.3023 387.315 83.2525 389.627 81.4277 391.432C80.5196 392.349 79.8833 393.122 79.4855 393.67C79.0963 394.225 78.9066 394.525 78.9348 394.544Z" fill="#263238"/>
<path d="M207.555 411.999L205.89 242.845L151.55 239.553L91 411.999H207.555Z" fill="#FBB040"/>
<path d="M125.551 173.206C125.551 173.206 169.891 186.233 165.526 245.697L158.02 245.588C158.02 245.588 159.36 227.173 152.153 210.185C144.946 193.197 135.885 176.413 111.732 177.916C111.732 177.916 119.824 172.065 125.551 173.206Z" fill="#FBB040"/>
<path d="M204.054 244.949L197.296 244.318C197.296 244.318 200.326 195.495 192.428 188.449L189.423 187.797C189.423 187.797 195.688 185.533 198.219 190.657C200.751 195.781 206.009 221.775 204.054 244.949Z" fill="#FBB040"/>
<path d="M366.654 241.33C366.654 241.33 358.851 250.279 356.815 255.079C354.603 260.291 349.154 263.993 344.031 265.09C338.908 266.187 335.24 266.173 335.24 266.173L323.881 277.65C323.881 277.65 312.719 277.685 307.263 266.078C306.312 264.053 305.718 262.285 305.275 259.047C305.105 256.227 304.821 254.737 307.791 250.334L325.224 237.497C325.224 237.497 344.259 214.578 349.718 212.495C349.718 212.495 357.156 210.43 359.77 210.089C360.756 209.961 367.842 213.497 367.334 219.705C367.334 219.705 372.661 218.984 373.25 222.707L373.455 224.418C373.455 224.418 378.058 224.91 378.203 227.062C378.347 229.213 374.926 243.549 370.496 245.603C366.066 247.655 365.656 242.726 366.484 240.748" fill="#B78876"/>
<path d="M360.409 217.479C360.373 217.465 360.144 218.015 359.727 219.002C359.308 219.99 358.692 221.415 357.849 223.134C357.427 223.993 356.945 224.925 356.399 225.907C355.863 226.894 355.211 227.911 354.649 229.073C354.101 230.228 353.606 231.57 353.753 233.044C353.906 234.452 354.649 236.021 356.172 236.653C356.919 236.965 357.756 236.922 358.477 236.687C359.199 236.44 359.823 236.029 360.364 235.568C361.448 234.633 362.245 233.542 363.002 232.51C364.476 230.412 365.515 228.348 366.307 226.594C367.101 224.838 367.655 223.383 368.034 222.378C368.41 221.371 368.596 220.806 368.563 220.793C368.528 220.779 368.276 221.318 367.843 222.301C367.405 223.281 366.8 224.712 365.968 226.436C365.138 228.159 364.076 230.182 362.605 232.227C361.855 233.231 361.051 234.305 360.031 235.172C359.521 235.601 358.944 235.972 358.312 236.186C357.684 236.387 356.983 236.419 356.367 236.159C355.109 235.652 354.406 234.263 354.268 232.985C354.125 231.681 354.567 230.398 355.088 229.279C355.619 228.148 356.258 227.12 356.783 226.113C357.317 225.113 357.783 224.166 358.186 223.291C358.992 221.541 359.556 220.087 359.917 219.073C360.278 218.063 360.442 217.49 360.409 217.479Z" fill="#995037"/>
<path d="M353.022 211.967C352.985 211.954 352.759 212.502 352.349 213.488C351.935 214.473 351.337 215.898 350.519 217.622C349.703 219.347 348.669 221.37 347.396 223.546C346.783 224.631 345.996 225.81 345.894 227.305C345.848 228.04 346.057 228.832 346.533 229.443C346.999 230.059 347.663 230.506 348.388 230.77C349.872 231.31 351.465 230.984 352.716 230.331C353.989 229.675 354.985 228.681 355.739 227.641C357.234 225.526 358.03 223.37 358.873 221.659C359.638 219.982 360.271 218.593 360.752 217.536C361.185 216.558 361.409 216.008 361.376 215.992C361.343 215.976 361.056 216.495 360.567 217.446C360.045 218.484 359.362 219.849 358.536 221.497C357.653 223.187 356.807 225.34 355.348 227.351C354.612 228.344 353.667 229.266 352.48 229.871C351.316 230.473 349.865 230.749 348.569 230.273C347.265 229.831 346.292 228.631 346.412 227.33C346.484 226.036 347.209 224.879 347.818 223.789C349.076 221.585 350.082 219.532 350.859 217.778C351.638 216.024 352.186 214.573 352.542 213.562C352.893 212.55 353.054 211.979 353.022 211.967Z" fill="#995037"/>
<path d="M350.69 218.177C350.795 218.066 350.013 217.2 349.252 216.003C348.481 214.812 348.019 213.74 347.874 213.789C347.74 213.825 347.995 215.03 348.807 216.288C349.611 217.55 350.6 218.284 350.69 218.177Z" fill="#995037"/>
<path d="M320.054 250.673L324.724 239.521C324.724 239.521 335.855 206.791 336.793 206.956C337.73 207.121 338.844 205.836 341.343 208.749C343.842 211.66 336.765 230.166 337.32 231.499C337.876 232.831 343.371 236.767 342.163 244.95C340.955 253.133 337.663 256.717 337.663 256.717" fill="#B78876"/>
<path d="M337.661 256.718C337.667 256.725 337.736 256.663 337.854 256.531C337.97 256.398 338.137 256.196 338.338 255.914C338.741 255.355 339.288 254.492 339.858 253.313C340.431 252.135 341.02 250.636 341.51 248.839C341.977 247.042 342.472 244.966 342.505 242.597C342.554 240.238 341.875 237.619 340.406 235.256C339.69 234.068 338.729 232.967 337.828 231.86C337.713 231.719 337.625 231.58 337.555 231.445C337.51 231.349 337.526 231.205 337.541 231.023C337.583 230.675 337.665 230.312 337.748 229.952C337.92 229.227 338.122 228.495 338.327 227.755C339.163 224.792 340.108 221.692 340.917 218.426C341.322 216.793 341.695 215.119 341.947 213.388C342.064 212.522 342.155 211.641 342.131 210.735C342.124 210.284 342.065 209.822 341.941 209.361C341.858 209.131 341.777 208.899 341.613 208.686C341.469 208.471 341.311 208.338 341.159 208.158C340.535 207.508 339.815 206.86 338.857 206.621C338.382 206.497 337.872 206.564 337.448 206.649C337.234 206.69 337.038 206.722 336.879 206.703C336.833 206.705 336.905 206.692 336.726 206.706C336.561 206.749 336.565 206.789 336.523 206.818C336.441 206.892 336.431 206.93 336.382 206.989C336.315 207.092 336.256 207.192 336.204 207.291C335.407 208.879 334.825 210.472 334.208 212.04C333.007 215.178 331.912 218.225 330.876 221.132C328.812 226.945 327.013 232.2 325.518 236.619C325.137 237.718 324.81 238.79 324.441 239.761C324.044 240.73 323.667 241.646 323.314 242.504C322.619 244.207 322.018 245.682 321.52 246.902C321.049 248.083 320.676 249.014 320.406 249.69C320.294 249.987 320.202 250.227 320.129 250.421C320.069 250.586 320.043 250.673 320.05 250.676C320.059 250.68 320.102 250.601 320.178 250.441C320.263 250.253 320.371 250.02 320.503 249.732C320.796 249.065 321.198 248.145 321.71 246.979C322.231 245.768 322.86 244.304 323.588 242.611C323.953 241.757 324.342 240.845 324.754 239.881C325.143 238.893 325.476 237.842 325.87 236.742C327.429 232.332 329.279 227.102 331.333 221.297C332.38 218.398 333.484 215.355 334.689 212.227C335.302 210.675 335.901 209.055 336.663 207.545C336.712 207.452 336.763 207.366 336.814 207.286C336.835 207.262 336.874 207.199 336.878 207.204C336.87 207.187 336.905 207.232 336.859 207.164C336.812 207.071 336.794 207.111 336.78 207.06C336.774 207.044 336.774 207.026 336.779 207.007C336.707 207.431 336.774 207.126 336.764 207.221L336.814 207.226C337.089 207.258 337.33 207.207 337.541 207.169C337.969 207.087 338.353 207.039 338.737 207.137C339.504 207.324 340.184 207.902 340.774 208.524C341.089 208.863 341.33 209.123 341.434 209.517C341.539 209.909 341.596 210.328 341.602 210.755C341.625 211.606 341.538 212.468 341.425 213.317C341.179 215.017 340.812 216.681 340.413 218.305C339.615 221.555 338.681 224.653 337.856 227.627C337.652 228.372 337.452 229.109 337.282 229.847C337.199 230.217 337.117 230.585 337.071 230.974C337.057 231.156 337.021 231.397 337.127 231.64C337.226 231.833 337.337 231.999 337.455 232.143C338.401 233.293 339.322 234.331 340.033 235.491C341.475 237.78 342.154 240.301 342.13 242.601C342.122 244.902 341.657 246.982 341.223 248.766C340.763 250.553 340.209 252.047 339.67 253.228C339.132 254.41 338.62 255.283 338.248 255.857C338.063 256.145 337.91 256.356 337.808 256.499C337.708 256.64 337.654 256.712 337.661 256.718Z" fill="#995037"/>
<path d="M362.638 232.801C362.611 232.787 362.367 233.163 362.06 233.908C361.753 234.651 361.394 235.777 361.248 237.222C361.185 237.945 361.146 238.738 361.261 239.602C361.385 240.437 361.669 241.443 362.535 242.084C363.406 242.73 364.656 242.654 365.609 242.139C366.607 241.617 367.284 240.666 367.806 239.697C369.79 235.782 371.206 232.077 371.986 229.314C372.376 227.935 372.624 226.8 372.76 226.011C372.9 225.221 372.94 224.78 372.907 224.774C372.868 224.766 372.759 225.195 372.558 225.967C372.361 226.739 372.06 227.852 371.627 229.206C370.765 231.913 369.297 235.584 367.341 239.446C366.842 240.379 366.211 241.237 365.367 241.681C364.532 242.136 363.504 242.189 362.818 241.687C362.118 241.195 361.824 240.32 361.694 239.534C361.567 238.734 361.583 237.952 361.62 237.252C361.831 234.426 362.746 232.834 362.638 232.801Z" fill="#995037"/>
<path d="M186.806 298.437C185.823 296.551 180.886 286.808 179.222 282.293C178.112 279.132 177.607 275.593 177.752 272.002C178.06 267.775 179.555 263.808 181.91 260.972C184.265 258.136 187.286 256.664 190.31 256.879L190.371 256.883C193.392 257.109 196.166 258.998 198.088 262.136C200.01 265.275 200.923 269.408 200.627 273.633C200.257 277.218 199.248 280.659 197.693 283.639C195.499 287.667 189.631 296.056 187.885 298.516L187.243 299.404L186.806 298.437Z" fill="white"/>
<path d="M190.304 257.815C193.149 258.022 195.762 259.799 197.571 262.756C199.379 265.712 200.234 269.607 199.948 273.584C199.585 276.98 198.627 280.239 197.158 283.069C194.857 287.309 188.36 296.545 187.41 297.893L187.376 297.94L187.349 297.889C186.6 296.417 181.488 286.357 179.82 281.841C178.77 278.83 178.289 275.466 178.419 272.051C178.561 270.08 178.98 268.148 179.651 266.366C180.322 264.583 181.232 262.985 182.33 261.663C183.427 260.34 184.691 259.319 186.048 258.658C187.405 257.997 188.829 257.709 190.239 257.81L190.309 257.815L190.304 257.815ZM190.447 255.933L190.376 255.928C187.172 255.705 183.972 257.268 181.478 260.274C178.984 263.279 177.4 267.481 177.072 271.96C176.918 275.73 177.448 279.447 178.612 282.766C180.307 287.326 185.238 297.083 186.228 299.019L186.225 299.054L187.108 300.862L188.309 299.256L188.343 299.209C190.096 296.721 195.993 288.285 198.218 284.188C199.844 281.056 200.897 277.443 201.279 273.681C201.598 269.201 200.632 264.815 198.594 261.486C196.555 258.157 193.611 256.156 190.407 255.923L190.447 255.933Z" fill="white"/>
<path d="M199.773 275.022C193.539 278.694 188.39 285.388 185.32 293.813C186.305 295.805 187.089 297.358 187.356 297.866L187.383 297.918L187.417 297.871C188.367 296.523 194.869 287.287 197.17 283.054C198.421 280.631 199.307 277.895 199.773 275.022Z" fill="#39B54A"/>
<path d="M199.951 273.563C199.38 273.47 198.802 273.402 198.217 273.359C191.649 272.867 185.063 275.793 179.729 281.572L179.822 281.834C180.242 283.02 180.934 284.587 181.703 286.273C186.538 279.18 193.053 274.807 199.905 274.056C199.918 273.88 199.929 273.725 199.939 273.584L199.951 273.563Z" fill="#39B54A"/>
<path d="M179.468 280.843C180.612 279.66 181.816 278.599 183.07 277.668C181.62 276.056 180.044 274.673 178.367 273.541C178.42 276.067 178.792 278.539 179.468 280.843Z" fill="#8DC63F"/>
<path d="M178.39 273.411C180.148 274.509 181.805 275.88 183.329 277.499C184.151 276.902 184.992 276.362 185.85 275.882C183.512 274.28 180.998 273.187 178.391 272.639C178.389 272.872 178.385 273.127 178.39 273.411Z" fill="#8DC63F"/>
<path d="M178.415 272.077L178.381 272.542C181.116 273 183.762 274.054 186.224 275.665C187.213 275.135 188.221 274.686 189.242 274.319C185.879 272.253 182.139 271.491 178.402 272.112L178.415 272.077Z" fill="#8DC63F"/>
<path d="M182.044 271.571C184.691 271.762 187.263 272.651 189.624 274.193C192.212 273.316 194.859 272.969 197.481 273.164C198.318 273.225 199.142 273.339 199.955 273.507C200.225 269.54 199.361 265.662 197.551 262.722C195.741 259.782 193.132 258.017 190.295 257.814L190.24 257.81C187.432 257.611 184.625 258.956 182.421 261.559C180.217 264.162 178.791 267.815 178.448 271.735C179.646 271.539 180.849 271.484 182.044 271.571Z" fill="white"/>
<path d="M199.806 274.828C199.822 274.603 199.868 274.393 199.892 274.204C193.095 275.204 186.699 279.755 182.003 286.933C182.961 289.015 184.036 291.241 184.976 293.152C188.206 284.804 193.491 278.273 199.806 274.828Z" fill="#39B54A"/>
<path d="M186.782 258.832L190.599 253.412L193.59 259.328L186.782 258.832Z" fill="#FBB040"/>
<path d="M190.483 254.879L192.212 258.279L188.299 257.994L190.483 254.879ZM190.696 251.946L189.562 253.593L187.354 256.706L185.267 259.673L194.969 260.379L193.359 257.144L191.615 253.743L190.696 251.946Z" fill="white"/>
<path d="M191.236 257.934L190.485 254.881L189.309 257.793C187.185 257.906 185.101 258.884 183.315 260.608C181.529 262.331 180.121 264.723 179.266 267.487L199.774 268.981C199.327 266.121 198.28 263.55 196.762 261.585C195.244 259.621 193.322 258.351 191.236 257.934Z" fill="#FBB040"/>
<path d="M333.887 332.974C333.508 331.206 336.057 328.407 335.034 325.626C334.011 322.846 324.784 299.9 324.784 299.9L332.015 298.221L343.107 329.567C343.107 329.567 347.881 336.193 347.788 343.79C347.695 351.388 345.866 353.706 345.1 350.02C344.333 346.334 342.555 336.888 342.555 336.888C342.555 336.888 342.913 353.694 340.78 352.901C338.647 352.106 337.93 336.359 337.93 336.359C337.93 336.359 335.346 353.898 333.89 350.244C332.437 346.589 334.268 334.743 333.887 332.974Z" fill="#EB996E"/>
<path d="M303.079 334.676C302.698 332.908 305.249 330.109 304.225 327.328C303.202 324.548 293.976 301.602 293.976 301.602L300.718 300.236L312.298 331.269C312.298 331.269 317.072 337.895 316.979 345.493C316.886 353.09 315.058 355.408 314.292 351.722C313.524 348.036 311.746 338.59 311.746 338.59C311.746 338.59 312.105 355.396 309.971 354.603C307.838 353.809 307.121 338.062 307.121 338.062C307.121 338.062 304.538 355.6 303.081 351.946C301.627 348.292 303.458 336.445 303.079 334.676Z" fill="#EB996E"/>
<path d="M319.798 171.839C317.947 171.134 316.229 169.926 315.246 168.206C314.264 166.487 314.131 164.221 315.207 162.559C315.709 161.785 316.464 161.119 316.628 160.211C316.715 159.726 316.621 159.224 316.686 158.736C316.752 158.248 317.064 157.724 317.555 157.684C317.928 157.653 318.264 157.91 318.634 157.97C319.368 158.09 320.007 157.403 320.238 156.696C320.47 155.989 320.45 155.215 320.699 154.514C320.947 153.811 321.627 153.153 322.352 153.324C323.061 153.492 323.376 154.334 323.402 155.061C323.428 155.789 323.287 156.552 323.57 157.224C323.852 157.894 324.834 158.326 325.31 157.775C325.528 157.525 325.558 157.162 325.534 156.831C325.45 155.68 324.838 154.624 324.702 153.479C324.566 152.333 325.239 150.908 326.392 150.95C327.032 150.973 327.58 151.467 327.857 152.043C328.135 152.621 328.193 153.275 328.248 153.913C328.335 152.108 328.545 150.309 328.873 148.532C329.018 147.742 329.372 146.784 330.172 146.718C330.958 146.653 331.494 147.585 331.428 148.369C331.363 149.153 330.926 149.855 330.703 150.61C330.481 151.366 330.559 152.337 331.239 152.733C332.068 153.214 333.127 152.462 333.491 151.575C333.855 150.689 333.824 149.683 334.167 148.789C334.511 147.895 335.519 147.099 336.378 147.521C336.961 147.807 337.196 148.546 337.111 149.19C337.027 149.834 336.694 150.413 336.4 150.992C336.165 151.456 335.967 152.065 336.312 152.454C336.639 152.821 337.277 152.717 337.629 152.373C337.982 152.031 338.125 151.533 338.267 151.061C338.494 150.308 338.778 149.524 339.384 149.02C339.99 148.517 341.012 148.435 341.503 149.051C342.024 149.704 341.69 150.653 341.411 151.441C341.132 152.229 341.031 153.306 341.762 153.711C342.744 154.257 343.724 152.924 344.82 152.683C345.644 152.502 346.561 153.075 346.758 153.895C346.956 154.715 346.4 155.642 345.584 155.856C346.271 155.42 347.229 156.113 347.342 156.92C347.454 157.727 347.014 158.5 346.551 159.169C345.557 160.609 344.359 161.94 342.864 162.847C341.368 163.754 339.546 164.204 337.837 163.829" fill="#E8505B"/>
<g opacity="0.3">
<path opacity="0.3" d="M338.865 163.541C339.458 163.17 339.236 162.177 338.656 161.785C338.075 161.392 337.329 161.391 336.635 161.295C335.941 161.2 335.171 160.918 334.924 160.264C334.723 159.733 334.935 159.148 335.001 158.583C335.067 158.019 334.854 157.303 334.293 157.222C333.597 157.122 333.209 158.05 332.552 158.297C332.019 158.498 331.442 158.209 330.883 158.097C329.622 157.844 328.376 158.503 327.258 159.138C325.374 160.207 323.458 161.304 321.998 162.906C320.539 164.507 319.588 166.727 320.032 168.846C321.529 165.627 324.436 163.093 327.829 162.048C331.223 161.003 335.051 161.464 338.1 163.285" fill="black"/>
</g>
<path d="M334.68 161.741C334.68 161.741 340.418 163.782 341.817 166.283C343.216 168.783 361.429 207.438 362.4 211.753C363.37 216.068 372.977 224.087 372.959 229.217C372.941 234.349 373.851 259.444 353.161 277.848C353.161 277.848 339.898 301.55 332.779 302.907C325.66 304.265 317.612 296.686 317.612 296.686C317.612 296.686 301.26 303.602 294.837 303.388C288.415 303.174 266.189 288.56 263.659 283.804C261.129 279.048 262.933 268.191 262.933 268.191C262.933 268.191 252.165 273.821 254.766 269.083C257.367 264.345 266.458 255.713 266.458 255.713C266.458 255.713 252.814 260.195 256.452 255.666C260.089 251.136 266.541 246.476 266.541 246.476C266.541 246.476 260.291 244.458 261.107 234.416C261.107 234.416 242.518 215.273 253.067 210.422C253.067 210.422 248.215 199.873 252.204 197.38C252.204 197.38 246.633 187.892 252.353 184.036C258.073 180.178 260.651 185.958 269.21 193.512L272.12 195.428C272.12 195.428 277.032 196.226 280.478 198.631C283.924 201.036 292.436 207.566 292.436 207.566C292.436 207.566 307.472 210.971 312.507 208.942C317.543 206.913 323.835 193.282 323.835 193.282C323.835 193.282 318.067 174.055 319.877 168.842C321.686 163.628 328.843 158.647 334.68 161.741Z" fill="#FAFAFA"/>
<path d="M334.682 161.74C334.682 161.74 334.463 161.626 334.021 161.423C333.802 161.317 333.528 161.188 333.173 161.105C332.824 161.006 332.423 160.87 331.943 160.831C330.073 160.507 327.015 160.95 324.029 163.215C322.548 164.327 321.097 165.902 320.109 167.977C319.098 170.112 319.386 172.723 319.662 175.357C320.342 180.686 321.768 186.696 323.667 193.331L323.676 193.208C322.471 195.723 321.094 198.328 319.475 200.932C318.669 202.237 317.794 203.539 316.812 204.795C315.831 206.043 314.758 207.299 313.408 208.216C312.07 209.144 310.319 209.269 308.628 209.356C306.912 209.411 305.159 209.286 303.386 209.119C299.838 208.763 296.192 208.136 292.489 207.337L292.579 207.38C289.558 205.117 286.444 202.785 283.246 200.39C282.447 199.792 281.642 199.189 280.832 198.583C280.007 197.979 279.093 197.47 278.153 197.037C276.262 196.177 274.257 195.565 272.163 195.173L272.264 195.212C271.381 194.63 270.372 193.964 269.355 193.293L269.384 193.315C267.299 191.481 265.305 189.468 263.265 187.415C262.236 186.397 261.21 185.351 260.044 184.413C258.893 183.506 257.535 182.576 255.907 182.553C254.294 182.527 252.829 183.281 251.629 184.276C250.399 185.294 249.685 186.868 249.549 188.447C249.394 190.034 249.668 191.62 250.107 193.135C250.555 194.657 251.181 196.112 251.958 197.524L252.053 197.136C251.003 197.777 250.52 199.022 250.401 200.168C250.264 201.339 250.394 202.519 250.598 203.682C251.039 206.013 251.822 208.302 252.8 210.542L252.944 210.152C251.881 210.655 250.866 211.418 250.252 212.498C249.628 213.57 249.462 214.848 249.568 216.051C249.807 218.477 250.812 220.732 251.977 222.85C254.365 227.088 257.471 230.964 260.888 234.627L260.802 234.389C260.626 236.618 260.727 239.031 261.565 241.333C262.375 243.615 264.01 245.776 266.447 246.769L266.36 246.221C263.002 248.738 259.646 251.504 256.715 254.861C256.366 255.291 255.971 255.688 255.689 256.26C255.578 256.549 255.421 256.918 255.628 257.339C255.859 257.744 256.236 257.835 256.529 257.912C257.748 258.123 258.858 257.904 259.979 257.725C262.206 257.309 264.385 256.699 266.557 256.01L266.24 255.48C262.955 258.666 259.653 262.023 256.647 265.783C255.919 266.742 255.179 267.702 254.576 268.781C254.42 269.047 254.271 269.334 254.164 269.654C254.077 269.967 253.939 270.354 254.185 270.794C254.468 271.219 254.922 271.269 255.244 271.29C255.588 271.302 255.905 271.253 256.218 271.199C258.672 270.646 260.87 269.562 263.082 268.468L262.621 268.134C262.579 268.419 262.534 268.73 262.489 269.039C262.064 272.346 261.834 275.675 262.13 278.993C262.298 280.644 262.582 282.315 263.338 283.855C263.548 284.226 263.817 284.567 264.057 284.923C264.322 285.25 264.617 285.54 264.895 285.851C265.451 286.473 266.088 286.987 266.681 287.56C269.15 289.714 271.778 291.626 274.438 293.448C277.104 295.262 279.815 296.978 282.576 298.569C285.349 300.137 288.154 301.626 291.116 302.76C291.84 303.077 292.635 303.239 293.388 303.485L294.598 303.663C295 303.731 295.399 303.662 295.799 303.667C297.385 303.559 298.931 303.276 300.439 302.903C303.464 302.181 306.392 301.227 309.268 300.215C312.143 299.198 314.962 298.115 317.733 296.962L317.406 296.904C319.069 298.391 320.848 299.685 322.751 300.773C324.653 301.847 326.672 302.751 328.825 303.148C329.901 303.317 330.999 303.434 332.087 303.282C333.184 303.253 334.272 302.746 335.159 302.172C336.96 300.974 338.436 299.449 339.83 297.901C342.593 294.774 344.957 291.423 347.195 288.081C349.42 284.728 351.484 281.358 353.407 277.979L353.349 278.052C357.04 274.654 360.291 270.944 362.986 266.964C365.623 262.948 367.689 258.705 369.251 254.412C372.381 245.801 373.374 237.035 373.16 228.896C372.956 226.753 371.797 224.996 370.713 223.367C369.592 221.737 368.373 220.229 367.188 218.747C366.006 217.263 364.825 215.819 363.843 214.297C363.381 213.528 362.887 212.757 362.673 211.923C362.408 211.072 362.127 210.193 361.79 209.388C359.148 202.851 356.411 196.995 353.988 191.678C349.093 181.068 345.15 172.769 342.367 167.151C342.019 166.454 341.665 165.774 341.144 165.292C340.642 164.802 340.115 164.423 339.617 164.088C338.608 163.435 337.7 162.991 336.966 162.65C335.487 161.98 334.682 161.74 334.682 161.74C334.682 161.74 334.874 161.825 335.254 161.983C335.633 162.14 336.197 162.381 336.927 162.733C337.652 163.086 338.552 163.542 339.543 164.2C340.031 164.538 340.55 164.92 341.035 165.402C341.537 165.876 341.866 166.527 342.21 167.232C344.942 172.869 348.838 181.191 353.688 191.817C356.087 197.14 358.806 203.015 361.418 209.534C361.756 210.356 362.014 211.169 362.28 212.033C362.517 212.948 363.021 213.728 363.492 214.522C364.491 216.079 365.672 217.529 366.851 219.017C368.032 220.503 369.241 222.008 370.344 223.62C371.413 225.223 372.527 226.977 372.698 228.927C372.892 236.991 371.886 245.714 368.765 254.242C367.208 258.497 365.154 262.697 362.535 266.671C359.86 270.608 356.635 274.279 352.975 277.639L352.939 277.672L352.916 277.713C351 281.07 348.932 284.434 346.714 287.769C344.483 291.094 342.122 294.429 339.388 297.516C338.012 299.042 336.55 300.542 334.834 301.678C333.959 302.227 333.064 302.663 332.018 302.695C331.001 302.838 329.956 302.724 328.93 302.564C326.873 302.185 324.905 301.306 323.047 300.255C321.192 299.195 319.426 297.904 317.819 296.466L317.669 296.332L317.491 296.407C314.737 297.551 311.92 298.631 309.057 299.64C306.195 300.646 303.278 301.592 300.291 302.304C298.801 302.674 297.28 302.947 295.763 303.05C295.387 303.044 295 303.112 294.633 303.046L293.525 302.883C292.796 302.642 292.045 302.493 291.33 302.18C288.432 301.07 285.639 299.589 282.885 298.03C280.14 296.446 277.443 294.739 274.792 292.932C272.147 291.12 269.532 289.214 267.097 287.09C266.52 286.532 265.884 286.018 265.353 285.422C265.087 285.125 264.798 284.84 264.55 284.536C264.337 284.212 264.093 283.91 263.9 283.572C263.207 282.166 262.921 280.548 262.761 278.941C262.471 275.706 262.696 272.4 263.117 269.133C263.161 268.83 263.205 268.526 263.246 268.246L263.336 267.638L262.785 267.912C260.625 268.985 258.389 270.07 256.099 270.582C255.569 270.695 254.857 270.711 254.729 270.472C254.574 270.218 254.851 269.568 255.129 269.102C255.701 268.075 256.432 267.125 257.147 266.183C260.112 262.471 263.413 259.111 266.674 255.947L267.641 255.009L266.357 255.417C264.216 256.097 262.041 256.705 259.864 257.112C258.789 257.294 257.649 257.481 256.667 257.306C255.544 257.196 256.523 256.042 257.191 255.276C260.057 251.987 263.406 249.219 266.722 246.732L267.165 246.399L266.635 246.184C264.497 245.315 262.89 243.284 262.143 241.128C261.346 238.95 261.239 236.62 261.411 234.445L261.422 234.309L261.325 234.206C257.947 230.592 254.847 226.726 252.501 222.565C251.352 220.488 250.381 218.279 250.159 216.009C250.06 214.883 250.215 213.739 250.763 212.799C251.301 211.852 252.2 211.165 253.188 210.694L253.448 210.569L253.332 210.303C252.376 208.12 251.594 205.843 251.167 203.585C250.966 202.456 250.845 201.319 250.971 200.241C251.084 199.173 251.509 198.142 252.354 197.627L252.583 197.487L252.45 197.239C250.998 194.538 249.867 191.489 250.106 188.507C250.236 187.031 250.877 185.628 251.99 184.701C253.089 183.779 254.491 183.072 255.889 183.105C257.31 183.113 258.584 183.955 259.703 184.84C260.834 185.745 261.859 186.785 262.884 187.798C264.923 189.844 266.934 191.867 269.036 193.711L269.051 193.723L269.066 193.733C270.083 194.401 271.095 195.065 271.979 195.647L272.023 195.675L272.08 195.686C274.109 196.062 276.103 196.665 277.942 197.5C279.809 198.287 281.346 199.617 282.96 200.795C286.159 203.179 289.273 205.501 292.294 207.754L292.338 207.787L292.385 207.797C296.115 208.593 299.767 209.212 303.342 209.562C305.129 209.726 306.896 209.847 308.641 209.787C309.514 209.745 310.379 209.68 311.231 209.513C311.659 209.457 312.07 209.279 312.486 209.168C312.883 208.996 313.267 208.777 313.636 208.562C315.054 207.589 316.132 206.31 317.124 205.043C318.115 203.768 318.992 202.454 319.799 201.138C321.419 198.509 322.79 195.898 323.994 193.359L324.022 193.301L324.003 193.235C322.085 186.626 320.634 180.625 319.931 175.329C319.64 172.705 319.352 170.132 320.317 168.076C321.271 166.041 322.688 164.474 324.141 163.367C327.07 161.109 330.077 160.64 331.93 160.93C333.816 161.2 334.661 161.812 334.682 161.74Z" fill="#263238"/>
<path d="M348.866 246.853C348.877 246.866 349.093 246.703 349.473 246.395C349.859 246.093 350.383 245.614 350.996 244.987C352.225 243.74 353.741 241.815 354.946 239.418C356.145 237.015 356.78 234.648 357.043 232.918C357.176 232.053 357.246 231.345 357.258 230.856C357.277 230.366 357.279 230.097 357.262 230.096C357.245 230.094 357.209 230.364 357.159 230.848C357.117 231.333 357.021 232.033 356.865 232.887C356.559 234.597 355.905 236.927 354.719 239.304C353.525 241.674 352.052 243.595 350.865 244.864C350.274 245.5 349.771 245.996 349.407 246.32C349.049 246.649 348.855 246.839 348.866 246.853Z" fill="#263238"/>
<path d="M344.49 251.172C344.493 251.19 344.677 251.164 345.007 251.1C345.338 251.042 345.811 250.926 346.388 250.759C347.542 250.426 349.105 249.829 350.703 248.922C352.3 248.01 353.612 246.971 354.487 246.149C354.925 245.737 355.266 245.39 355.486 245.136C355.709 244.884 355.825 244.74 355.811 244.728C355.78 244.698 355.268 245.233 354.367 246.014C353.469 246.796 352.156 247.798 350.578 248.699C348.998 249.596 347.466 250.212 346.335 250.586C345.202 250.963 344.48 251.13 344.49 251.172Z" fill="#263238"/>
<path d="M335.554 257.488C335.554 257.506 335.692 257.515 335.943 257.518C336.194 257.523 336.556 257.504 337.001 257.459C337.892 257.371 339.12 257.134 340.407 256.657C341.694 256.179 342.78 255.56 343.513 255.046C343.881 254.789 344.168 254.567 344.355 254.401C344.544 254.235 344.643 254.139 344.632 254.125C344.606 254.092 344.167 254.426 343.415 254.895C342.665 255.365 341.585 255.948 340.319 256.419C339.052 256.886 337.854 257.147 336.978 257.28C336.103 257.414 335.552 257.447 335.554 257.488Z" fill="#263238"/>
<path d="M311.38 230.209C311.427 230.182 310.922 229.382 310.376 227.97C309.827 226.564 309.313 224.513 309.288 222.204C309.275 219.894 309.756 217.833 310.282 216.419C310.804 214.999 311.296 214.19 311.249 214.164C311.234 214.156 311.108 214.354 310.893 214.724C310.67 215.088 310.398 215.646 310.113 216.355C309.537 217.77 309.018 219.859 309.032 222.206C309.057 224.552 309.609 226.633 310.207 228.038C310.505 228.742 310.785 229.296 311.013 229.657C311.235 230.022 311.364 230.219 311.38 230.209Z" fill="#263238"/>
<path d="M303.894 223.339C303.932 223.35 304.103 222.857 304.414 222.076C304.724 221.294 305.189 220.231 305.8 219.103C306.411 217.977 307.052 217.008 307.537 216.322C308.023 215.635 308.344 215.223 308.315 215.198C308.291 215.177 307.92 215.549 307.393 216.214C306.866 216.877 306.195 217.843 305.576 218.981C304.959 220.12 304.515 221.21 304.245 222.012C303.974 222.816 303.863 223.331 303.894 223.339Z" fill="#263238"/>
<path d="M276.748 229.358C276.755 229.363 276.823 229.283 276.946 229.128C277.109 228.915 277.283 228.69 277.472 228.441C277.917 227.837 278.602 226.993 279.488 225.989C281.254 223.977 283.954 221.407 287.362 219.143C290.778 216.888 294.2 215.406 296.741 214.565C298.011 214.142 299.055 213.84 299.784 213.667C300.086 213.589 300.362 213.518 300.621 213.45C300.812 213.398 300.911 213.366 300.91 213.357C300.91 213.357 299.256 213.586 296.684 214.393C294.117 215.193 290.659 216.659 287.22 218.928C283.79 221.207 281.09 223.818 279.351 225.869C277.605 227.924 276.748 229.358 276.748 229.358Z" fill="#263238"/>
<path d="M267.067 200.599C267.086 200.633 267.577 200.374 268.371 199.969C269.164 199.573 270.274 199.016 271.593 198.753C272.911 198.494 274.155 198.696 274.95 199.056C275.757 199.41 276.13 199.842 276.163 199.804C276.174 199.794 276.092 199.679 275.911 199.503C275.731 199.325 275.434 199.099 275.026 198.893C274.217 198.474 272.916 198.233 271.544 198.503C270.177 198.776 269.061 199.372 268.285 199.811C267.508 200.259 267.052 200.571 267.067 200.599Z" fill="#263238"/>
<path d="M263.078 211.166C263.133 211.155 262.841 210.383 262.86 209.093C262.869 207.824 263.297 205.995 264.589 204.51C265.887 203.032 267.643 202.362 268.9 202.185C270.175 201.993 270.979 202.179 270.984 202.122C270.987 202.109 270.791 202.054 270.429 202.004C270.066 201.953 269.53 201.93 268.877 202.005C267.583 202.141 265.75 202.804 264.398 204.341C263.055 205.886 262.644 207.792 262.682 209.092C262.695 209.751 262.788 210.278 262.887 210.63C262.985 210.985 263.066 211.171 263.078 211.166Z" fill="#263238"/>
<path d="M262.642 214.764C262.627 214.761 262.571 214.979 262.513 215.383C262.455 215.787 262.413 216.379 262.452 217.11C262.52 218.56 263.018 220.611 264.348 222.435C265.681 224.257 267.483 225.356 268.844 225.861C269.529 226.121 270.105 226.262 270.508 226.328C270.91 226.395 271.135 226.407 271.137 226.394C271.148 226.341 270.242 226.247 268.912 225.694C267.59 225.154 265.851 224.058 264.554 222.284C263.259 220.51 262.744 218.518 262.631 217.096C262.509 215.661 262.695 214.77 262.642 214.764Z" fill="#263238"/>
<path d="M262.935 211.59C262.918 211.587 262.891 211.717 262.86 211.957C262.82 212.196 262.811 212.548 262.84 212.979C262.894 213.842 263.208 215.036 263.932 216.156C264.66 217.273 265.622 218.047 266.388 218.448C266.77 218.651 267.095 218.786 267.329 218.847C267.56 218.915 267.69 218.944 267.695 218.927C267.711 218.88 267.201 218.726 266.477 218.292C265.754 217.862 264.848 217.096 264.145 216.018C263.447 214.936 263.117 213.796 263.019 212.962C262.917 212.123 262.984 211.595 262.935 211.59Z" fill="#263238"/>
<path d="M252.092 193.073C252.079 193.084 252.221 193.289 252.49 193.65C252.761 194.011 253.157 194.53 253.663 195.159C254.675 196.413 256.113 198.139 258.007 199.737C259.902 201.336 261.934 202.382 263.489 202.848C264.265 203.087 264.912 203.211 265.361 203.265C265.81 203.319 266.061 203.324 266.062 203.309C266.071 203.256 265.063 203.195 263.544 202.677C262.025 202.174 260.041 201.122 258.169 199.542C256.296 197.963 254.845 196.266 253.8 195.046C253.364 194.53 252.956 194.049 252.566 193.589C252.275 193.247 252.106 193.062 252.092 193.073Z" fill="#263238"/>
<path d="M255.892 187.748C255.876 187.757 255.958 187.946 256.121 188.282C256.28 188.621 256.539 189.096 256.887 189.667C257.578 190.812 258.679 192.316 260.131 193.758C261.589 195.196 263.104 196.281 264.254 196.96C264.83 197.302 265.307 197.556 265.647 197.712C265.985 197.871 266.176 197.95 266.183 197.935C266.204 197.894 265.466 197.522 264.349 196.806C263.23 196.093 261.75 194.999 260.31 193.575C258.873 192.149 257.764 190.681 257.039 189.57C256.312 188.461 255.932 187.728 255.892 187.748Z" fill="#263238"/>
<path d="M252.708 209.831C252.698 209.846 252.815 209.937 253.036 210.092C253.255 210.248 253.586 210.453 254.007 210.685C254.849 211.151 256.077 211.691 257.504 212.061C258.932 212.427 260.269 212.547 261.231 212.544C261.712 212.544 262.101 212.525 262.369 212.494C262.637 212.466 262.784 212.441 262.781 212.424C262.779 212.383 262.186 212.41 261.236 212.364C260.285 212.32 258.974 212.175 257.568 211.815C256.163 211.451 254.944 210.947 254.091 210.526C253.236 210.105 252.731 209.795 252.708 209.831Z" fill="#263238"/>
<path d="M255.785 224.443C255.778 224.459 255.918 224.539 256.176 224.67C256.433 224.803 256.817 224.973 257.3 225.163C258.266 225.542 259.649 225.96 261.22 226.19C262.793 226.417 264.237 226.414 265.271 226.325C265.789 226.283 266.205 226.229 266.49 226.175C266.775 226.124 266.932 226.087 266.93 226.068C266.924 226.027 266.29 226.105 265.262 226.146C264.235 226.187 262.81 226.161 261.258 225.937C259.708 225.709 258.336 225.327 257.364 224.993C256.389 224.662 255.803 224.405 255.785 224.443Z" fill="#263238"/>
<path d="M335.512 284.468C335.513 284.485 335.79 284.483 336.293 284.463C336.796 284.451 337.521 284.377 338.41 284.237C340.187 283.961 342.616 283.294 345.07 282.039C347.521 280.774 349.477 279.187 350.736 277.903C351.368 277.262 351.85 276.715 352.154 276.314C352.462 275.917 352.626 275.693 352.613 275.682C352.599 275.671 352.408 275.874 352.078 276.25C351.753 276.631 351.253 277.156 350.61 277.775C349.329 279.016 347.378 280.562 344.954 281.812C342.526 283.054 340.134 283.741 338.379 284.059C337.502 284.221 336.783 284.321 336.285 284.364C335.787 284.414 335.512 284.451 335.512 284.468Z" fill="#263238"/>
<path d="M324.335 290.263C324.339 290.28 324.582 290.22 325.019 290.095C325.457 289.978 326.077 289.759 326.825 289.445C328.322 288.822 330.304 287.711 332.174 286.072C334.04 284.426 335.396 282.603 336.205 281.198C336.612 280.497 336.908 279.909 337.081 279.489C337.259 279.072 337.35 278.84 337.334 278.832C337.318 278.825 337.196 279.045 336.991 279.447C336.793 279.85 336.474 280.421 336.05 281.105C335.208 282.474 333.847 284.255 332.006 285.88C330.159 287.498 328.218 288.621 326.752 289.28C326.02 289.612 325.413 289.855 324.987 290.001C324.563 290.153 324.33 290.246 324.335 290.263Z" fill="#263238"/>
<path d="M304.282 295.292C304.282 295.309 304.568 295.326 305.089 295.341C305.609 295.363 306.363 295.344 307.29 295.277C309.146 295.147 311.706 294.717 314.387 293.758C317.067 292.791 319.317 291.494 320.83 290.414C321.588 289.875 322.181 289.409 322.569 289.061C322.96 288.719 323.171 288.524 323.16 288.511C323.149 288.497 322.916 288.667 322.506 288.984C322.101 289.306 321.495 289.748 320.728 290.264C319.198 291.3 316.957 292.559 314.302 293.517C311.643 294.467 309.115 294.922 307.274 295.096C306.354 295.185 305.605 295.231 305.087 295.239C304.57 295.258 304.283 295.275 304.282 295.292Z" fill="#263238"/>
<path d="M315 182.704C315.087 182.008 315.196 181.37 315.523 180.686C315.803 180.099 315.867 179.591 316.877 179.434L324.745 177.629C325.874 179.788 328.652 185.674 329.596 187.735C330.54 189.796 332.252 192.182 332.292 194.448C332.332 196.713 331.028 199.191 328.81 199.659C326.869 200.069 324.887 198.799 323.841 197.114C322.796 195.428 322.483 193.404 322.192 191.442C321.005 192.385 319.619 193.383 318.124 193.141C317.044 192.966 316.152 192.142 315.649 191.171C315.146 190.199 314.98 189.091 314.89 188.001C314.746 186.237 314.783 184.459 315 182.704Z" fill="#E8505B"/>
<path d="M330.987 170.411C331.036 171.467 331.933 172.284 332.99 172.235C334.046 172.186 334.863 171.289 334.814 170.233C334.765 169.177 333.868 168.359 332.812 168.408C331.756 168.457 330.938 169.354 330.987 170.411Z" fill="#263238"/>
<path d="M340.668 188.283C340.655 188.29 340.744 188.485 340.974 188.791C341.203 189.096 341.583 189.514 342.164 189.889C342.452 190.07 342.794 190.269 343.219 190.326C343.429 190.354 343.671 190.335 343.885 190.211C344.102 190.088 344.244 189.852 344.301 189.62C344.475 188.693 344.343 187.67 343.934 186.691L343.933 186.688C343.49 186.934 343.811 186.758 343.713 186.813L343.716 186.818L343.724 186.828L343.738 186.848L343.766 186.888L343.825 186.967L343.945 187.123L344.199 187.418C344.372 187.608 344.556 187.783 344.747 187.943C345.129 188.25 345.52 188.567 346.018 188.648C346.261 188.691 346.547 188.622 346.72 188.435C346.897 188.251 346.952 188.015 346.978 187.811C347.013 187.393 346.978 187.023 346.926 186.68C346.82 185.998 346.602 185.478 346.431 185.139C346.255 184.799 346.122 184.632 346.11 184.641C346.059 184.661 346.569 185.374 346.748 186.706C346.787 187.032 346.809 187.408 346.769 187.784C346.743 188.162 346.47 188.507 346.054 188.415C345.654 188.35 345.274 188.054 344.91 187.752C344.728 187.597 344.553 187.429 344.387 187.246L344.146 186.964L344.031 186.816L343.975 186.74L343.948 186.702L343.934 186.682L343.927 186.673L343.923 186.668C343.824 186.723 344.142 186.542 343.7 186.789L343.702 186.791C344.094 187.713 344.221 188.727 344.076 189.56C343.997 189.978 343.616 190.173 343.245 190.115C342.873 190.077 342.546 189.903 342.261 189.735C341.114 189.033 340.709 188.241 340.668 188.283Z" fill="#263238"/>
<path d="M328.297 195.638C328.297 195.638 328.302 195.381 328.176 194.939C328.048 194.497 327.761 193.895 327.37 193.185C327.002 192.477 326.476 191.62 326.457 190.576C326.439 190.06 326.617 189.525 326.7 188.933C326.809 188.341 326.675 187.656 326.318 187.124C325.976 186.58 325.536 186.153 325.172 185.708C324.804 185.265 324.487 184.806 324.223 184.347C323.695 183.426 323.362 182.521 323.165 181.742C322.777 180.176 322.864 179.156 322.808 179.16C322.808 179.16 322.759 179.41 322.764 179.866C322.766 180.322 322.812 180.985 322.989 181.784C323.167 182.582 323.488 183.515 324.017 184.463C324.283 184.937 324.603 185.41 324.979 185.867C325.351 186.326 325.782 186.75 326.101 187.26C326.432 187.764 326.547 188.338 326.451 188.901C326.378 189.462 326.199 190.018 326.222 190.581C326.26 191.714 326.828 192.577 327.214 193.275C327.625 193.974 327.928 194.549 328.083 194.972C328.234 195.392 328.272 195.642 328.297 195.638Z" fill="#263238"/>
<path d="M319.794 190.378C319.805 190.38 319.859 190.226 319.878 189.935C319.902 189.643 319.863 189.215 319.725 188.713C319.594 188.21 319.364 187.637 319.167 186.999C318.965 186.363 318.831 185.627 319.048 184.902C319.268 184.181 319.692 183.529 319.824 182.831C319.973 182.147 319.927 181.507 319.812 180.998C319.694 180.487 319.508 180.101 319.356 179.854C319.206 179.605 319.092 179.489 319.082 179.496C319.034 179.521 319.448 180.039 319.635 181.035C319.723 181.528 319.748 182.136 319.595 182.78C319.463 183.427 319.045 184.053 318.803 184.83C318.564 185.624 318.724 186.428 318.941 187.068C319.157 187.721 319.4 188.279 319.551 188.763C319.881 189.733 319.744 190.375 319.794 190.378Z" fill="#263238"/>
<g opacity="0.3">
<path opacity="0.3" d="M328.485 195.234C328.584 194.488 328.168 193.774 327.714 193.174C327.26 192.573 326.738 191.981 326.569 191.248C326.299 190.083 326.988 188.84 326.658 187.691C326.426 186.882 325.74 186.302 325.172 185.68C323.667 184.03 322.848 181.772 322.947 179.541C322.956 179.342 322.971 179.135 322.894 178.951C322.816 178.768 322.612 178.62 322.422 178.68C322.202 178.748 322.138 179.026 322.114 179.256C321.973 180.518 321.832 181.788 321.919 183.055C322.006 184.321 322.335 185.598 323.061 186.639C323.536 187.322 324.175 187.896 324.537 188.645C325.248 190.115 324.805 192.057 325.861 193.303C326.558 194.124 327.75 194.418 328.382 195.288" fill="black"/>
</g>
<g opacity="0.3">
<path opacity="0.3" d="M318.914 178.913C319.316 179.521 319.706 180.15 319.922 180.847C320.139 181.543 320.171 182.323 319.867 182.986C319.604 183.561 319.111 184.014 318.889 184.608C318.539 185.546 318.944 186.58 319.326 187.507C319.708 188.433 320.069 189.499 319.642 190.406C318.567 188.53 317.459 186.508 317.618 184.353C317.721 182.966 318.35 181.586 318.029 180.234C317.959 179.942 317.847 179.657 317.836 179.357C317.826 179.057 317.949 178.726 318.225 178.605C318.499 178.485 318.892 178.716 318.832 179.01" fill="black"/>
</g>
<path d="M324.335 179.249C321.246 178.987 318.105 179.34 315.152 180.282C315.152 178.822 315.296 177.334 315.876 175.994C316.456 174.653 317.525 173.47 318.916 173.027C320.702 172.457 322.695 173.202 324.115 174.427C324.613 174.857 325.08 175.378 325.222 176.02C325.494 177.254 325.232 178.362 324.335 179.249Z" fill="#EB996E"/>
<path d="M320.32 174.097C320.332 174.167 320.708 174.156 321.157 174.074C321.607 173.992 321.961 173.868 321.949 173.8C321.937 173.73 321.561 173.741 321.112 173.823C320.661 173.905 320.308 174.028 320.32 174.097Z" fill="#263238"/>
<path d="M324.247 245.886C319.795 252.154 314.184 257.598 307.783 261.859C302.142 265.614 295.646 268.505 288.87 268.44C282.093 268.375 275.067 264.825 272.329 258.626C271.933 257.728 271.624 256.747 271.762 255.775C271.899 254.804 272.588 253.854 273.554 253.684C274.406 253.535 275.234 253.991 275.996 254.401C283.121 258.226 291.781 259.086 299.519 256.737C307.258 254.389 313.979 248.861 317.777 241.721C317.386 242.696 316.989 243.737 317.172 244.771C317.356 245.805 318.373 246.766 319.385 246.482C319.953 246.323 320.358 245.835 320.726 245.374C322.653 242.959 324.579 240.544 326.504 238.129C326.423 241.586 326.734 243.078 324.015 246.209" fill="#E0E0E0"/>
<path d="M272.353 242.004C272.353 242.004 272.294 242.088 272.195 242.261C272.089 242.43 271.969 242.708 271.883 243.085C271.698 243.83 271.777 245.061 272.564 246.291C272.952 246.901 273.502 247.505 274.225 247.996C274.943 248.504 275.867 248.795 276.855 248.946C278.86 249.24 281.113 248.767 283.458 248.155L283.376 247.948C280.945 249.278 278.266 250.745 275.433 252.294L275.278 252.378L275.408 252.496C276.795 253.741 278.392 254.863 280.139 255.795C283.97 257.8 288.13 258.669 291.867 258.531C295.619 258.424 298.901 257.368 301.429 256.126C303.967 254.871 305.771 253.424 306.931 252.363C308.083 251.283 308.621 250.593 308.621 250.593C308.621 250.593 308.46 250.74 308.171 251.037C307.888 251.339 307.445 251.76 306.865 252.29C305.689 253.324 303.88 254.74 301.35 255.965C298.832 257.178 295.574 258.206 291.861 258.298C288.162 258.422 284.049 257.555 280.259 255.571C278.53 254.649 276.951 253.541 275.577 252.311L275.554 252.514C278.382 250.956 281.058 249.482 283.485 248.145L284.286 247.703L283.401 247.938C281.063 248.561 278.843 249.037 276.881 248.763C274.898 248.554 273.43 247.41 272.676 246.22C271.891 245.028 271.792 243.834 271.951 243.099C272.109 242.353 272.384 242.019 272.353 242.004Z" fill="#263238"/>
<path d="M352.566 275.781C347.801 282.208 342.778 288.854 335.65 292.489C334.413 293.121 333.041 293.664 331.667 293.457C330.293 293.252 328.987 292.035 329.149 290.656C322.324 294.182 314.627 296.003 306.945 295.912C312.973 294.495 317.867 293.39 323.242 290.318C326.631 290.54 332.241 286.689 334.933 283.38C338.447 286.228 349.518 279.822 352.566 275.781Z" fill="#E0E0E0"/>
<path d="M268.834 268.038L167.837 281.988L146.004 233.845C146.004 233.845 130.095 225.719 118.641 231.154C107.187 236.59 103.561 251.619 103.561 251.619L127.957 299.238C135.328 313.626 148.085 331.266 167.964 326.066L273.781 297.554L268.834 268.038Z" fill="#B78876"/>
<path d="M84.9961 214.83C81.6232 195.534 104.176 176.734 121.627 185.632C128.472 189.122 136.468 200.323 139.046 205.975C145.47 220.058 153.266 241.788 153.266 241.788L114.051 263.433C109.267 266.074 103.25 264.135 100.928 259.189C95.7279 248.103 87.4817 229.049 84.9961 214.83Z" fill="#455A64"/>
<path d="M88.833 214.834C88.7975 214.836 88.7975 215.224 88.8294 215.964C88.8612 216.703 88.9053 217.796 89.0827 219.191C89.3813 221.986 90.0802 226.011 91.4007 230.865C92.6894 235.729 94.65 241.384 96.7856 247.653C97.8466 250.789 98.9407 254.085 99.9382 257.538C100.484 259.266 100.829 260.995 101.271 262.858C101.513 263.775 101.79 264.713 102.284 265.611C102.77 266.475 103.613 267.415 104.778 267.577C106.004 267.787 106.914 267.244 107.805 266.917C108.692 266.529 109.536 266.096 110.364 265.654C112.032 264.767 113.575 263.821 115.18 262.996C118.357 261.295 121.424 259.654 124.35 258.088C130.156 254.956 135.401 252.126 139.85 249.726C144.156 247.362 147.681 245.426 150.259 244.012C151.399 243.362 152.327 242.833 153.065 242.413C153.702 242.038 154.027 241.826 154.011 241.795C153.995 241.765 153.637 241.916 152.97 242.235C152.21 242.61 151.251 243.085 150.075 243.666C147.46 245.011 143.884 246.852 139.516 249.099C135.038 251.445 129.758 254.21 123.914 257.271C120.98 258.82 117.904 260.444 114.716 262.127C113.109 262.946 111.514 263.914 109.892 264.773C109.077 265.206 108.248 265.63 107.404 265.997C106.57 266.328 105.66 266.758 104.958 266.588C103.364 266.306 102.675 264.298 102.237 262.607C101.817 260.847 101.431 258.976 100.882 257.262C99.8647 253.788 98.7462 250.485 97.6594 247.351C95.4724 241.09 93.4506 235.483 92.0823 230.673C90.6835 225.873 89.8831 221.903 89.467 219.139C89.0362 216.377 88.9322 214.827 88.833 214.834Z" fill="#263238"/>
<path d="M157.736 303.127C158.056 303.175 158.421 297.61 161.355 291.562C164.216 285.477 168.315 281.696 168.076 281.477C167.996 281.388 166.868 282.208 165.337 283.856C163.807 285.496 161.937 288.022 160.448 291.13C158.968 294.24 158.179 297.281 157.864 299.502C157.545 301.728 157.616 303.121 157.736 303.127Z" fill="#995037"/>
<path d="M263.956 268.717L246.223 271.166L245.772 305.107L267.487 299.256C267.487 299.256 294.995 298.08 314.078 288.77C317.336 286.142 318.895 276.222 319.052 275.78C322.343 273.314 322.431 267.085 321.88 264.615C324.584 260.45 324.936 256.747 320.996 256.61C323.097 253.269 318.609 250.113 315.736 252.173C310.122 257.859 304.92 263.039 304.502 262.67C302.44 262.233 282.53 270.586 284.786 258.902C288.167 256.625 300.828 250.717 294.935 244.693C285.201 249.874 269.993 253.948 263.99 268.711" fill="#B78876"/>
<path d="M294.123 275.059C294.125 275.128 294.609 275.169 295.495 275.184C296.381 275.217 297.665 275.115 299.23 274.858C302.36 274.359 306.621 272.922 310.64 270.153C314.648 267.366 317.494 263.883 319.064 261.129C319.856 259.755 320.404 258.589 320.684 257.748C320.983 256.913 321.115 256.446 321.05 256.42C320.881 256.35 320.159 258.163 318.459 260.754C316.774 263.344 313.945 266.628 310.068 269.325C306.178 272.003 302.11 273.495 299.091 274.159C296.068 274.839 294.118 274.877 294.123 275.059Z" fill="#995037"/>
<path d="M297.84 282.691C297.84 282.789 299.659 282.887 302.51 282.248C305.352 281.624 309.18 280.078 312.716 277.326C316.242 274.558 318.666 271.215 319.958 268.609C321.268 265.996 321.612 264.208 321.516 264.183C321.349 264.124 320.766 265.815 319.335 268.267C317.918 270.72 315.499 273.861 312.098 276.533C308.684 279.187 305.051 280.776 302.33 281.56C299.605 282.357 297.824 282.514 297.84 282.691Z" fill="#995037"/>
<path d="M296.518 289.464C296.545 289.592 298.081 289.44 300.538 288.979C302.979 288.494 306.414 287.737 309.866 285.938C313.359 284.161 315.785 281.454 317.224 279.416C318.701 277.354 319.167 275.818 319.049 275.777C318.909 275.715 318.234 277.094 316.659 278.984C315.098 280.872 312.724 283.357 309.398 285.047C306.096 286.771 302.761 287.629 300.378 288.285C297.982 288.92 296.487 289.32 296.518 289.464Z" fill="#995037"/>
<path d="M167.841 281.989C167.843 282.011 168.184 281.987 168.827 281.921C169.529 281.841 170.465 281.735 171.638 281.601C174.14 281.288 177.65 280.848 181.959 280.308C190.722 279.142 202.72 277.544 215.975 275.78C229.256 273.967 241.273 272.278 249.963 271.004C254.308 270.367 257.821 269.833 260.247 269.438C262.67 269.044 264.01 268.787 263.992 268.707C262.377 268.919 258.032 269.49 249.901 270.557C241.14 271.74 229.144 273.359 215.889 275.148C202.645 276.985 190.655 278.647 181.899 279.861C177.601 280.485 174.101 280.993 171.605 281.355C170.438 281.538 169.508 281.683 168.81 281.794C168.171 281.901 167.838 281.967 167.841 281.989Z" fill="#995037"/>
<path d="M171.482 325.119C171.485 325.13 171.607 325.108 171.843 325.056C172.113 324.992 172.456 324.91 172.887 324.807C173.844 324.564 175.183 324.225 176.886 323.791C180.396 322.871 185.396 321.559 191.558 319.942C203.969 316.623 221.044 312.057 239.905 307.013C248.721 304.63 257.145 302.352 264.822 300.277L264.799 300.281C268.013 299.775 271.2 299.645 274.215 299.619C275.73 299.599 277.188 299.694 278.668 299.605C280.125 299.497 281.519 299.268 282.864 299.011C288.228 297.919 292.826 296.51 296.62 295.324C300.412 294.122 303.388 293.085 305.418 292.356C306.399 291.992 307.168 291.707 307.734 291.497C307.971 291.401 308.163 291.324 308.325 291.261C308.456 291.204 308.522 291.172 308.519 291.164C308.517 291.156 308.445 291.172 308.308 291.213C308.143 291.264 307.945 291.327 307.701 291.404C307.128 291.592 306.347 291.848 305.356 292.173C303.307 292.845 300.315 293.828 296.514 294.977C292.712 296.113 288.103 297.475 282.772 298.522C281.438 298.766 280.057 298.983 278.637 299.078C277.234 299.158 275.732 299.055 274.215 299.067C271.172 299.078 267.992 299.19 264.692 299.698L264.684 299.699L264.669 299.703C256.988 301.765 248.56 304.029 239.74 306.397C220.899 311.511 203.841 316.141 191.442 319.507C185.302 321.205 180.318 322.584 176.822 323.552C175.133 324.033 173.805 324.412 172.855 324.682C172.432 324.81 172.093 324.912 171.827 324.992C171.596 325.067 171.479 325.11 171.482 325.119Z" fill="#995037"/>
</svg>
