<svg width="1920" height="564" viewBox="0 0 1920 564" fill="none" xmlns="http://www.w3.org/2000/svg">
<rect y="1" width="1920" height="563" fill="#CCD5DE"/>
<g opacity="0.2">
<path d="M2121.49 111.23C2093.87 286.915 2020.73 456.15 1906.66 608.203C1693.91 875.904 1071.31 1466.58 980.27 1552.89C980.267 1552.89 980.265 1552.89 980.263 1552.89L978.046 1554.95L975.818 1552.88L975.81 1552.88C943.406 1523.2 847.916 1432.55 727.528 1316.05C989.533 791.287 1486 362.137 2121.49 111.23Z" stroke="#333F4D" stroke-width="3"/>
<path d="M2123.55 95.8388C1476.7 333.35 963.412 753.553 683.12 1275.18C568.448 1163.69 437.351 1034.03 319.522 912.379C764.708 456.067 1411.03 151.44 2127.69 60.2332C2127.29 63.8845 2126.7 67.6553 2126.1 71.5753C2125.84 73.2457 2125.57 74.9432 2125.32 76.6701C2124.42 82.7837 2123.63 89.2005 2123.55 95.8388Z" stroke="#333F4D" stroke-width="3"/>
<path d="M35.2637 596.571C559.68 222.036 1239.62 15.2095 1944.17 16.0012C2006.12 16.0012 2067.53 17.5393 2128.42 20.6154V20.6398V20.6904V20.741V20.7916V20.8422V20.8929V20.9436V20.9943V21.045V21.0958V21.1465V21.1973V21.2481V21.2989V21.3498V21.4006V21.4515V21.5024V21.5534V21.6043V21.6553V21.7063V21.7573V21.8083V21.8593V21.9104V21.9615V22.0126V22.0637V22.1149V22.166V22.2172V22.2684V22.3197V22.3709V22.4222V22.4735V22.5248V22.5761V22.6275V22.6788V22.7302V22.7816V22.8331V22.8845V22.936V22.9875V23.039V23.0906V23.1421V23.1937V23.2453V23.2969V23.3486V23.4002V23.4519V23.5036V23.5553V23.6071V23.6588V23.7106V23.7624V23.8143V23.8661V23.918V23.9699V24.0218V24.0737V24.1257V24.1777V24.2297V24.2817V24.3337V24.3858V24.4379V24.49V24.5421V24.5942V24.6464V24.6986V24.7508V24.803V24.8553V24.9076V24.9599V25.0122V25.0645V25.1169V25.1692V25.2217V25.2741V25.3265V25.379V25.4315V25.484V25.5365V25.5891V25.6416V25.6942V25.7469V25.7995V25.8522V25.9048V25.9575V26.0103V26.063V26.1158V26.1686V26.2214V26.2742V26.3271V26.38V26.4329V26.4858V26.5387V26.5917V26.6447V26.6977V26.7507V26.8038V26.8569V26.91V26.9631V27.0162V27.0694V27.1226V27.1758V27.229V27.2823V27.3356V27.3889V27.4422V27.4955V27.5489V27.6023V27.6557V27.7091V27.7626V27.8161V27.8696V27.9231V27.9766V28.0302V28.0838V28.1374V28.191V28.2447V28.2984V28.3521V28.4058V28.4596V28.5133V28.5671V28.6209V28.6748V28.7286V28.7825V28.8364V28.8904V28.9443V28.9983V29.0523V29.1063V29.1604V29.2144V29.2685V29.3226V29.3768V29.4309V29.4851V29.5393V29.5935V29.6478V29.7021V29.7564V29.8107V29.865V29.9194V29.9738V30.0282V30.0827V30.1371V30.1916V30.2461V30.3006V30.3552V30.4098V30.4644V30.519V30.5736V30.6283V30.683V30.7377V30.7925V30.8472V30.902V30.9568V31.0117V31.0665V31.1214V31.1763V31.2312V31.2862V31.3412V31.3962V31.4512V31.5062V31.5613V31.6164V31.6715V31.7267V31.7818V31.837V31.8922V31.9475V32.0027V32.058V32.1133V32.1687V32.224V32.2794V32.3348V32.3902V32.4457V32.5012V32.5567V32.6122V32.6678V32.7233V32.7789V32.8346V32.8902V32.9459V33.0016V33.0573V33.113V33.1688V33.2246V33.2804V33.3363V33.3921V33.448V33.5039V33.5599V33.6158V33.6718V33.7278V33.7839V33.8399V33.896V33.9521V34.0083V34.0644V34.1206V34.1768V34.2331V34.2893V34.3456V34.4019V34.4582V34.5146V34.571V34.6274V34.6838V34.7403V34.7968V34.8533V34.9098V34.9664V35.0229V35.0795V35.1362V35.1928V35.2495V35.3062V35.363V35.4197V35.4765V35.5333V35.5901V35.647V35.7039V35.7608V35.8177V35.8747V35.9317V35.9887V36.0457V36.1028V36.1598V36.217V36.2741V36.3313V36.3884V36.4457V36.5029V36.5602V36.6174V36.6748V36.7321V36.7895V36.8468V36.9043V36.9617V37.0192V37.0767V37.1342V37.1917V37.2493V37.3069V37.3645V37.4222V37.4798V37.5375V37.5953V37.653V37.7108V37.7686V37.8264V37.8843V37.9421V38.0001V38.058V38.1159V38.1739V38.2319V38.29V38.348V38.4061V38.4642V38.5224V38.5805V38.6387V38.697V38.7552V38.8135V38.8718V38.9301V38.9884V39.0468V39.1052V39.1636V39.2221V39.2806V39.3391V39.3976V39.4562V39.5148V39.5734V39.632V39.6907V39.7494V39.8081V39.8669V39.9256V39.9844V40.0432V40.1021V40.161V40.2199V40.2788V40.3378V40.3968V40.4558V40.5148V40.5739V40.633V40.6921V40.7512V40.8104V40.8696V40.9288V40.9881V41.0474V41.1067V41.166V41.2254V41.2848V41.3442V41.4036V41.4631V41.5226V41.5821V41.6417V41.7013V41.7609V41.8205V41.8802V41.9399V41.9996V42.0593V42.1191V42.1789V42.2387V42.2986V42.3584V42.4183V42.4783V42.5382V42.5982V42.6582V42.7183V42.7784V42.8385V42.8986V42.9587V43.0189V43.0791V43.1394V43.1996V43.2599V43.3202V43.3806V43.441V43.5014V43.5618V43.6223V43.6827V43.7433V43.8038V43.8644V43.925V43.9856V44.0462V44.1069V44.1676V44.2284V44.2891V44.3499V44.4108V44.4716V44.5325V44.5934V44.6543V44.7153V44.7763V44.8373V44.8983V44.9594V45.0205V45.0817V45.1428V45.204V45.2652V45.3265V45.3877V45.449V45.5104V45.5717V45.6331V45.6945V45.756V45.8174V45.8789V45.9405V46.002V46.0636V46.1252V46.1869V46.2485V46.3102V46.372V46.4337V46.4955V46.5573V46.6192V46.681V46.7429V46.8049V46.8668V46.9288V46.9908V47.0529V47.115V47.1771V47.2392V47.3013V47.3635V47.4258V47.488V47.5503V47.6126V47.6749V47.7373V47.7997V47.8621V47.9245V47.987V48.0495V48.0814C1403.06 124.375 741.854 418.964 280.637 871.412C185.74 772.633 100.129 680.824 46.2325 610.864L35.2637 596.571ZM35.2637 596.571L46.2308 610.862L35.2637 596.571Z" stroke="#333F4D" stroke-width="3"/>
<path d="M-0.0193787 550.88C-89.0364 414.936 -147.544 267.674 -172.924 115.734C13.1191 176.688 190.552 253.119 356.422 343.754C231.128 405.424 111.963 474.67 -0.0193787 550.88Z" stroke="#333F4D" stroke-width="3"/>
<path d="M638.296 222.902C552.038 255.45 467.88 291.418 386.136 330.671C211.08 239.168 23.9257 163.272 -171.952 104.349C-174.191 89.9288 -175.68 76.7227 -177.064 64.4404C-177.227 62.9953 -177.388 61.563 -177.549 60.1431C103.029 81.922 377.979 136.776 638.296 222.902Z" stroke="#333F4D" stroke-width="3"/>
<path d="M-179.417 51.3025V27.578C212.187 -26.0071 614.578 3.30877 987.433 112.561C883.164 139.12 780.903 170.448 681.161 206.39C406.138 119.445 115.803 67.1246 -179.417 51.3025Z" stroke="#333F4D" stroke-width="3"/>
</g>
</svg>
