<svg width="1920" height="1065" viewBox="0 0 1920 1065" fill="none" xmlns="http://www.w3.org/2000/svg">
<g clip-path="url(#clip0)">
<rect width="1920" height="1065" fill="#39B54A"/>
<g opacity="0.1">
<path d="M431.17 1599.66C843.608 974.242 1625.04 462.694 2625.36 163.643C2581.9 372.86 2466.88 574.463 2287.42 755.657C1952.62 1074.77 972.81 1778.88 829.539 1881.77C829.535 1881.77 829.532 1881.77 829.528 1881.77L825.581 1884.55L821.619 1881.76L821.608 1881.76C770.637 1846.4 620.49 1738.43 431.17 1599.66Z" fill="white" stroke="white" stroke-width="4"/>
<path d="M-210.786 1118.58C489.936 574.714 1507.18 211.63 2635.12 102.963C2634.49 107.208 2633.6 111.588 2632.66 116.158C2632.25 118.154 2631.84 120.187 2631.43 122.26C2630.03 129.476 2628.79 137.08 2628.64 144.958C1610.58 428.094 802.677 929.106 361.598 1551.17C181.13 1418.27 -25.2569 1263.66 -210.786 1118.58Z" fill="white" stroke="white" stroke-width="4"/>
<path d="M2345.99 50.2703C2443.59 50.2703 2540.36 52.108 2636.3 55.7836V55.829V55.8894V55.9498V56.0103V56.0707V56.1312V56.1917V56.2523V56.3128V56.3734V56.434V56.4947V56.5553V56.616V56.6767V56.7374V56.7982V56.859V56.9198V56.9806V57.0415V57.1023V57.1632V57.2241V57.2851V57.3461V57.4071V57.4681V57.5291V57.5902V57.6513V57.7124V57.7735V57.8347V57.8959V57.9571V58.0183V58.0796V58.1409V58.2022V58.2635V58.3249V58.3863V58.4477V58.5091V58.5706V58.6321V58.6936V58.7551V58.8167V58.8783V58.9399V59.0015V59.0632V59.1248V59.1866V59.2483V59.31V59.3718V59.4336V59.4955V59.5573V59.6192V59.6811V59.743V59.805V59.867V59.929V59.991V60.0531V60.1152V60.1773V60.2394V60.3016V60.3638V60.426V60.4882V60.5505V60.6128V60.6751V60.7374V60.7998V60.8622V60.9246V60.987V61.0495V61.112V61.1745V61.237V61.2996V61.3622V61.4248V61.4875V61.5501V61.6128V61.6755V61.7383V61.8011V61.8639V61.9267V61.9896V62.0524V62.1153V62.1783V62.2412V62.3042V62.3672V62.4302V62.4933V62.5564V62.6195V62.6826V62.7458V62.809V62.8722V62.9355V62.9987V63.062V63.1254V63.1887V63.2521V63.3155V63.3789V63.4424V63.5059V63.5694V63.6329V63.6965V63.76V63.8237V63.8873V63.951V64.0147V64.0784V64.1421V64.2059V64.2697V64.3335V64.3974V64.4613V64.5252V64.5891V64.6531V64.7171V64.7811V64.8451V64.9092V64.9733V65.0374V65.1016V65.1658V65.23V65.2942V65.3585V65.4227V65.4871V65.5514V65.6158V65.6802V65.7446V65.809V65.8735V65.938V66.0026V66.0671V66.1317V66.1963V66.261V66.3256V66.3903V66.4551V66.5198V66.5846V66.6494V66.7142V66.7791V66.844V66.9089V66.9739V67.0388V67.1038V67.1689V67.2339V67.299V67.3641V67.4293V67.4944V67.5596V67.6249V67.6901V67.7554V67.8207V67.886V67.9514V68.0168V68.0822V68.1477V68.2132V68.2787V68.3442V68.4098V68.4754V68.541V68.6066V68.6723V68.738V68.8037V68.8695V68.9353V69.0011V69.0669V69.1328V69.1987V69.2647V69.3306V69.3966V69.4626V69.5287V69.5947V69.6609V69.727V69.7931V69.8593V69.9256V69.9918V70.0581V70.1244V70.1907V70.2571V70.3235V70.3899V70.4563V70.5228V70.5893V70.6559V70.7224V70.789V70.8557V70.9223V70.989V71.0557V71.1224V71.1892V71.256V71.3228V71.3897V71.4566V71.5235V71.5904V71.6574V71.7244V71.7915V71.8585V71.9256V71.9927V72.0599V72.1271V72.1943V72.2615V72.3288V72.3961V72.4634V72.5308V72.5982V72.6656V72.733V72.8005V72.868V72.9356V73.0031V73.0707V73.1383V73.206V73.2737V73.3414V73.4092V73.4769V73.5447V73.6126V73.6804V73.7483V73.8163V73.8842V73.9522V74.0202V74.0883V74.1564V74.2245V74.2926V74.3608V74.429V74.4972V74.5655V74.6337V74.7021V74.7704V74.8388V74.9072V74.9757V75.0441V75.1126V75.1812V75.2497V75.3183V75.3869V75.4556V75.5243V75.593V75.6618V75.7305V75.7993V75.8682V75.9371V76.006V76.0749V76.1439V76.2129V76.2819V76.3509V76.42V76.4891V76.5583V76.6275V76.6967V76.7659V76.8352V76.9045V76.9738V77.0432V77.1126V77.182V77.2515V77.321V77.3905V77.4601V77.5297V77.5993V77.6689V77.7386V77.8083V77.8781V77.9478V78.0177V78.0875V78.1574V78.2273V78.2972V78.3672V78.4372V78.5072V78.5772V78.6473V78.7175V78.7876V78.8578V78.928V78.9983V79.0686V79.1389V79.2092V79.2796V79.35V79.4204V79.4909V79.5614V79.632V79.7025V79.7731V79.8438V79.9144V79.9851V80.0559V80.1266V80.1974V80.2682V80.3391V80.41V80.4809V80.5519V80.6229V80.6939V80.7649V80.836V80.9071V80.9783V81.0495V81.1207V81.1919V81.2632V81.3345V81.4059V81.4773V81.5487V81.6201V81.6916V81.7631V81.8346V81.9062V81.9778V82.0495V82.1211V82.1928V82.2646V82.3364V82.4082V82.48V82.5519V82.6238V82.6957V82.7677V82.8397V82.9117V82.9838V83.0559V83.128V83.2002V83.2724V83.3446V83.4169V83.4892V83.5615V83.6339V83.7063V83.7787V83.8512V83.9237V83.9963V84.0688V84.1414V84.2141V84.2867V84.3594V84.4322V84.5049V84.5777V84.6506V84.7234V84.7964V84.8693V84.9423V85.0153V85.0883V85.1614V85.2345V85.3076V85.3808V85.454V85.5273V85.6005V85.6738V85.7472V85.8206V85.894V85.9674V86.0409V86.1144V86.188V86.2616V86.3352V86.4088V86.4825V86.5562V86.63V86.7038V86.7776V86.8515V86.9253V86.9993V87.0732V87.1472V87.2213V87.2953V87.3694V87.4436V87.5177V87.5919V87.6662V87.7404V87.8147V87.8891V87.9634V88.0379V88.0621C1493.94 179.023 416.583 524.688 -385.271 1149.82C-388.871 1152.63 -392.381 1155.38 -395.811 1158.07C-422.181 1178.73 -443.892 1195.75 -466.245 1206.68C-491.354 1218.96 -517.25 1223.55 -551.373 1216.63C-585.608 1209.7 -628.16 1191.18 -686.472 1157.09C-744.38 1123.24 -817.695 1074.11 -913.669 1005.94L-660.223 743.354C165.386 296.255 1236.29 49.3257 2345.99 50.2703Z" fill="white" stroke="white" stroke-width="4"/>
<path d="M290.264 296.712C154.74 335.471 22.5098 378.294 -105.93 425.022C-381.532 315.881 -676.191 225.363 -984.591 155.099C-988.094 137.986 -990.426 122.31 -992.599 107.711C-992.841 106.085 -993.081 104.471 -993.32 102.871C-551.892 128.802 -119.313 194.131 290.264 296.712Z" fill="white" stroke="white" stroke-width="4"/>
<path d="M-996.296 91.9155V64.1038C-380.228 0.222467 252.81 35.0805 839.445 165.148C675.674 196.773 515.054 234.064 358.385 276.835C-74.5354 173.147 -531.571 110.762 -996.296 91.9155Z" fill="white" stroke="white" stroke-width="4"/>
</g>
</g>
<defs>
<clipPath id="clip0">
<rect width="1920" height="1065" fill="white"/>
</clipPath>
</defs>
</svg>
