 <svg width="65" height="59" viewBox="0 0 65 59" fill="none" xmlns="http://www.w3.org/2000/svg">
  <path d="M32.4519 17.1292C37.6397 17.1292 41.8453 13.2947 41.8453 8.56459C41.8453 3.8345 37.6397 0 32.4519 0C27.264 0 23.0585 3.8345 23.0585 8.56459C23.0585 13.2947 27.264 17.1292 32.4519 17.1292Z" fill="#39B54A"/>
  <path d="M17.3264 22.123L16.363 20.4358C15.6939 20.7527 15.0511 21.1287 14.451 21.5511L15.7295 23.0567C16.2307 22.7016 16.7682 22.3885 17.3264 22.123Z" fill="#333333"/>
  <path d="M20.9523 21.0735L20.6475 19.1902C19.894 19.2911 19.1571 19.4462 18.4557 19.6459L19.084 21.4617C19.6801 21.2903 20.3084 21.1592 20.9523 21.0735Z" fill="#333333"/>
  <path d="M14.3302 24.2356L12.7885 22.9509C12.2906 23.4477 11.8262 23.994 11.4076 24.5716L13.1494 25.6203C13.5097 25.1244 13.9062 24.6582 14.3302 24.2356Z" fill="#333333"/>
  <path d="M34.0819 41.8813L34.0537 43.7846C49.1696 43.9711 60.1786 46.7641 62.3286 49.4837H56.4567V51.3869H62.2983C60.1367 53.9686 49.5944 56.9642 33.4952 57.0898V53.2901H31.4078V57.0898C15.3087 56.9642 4.76637 53.9686 2.60482 51.3869H8.44665V49.4837H2.57476C4.72473 46.7639 15.7337 43.9709 30.8496 43.7846L30.8214 41.8813C15.5532 42.0697 0.0970459 45.0682 0.0970459 50.4354C0.0970459 55.9985 16.7671 59 32.4517 59C48.1362 59 64.8063 55.9987 64.8063 50.4354C64.8065 45.0682 49.3504 42.0697 34.0819 41.8813Z" fill="#333333"/>
  <path d="M53.4949 24.5716C53.0763 23.994 52.6118 23.4477 52.114 22.9509L50.5725 24.2356C50.9962 24.658 51.3939 25.1254 51.7519 25.6201L53.4949 24.5716Z" fill="#333333"/>
  <path d="M52.6953 27.1599C52.8185 27.4006 52.9207 27.6234 53.0064 27.8221C51.375 28.3408 50.1947 29.7416 50.1947 31.403C50.1947 33.5023 52.067 35.2094 54.3695 35.2094C56.672 35.2094 58.5443 33.5023 58.5443 31.403C58.5443 29.553 57.0884 28.0105 55.1668 27.6698C55.0395 27.3282 54.8538 26.8781 54.5866 26.3566L52.6953 27.1599ZM56.4569 31.4032C56.4569 32.4528 55.5206 33.3064 54.3695 33.3064C53.2184 33.3064 52.2821 32.4528 52.2821 31.4032C52.2821 30.3536 53.2184 29.5 54.3695 29.5C55.5206 29.5 56.4569 30.3534 56.4569 31.4032Z" fill="#333333"/>
  <path d="M46.4478 19.6469C45.7465 19.4461 45.0097 19.2921 44.256 19.1912L43.9512 21.0745C44.5951 21.1612 45.2245 21.2923 45.8204 21.4637L46.4478 19.6469Z" fill="#333333"/>
  <path d="M50.4514 21.5501C49.8523 21.1277 49.2095 20.7517 48.5395 20.4348L47.576 22.122C48.1345 22.3876 48.672 22.7006 49.1729 23.0547L50.4514 21.5501Z" fill="#333333"/>
  <path d="M32.4519 49.4837L22.0149 19.0322H42.8887L32.4519 49.4837Z" fill="#39B54A"/>
  <path d="M10.5341 35.2096C12.8366 35.2096 14.7089 33.5025 14.7089 31.4032C14.7089 29.7417 13.5284 28.341 11.8972 27.8223C11.9827 27.6233 12.0851 27.4006 12.2082 27.16L10.3161 26.3569C10.0489 26.8785 9.86321 27.3285 9.73585 27.6702C7.81545 28.0109 6.3595 29.5535 6.3595 31.4034C6.35927 33.5023 8.23181 35.2096 10.5341 35.2096ZM10.5341 29.4999C11.6852 29.4999 12.6215 30.3536 12.6215 31.4032C12.6215 32.4527 11.6852 33.3064 10.5341 33.3064C9.38294 33.3064 8.44668 32.4527 8.44668 31.4032C8.44668 30.3536 9.38294 29.4999 10.5341 29.4999Z" fill="#333333"/>
  </svg>