
  <svg width="71" height="62" viewBox="0 0 71 62" fill="none" xmlns="http://www.w3.org/2000/svg">
  <path d="M37.4866 29H37.0799C34.3752 30.8728 30.9721 31.9999 27.2632 31.9999C23.5542 31.9999 20.1511 30.8728 17.4464 28.9998H17.0398H5.6803V44.9997H48.8463V28.9998H37.4866V29Z" fill="#39B54A"/>
  <path d="M67.022 48.9999H65.8859V37.9999H61.2346L60.0985 27.9999H49.9829V19H44.2451C44.2701 18.6681 44.3031 18.3381 44.3031 17.9999C44.3031 13.9699 42.4788 10.3129 39.531 7.61491L40.3273 6.9139L42.3641 8.70696L43.9703 7.29299L38.2907 2.2929L36.6845 3.70687L38.7213 5.49993L37.8502 6.26686C35.2181 4.42281 31.958 3.25887 28.4003 3.05087V1.99999H31.808V0H22.7204V1.99999H26.1281V3.05108C22.5704 3.25908 19.3103 4.42409 16.6783 6.26707L15.8071 5.50014L17.8439 3.70708L16.2377 2.29311L10.5574 7.29299L12.1636 8.70696L14.2004 6.9139L14.9967 7.61491C12.0489 10.3129 10.2246 13.9699 10.2246 17.9999C10.2246 18.3379 10.2576 18.6679 10.2825 19H4.54477V48.9999H3.40894C1.53011 48.9999 0.000976562 50.3459 0.000976562 51.9998C0.000976562 53.6538 1.52987 54.9999 3.4087 54.9999H4.54453H6.81642H10.2241C10.2241 58.8589 13.7911 62 18.1757 62C22.5602 62 26.1272 58.8591 26.1272 54.9999H47.7101C47.7101 58.8589 51.277 62 55.6616 62C60.0461 62 63.6131 58.8591 63.6131 54.9999H65.885H67.021C68.8999 54.9999 70.4288 53.654 70.4288 51.9998C70.4288 50.3456 68.9008 48.9999 67.022 48.9999ZM58.0423 29.9999L58.951 37.9999H49.9827V29.9999H58.0423ZM27.2637 5.00009C35.4062 5.00009 42.0309 10.832 42.0309 18.0002C42.0309 25.1683 35.4062 31 27.2637 31C19.1213 31 12.4965 25.1679 12.4965 17.9999C12.4965 10.832 19.1213 5.00009 27.2637 5.00009ZM4.54477 52.9999H3.40894C2.78299 52.9999 2.27311 52.5519 2.27311 51.9998C2.27311 51.4477 2.78323 50.9997 3.40894 50.9997H4.54477V52.9999ZM18.1761 59.9998C15.0444 59.9998 12.4965 57.7568 12.4965 54.9997C12.4965 52.2426 15.0444 49.9998 18.1761 49.9998C21.3078 49.9998 23.8558 52.2428 23.8558 54.9999C23.8558 57.757 21.3081 59.9998 18.1761 59.9998ZM25.7927 52.9999C24.8123 50.1118 21.7702 47.9998 18.1761 47.9998C14.5821 47.9998 11.54 50.1118 10.5595 52.9999H6.81666V48.9999V21H10.5675C12.151 27.838 19.035 33 27.2637 33C35.4925 33 42.3763 27.838 43.9599 21H47.7108V28.0001V38.0001V40.0001V53.0001H25.7927V52.9999ZM55.6623 59.9998C52.5306 59.9998 49.9827 57.7568 49.9827 54.9997C49.9827 52.2426 52.5306 49.9996 55.6623 49.9996C58.794 49.9996 61.3419 52.2426 61.3419 54.9997C61.3419 57.7568 58.7942 59.9998 55.6623 59.9998ZM63.6143 52.9999H63.2791C62.2987 50.1118 59.2566 47.9998 55.6623 47.9998C53.4381 47.9998 51.4275 48.8099 49.9827 50.1108V39.9999H61.4614H63.6141V48.9999V52.9999H63.6143ZM67.022 52.9999H65.8859V50.9999H67.022C67.648 50.9999 68.1578 51.4479 68.1578 52C68.1578 52.5521 67.6477 52.9999 67.022 52.9999Z" fill="#333333"/>
  <path d="M18.1757 51.9999C16.2968 51.9999 14.7679 53.3458 14.7679 55C14.7679 56.6539 16.2968 58.0001 18.1757 58.0001C20.0545 58.0001 21.5834 56.6542 21.5834 55C21.5836 53.3458 20.0545 51.9999 18.1757 51.9999ZM18.1757 55.9999C17.5497 55.9999 17.0398 55.5519 17.0398 54.9998C17.0398 54.4477 17.55 53.9997 18.1757 53.9997C18.8014 53.9997 19.3115 54.4477 19.3115 54.9998C19.3115 55.5519 18.8016 55.9999 18.1757 55.9999Z" fill="#333333"/>
  <path d="M55.6618 51.9999C53.7829 51.9999 52.254 53.3458 52.254 55C52.254 56.6539 53.7829 58.0001 55.6618 58.0001C57.5406 58.0001 59.0695 56.6542 59.0695 55C59.0697 53.3458 57.5406 51.9999 55.6618 51.9999ZM55.6618 55.9999C55.0358 55.9999 54.5257 55.5519 54.5257 54.9998C54.5257 54.4477 55.0358 53.9997 55.6618 53.9997C56.2877 53.9997 56.7976 54.4477 56.7976 54.9998C56.7976 55.5519 56.2877 55.9999 55.6618 55.9999Z" fill="#333333"/>
  <path d="M23.8555 18C23.8555 19.6539 25.3844 21 27.2632 21C29.142 21 30.6709 19.6541 30.6709 18C30.6709 16.3458 29.142 14.9999 27.2632 14.9999C27.0701 14.9999 26.8837 15.0229 26.6985 15.0498L20.1737 8.349L18.4482 9.65097L24.6869 16.058C24.1756 16.583 23.8555 17.2561 23.8555 18ZM28.3993 18C28.3993 18.551 27.8891 19.0001 27.2634 19.0001C26.6375 19.0001 26.1276 18.551 26.1276 18C26.1276 17.4489 26.6377 16.9998 27.2634 16.9998C27.8891 17.0001 28.3993 17.4489 28.3993 18Z" fill="#333333"/>
  <path d="M26.2273 28.955L26.4136 26.9621C21.1576 26.58 17.0398 22.644 17.0398 18.0002C17.0398 15.8022 17.96 13.6821 19.6309 12.0282L17.9338 10.6991C15.8926 12.7191 14.7679 15.312 14.7679 18C14.7679 23.677 19.8013 28.4889 26.2273 28.955Z" fill="#333333"/>
  </svg>