<svg width="29" height="24" viewBox="0 0 29 24" fill="none" xmlns="http://www.w3.org/2000/svg">
<g clip-path="url(#clip0_536_52643)">
<path d="M2.8931 12.0262C3.01496 15.5686 4.60949 18.2727 7.75649 20.0393C9.56796 21.057 11.5434 21.3608 13.6133 21.0699C15.198 20.8471 16.6133 20.2326 17.8964 19.3059C18.5352 18.8447 19.2822 18.8624 19.7964 19.337C20.4931 19.9798 20.468 20.9483 19.6909 21.5177C19.1311 21.9308 18.5404 22.302 17.9237 22.6281C16.4656 23.3916 14.86 23.8458 13.2111 23.9614C9.97179 24.2036 7.09529 23.3079 4.56578 21.3367C2.83846 19.9895 1.60731 18.2732 0.8095 16.2618C0.42363 15.3158 0.183119 14.319 0.0958358 13.3038C0.0444697 12.6391 -0.0358555 11.9646 0.0166035 11.3052C0.223161 8.72225 1.1095 6.39479 2.8177 4.38497C4.15956 2.7842 5.90239 1.55234 7.87562 0.809928C8.87234 0.431748 9.90294 0.174621 10.9723 0.0931998C11.5516 0.0487395 12.1357 -0.0219716 12.7128 0.0096327C15.2783 0.149442 17.6062 0.958307 19.662 2.48281C20.2314 2.90545 20.427 3.54879 20.1947 4.14606C20.0825 4.43217 19.877 4.67397 19.6102 4.83397C19.3435 4.99396 19.0303 5.0632 18.7193 5.03097C18.4407 4.99734 18.1753 4.89527 17.9477 4.73422C16.8117 3.90769 15.5658 3.32273 14.1827 3.03722C13.0836 2.8115 11.952 2.78229 10.8423 2.95099C9.23114 3.1807 7.71179 3.82793 6.4412 4.82582C4.9177 6.015 3.85868 7.51808 3.29693 9.35381C3.02946 10.2204 2.89339 11.1208 2.8931 12.0262Z" fill="#5E738A"/>
<path d="M16.8603 13.4661C16.7226 13.457 16.6182 13.4436 16.5138 13.4431C15.5668 13.4431 14.6193 13.4463 13.6723 13.4431C13.01 13.4388 12.4155 12.9824 12.2641 12.3771C12.104 11.7375 12.3767 11.0862 12.9712 10.7835C13.1878 10.6712 13.4275 10.6084 13.6723 10.5998C15.2936 10.5826 16.9149 10.5821 18.5357 10.5891C19.3887 10.5928 20.0275 11.2211 20.0046 12.0605C19.9226 15.0715 18.4991 17.3004 15.8248 18.7435C14.0985 19.675 12.2373 19.8609 10.3412 19.3788C8.14115 18.8196 6.4794 17.5292 5.40562 15.5638C4.56603 14.0362 4.28745 12.2722 4.61654 10.5673C4.94563 8.86233 5.8624 7.32003 7.21328 6.19873C8.90017 4.80064 10.8745 4.24516 13.0821 4.45835C14.2576 4.57191 15.327 4.96295 16.3352 5.54576C17.0237 5.94376 17.269 6.79493 16.8816 7.44952C16.4636 8.15285 15.5625 8.40675 14.8718 7.99321C13.9698 7.43981 12.9109 7.18378 11.8499 7.26257C9.75646 7.40613 7.95864 8.98795 7.51602 11.0122C7.03787 13.2031 8.2264 15.386 10.1767 16.3153C12.6226 17.4788 15.7352 16.3078 16.727 13.8207C16.7679 13.7173 16.8062 13.6108 16.8603 13.4661Z" fill="#5E738A"/>
<path d="M25.8364 3.8268C26.4648 3.83376 26.8719 4.07964 27.1271 4.57673C28.0829 6.42746 28.6807 8.37997 28.8637 10.4493C28.9036 10.9024 28.967 11.3534 28.9965 11.8072C29.0113 12.0364 28.9752 12.2684 28.9604 12.4992C28.8681 13.9911 28.6872 15.4727 28.1818 16.889C27.8561 17.7964 27.4785 18.6851 27.0506 19.5508C26.7506 20.1641 26.0052 20.3735 25.3566 20.1293C24.708 19.885 24.3184 19.2186 24.449 18.5641C24.4841 18.3982 24.5412 18.2376 24.6189 18.0863C25.5699 16.2084 26.0672 14.1411 26.0722 12.0446C26.0772 9.94802 25.5899 7.87849 24.6479 5.99625C24.2823 5.2731 24.379 4.65174 24.9266 4.17124C25.1717 3.94346 25.4987 3.81968 25.8364 3.8268Z" fill="#5E738A"/>
<path d="M24.4691 12.0327C24.46 13.6715 24.1145 15.2917 23.4532 16.7969C23.2019 17.3722 22.8106 17.7847 22.1505 17.8372C21.044 17.9255 20.3019 16.8789 20.7298 15.8622C21.4598 14.1325 21.744 12.3396 21.4062 10.49C21.2557 9.71988 21.0372 8.96406 20.7532 8.23105C20.4653 7.46558 20.7123 6.63423 21.421 6.31176C21.5947 6.23041 21.7833 6.18433 21.9756 6.17629C22.1679 6.16825 22.3599 6.19841 22.5399 6.26496C22.72 6.33151 22.8845 6.43307 23.0235 6.56355C23.1625 6.69403 23.2732 6.85072 23.3489 7.0242C23.6421 7.69662 23.8894 8.38735 24.0893 9.09187C24.3675 10.0491 24.4669 11.0369 24.4691 12.0327Z" fill="#5E738A"/>
</g>
<defs>
<clipPath id="clip0_536_52643">
<rect width="29" height="24" fill="white"/>
</clipPath>
</defs>
</svg>