<svg width="22" height="25" viewBox="0 0 22 25" fill="none" xmlns="http://www.w3.org/2000/svg">
<path d="M12.5229 19.3816C12.4555 19.8275 12.388 20.2551 12.3207 20.6829C12.2001 21.4694 12.1115 22.2596 11.9448 23.0353C11.8617 23.4827 11.655 23.8963 11.3489 24.2272C11.0429 24.5581 10.6505 24.7923 10.2183 24.9021C9.98723 24.9661 9.74853 24.9966 9.50918 24.9928C8.44552 24.9928 7.38186 24.9928 6.31821 24.9928C5.87703 25.0084 5.44541 24.8591 5.1041 24.5729C4.7628 24.2866 4.5352 23.8831 4.4639 23.4377C4.43719 23.1964 4.44309 22.9524 4.48156 22.7128C4.49929 22.5243 4.4993 22.5025 4.31848 22.5025C3.65547 22.5025 2.9925 22.5025 2.32949 22.5025C1.90814 22.4795 1.50005 22.344 1.14603 22.1092C0.792009 21.8745 0.504482 21.5489 0.312102 21.165C0.11818 20.8368 0.0151118 20.461 0.0141602 20.0776C0.0243994 19.8027 0.0540223 19.5289 0.102798 19.2584C0.173709 18.7364 0.248207 18.218 0.322663 17.6997C0.411301 17.0835 0.503485 16.4637 0.588577 15.8475C0.67367 15.2313 0.748105 14.6187 0.833198 14.0061C0.946655 13.1905 1.07075 12.3786 1.18775 11.563C1.25157 11.1135 1.30484 10.6604 1.36866 10.2073C1.4573 9.56576 1.55295 8.92416 1.64514 8.2862C1.70896 7.82585 1.76569 7.36912 1.82951 6.9124C1.91815 6.27806 2.01389 5.6401 2.10252 5.00577C2.16634 4.53092 2.22309 4.0561 2.294 3.58126C2.35947 2.98332 2.45535 2.38929 2.58121 1.80153C2.72717 1.3263 3.00672 0.905446 3.38501 0.591537C3.7633 0.277628 4.2236 0.0845106 4.70852 0.0362295C4.87871 0.0362295 5.06305 0.0362295 5.21906 0.0362295C7.32274 0.0362295 9.42635 0.0362295 11.53 0.0362295C12.3362 0.0226028 13.1404 0.122645 13.9198 0.333485C14.9261 0.590304 15.8568 1.09142 16.6333 1.79436C17.4098 2.49731 18.009 3.38131 18.3801 4.37143C18.5326 4.75928 18.6212 5.17616 18.7347 5.57851C18.76 5.66264 18.8094 5.73714 18.8764 5.7924C20.1266 6.7127 21.0548 8.01873 21.5249 9.51858C21.9035 10.6542 22.0531 11.8564 21.9646 13.0527C21.8658 14.2451 21.4228 15.3805 20.6918 16.315C19.6933 17.6466 18.3082 18.6211 16.7349 19.0989C16.023 19.3229 15.2814 19.4329 14.5366 19.4251C13.9268 19.4251 13.3206 19.4251 12.7144 19.4251L12.5229 19.3816ZM2.46418 19.9615C2.48517 19.9736 2.50789 19.9822 2.53152 19.9869C3.30444 19.9869 4.07738 19.9869 4.85031 19.9869C4.8964 19.9869 4.96381 19.9108 4.98153 19.8564C5.02763 19.715 5.04891 19.5628 5.08437 19.4142C5.26874 18.5805 5.4555 17.7468 5.64459 16.9132C5.81832 16.1375 5.99905 15.3689 6.16569 14.5933C6.26896 13.9957 6.57829 13.4559 7.03753 13.0715C7.49676 12.6871 8.07551 12.4838 8.66885 12.4982C9.67578 12.4982 10.6792 12.4982 11.6825 12.4982C11.9854 12.4954 12.2867 12.454 12.5795 12.3749C13.6872 12.0534 14.6652 11.3776 15.3699 10.4465C15.9532 9.75317 16.3319 8.90467 16.4619 7.99983C16.538 7.34909 16.4983 6.68969 16.3449 6.05337C16.1778 5.202 15.7683 4.42005 15.1678 3.80595C14.3117 2.96499 13.1639 2.50613 11.9769 2.53011C9.67935 2.49749 7.36769 2.5301 5.08437 2.51197C4.92482 2.51197 4.89634 2.58803 4.87507 2.72215C4.75452 3.61746 4.62331 4.53459 4.49922 5.41178L4.14467 8.05425L3.77245 10.7656C3.70509 11.2513 3.64488 11.737 3.57752 12.2155C3.51015 12.6939 3.43558 13.1615 3.36822 13.6364C3.28312 14.2489 3.20523 14.8652 3.12013 15.4778C3.03504 16.0903 2.94641 16.6921 2.86132 17.2901C2.78331 17.8157 2.70873 18.3413 2.63782 18.8632C2.54563 19.2293 2.51027 19.5918 2.46418 19.9615ZM6.95997 22.4771H7.16546C7.90293 22.4771 8.63693 22.4771 9.37086 22.4771C9.54104 22.4771 9.58364 22.4083 9.60492 22.2597C9.65101 21.8972 9.70763 21.5347 9.76436 21.1723C9.89909 20.3132 10.0304 19.4577 10.1651 18.6023C10.1959 18.3058 10.2504 18.0124 10.3282 17.7251C10.4073 17.4628 10.5718 17.2361 10.7943 17.0824C11.0167 16.9288 11.2838 16.8576 11.5513 16.8805C12.5512 16.8805 13.5511 16.8805 14.5474 16.8805C14.8456 16.8805 15.1432 16.8551 15.4372 16.8044C16.6349 16.5999 17.7262 15.9773 18.5253 15.0427C19.1288 14.4096 19.4899 13.5762 19.543 12.6939C19.5501 12.26 19.5252 11.8263 19.4685 11.3963C19.3862 10.6654 19.1607 9.95907 18.8055 9.31929C18.7813 9.27868 18.7529 9.24096 18.7205 9.2069C18.6389 9.44614 18.5751 9.66719 18.49 9.87743C17.7038 11.897 16.1771 13.5229 14.2354 14.4084C13.5713 14.7419 12.8472 14.9319 12.1081 14.9666C11.009 14.9992 9.90975 14.9884 8.81064 14.9956C8.56954 14.9956 8.57306 14.9956 8.52343 15.2385C8.3887 15.8474 8.25172 16.4516 8.11226 17.0509L7.68673 18.9249C7.52009 19.6499 7.33213 20.3929 7.19385 21.1323C7.10876 21.5782 7.04151 22.0168 6.95997 22.4771Z" fill="#5E738A"/>
</svg>