<svg width="62" height="41" viewBox="0 0 62 41" fill="none" xmlns="http://www.w3.org/2000/svg">
<path d="M23.3684 32.8001H37.2V6.10734C37.2007 5.84397 37.1468 5.58312 37.0414 5.33961C36.9361 5.0961 36.7814 4.87475 36.5862 4.68829C36.3909 4.50183 36.1589 4.35387 35.9036 4.25293C35.6482 4.152 35.3745 4.1001 35.098 4.1001H8.30722C7.74837 4.1001 7.21238 4.31149 6.81721 4.68794C6.42205 5.06438 6.20001 5.57497 6.20001 6.10734V30.7927C6.20001 31.3251 6.42205 31.8357 6.81721 32.2121C7.21238 32.5886 7.74837 32.8001 8.30722 32.8001H15.1643" stroke="#000" stroke-width="4" stroke-miterlimit="10"/>
<path d="M51.0268 32.7998H54.1929C54.6191 32.7998 55.0279 32.6407 55.3293 32.3577C55.6307 32.0746 55.8 31.6909 55.8 31.2906V23.8704C55.8009 23.5311 55.6802 23.2015 55.4572 22.9346L46.9822 12.8732C46.8325 12.6954 46.6422 12.5515 46.4251 12.4522C46.2081 12.3529 45.9701 12.3008 45.7287 12.2998H37.2V32.7746H42.4071" stroke="#000" stroke-width="4" stroke-miterlimit="10"/>
<path d="M46.8712 36.9002C49.154 36.9002 51.0045 35.0646 51.0045 32.8002C51.0045 30.5358 49.154 28.7002 46.8712 28.7002C44.5884 28.7002 42.7379 30.5358 42.7379 32.8002C42.7379 35.0646 44.5884 36.9002 46.8712 36.9002Z" stroke="#000" stroke-width="4" stroke-miterlimit="10"/>
<path d="M19.1819 36.9002C21.4646 36.9002 23.3152 35.0646 23.3152 32.8002C23.3152 30.5358 21.4646 28.7002 19.1819 28.7002C16.8991 28.7002 15.0485 30.5358 15.0485 32.8002C15.0485 35.0646 16.8991 36.9002 19.1819 36.9002Z" stroke="#000" stroke-width="4" stroke-miterlimit="10"/>
</svg>
