<svg width="410" height="410" viewBox="0 0 410 410" fill="none" xmlns="http://www.w3.org/2000/svg">
<path d="M0.342529 12.281C0.342529 5.65358 5.71511 0.281006 12.3425 0.281006H397.657C404.285 0.281006 409.657 5.65359 409.657 12.281V409.052H0.342529V12.281Z" fill="#469D52"/>
<g clip-path="url(#clip0_108_51923)">
<path d="M204.394 409.052L202.686 349.946L161.251 349.558C161.251 349.558 148.698 373.163 143.284 409.089L204.394 409.052Z" fill="#263238"/>
<path d="M248.578 348.487C241.251 337.811 189.654 349.558 189.654 349.558V401.423C189.654 401.922 190.013 404.674 190.61 409.088H274.299C269.962 387.172 261.215 366.557 248.68 348.708L248.578 348.487Z" fill="#263238"/>
<path d="M255.785 339.067C257.083 336.739 247.075 327.652 230.986 313.467L217.818 301.812C212.273 296.601 205.979 292.402 199.184 289.381C190.832 286.055 181.769 285.413 173.087 287.534C168.422 288.651 163.956 290.585 159.868 293.26C155.333 296.178 151.467 300.169 148.561 304.933C147.687 306.344 146.949 307.848 146.358 309.421C145.511 311.645 145.104 314.036 145.162 316.44C145.266 319.563 146.283 322.57 148.066 325.029C149.122 326.462 150.435 327.649 151.926 328.52C152.753 329.004 153.63 329.382 154.539 329.647C155.383 329.882 156.247 330.019 157.118 330.053C159.746 330.136 162.342 329.406 164.599 327.947C166.033 327.042 166.819 326.414 167.229 326.1C167.639 325.786 167.519 325.916 167.4 325.971C167.255 326.044 167.098 326.088 166.939 326.1C166.648 326.1 166.631 326.1 166.939 326.1C168.375 326.383 169.791 326.778 171.174 327.282C172.333 327.641 173.507 327.937 174.693 328.169C175.875 328.374 177.066 328.509 178.262 328.575C182.319 328.733 186.381 328.461 190.388 327.763C193.392 327.232 196.419 326.868 199.458 326.673C201.831 326.542 204.209 326.836 206.494 327.541C211.324 329.33 215.94 331.736 220.243 334.708C224.49 337.597 228.986 340.034 233.668 341.985C237.44 343.568 241.457 344.364 245.503 344.331C248.114 344.36 250.69 343.687 253.001 342.373C254.538 341.394 255.119 340.526 254.931 339.842C254.521 338.457 251.242 338.79 246.392 336.906C243.423 335.748 240.595 334.203 237.971 332.306C234.289 329.598 230.753 326.663 227.382 323.515C222.592 318.991 217.211 315.257 211.413 312.432C207.693 310.822 203.751 309.892 199.748 309.68C196.05 309.553 192.348 309.676 188.663 310.049C185.639 310.393 182.592 310.436 179.56 310.179C178.894 310.179 178.296 309.994 177.699 309.883C177.101 309.772 176.623 309.606 175.991 309.366C173.856 308.521 171.663 307.86 169.432 307.39C167.555 307.055 165.639 307.055 163.762 307.39C162.672 307.604 161.607 307.945 160.585 308.406C159.76 308.773 158.961 309.205 158.194 309.699C156.964 310.493 156.179 311.065 155.94 311.195V311.379L156.366 312.358C156.759 313.189 157.101 314.205 157.272 314.723C157.415 315.186 157.524 315.662 157.596 316.145C157.613 316.317 157.613 316.49 157.596 316.662C157.596 316.662 157.596 316.754 157.596 316.662C157.699 316.219 157.459 317.234 157.477 317.142C157.494 317.05 157.477 317.142 157.477 316.976C157.63 316.696 157.834 316.451 158.074 316.256C158.252 316.091 158.454 315.96 158.672 315.868V315.868H158.553H158.382H159.492C159.997 315.853 160.503 315.909 160.995 316.034C161.354 316.126 161.798 316.237 162.276 316.403L162.652 316.533C162.824 316.12 163.03 315.724 163.266 315.35C165.863 310.918 171.311 307.371 176.93 305.838C182.426 304.304 188.204 304.407 193.651 306.134C199.096 308.224 204.242 311.134 208.937 314.778C214.06 318.472 219.048 321.815 223.608 324.697C242.139 336.259 254.555 341.283 255.785 339.067Z" fill="#F5F5F5"/>
<path d="M182.549 186.5C181.046 186.795 166.529 193.389 159.936 196.4C157.854 197.355 156.158 199.085 155.154 201.276L122.703 271.926L147.741 290.674C147.741 290.674 154.778 346.732 161.234 349.521C163.642 350.555 241.165 349.521 241.165 349.521C241.165 349.521 250.627 353.215 254.009 349.521C256.622 346.713 255.614 341.265 255.614 341.265V226.101L260.345 194.387C260.345 194.387 215.29 180.257 182.549 186.5Z" fill="#FBB040"/>
<path d="M243.215 218.916L241.832 276.174L286.972 280.848C286.972 280.534 291.84 206.596 260.431 194.368L243.215 218.916Z" fill="#FBB040"/>
<path d="M149.689 280.866C149.945 279.019 150.252 276.839 150.73 273.348C151.414 268.177 152.302 261.472 153.292 254.065C154.283 246.659 155.137 239.954 155.803 234.782C156.093 232.492 156.349 230.534 156.537 228.927C156.678 228.217 156.736 227.491 156.708 226.766C156.446 227.439 156.268 228.147 156.179 228.871C155.905 230.22 155.547 232.215 155.137 234.671C154.334 239.584 153.429 246.381 152.353 253.936C151.277 261.49 150.645 268.306 150.064 273.256C149.825 275.75 149.637 277.763 149.569 279.148C149.539 279.69 149.539 280.232 149.569 280.774V281.014C149.569 281.014 149.569 281.18 149.723 281.014C149.706 280.921 149.706 280.866 149.689 280.866Z" fill="#D38A2A"/>
<path d="M286.972 280.866C285.911 280.597 284.831 280.418 283.744 280.33L274.931 279.259C267.485 278.391 257.203 277.283 245.896 276.101L241.934 275.694L242.361 276.211C242.634 264.852 242.822 254.73 242.907 247.471C242.907 243.962 242.907 241.08 242.907 238.901C242.96 237.853 242.926 236.802 242.805 235.761C242.659 236.794 242.579 237.837 242.566 238.883C242.463 241.062 242.344 243.943 242.207 247.453C241.951 254.73 241.644 264.834 241.353 276.193V276.655H241.78L245.743 277.061C257.117 278.243 267.416 279.259 274.88 279.924L283.71 280.681C284.791 280.833 285.882 280.895 286.972 280.866V280.866Z" fill="#D38A2A"/>
<path d="M172.148 273.866L166.734 259.089C166.466 258.349 165.995 257.716 165.384 257.273C164.774 256.831 164.053 256.601 163.318 256.614H137.699C137.289 256.618 136.886 256.726 136.523 256.93C136.16 257.134 135.846 257.428 135.608 257.789C135.37 258.149 135.214 258.565 135.153 259.003C135.091 259.441 135.127 259.888 135.256 260.308L151.738 308.627C151.834 308.902 152.005 309.138 152.227 309.306C152.449 309.474 152.713 309.566 152.985 309.569H183.403C183.622 309.569 183.838 309.511 184.032 309.399C184.225 309.287 184.39 309.125 184.512 308.928C184.633 308.73 184.708 308.504 184.729 308.267C184.75 308.031 184.717 307.793 184.633 307.574L172.148 273.866Z" fill="#263238"/>
<path d="M139.321 318.934L136.862 286.61L139.373 272.443L143.386 284.228V288.993C144.872 288.587 158.638 275.934 162.344 278.668C166.051 281.402 175.513 296.307 175.513 296.307C175.513 296.307 158.86 313.891 156.196 315.221C156.196 315.221 159.219 328.151 160.175 332.971C161.132 337.792 162.037 351.442 156.196 353.64C150.355 355.838 134.659 340.711 136.862 331.124C138.331 324.715 139.321 318.934 139.321 318.934Z" fill="#FFBF9D"/>
<path d="M247.143 277.283L245.691 296.197L203.625 279.573L184.838 270.208L176.64 272.425C176.64 272.425 150.884 274.272 150.645 276.027C150.406 277.781 149.244 279.314 150.645 279.573C152.045 279.832 172.421 280.848 172.421 280.848C172.421 280.848 150.457 282.362 149.962 284.135C149.466 285.908 150.184 288.698 151.345 288.698H175.256C175.256 288.698 152.763 290.212 152.541 291.228C152.319 292.244 150.662 294.017 152.763 294.774C154.863 295.532 175.478 296.289 175.478 296.289L156.042 300.094C156.042 300.094 155.342 303.382 156.981 303.382C158.621 303.382 201.012 306.411 201.012 306.411C201.012 306.411 250.696 340.637 260.089 343.13C269.483 345.624 277.664 333.895 278.876 325.602C280.584 313.116 282.292 280.423 282.292 280.423L247.143 277.283Z" fill="#FFBF9D"/>
<path d="M201.046 306.411C200.768 306.325 200.481 306.281 200.192 306.281L197.664 306.06L187.946 305.284L172.575 304.139L163.01 303.437L157.784 303.049C156.961 303.106 156.142 302.88 155.444 302.403C155.034 301.941 155.683 300.943 156.298 300.352L156.128 300.445L175.581 296.751C175.632 296.742 175.682 296.722 175.726 296.692C175.77 296.661 175.807 296.621 175.836 296.574C175.865 296.528 175.885 296.475 175.894 296.419C175.903 296.364 175.901 296.307 175.888 296.252C175.876 296.154 175.831 296.064 175.762 296C175.693 295.935 175.604 295.9 175.513 295.901L164.001 295.347L157.989 294.959C156.981 294.959 155.957 294.793 154.949 294.682C153.941 294.571 152.814 294.534 152.268 293.943C151.721 293.352 152.011 292.096 152.609 291.764C153.073 291.626 153.548 291.534 154.027 291.487L155.598 291.283L162.037 290.563L175.308 289.233C175.43 289.215 175.541 289.148 175.62 289.045C175.699 288.943 175.74 288.812 175.735 288.679C175.716 288.558 175.661 288.446 175.577 288.363C175.494 288.279 175.387 288.228 175.274 288.217H151.499C151.174 288.217 150.816 287.792 150.577 287.275C150.298 286.805 150.193 286.238 150.282 285.688C150.37 285.137 150.646 284.643 151.055 284.301C151.877 284.014 152.724 283.816 153.583 283.71L156.315 283.286L161.764 282.584L172.507 281.383C172.568 281.379 172.628 281.361 172.683 281.33C172.738 281.299 172.786 281.256 172.825 281.204C172.863 281.152 172.891 281.091 172.907 281.027C172.923 280.962 172.926 280.895 172.917 280.829C172.908 280.706 172.858 280.591 172.776 280.506C172.694 280.421 172.586 280.371 172.472 280.367L158.621 279.647L151.789 279.241C151.309 279.244 150.831 279.169 150.372 279.019C150.227 278.885 150.117 278.712 150.054 278.517C149.991 278.323 149.977 278.113 150.013 277.911C150.07 277.425 150.289 276.979 150.628 276.655C151.018 276.37 151.461 276.181 151.926 276.101C156.128 275.159 160.466 274.715 164.531 274.254C168.595 273.792 172.712 273.348 176.623 272.961L184.804 270.707H184.548L203.335 279.942L234.078 291.948L242.481 295.181L244.684 295.993L245.435 296.233L244.718 295.883L242.549 294.977L234.214 291.579L203.471 279.241L184.684 269.821C184.601 269.792 184.511 269.792 184.428 269.821L176.23 272.037C172.302 272.406 168.265 272.825 164.121 273.293C159.97 273.81 155.735 274.217 151.397 275.14C150.779 275.25 150.194 275.516 149.689 275.916C149.201 276.4 148.887 277.054 148.801 277.763C148.737 278.151 148.775 278.551 148.911 278.916C149.047 279.282 149.275 279.599 149.569 279.832C150.157 280.081 150.783 280.206 151.414 280.201L158.245 280.626L172.114 281.365V280.349L161.337 281.549L155.888 282.251L153.122 282.676C152.14 282.791 151.176 283.039 150.252 283.415C149.923 283.629 149.642 283.922 149.432 284.271C149.222 284.62 149.088 285.015 149.04 285.428C148.963 286.209 149.093 286.997 149.415 287.7C149.564 288.064 149.772 288.396 150.03 288.679C150.175 288.836 150.343 288.967 150.525 289.067C150.731 289.181 150.961 289.232 151.192 289.215H174.966V288.217L161.695 289.566L155.239 290.304L153.651 290.526C153.069 290.566 152.495 290.691 151.943 290.895C151.665 291.083 151.426 291.331 151.241 291.623C151.055 291.916 150.928 292.247 150.867 292.595C150.795 292.949 150.806 293.316 150.898 293.665C150.991 294.013 151.162 294.331 151.397 294.59C151.866 295.057 152.468 295.337 153.104 295.384C153.634 295.384 154.146 295.55 154.676 295.605C155.701 295.716 156.725 295.79 157.75 295.864L163.762 296.233L175.308 296.732V295.883L155.888 299.724C155.839 299.705 155.784 299.705 155.735 299.724C155.348 300.091 155.024 300.528 154.778 301.017C154.595 301.285 154.496 301.608 154.496 301.941C154.496 302.273 154.595 302.597 154.778 302.864C155.579 303.51 156.566 303.824 157.562 303.751L162.789 304.102L172.37 304.711L187.741 305.69L197.477 306.263L200.004 306.374L201.046 306.411Z" fill="#FF9A6C"/>
<path d="M259.048 317.696C259.149 316.356 259.04 315.007 258.723 313.707C258.131 310.51 256.971 307.467 255.307 304.748C253.614 302.059 251.442 299.761 248.919 297.988C247.938 297.154 246.819 296.527 245.623 296.141C245.384 296.455 250.747 299.115 254.504 305.266C256.077 307.901 257.259 310.786 258.006 313.817C258.246 315.141 258.595 316.439 259.048 317.696V317.696Z" fill="#FF9A6C"/>
<path d="M150.901 268.842C150.719 269.42 150.753 270.053 150.995 270.604C151.238 271.156 151.67 271.584 152.199 271.797C152.716 272.05 153.305 272.074 153.838 271.863C154.371 271.653 154.807 271.224 155.052 270.67C155.238 270.095 155.206 269.463 154.962 268.912C154.719 268.362 154.285 267.938 153.753 267.733C153.499 267.602 153.223 267.527 152.942 267.512C152.661 267.497 152.379 267.542 152.114 267.645C151.849 267.748 151.605 267.907 151.397 268.112C151.189 268.318 151.02 268.566 150.901 268.842V268.842Z" fill="#3E4A4F"/>
<path d="M234.351 107.243L220.5 76.6188C224.804 73.6635 225.845 66.8109 223.506 61.8423C222.214 59.4604 220.434 57.4317 218.301 55.9135C216.169 54.3953 213.742 53.4283 211.208 53.0873C207.55 52.4859 203.812 52.8302 200.3 54.0919C196.788 55.3536 193.602 57.4969 191.004 60.3462C188.237 63.4308 185.982 67.4758 182.225 68.8796C178.911 70.1356 175.256 69.0089 171.772 69.4891C169.456 69.9444 167.264 70.9534 165.355 72.4426C163.446 73.9318 161.869 75.8635 160.739 78.0964C158.518 82.5909 157.18 87.5338 156.811 92.6143C156.315 97.2319 155.974 102.311 153.002 105.691C150.03 109.072 145.538 109.681 141.935 112.027C138.633 114.387 136.316 118.049 135.476 122.231C134.637 126.414 135.343 130.786 137.443 134.413C138.86 136.648 140.859 138.717 141.081 141.432C141.303 144.147 139.749 146.123 139.048 148.506C138.691 150.036 138.639 151.63 138.897 153.183C139.155 154.736 139.717 156.212 140.545 157.511C141.373 158.81 142.448 159.903 143.698 160.717C144.948 161.531 146.344 162.046 147.793 162.23C150.782 162.414 153.993 161.158 156.657 162.599C159.321 164.04 160.312 167.512 162.003 170.135C163.745 172.687 166.245 174.513 169.084 175.307C171.924 176.101 174.929 175.814 177.596 174.494C179.8 173.331 181.866 171.41 184.308 171.594C186.751 171.779 188.664 174.014 191.14 174.513C194.266 175.178 197.255 172.666 199.116 169.877C200.978 167.087 202.276 163.763 204.667 161.454C207.793 158.443 212.182 157.76 216.144 156.227C220.512 154.566 224.507 151.925 227.865 148.477C231.223 145.03 233.87 140.854 235.632 136.223C237.318 131.568 238.076 126.579 237.856 121.585C237.635 116.591 236.44 111.703 234.351 107.243V107.243Z" fill="#263238"/>
<path d="M231.738 186.888L236.315 96.1605C236.399 94.2348 235.813 92.3449 234.671 90.8642C233.529 89.3834 231.916 88.4195 230.149 88.1628L192.575 76.6741C180.517 74.827 172.079 90.7856 170.935 103.881C169.705 118.454 168.732 136.279 170.047 147.213C172.677 169.212 188.117 172.462 188.117 172.462C188.117 172.462 187.741 192.189 187.622 200.168L188.971 227.56L231.738 186.888Z" fill="#FFBF9D"/>
<path d="M177.75 122.5C177.722 123.23 177.96 123.944 178.414 124.486C178.868 125.028 179.5 125.357 180.175 125.399C180.503 125.438 180.835 125.405 181.151 125.302C181.467 125.199 181.761 125.03 182.016 124.803C182.271 124.575 182.481 124.296 182.634 123.979C182.787 123.663 182.88 123.317 182.908 122.961C182.936 122.229 182.698 121.513 182.245 120.968C181.792 120.423 181.159 120.091 180.483 120.043C180.153 120.005 179.82 120.039 179.503 120.142C179.185 120.246 178.891 120.417 178.636 120.646C178.381 120.876 178.171 121.158 178.019 121.476C177.867 121.794 177.775 122.142 177.75 122.5Z" fill="#263238"/>
<path d="M174.334 113.283C174.659 113.652 176.657 112.156 179.458 112.248C182.259 112.341 184.257 113.911 184.582 113.541C184.906 113.172 184.428 112.71 183.557 111.99C182.371 111.048 180.946 110.526 179.475 110.494C178.024 110.439 176.594 110.885 175.393 111.768C174.505 112.47 174.18 113.117 174.334 113.283Z" fill="#263238"/>
<path d="M202.908 123.275C202.884 124.007 203.123 124.72 203.576 125.264C204.028 125.808 204.658 126.141 205.333 126.194C205.663 126.232 205.997 126.198 206.316 126.095C206.634 125.991 206.93 125.82 207.186 125.591C207.442 125.362 207.653 125.08 207.807 124.762C207.961 124.444 208.055 124.095 208.083 123.737C208.106 123.006 207.867 122.293 207.415 121.749C206.962 121.204 206.332 120.871 205.657 120.819C205.327 120.781 204.993 120.814 204.675 120.918C204.356 121.021 204.061 121.192 203.804 121.421C203.548 121.65 203.337 121.932 203.183 122.25C203.029 122.569 202.935 122.917 202.908 123.275V123.275Z" fill="#263238"/>
<path d="M201.781 114.687C202.088 115.074 204.103 113.56 206.904 113.652C209.705 113.745 211.721 115.315 212.028 114.964C212.336 114.613 211.874 114.132 210.986 113.394C209.808 112.451 208.387 111.928 206.921 111.897C205.468 111.848 204.038 112.301 202.839 113.19C202.02 113.911 201.627 114.52 201.781 114.687Z" fill="#263238"/>
<path d="M191.055 136.777C189.597 136.234 188.082 135.893 186.546 135.761C185.828 135.651 185.162 135.484 185.06 134.949C185.023 134.151 185.207 133.36 185.589 132.677C186.307 130.83 187.058 128.983 187.861 126.877C191.003 118.602 193.309 111.787 192.985 111.657C192.66 111.528 189.859 118.122 186.716 126.434C185.965 128.484 185.231 130.423 184.547 132.289C184.076 133.205 183.913 134.269 184.086 135.3C184.185 135.573 184.339 135.82 184.537 136.021C184.735 136.223 184.972 136.374 185.231 136.463C185.625 136.591 186.032 136.665 186.443 136.685C187.97 136.929 189.52 136.96 191.055 136.777V136.777Z" fill="#263238"/>
<path d="M188.185 172.462C197.716 172.916 207.177 170.499 215.512 165.48C215.512 165.48 208.544 180.257 188.339 177.634L188.185 172.462Z" fill="#FF9A6C"/>
<path d="M200.875 102.219C201.131 103.05 203.933 102.736 207.195 103.272C210.457 103.807 213.087 104.842 213.531 104.121C213.736 103.77 213.309 102.995 212.25 102.164C210.851 101.162 209.254 100.53 207.587 100.316C205.913 100.058 204.206 100.223 202.6 100.797C201.388 101.203 200.773 101.831 200.875 102.219Z" fill="#263238"/>
<path d="M175.598 102.921C176.076 103.623 178.023 102.921 180.329 102.921C182.634 102.921 184.599 103.512 185.06 102.81C185.265 102.459 184.974 101.757 184.137 101.092C183.021 100.251 181.689 99.8117 180.329 99.8362C178.967 99.8221 177.636 100.268 176.52 101.111C175.683 101.886 175.393 102.57 175.598 102.921Z" fill="#263238"/>
<path d="M157.357 99.3006C158.209 95.9463 160.111 93.0154 162.737 91.0073C164.189 89.9729 165.88 89.3634 167.246 88.1813C170.167 85.6139 170.85 81.181 172.643 77.6162C173.835 75.3248 175.512 73.3717 177.536 71.9172C179.561 70.4627 181.876 69.5483 184.291 69.249C188.305 68.8057 192.438 70.1171 196.349 69.0458C199.236 68.2701 201.763 66.2383 204.684 65.6288C210.388 64.4651 215.683 68.8796 219.816 73.294C219.816 77.7085 216.588 80.6823 213.463 83.4898C211.885 84.8931 210.046 85.9117 208.071 86.476C206.096 87.0402 204.032 87.1368 202.02 86.7591C198.894 86.1495 195.478 84.4318 192.797 86.2419C190.115 88.052 189.842 92.7435 187.314 95.1078C183.728 98.4694 178.006 95.3109 173.446 96.7701C169.928 97.8968 167.724 101.554 165.384 104.62C163.044 107.686 159.543 110.586 156.008 109.459C156.103 106.029 156.555 102.621 157.357 99.3006Z" fill="#263238"/>
<path d="M200.175 80.6638C202.72 79.8695 207.963 78.0779 209.33 75.6767C210.711 73.086 212.704 70.9389 215.105 69.4556C217.505 67.9724 220.228 67.2062 222.993 67.2357C225.779 67.4704 228.418 68.6785 230.513 70.6775C232.608 72.6766 234.045 75.3583 234.607 78.318C237.94 78.44 241.181 79.5344 243.986 81.4853C246.791 83.4362 249.056 86.1711 250.542 89.4003C250.934 90.229 251.271 91.087 251.55 91.9677C252.563 93.8998 253.174 96.0483 253.34 98.2626C253.505 100.477 253.22 102.703 252.506 104.786C251.618 107.28 250.115 110.05 251.293 112.396C252.472 114.742 255.563 114.853 257.937 115.739C259.989 116.585 261.703 118.179 262.782 120.247C263.861 122.315 264.238 124.725 263.847 127.062C263.275 128.648 263.018 130.348 263.095 132.049C263.676 133.703 264.619 135.18 265.845 136.352C267.135 138.058 268 140.092 268.359 142.261C268.718 144.43 268.558 146.663 267.895 148.746C267.177 150.807 265.984 152.635 264.43 154.057C262.875 155.479 261.011 156.448 259.013 156.873C257.167 156.954 255.349 157.398 253.65 158.185C251.84 159.385 251.054 161.731 249.79 163.578C248.536 165.318 246.821 166.603 244.875 167.263C242.928 167.923 240.842 167.926 238.894 167.272C238.115 166.983 237.374 166.586 236.691 166.09C235.955 167.146 234.982 167.982 233.864 168.519C232.747 169.055 231.521 169.275 230.303 169.156L231.054 122.98C230.817 123.545 230.457 124.04 230.005 124.422C229.553 124.805 229.023 125.064 228.458 125.178C221.627 126.84 220.619 111.583 222.139 107.446C219.57 105.16 217.275 102.535 215.307 99.633C213.114 95.0033 212.028 89.8536 212.148 84.6534C209.569 84.7458 199.048 80.9778 200.175 80.6638Z" fill="#263238"/>
<path d="M229.073 126.655C229.295 121.964 234.607 120.966 238.364 123.312C240.431 124.605 242.002 127.21 241.78 132.178C241.285 145.458 229.056 142.171 229.039 141.801C229.022 141.432 228.834 132.16 229.073 126.655Z" fill="#FFBF9D"/>
<path d="M233.019 136.925C233.019 136.925 233.223 137.091 233.582 137.294C234.086 137.547 234.658 137.587 235.188 137.405C236.01 136.903 236.693 136.173 237.167 135.289C237.642 134.406 237.89 133.403 237.886 132.381C237.955 131.242 237.792 130.101 237.408 129.038C237.311 128.618 237.121 128.229 236.853 127.907C236.585 127.585 236.247 127.339 235.871 127.191C235.627 127.111 235.364 127.123 235.128 127.228C234.891 127.332 234.695 127.521 234.573 127.764C234.402 128.133 234.47 128.392 234.402 128.429C234.334 128.466 234.146 128.188 234.265 127.634C234.355 127.313 234.534 127.03 234.778 126.822C235.131 126.573 235.557 126.474 235.973 126.545C236.475 126.675 236.938 126.941 237.318 127.32C237.698 127.698 237.982 128.175 238.142 128.706C238.612 129.868 238.817 131.134 238.74 132.4C238.552 135.078 237.186 137.516 235.324 137.941C234.99 138.028 234.641 138.033 234.305 137.956C233.968 137.88 233.651 137.723 233.377 137.498C233.036 137.258 232.984 136.944 233.019 136.925Z" fill="#FF9A6C"/>
<path d="M234.692 140.508C234.157 140.423 233.612 140.549 233.156 140.865C232.701 141.181 232.367 141.664 232.216 142.226C232.105 142.8 232.189 143.398 232.453 143.91C232.716 144.422 233.141 144.814 233.651 145.015C234.172 145.169 234.728 145.114 235.214 144.859C235.701 144.604 236.086 144.168 236.298 143.63C236.48 143.081 236.469 142.478 236.267 141.937C236.066 141.395 235.688 140.953 235.205 140.693" fill="white"/>
<path d="M235.205 140.693C235.664 141.102 236.003 141.648 236.178 142.263C236.249 142.585 236.247 142.921 236.173 143.243C236.098 143.564 235.954 143.862 235.751 144.11C235.495 144.401 235.171 144.613 234.814 144.723C234.457 144.834 234.078 144.839 233.719 144.738C233.362 144.593 233.051 144.343 232.818 144.017C232.586 143.69 232.442 143.301 232.404 142.891C232.352 142.549 232.385 142.198 232.499 141.873C232.613 141.549 232.804 141.263 233.053 141.044C233.538 140.622 234.138 140.382 234.761 140.361C234.605 140.266 234.427 140.221 234.248 140.231C233.754 140.244 233.276 140.425 232.882 140.748C232.579 140.99 232.339 141.313 232.186 141.686C232.033 142.058 231.973 142.467 232.011 142.873C232.065 143.384 232.255 143.867 232.558 144.264C232.862 144.661 233.265 144.954 233.719 145.107C234.167 145.253 234.646 145.253 235.095 145.109C235.544 144.964 235.944 144.681 236.246 144.295C236.491 143.987 236.658 143.616 236.733 143.219C236.807 142.821 236.787 142.41 236.673 142.023C236.536 141.508 236.241 141.058 235.837 140.748C235.392 140.693 235.205 140.656 235.205 140.693Z" fill="#263238"/>
<path d="M226.528 355.358C226.666 355.965 226.878 356.549 227.16 357.094C227.415 357.739 227.724 358.357 228.083 358.941C228.497 359.797 228.971 360.618 229.5 361.398C230.817 363.474 232.34 365.388 234.043 367.105C236.119 369.226 238.411 371.085 240.875 372.646C243.369 374.15 246.017 375.334 248.766 376.174C250.996 376.848 253.286 377.263 255.597 377.411C256.49 377.475 257.386 377.475 258.279 377.411C258.948 377.427 259.616 377.377 260.277 377.264C260.858 377.243 261.434 377.131 261.985 376.931C261.985 376.747 259.526 377.097 255.649 376.71C253.376 376.459 251.129 375.983 248.936 375.287C246.269 374.408 243.694 373.232 241.251 371.778C238.808 370.283 236.518 368.512 234.419 366.495C232.72 364.82 231.18 362.963 229.825 360.954C227.639 357.722 226.699 355.265 226.528 355.358Z" fill="#455A64"/>
<path d="M152.865 379.887C153.306 379.89 153.745 379.815 154.163 379.665C155.331 379.37 156.474 378.968 157.579 378.464C161.241 376.809 164.571 374.401 167.383 371.372C170.196 368.344 172.44 364.757 173.992 360.807C174.46 359.61 174.837 358.375 175.12 357.112C175.258 356.66 175.327 356.185 175.325 355.709C175.171 355.709 174.676 357.556 173.412 360.529C171.739 364.299 169.487 367.734 166.751 370.688C164.008 373.635 160.819 376.052 157.323 377.836C154.624 379.277 152.831 379.887 152.865 379.887Z" fill="#455A64"/>
<path d="M192.438 351.996C192.326 352.79 192.286 353.595 192.318 354.397C192.318 355.93 192.318 358.091 192.318 360.899C192.318 366.44 192.66 373.995 193.224 382.362C193.975 393.906 195.136 403.898 195.837 408.848V409.052H196.007C197.148 409.096 198.29 409.047 199.423 408.904C198.295 408.694 197.152 408.589 196.007 408.59L196.212 408.793C195.785 403.806 194.812 393.813 194.043 382.306C193.497 373.939 193.138 366.366 192.899 360.88C192.779 358.295 192.677 356.115 192.609 354.379C192.632 353.58 192.575 352.781 192.438 351.996V351.996Z" fill="#455A64"/>
<path d="M194.3 143.722L194.471 143.353L200.021 141.395C200.515 141.162 201.058 141.079 201.593 141.155C202.148 141.324 202.62 141.722 202.908 142.263C203.414 143.146 203.631 144.187 203.523 145.22C203.414 146.252 202.987 147.215 202.31 147.952C201.579 148.681 200.664 149.158 199.682 149.323C198.699 149.487 197.694 149.332 196.793 148.875C195.93 148.409 195.224 147.66 194.776 146.735C194.329 145.81 194.162 144.756 194.3 143.722Z" fill="#FF9A6C"/>
<path d="M195.632 148.525C195.632 148.525 196.605 149.633 198.706 149.559C199.954 149.546 201.16 149.07 202.122 148.211C202.665 147.631 203.086 146.931 203.357 146.16C203.628 145.389 203.743 144.564 203.693 143.741C203.688 143.3 203.643 142.86 203.557 142.429C203.452 142.009 203.285 141.61 203.061 141.247C203.004 141.13 202.929 141.024 202.839 140.933C202.72 140.822 202.58 140.74 202.429 140.693C202.193 140.638 201.949 140.638 201.712 140.693C201.319 140.804 201.046 140.933 200.722 141.044L197.493 142.282C196.469 142.589 195.491 143.055 194.59 143.667C195.648 143.58 196.688 143.331 197.681 142.928L200.978 141.894C201.285 141.801 201.627 141.654 201.9 141.598C201.996 141.579 202.094 141.579 202.19 141.598V141.598V141.469C202.231 141.512 202.266 141.562 202.293 141.617C202.449 141.9 202.57 142.204 202.651 142.522C202.715 142.881 202.75 143.246 202.754 143.611C202.8 144.304 202.713 145 202.498 145.655C202.283 146.309 201.946 146.909 201.507 147.416C200.702 148.181 199.689 148.641 198.621 148.728C197.621 148.851 196.609 148.782 195.632 148.525V148.525Z" fill="#263238"/>
</g>
<defs>
<clipPath id="clip0_108_51923">
<rect width="164.457" height="356.186" fill="white" transform="translate(122.771 52.8656)"/>
</clipPath>
</defs>
</svg>
