
  <svg width="70" height="62" viewBox="0 0 70 62" fill="none" xmlns="http://www.w3.org/2000/svg">
  <path d="M66.4528 13.9998H40.4195L49.0049 12.7398C52.533 12.2229 55.0935 9.56186 55.0935 6.41397C55.0935 2.87696 51.8254 0 47.8075 0H47.5906C45.5424 0 43.5774 0.765 42.1995 2.09895L33.5109 10.5129L24.8221 2.09895C23.4442 0.765 21.4801 0 19.4309 0H19.214C15.1961 0 11.9281 2.87696 11.9281 6.41397C11.9281 9.56186 14.4885 12.2229 18.0154 12.7409L26.6008 14.0008H0.568726V25.0007H3.9764V62H28.9669H38.0544H63.0449V55H60.773V60H38.0544V25.0005H39.6242L46.0058 36.2353C46.9737 37.9403 48.9206 38.9992 51.0855 38.9992H51.6853C54.817 38.9992 57.3649 36.7563 57.3649 33.9992C57.3649 31.2421 54.817 28.9992 51.6853 28.9992H49.4135V30.9991H51.6853C53.5641 30.9991 55.093 32.345 55.093 33.9992C55.093 35.6534 53.5641 36.9993 51.6853 36.9993H51.0855C49.7862 36.9993 48.6184 36.3642 48.0377 35.3413L42.1638 24.9995H60.7725V41.9993H63.0444V24.9995H66.4521V13.9998H66.4528ZM31.239 18.2356L32.5088 15.9997H34.5127L35.7828 18.2356V22.9995H31.239V18.2356ZM28.9672 22.9997H28.5331L28.9672 22.2358V22.9997ZM43.8808 3.44485C44.8293 2.52582 46.181 1.99997 47.5906 1.99997H47.8075C50.5723 1.99997 52.8216 3.97988 52.8216 6.41397C52.8216 8.58097 51.0599 10.412 48.6324 10.7678L35.2012 12.7388L34.8762 12.1658L43.8808 3.44485ZM14.1999 6.41397C14.1999 3.98009 16.449 1.99997 19.214 1.99997H19.4309C20.8405 1.99997 22.1923 2.52604 23.1408 3.44485L32.1463 12.1658L31.8213 12.7388L18.3901 10.7678C15.9619 10.4118 14.1999 8.57991 14.1999 6.41397ZM2.84059 22.9997V15.9997H28.9669V17.7637L25.993 22.9997H3.97664H2.84059ZM6.24851 59.999V24.9997H24.8572L18.9833 35.3415C18.4029 36.3644 17.2351 36.9995 15.9355 36.9995H15.3357C13.4569 36.9995 11.9281 35.6536 11.9281 33.9994C11.9281 32.3453 13.4569 30.9994 15.3357 30.9994H17.6076V28.9994H15.3357C12.2041 28.9994 9.65619 31.2423 9.65619 33.9994C9.65619 36.7565 12.2041 38.9994 15.3357 38.9994H15.9355C18.1005 38.9994 20.0476 37.9405 21.0153 36.2355L27.3968 24.9997H28.9667V59.999H6.24851ZM35.7828 59.999H31.239V24.9997H35.7828V59.999ZM38.0546 22.9997V22.2358L38.4886 22.9997H38.0546ZM64.1809 22.9997H63.0451H41.0285L38.0546 17.7637V15.9997H64.1809V22.9997Z" fill="#333333"/>
  <path d="M63.7232 38.9994C61.8591 38.9994 60.095 39.7454 58.9305 41.0273L56.2293 43.9992L53.528 41.0273C52.3636 39.7454 50.5996 38.9994 48.7354 38.9994C45.3459 38.9994 42.5978 41.4183 42.5978 44.4024C42.5978 49.7734 45.6466 54.7881 50.7232 57.7681L56.229 60.999L61.7348 57.7681C66.8112 54.7892 69.8602 49.7732 69.8602 44.4024C69.8605 41.4183 67.1127 38.9994 63.7232 38.9994Z" fill="#39B54A"/>
  </svg>