<svg width="16" height="15" viewBox="0 0 16 15" fill="none" xmlns="http://www.w3.org/2000/svg"> <path d="M11.375 0.25C10.07 0.25 8.8175 0.8575 8 1.8175C7.1825 0.8575 5.93 0.25 4.625 0.25C2.315 0.25 0.5 2.065 0.5 4.375C0.5 7.21 3.05 9.52 6.9125 13.03L8 14.0125L9.0875 13.0225C12.95 9.52 15.5 7.21 15.5 4.375C15.5 2.065 13.685 0.25 11.375 0.25ZM8.075 11.9125L8 11.9875L7.925 11.9125C4.355 8.68 2 6.5425 2 4.375C2 2.875 3.125 1.75 4.625 1.75C5.78 1.75 6.905 2.4925 7.3025 3.52H8.705C9.095 2.4925 10.22 1.75 11.375 1.75C12.875 1.75 14 2.875 14 4.375C14 6.5425 11.645 8.68 8.075 11.9125Z" fill="#5E738A"/>
</svg>