<svg width="70" height="110" viewBox="0 0 70 110" fill="none" xmlns="http://www.w3.org/2000/svg">
<path d="M35.2531 109.459C46.0115 109.459 54.7328 108.094 54.7328 106.411C54.7328 104.728 46.0115 103.363 35.2531 103.363C24.4948 103.363 15.7734 104.728 15.7734 106.411C15.7734 108.094 24.4948 109.459 35.2531 109.459Z" fill="#E6E7E8"/>
<path d="M33.8247 94.5575C30.6708 90.9286 14.7731 72.1602 9.16469 63.3714C5.39161 57.2106 3.24191 50.2049 2.91406 43.0011C2.91405 34.5005 6.31067 26.3475 12.3579 20.3327C18.4051 14.3179 26.6084 10.9331 35.1661 10.9219H35.3374C43.888 10.933 52.0865 14.3062 58.1408 20.3041C64.195 26.302 67.6126 34.4367 67.6466 42.9302C67.3393 50.1538 65.2043 57.184 61.4387 63.3714C56.0872 71.7491 41.2883 89.3835 36.8786 94.5575L35.2518 96.4287L33.8247 94.5575Z" fill="white"/>
<path d="M35.3499 12.7951C43.4005 12.7951 51.1219 15.9689 56.8185 21.6195C62.5151 27.2701 65.7212 34.9355 65.7325 42.9323C65.4078 49.7778 63.3778 56.4361 59.8244 62.3103C54.2159 71.1274 37.8188 90.5479 35.4213 93.383L35.3356 93.4823L35.25 93.383C32.8382 90.5479 16.384 71.17 10.7613 62.3811C7.19008 56.5122 5.14502 49.8528 4.81031 43.0032C4.80656 39.0399 5.58872 35.1148 7.11212 31.4518C8.63553 27.7888 10.8704 24.4597 13.689 21.6546C16.5076 18.8495 19.8549 16.6234 23.5396 15.1033C27.2244 13.5832 31.1745 12.7989 35.1644 12.7951H35.3642H35.3499ZM35.3642 9.01027H35.1644C26.098 9.03278 17.4105 12.6251 11.0063 18.9999C4.60213 25.3746 1.00375 34.0115 1 43.0174C1.33975 50.581 3.59253 57.9377 7.55031 64.4082C13.2586 73.2821 29.1421 92.0789 32.3245 95.807V95.8779L35.1786 99.3651L38.2326 95.9771L38.3182 95.8779C42.7422 90.6471 57.6124 72.9136 63.0353 64.3941C66.9705 57.893 69.1938 50.512 69.5 42.9323C69.4773 33.9241 65.8589 25.2924 59.4382 18.9306C53.0175 12.5688 44.3189 8.99607 35.25 8.99609L35.3642 9.01027Z" fill="white"/>
<path d="M65.5322 45.8359C48.7365 54.0879 35.6143 68.2285 28.6992 85.5274C31.8816 89.369 34.4076 92.36 35.2638 93.3381L35.3494 93.4374L35.4351 93.3381C37.8326 90.503 54.244 71.0826 59.8525 62.2796C62.8772 57.2507 64.8117 51.6501 65.5322 45.8359Z" fill="#39B54A"/>
<path d="M65.7344 42.8904C64.1075 42.7864 62.4664 42.7344 60.811 42.7344C42.2216 42.7084 24.281 49.5206 10.4492 61.8572L10.7632 62.3676C12.1903 64.6782 14.4593 67.7117 16.971 70.9721C29.127 56.0795 46.5693 46.3841 65.7059 43.8827C65.7059 43.5283 65.7059 43.2164 65.7059 42.9329L65.7344 42.8904Z" fill="#39B54A"/>
<path d="M9.56396 60.4351C12.5435 57.9029 15.7164 55.6043 19.0541 53.56C14.6431 50.5467 9.92133 48.0091 4.96875 45.9902C5.63477 51.0358 7.19027 55.9255 9.56396 60.4351Z" fill="#8DC63F"/>
<path d="M5.00854 45.7248C10.1834 47.6646 15.1272 50.1651 19.7503 53.1812C21.942 51.8676 24.1998 50.6658 26.5147 49.5806C19.6053 46.7169 12.3034 44.8964 4.85156 44.1797C4.89438 44.6475 4.93719 45.1578 5.00854 45.7248Z" fill="#8DC63F"/>
<path d="M4.80979 43.0553V43.9909C12.6039 44.5081 20.2691 46.2298 27.529 49.0941C30.2048 47.8908 32.9495 46.8447 35.749 45.9613C25.859 42.3191 15.1749 41.3409 4.78125 43.1262L4.80979 43.0553Z" fill="#8DC63F"/>
<path d="M14.9137 41.5146C22.4038 41.5094 29.8271 42.9139 36.7909 45.6538C43.8946 43.5223 51.2759 42.4428 58.6966 42.4501C61.0656 42.4501 63.4107 42.5588 65.7321 42.7762C65.6793 34.8016 62.4511 27.1718 56.7528 21.5541C51.0545 15.9363 43.3494 12.7873 35.321 12.7949H35.164C27.2187 12.8044 19.5932 15.9052 13.9219 21.4327C8.25055 26.9601 4.98469 34.4744 4.82422 42.3651C8.15715 41.7989 11.5324 41.5144 14.9137 41.5146Z" fill="white"/>
<path d="M65.5774 45.4413C65.5774 44.9877 65.6631 44.5624 65.6916 44.1797C46.7637 47.1716 29.6915 57.2066 17.9414 72.2472C21.0667 76.2731 24.5488 80.5683 27.5885 84.2539C34.9679 67.0846 48.5072 53.2517 65.5774 45.4413Z" fill="#39B54A"/>
<path d="M25.6445 15.3444L35.2773 3.94727L44.9102 15.3444H25.6445Z" fill="#FBB040"/>
<path d="M35.2469 6.89702L40.8125 13.4461H29.7383L35.2469 6.89702ZM35.2469 1L32.3927 4.45883L26.8128 11.0079L21.5469 17.2452H49.004L43.8094 11.0079L38.2009 4.45883L35.2469 1Z" fill="white"/>
<path d="M37.9883 12.8947L35.2483 6.89844L32.5369 12.8947C26.58 13.4285 20.9125 15.6897 16.2389 19.3971C11.5653 23.1044 8.09173 28.0945 6.25 33.7469H64.2895C62.4468 28.0924 58.9711 23.1009 54.2947 19.3934C49.6183 15.6858 43.9477 13.4259 37.9883 12.8947Z" fill="#FBB040"/>
</svg>
