<svg width="448" height="420" viewBox="0 0 448 420" fill="none" xmlns="http://www.w3.org/2000/svg">
<path d="M0 12C0 5.37259 5.37258 0 12 0H436C442.627 0 448 5.37258 448 12V412H0V12Z" fill="#D2FFC5"/>
<path d="M106.632 354.301C106.632 354.301 101.474 354.301 100.137 359.841C98.7999 365.381 98.6089 367.292 98.6089 367.292C98.6089 367.292 92.7389 372.566 98.6089 373.978C104.479 375.391 106.633 367.483 106.633 367.483L107.537 354.301C106.632 354.301 106.632 354.301 106.632 354.301Z" fill="#FFBE9D"/>
<path d="M165.414 253.24C165.414 253.24 183.757 191.652 185.624 188.995C188.708 184.609 218.395 171.411 218.395 171.411L226.356 155.165L275.711 147.277L287.934 163.018L322.303 188.196L319.905 275.318L318.63 336.151L325.134 412.085L169.034 411.848L176.096 395.855L183.51 257.742L165.414 253.24Z" fill="#39B54A"/>
<path d="M186.564 244.936C186.546 244.936 186.525 244.765 186.502 244.439C186.481 244.052 186.456 243.581 186.426 243.012C186.369 241.772 186.317 239.977 186.276 237.759C186.193 233.322 186.19 227.19 186.383 220.421C186.579 213.65 186.933 207.527 187.27 203.102C187.438 200.89 187.593 199.101 187.721 197.866C187.784 197.299 187.836 196.83 187.879 196.445C187.921 196.121 187.951 195.951 187.969 195.953C187.987 195.954 187.991 196.127 187.983 196.454C187.967 196.84 187.947 197.312 187.923 197.881C187.851 199.199 187.755 200.971 187.638 203.125C187.396 207.553 187.1 213.671 186.904 220.435C186.712 227.196 186.657 233.321 186.645 237.755C186.638 239.912 186.633 241.687 186.629 243.007C186.62 243.577 186.613 244.049 186.607 244.436C186.596 244.764 186.582 244.936 186.564 244.936Z" fill="#263238"/>
<path d="M221.921 227.228C221.888 226.504 222.108 225.852 222.497 225.303C223.665 223.654 226.359 222.918 228.323 223.856C230.941 225.107 232.24 228.106 232.765 230.959C233.34 234.081 233.256 237.297 233.844 240.417C234.432 243.537 235.862 246.721 238.596 248.335C241.986 250.336 246.435 249.429 249.997 251.106C255.3 253.603 256.527 260.494 256.793 266.35C257.296 277.436 256.816 288.54 256.337 299.627C255.316 323.234 254.294 346.841 253.273 370.448L250.488 405.976L236.123 412.08L217.125 287.259L221.921 227.228Z" fill="#34A143"/>
<path d="M226.013 217.131C226.02 217.144 225.899 217.226 225.64 217.331C225.38 217.428 224.962 217.518 224.427 217.451C223.391 217.336 221.81 216.469 221.165 214.599C220.854 213.689 220.778 212.623 220.875 211.52C220.969 210.413 221.218 209.264 221.45 208.063C221.932 205.648 222.458 203.008 223.011 200.238C224.133 194.688 225.177 189.669 225.958 186.042C226.345 184.299 226.665 182.854 226.909 181.752C227.145 180.741 227.292 180.186 227.328 180.193C227.363 180.2 227.283 180.769 227.108 181.792C226.905 182.903 226.639 184.358 226.319 186.115C225.63 189.761 224.643 194.791 223.522 200.341C222.955 203.109 222.415 205.746 221.921 208.158C221.403 210.541 220.943 212.746 221.515 214.485C222.055 216.211 223.502 217.088 224.458 217.25C225.464 217.428 225.999 217.063 226.013 217.131Z" fill="#263238"/>
<path d="M231.092 193.963C231.094 194.013 230.684 194.01 230.004 194.224C229.333 194.432 228.376 194.929 227.595 195.922C226.816 196.884 226.275 198.455 226.852 200.02C227.372 201.549 228.881 203.006 230.766 203.173C232.654 203.308 234.375 202.107 235.131 200.68C235.948 199.226 235.663 197.589 235.046 196.516C234.432 195.412 233.566 194.77 232.936 194.458C232.298 194.14 231.893 194.077 231.903 194.028C231.906 194.01 232.007 194.015 232.201 194.041C232.394 194.064 232.677 194.131 233.021 194.274C233.706 194.543 234.663 195.171 235.366 196.332C235.709 196.909 235.988 197.617 236.061 198.419C236.129 199.217 235.986 200.106 235.556 200.905C234.74 202.494 232.874 203.838 230.726 203.693C228.583 203.495 226.954 201.873 226.399 200.176C226.101 199.319 226.101 198.419 226.294 197.642C226.493 196.862 226.881 196.207 227.311 195.692C228.188 194.657 229.233 194.188 229.952 194.031C230.314 193.945 230.604 193.923 230.798 193.931C230.992 193.933 231.092 193.944 231.092 193.963Z" fill="#263238"/>
<path d="M247.882 257.627L157.719 241.314L115.637 250.545L209.817 267.502L247.882 257.627Z" fill="#DB9A39"/>
<path d="M190.234 296.945C191.457 280.328 196.014 238.122 199.434 221.814C200.457 216.934 201.635 211.94 204.474 207.841C207.313 203.742 212.212 200.691 217.14 201.45C221.54 202.127 225.071 205.698 226.858 209.775C228.645 213.852 229.313 218.404 229.126 222.852C228.278 243.009 226.536 265.594 226.552 284.283" fill="#FFBF9D"/>
<path d="M220.769 257.371C220.787 257.451 219.488 257.785 217.425 258.43C215.361 259.072 212.544 260.065 209.542 261.423C206.542 262.787 203.938 264.252 202.095 265.381C200.251 266.509 199.143 267.266 199.095 267.199C199.074 267.17 199.327 266.949 199.805 266.572C200.28 266.192 200.994 265.677 201.896 265.07C203.699 263.854 206.299 262.323 209.326 260.947C212.354 259.577 215.219 258.63 217.321 258.074C218.372 257.795 219.23 257.598 219.829 257.49C220.428 257.381 220.761 257.336 220.769 257.371Z" fill="#EB996E"/>
<path d="M222.267 238.188C222.284 238.273 220.911 238.573 218.752 239.24C216.593 239.904 213.66 240.998 210.609 242.597C207.56 244.204 204.997 246 203.225 247.402C201.451 248.802 200.425 249.763 200.365 249.701C200.34 249.675 200.572 249.411 201.015 248.952C201.453 248.49 202.127 247.859 202.992 247.117C204.718 245.63 207.281 243.763 210.367 242.136C213.455 240.517 216.447 239.465 218.65 238.886C219.752 238.594 220.653 238.397 221.282 238.298C221.91 238.194 222.26 238.153 222.267 238.188Z" fill="#EB996E"/>
<path d="M220.242 222.748C220.245 222.837 219.173 222.886 217.484 223.196C215.796 223.502 213.498 224.143 211.154 225.305C208.814 226.476 206.917 227.924 205.656 229.086C204.39 230.247 203.706 231.074 203.636 231.017C203.608 230.995 203.754 230.769 204.044 230.377C204.328 229.981 204.79 229.445 205.4 228.821C206.616 227.571 208.525 226.037 210.921 224.839C213.32 223.649 215.694 223.049 217.425 222.832C218.291 222.721 218.997 222.675 219.485 222.687C219.973 222.693 220.241 222.712 220.242 222.748Z" fill="#EB996E"/>
<path d="M209.043 270.832C209.043 270.876 209.059 270.904 209.059 270.918V328.613C209.059 331.143 207.024 333.758 203.272 335.737C199.535 337.711 194.069 339.066 187.249 339.081H187.162C173.509 339.054 165.352 333.687 165.352 328.614V270.918C165.352 270.903 165.367 270.875 165.367 270.832C165.367 270.804 165.352 270.76 165.352 270.717C165.382 265.075 169.526 259.187 173.698 253.37C176.504 249.488 177.172 243.89 177.303 240.605C177.318 240.212 177.333 239.863 177.333 239.543H176.956C175.152 239.543 173.699 238.292 173.699 236.75V234.308C173.699 232.752 175.152 231.502 176.956 231.502H197.456C198.808 231.502 199.972 232.201 200.465 233.203C200.625 233.552 200.713 233.915 200.713 234.308V236.75C200.713 238.292 199.259 239.543 197.456 239.543H197.079C197.079 239.863 197.094 240.212 197.107 240.605C197.238 243.89 197.908 249.488 200.713 253.37C204.886 259.186 209.03 265.074 209.059 270.717C209.059 270.76 209.043 270.803 209.043 270.832Z" fill="#FAFAFA"/>
<path d="M209.044 270.832C209.044 270.832 209.049 270.633 209.012 270.242C209 269.85 208.928 269.271 208.8 268.516C208.515 267.013 207.816 264.835 206.415 262.259C205.03 259.673 202.974 256.714 200.512 253.307C199.276 251.574 198.42 249.431 197.837 247.101C197.257 244.764 196.955 242.224 196.911 239.543L196.908 239.366L197.081 239.373C197.853 239.402 198.605 239.28 199.259 238.873C199.903 238.482 200.408 237.822 200.512 237.062C200.559 236.292 200.522 235.421 200.531 234.589C200.596 233.76 200.28 232.982 199.641 232.459C199.017 231.93 198.18 231.669 197.326 231.696C196.44 231.697 195.543 231.699 194.636 231.7C192.822 231.703 190.968 231.705 189.075 231.708C185.289 231.713 181.347 231.718 177.266 231.723C176.274 231.672 175.29 231.97 174.61 232.671C174.284 233.02 174.039 233.451 173.965 233.922C173.895 234.369 173.943 234.943 173.929 235.457C173.937 235.972 173.913 236.542 173.947 237.017C174.01 237.495 174.228 237.951 174.564 238.313C175.245 239.056 176.274 239.374 177.335 239.308L177.573 239.293L177.57 239.542C177.538 241.853 177.314 244.197 176.802 246.534C176.282 248.859 175.473 251.207 174.065 253.267C172.656 255.272 171.201 257.267 169.87 259.385C168.544 261.497 167.287 263.713 166.467 266.119C166.058 267.319 165.759 268.565 165.654 269.835C165.588 271.092 165.618 272.426 165.611 273.732C165.612 276.359 165.612 279.013 165.613 281.69C165.614 287.045 165.614 292.497 165.615 298.022C165.613 307.739 165.611 317.226 165.61 326.388C165.634 327.526 165.528 328.705 165.764 329.734C165.997 330.796 166.624 331.738 167.34 332.554C168.809 334.188 170.735 335.356 172.727 336.222C174.73 337.089 176.83 337.662 178.929 338.072C181.028 338.498 183.146 338.691 185.236 338.788C189.418 338.968 193.532 338.626 197.38 337.682C199.298 337.195 201.154 336.562 202.862 335.695C204.564 334.833 206.146 333.749 207.324 332.343C207.915 331.646 208.368 330.849 208.637 330.006C208.912 329.165 208.844 328.269 208.854 327.355C208.857 325.549 208.859 323.776 208.862 322.039C208.868 318.564 208.873 315.229 208.879 312.045C208.914 299.322 208.942 289.024 208.962 281.887C208.983 274.768 209.044 270.832 209.044 270.832C209.068 270.831 209.081 271.076 209.086 271.557C209.092 272.054 209.101 272.764 209.112 273.689C209.123 275.58 209.14 278.339 209.161 281.888C209.181 289.025 209.209 299.323 209.244 312.046C209.249 315.23 209.255 318.565 209.261 322.04C209.264 323.778 209.266 325.55 209.269 327.356C209.268 327.809 209.267 328.264 209.266 328.721C209.264 329.198 209.167 329.669 209.042 330.129C208.754 331.04 208.272 331.887 207.655 332.618C206.424 334.093 204.798 335.207 203.061 336.092C201.318 336.982 199.433 337.628 197.489 338.126C193.589 339.091 189.438 339.442 185.214 339.268C183.103 339.173 180.962 338.982 178.834 338.553C176.706 338.141 174.574 337.562 172.527 336.679C170.492 335.794 168.509 334.606 166.96 332.888C166.206 332.029 165.532 331.025 165.27 329.855C165.007 328.665 165.128 327.533 165.099 326.389C165.097 317.227 165.096 307.74 165.094 298.023C165.095 292.497 165.095 287.046 165.096 281.691C165.097 279.013 165.097 276.36 165.098 273.733C165.106 272.41 165.074 271.132 165.145 269.796C165.255 268.473 165.567 267.187 165.987 265.957C166.831 263.49 168.109 261.249 169.448 259.12C170.79 256.989 172.26 254.979 173.661 252.991C175.021 251.009 175.819 248.717 176.333 246.432C176.84 244.138 177.066 241.815 177.102 239.544L177.336 239.778C176.238 239.849 174.999 239.496 174.223 238.626C173.83 238.201 173.566 237.654 173.492 237.074C173.452 236.488 173.482 235.998 173.473 235.458C173.49 234.918 173.434 234.435 173.519 233.846C173.61 233.279 173.905 232.766 174.286 232.361C175.064 231.548 176.231 231.223 177.266 231.282C181.348 231.287 185.289 231.292 189.075 231.297C190.968 231.3 192.822 231.303 194.636 231.305C195.543 231.306 196.439 231.308 197.326 231.309C198.241 231.283 199.188 231.572 199.886 232.171C200.607 232.745 200.984 233.727 200.9 234.589C200.886 235.443 200.924 236.242 200.868 237.111C200.744 237.995 200.159 238.74 199.442 239.17C198.728 239.62 197.854 239.748 197.081 239.712L197.251 239.542C197.333 244.818 198.355 249.701 200.731 253.153C203.169 256.571 205.213 259.559 206.579 262.171C207.962 264.774 208.639 266.98 208.895 268.498C209.009 269.26 209.065 269.844 209.062 270.238C209.082 270.633 209.063 270.832 209.044 270.832Z" fill="#263238"/>
<path d="M195.917 239.403C195.917 239.547 191.831 239.663 186.791 239.663C181.75 239.663 177.664 239.546 177.664 239.403C177.664 239.26 181.75 239.143 186.791 239.143C191.83 239.143 195.917 239.26 195.917 239.403Z" fill="#263238"/>
<path d="M207.219 278.541C205.374 277.344 202.946 277.87 200.965 278.805C198.984 279.74 197.116 281.058 194.966 281.403C192.433 281.81 189.886 280.801 187.634 279.527C185.383 278.253 183.259 276.687 180.835 275.822C176.192 274.166 170.698 275.46 167.195 279.035V328.578C167.195 328.578 169.918 337.031 189.078 335.703C208.238 334.375 206.729 325.922 206.729 325.922L207.219 278.541Z" fill="#E8505B"/>
<path d="M156.458 244.82C157.021 241.171 156.071 237.311 153.878 234.34C151.685 231.369 148.278 229.323 144.624 228.785C144.282 228.735 143.904 228.705 143.619 228.901C143.215 229.181 143.198 229.764 143.244 230.253C143.577 233.793 145.057 237.216 147.408 239.883C149.759 242.55 152.97 244.448 156.44 245.221" fill="#455A64"/>
<path d="M136.784 270.731C140.328 278.032 145.417 282.949 151.722 283.187C152.983 283.231 153.936 282.402 155.14 282.332C155.756 282.374 156.472 282.809 157.157 283.091C157.523 283.231 157.886 283.342 158.209 283.329C164.725 282.979 170.276 278.395 174.017 270.73C179.227 259.995 177.618 248.463 170.428 244.96C169.404 244.455 168.438 244.078 167.486 243.81C166.322 243.503 165.174 243.348 163.911 243.391C161.697 243.434 159.162 244.036 155.742 245.24C155.631 245.283 155.504 245.326 155.392 245.367C149.55 242.788 144.883 242.773 140.358 244.96C133.168 248.465 131.57 259.997 136.784 270.731Z" fill="#E8505B"/>
<path d="M136.91 259.859C136.863 259.878 136.491 259.088 136.305 257.702C136.112 256.324 136.208 254.342 136.948 252.328C137.696 250.317 138.913 248.748 139.955 247.827C140.998 246.896 141.795 246.537 141.818 246.582C141.869 246.66 141.154 247.125 140.211 248.092C139.266 249.052 138.155 250.581 137.437 252.509C136.729 254.44 136.579 256.324 136.673 257.668C136.758 259.014 136.999 259.833 136.91 259.859Z" fill="#FAFAFA"/>
<path d="M138.229 264.96C138.089 264.992 137.853 264.487 137.701 263.831C137.55 263.175 137.541 262.617 137.681 262.585C137.821 262.553 138.057 263.058 138.209 263.714C138.36 264.37 138.37 264.928 138.229 264.96Z" fill="#FAFAFA"/>
<path d="M171.313 227.26C171.351 227.353 169.968 227.872 167.944 229.086C166.928 229.685 165.781 230.499 164.58 231.487C163.397 232.498 162.172 233.697 161.026 235.08C159.896 236.477 158.963 237.916 158.206 239.275C157.475 240.648 156.903 241.934 156.518 243.048C155.729 245.272 155.494 246.73 155.395 246.711C155.36 246.705 155.399 246.339 155.501 245.679C155.547 245.348 155.617 244.945 155.74 244.486C155.858 244.026 155.967 243.494 156.168 242.93C156.515 241.784 157.06 240.46 157.782 239.048C158.53 237.65 159.47 236.174 160.622 234.749C161.79 233.338 163.052 232.125 164.274 231.116C165.515 230.129 166.704 229.333 167.759 228.766C168.272 228.457 168.772 228.245 169.199 228.038C169.624 227.827 170.005 227.678 170.321 227.567C170.95 227.337 171.301 227.226 171.313 227.26Z" fill="#263238"/>
<path d="M115.638 250.545L104.305 393.473L209.909 419.002C209.909 419.002 246.742 406.513 247.244 405.66C247.746 404.807 247.884 257.627 247.884 257.627L209.819 267.502L115.638 250.545Z" fill="#FBB040"/>
<path d="M281.265 84.0647L275.377 167.478C274.415 181.097 263.087 191.653 249.435 191.653C234.404 191.653 222.497 178.944 223.484 163.945C224.006 156.005 224.478 149.504 224.478 149.504C224.478 149.504 204.285 146.364 204.035 126.175C203.891 114.514 205.902 88.0517 207.626 67.7787C208.792 54.0737 220.264 43.5527 234.019 43.5527H246.216C267.223 44.7797 283.073 63.1007 281.265 84.0647Z" fill="#FFBE9D"/>
<path d="M224.478 149.503C224.478 149.503 237.205 150.25 250.766 141.732C250.766 141.732 244.264 156.42 224.117 154.601L224.478 149.503Z" fill="#EB996E"/>
<path d="M211.417 88.6033C211.775 88.9793 213.958 87.3623 217.062 87.3713C220.161 87.3353 222.438 88.9313 222.774 88.5513C222.94 88.3833 222.576 87.7043 221.584 86.9823C220.608 86.2633 218.943 85.5643 217.011 85.5723C215.078 85.5833 213.452 86.2943 212.518 87.0223C211.564 87.7543 211.241 88.4353 211.417 88.6033Z" fill="#263238"/>
<path d="M244.998 92.1669C244.945 93.6899 246.189 94.9909 247.778 95.0759C249.364 95.1609 250.696 93.9989 250.75 92.4759C250.804 90.9539 249.559 89.6509 247.972 89.5649C246.384 89.4799 245.051 90.6449 244.998 92.1669Z" fill="#263238"/>
<path d="M214.216 92.1669C214.163 93.6899 215.407 94.9909 216.996 95.0759C218.582 95.1609 219.914 93.9989 219.968 92.4759C220.022 90.9539 218.777 89.6509 217.19 89.5649C215.602 89.4799 214.269 90.6449 214.216 92.1669Z" fill="#263238"/>
<path d="M241.604 88.6033C241.962 88.9793 244.15 87.3633 247.25 87.3713C250.349 87.3353 252.626 88.9303 252.963 88.5503C253.127 88.3823 252.767 87.7033 251.772 86.9823C250.796 86.2633 249.132 85.5643 247.199 85.5723C245.266 85.5833 243.641 86.2943 242.706 87.0233C241.754 87.7553 241.429 88.4353 241.604 88.6033Z" fill="#263238"/>
<path d="M230.346 111.613C230.36 111.437 228.432 111.104 225.307 110.704C224.515 110.622 223.765 110.465 223.631 109.924C223.444 109.352 223.776 108.498 224.16 107.576C224.905 105.659 225.685 103.649 226.503 101.543C229.757 92.9525 232.112 85.8905 231.765 85.7615C231.418 85.6335 228.498 92.4915 225.245 101.082C224.462 103.2 223.713 105.219 223.001 107.151C222.702 108.051 222.186 109.072 222.59 110.26C222.803 110.852 223.384 111.282 223.893 111.419C224.401 111.574 224.847 111.582 225.238 111.606C228.383 111.776 230.334 111.79 230.346 111.613Z" fill="#263238"/>
<path d="M239.475 113.76C238.97 113.73 238.964 117.099 236.082 119.489C233.205 121.887 229.615 121.509 229.588 121.98C229.541 122.191 230.388 122.634 231.903 122.675C233.389 122.726 235.56 122.249 237.324 120.786C239.082 119.32 239.839 117.364 239.954 115.982C240.081 114.575 239.706 113.74 239.475 113.76Z" fill="#263238"/>
<path d="M240.805 78.5187C241.111 79.3627 244.209 78.9627 247.849 79.4017C251.499 79.7667 254.434 80.8327 254.917 80.0767C255.132 79.7147 254.621 78.9207 253.434 78.1037C252.258 77.2887 250.381 76.5137 248.196 76.2697C246.01 76.0317 244.01 76.3787 242.684 76.9177C241.347 77.4557 240.674 78.1187 240.805 78.5187Z" fill="#263238"/>
<path d="M211.85 79.7214C212.396 80.4264 214.533 79.6944 217.104 79.6604C219.673 79.5364 221.85 80.1344 222.351 79.3974C222.571 79.0394 222.228 78.3334 221.277 77.6664C220.34 77.0014 218.773 76.4584 217.007 76.5114C215.241 76.5674 213.71 77.2064 212.816 77.9274C211.907 78.6524 211.609 79.3784 211.85 79.7214Z" fill="#263238"/>
<path d="M274.46 99.2199C274.804 99.0709 288.332 95.1169 287.891 108.92C287.45 122.723 273.683 119.434 273.672 119.037C273.661 118.64 274.46 99.2199 274.46 99.2199Z" fill="#FFBE9D"/>
<path d="M278.053 113.941C278.115 113.899 278.289 114.117 278.689 114.316C279.079 114.51 279.757 114.657 280.485 114.41C281.961 113.921 283.262 111.645 283.409 109.16C283.485 107.905 283.26 106.7 282.846 105.696C282.457 104.672 281.826 103.946 281.096 103.792C280.371 103.599 279.837 104.023 279.656 104.405C279.459 104.785 279.538 105.064 279.464 105.085C279.424 105.118 279.175 104.845 279.304 104.278C279.37 104.006 279.542 103.685 279.874 103.431C280.214 103.172 280.706 103.05 281.216 103.122C282.278 103.229 283.205 104.24 283.659 105.343C284.172 106.452 284.454 107.807 284.37 109.217C284.193 111.995 282.686 114.553 280.672 115.066C279.693 115.288 278.892 114.97 278.484 114.631C278.067 114.275 278.004 113.964 278.053 113.941Z" fill="#EB996E"/>
<path d="M282.138 98.7515C280.033 98.2425 276.391 100.185 275.493 102.156C274.595 104.127 274.397 106.361 273.503 108.333C272.608 110.305 270.585 112.089 268.477 111.59C267.023 111.246 265.984 109.884 265.6 108.44C265.216 106.996 265.372 105.47 265.559 103.988C266.372 97.5415 267.728 91.1495 267.987 84.6575C268.246 78.1655 267.322 71.4205 263.913 65.8895C260.504 60.3585 254.242 56.2915 247.766 56.8135C243.476 57.1595 239.542 59.3965 235.28 59.9935C230.227 60.7005 224.884 58.9175 221.27 55.3165C220.806 54.8555 218.652 53.4345 218.652 53.4345C218.652 53.0995 218.968 50.2175 220.104 49.1665C228.559 41.3475 243.795 39.1645 254.963 41.9755C266.132 44.7865 276.6 52.6715 281.405 63.1375C286.211 73.6035 284.786 88.1605 282.138 98.7515Z" fill="#263238"/>
<path d="M205.42 64.1342C207.23 68.3272 211.844 70.7672 216.387 71.2292C220.931 71.6912 225.467 70.5122 229.861 69.2662C234.255 68.0202 246.041 66.0652 250.606 66.2052C251.289 66.2262 252.11 66.2132 252.473 65.6342C252.953 64.8682 252.184 63.9412 251.472 63.3832C245.454 58.6692 230.907 55.7782 223.27 55.4572C215.633 55.1352 207.612 58.4182 203.477 64.8472" fill="#263238"/>
<path d="M207.402 64.6621C207.402 64.6621 260.369 47.6211 283.282 93.4471C283.282 93.4471 286.707 81.9791 286.707 75.8321C286.707 71.7261 284.25 47.2741 259.091 39.5831C259.09 39.5821 221.186 25.1161 207.402 64.6621Z" fill="#263238"/>
<path d="M207.402 64.6621C207.402 64.6621 213.43 57.4911 224.245 57.0141C239.869 56.3241 269.113 65.1091 283.282 93.4471C283.282 93.4471 286.707 81.9791 286.707 75.8321C286.707 71.7261 284.25 47.2741 259.091 39.5831C259.09 39.5821 221.186 25.1161 207.402 64.6621Z" fill="#39B54A"/>
<path d="M281.071 88.0815C273.216 76.0655 262.388 66.1295 250.212 58.5235C238.037 50.9175 217.903 43.3945 204.028 39.7115C199.862 38.6055 195.52 37.6395 191.273 38.3735C187.026 39.1075 182.869 41.9355 181.815 46.1145C180.496 51.3455 189.779 59.4175 194.141 62.5915C198.504 65.7655 207.403 70.4215 207.403 70.4215C207.403 70.4215 207.284 60.7195 222.812 58.7185C243.935 55.9975 281.071 88.0815 281.071 88.0815Z" fill="#34A243"/>
<path d="M237.629 48.5037C237.629 48.5037 229.997 44.2817 222.332 43.2977C223.906 42.1447 224.747 41.5907 226.489 40.8027C230.41 41.5827 234.384 42.5777 238.41 44.8107L237.629 48.5037Z" fill="#FAFAFA"/>
<path d="M304.174 186.087C304.174 186.087 289.696 202.635 291.295 225.666C291.517 228.86 291.674 233.312 292.067 236.493C294.508 256.248 298.285 274.585 298.285 274.585H299.662L350.152 262.119C350.152 262.119 342.545 218.286 340.798 212.47C335.203 193.842 316.013 183.592 316.013 183.592L304.174 186.087Z" fill="#39B54A"/>
<path d="M247.244 405.661C247.244 405.661 247.229 405.409 247.223 404.915C247.22 404.408 247.215 403.678 247.208 402.724C247.206 400.781 247.203 397.938 247.199 394.27C247.212 386.9 247.231 376.227 247.255 362.949C247.348 336.364 247.478 299.361 247.625 257.627L247.948 257.878C241.808 259.472 235.32 261.155 228.741 262.863C222.281 264.538 215.91 266.19 209.884 267.753L210.077 267.499C210.334 288.422 210.264 308.16 210.166 325.997C210.059 343.83 209.964 359.765 209.884 373.09C209.83 386.411 209.833 397.116 209.866 404.492C209.882 408.17 209.894 411.021 209.902 412.968C209.902 413.925 209.902 414.657 209.902 415.165C209.899 415.66 209.885 415.913 209.885 415.913C209.885 415.913 209.866 415.66 209.852 415.166C209.841 414.658 209.825 413.926 209.804 412.969C209.775 411.021 209.732 408.171 209.677 404.493C209.585 397.117 209.529 386.411 209.536 373.089C209.584 359.764 209.64 343.828 209.704 325.995C209.773 308.159 209.823 288.423 209.559 267.506L209.556 267.303L209.752 267.252C215.778 265.688 222.149 264.035 228.608 262.358C235.188 260.652 241.676 258.969 247.816 257.377L248.141 257.293L248.139 257.629C247.925 299.363 247.735 336.366 247.599 362.95C247.508 376.227 247.435 386.9 247.385 394.27C247.349 397.938 247.322 400.781 247.303 402.723C247.288 403.677 247.277 404.407 247.27 404.914C247.262 405.409 247.244 405.661 247.244 405.661Z" fill="#263238"/>
<path d="M223.864 156.325C223.864 156.325 221.843 175.536 228.328 178.526C235.62 181.888 242.884 178.602 247.353 175.749C259.262 168.148 276.968 147.039 276.968 147.039L288.932 162.623C288.932 162.623 258.715 198.937 252.644 198.702C248.685 198.549 242.497 194.668 238.67 191.985C236.564 190.509 234.689 188.74 233.1 186.718L227.874 180.07C221.348 183.292 216.068 187.414 212.415 192.712C212.415 192.712 210.67 179.262 213.801 173.153C216.931 167.044 223.173 156.529 223.173 156.529L223.864 156.325Z" fill="#39B54A"/>
<path d="M213.409 173.681C213.417 173.685 213.377 173.797 213.29 174.011C213.191 174.25 213.062 174.561 212.9 174.953C212.63 175.807 212.23 177.072 212.006 178.764C211.506 182.13 211.376 187.107 212.016 193.167L211.66 193.097C213.14 190.475 215.372 187.952 218.135 185.717C220.888 183.462 224.102 181.394 227.711 179.645L227.875 179.565L227.999 179.709C230.104 182.16 232.333 184.714 234.69 187.298C237.04 189.882 239.566 192.483 242.577 194.577C243.989 195.559 245.494 196.377 247.066 196.951C247.853 197.229 248.657 197.461 249.462 197.599C250.27 197.724 251.085 197.755 251.887 197.689C255.136 197.391 257.9 195.529 260.169 193.567L260.151 193.584C268.524 184.656 275.713 176.991 280.836 171.529C283.381 168.842 285.412 166.699 286.833 165.2C287.519 164.489 288.057 163.931 288.447 163.527C288.619 163.355 288.758 163.215 288.871 163.103C288.968 163.009 289.02 162.964 289.025 162.969C289.03 162.974 288.989 163.029 288.902 163.132C288.798 163.252 288.668 163.401 288.509 163.584C288.133 164.001 287.615 164.577 286.953 165.312C285.557 166.834 283.562 169.01 281.061 171.738C275.972 177.232 268.83 184.942 260.513 193.921L260.504 193.931L260.495 193.939C259.329 194.946 258.071 195.923 256.641 196.694C255.226 197.479 253.624 198.046 251.933 198.201C251.088 198.272 250.229 198.24 249.379 198.11C248.529 197.965 247.705 197.727 246.89 197.439C245.267 196.847 243.722 196.007 242.282 195.005C239.215 192.872 236.665 190.237 234.313 187.644C231.953 185.048 229.73 182.489 227.628 180.026L227.916 180.09C224.359 181.8 221.146 183.847 218.418 186.06C215.673 188.257 213.464 190.728 211.995 193.28L211.697 193.799L211.64 193.211C211.043 187.105 211.232 182.115 211.799 178.73C212.057 177.031 212.494 175.761 212.8 174.913C212.983 174.499 213.142 174.193 213.243 173.985C213.344 173.78 213.401 173.677 213.409 173.681Z" fill="#263238"/>
<path d="M214.147 189.874C213.688 190.634 214.088 192.405 214.886 192.796C215.684 193.186 216.675 192.901 217.372 192.35C218.069 191.799 218.545 191.025 219.053 190.296C220.25 188.577 221.692 187.03 223.323 185.716C224.934 184.418 227.148 183.318 228.997 184.245C230.226 184.861 230.894 186.191 231.497 187.426C234.002 192.559 237.017 197.785 241.924 200.707C246.855 203.644 253.144 203.772 258.555 201.858C263.966 199.944 268.564 196.168 272.274 191.789C275.984 187.41 278.888 182.418 281.761 177.449C284.022 173.539 286.317 169.512 287.021 165.051C286.394 165.402 284.94 167.646 284.313 167.997C284.313 167.997 261.009 193.67 258.814 194.988C256.619 196.306 250.584 205.183 233.472 186.009L227.813 179.87C227.813 179.869 217.038 185.086 214.147 189.874Z" fill="#34A143"/>
<path d="M276.619 245.251L250.988 241.322L249.802 249.06L275.433 252.988L276.619 245.251Z" fill="white"/>
<path d="M345.916 263.088L305.872 272.755L310.491 310.492L233.894 368.017C230.828 368.446 227.695 368.939 225.952 369.375C221.762 370.423 214.365 380.931 212.27 381.979L197.343 393.501C197.343 393.501 196.034 398.739 202.842 397.691C209.651 396.643 217.245 391.406 218.031 391.406C218.817 391.406 221.202 393.002 220.076 396.382C219.073 399.389 214.969 409.699 214.969 409.699L209.906 419.001C209.906 419.001 231.821 419.717 237.952 411.586C242.114 406.066 254.927 390.414 254.927 390.414C254.927 390.414 345.089 346.056 350.501 336.77C357.852 324.16 345.916 263.088 345.916 263.088Z" fill="#FFBE9D"/>
<path d="M327.473 326.751C327.361 326.744 327.694 325.148 327.293 322.627C326.92 320.141 325.598 316.68 322.719 314.064C319.828 311.46 316.252 310.49 313.742 310.366C311.194 310.218 309.64 310.708 309.621 310.598C309.613 310.57 309.989 310.429 310.697 310.27C311.404 310.108 312.454 309.97 313.758 309.998C316.334 310.029 320.061 310.969 323.069 313.678C326.063 316.4 327.37 320.014 327.658 322.574C327.815 323.868 327.783 324.927 327.693 325.647C327.605 326.367 327.502 326.756 327.473 326.751Z" fill="#EB996E"/>
<path d="M227.916 404.934C227.982 404.953 227.795 405.918 227.39 407.458C226.976 408.99 226.344 411.125 225.177 413.291C224.014 415.466 222.376 417.105 220.958 417.899C220.252 418.3 219.628 418.525 219.186 418.617C218.745 418.716 218.494 418.721 218.489 418.691C218.463 418.595 219.46 418.442 220.765 417.585C222.071 416.746 223.592 415.147 224.719 413.042C225.855 410.936 226.536 408.851 227.037 407.352C227.531 405.847 227.844 404.913 227.916 404.934Z" fill="#EB996E"/>
<path d="M238.535 401.446C238.598 401.469 238.331 402.409 237.762 403.882C237.194 405.354 236.303 407.349 235.142 409.462C233.978 411.574 232.768 413.394 231.828 414.661C230.888 415.929 230.237 416.657 230.184 416.617C230.123 416.57 230.669 415.765 231.526 414.452C232.383 413.139 233.533 411.305 234.687 409.212C235.838 407.119 236.773 405.166 237.424 403.74C238.074 402.312 238.463 401.419 238.535 401.446Z" fill="#EB996E"/>
<path d="M238.247 336.152C238.283 336.149 238.345 336.602 238.426 337.424C238.513 338.246 238.585 339.44 238.626 340.916C238.711 343.869 238.577 347.966 237.933 352.435C237.281 356.905 236.246 360.872 235.326 363.679C234.868 365.084 234.46 366.208 234.143 366.971C233.832 367.736 233.644 368.152 233.611 368.14C233.577 368.127 233.701 367.687 233.953 366.903C234.21 366.121 234.564 364.983 234.975 363.572C235.801 360.751 236.771 356.8 237.418 352.362C238.057 347.924 238.248 343.861 238.258 340.921C238.265 339.451 238.249 338.26 238.224 337.437C238.205 336.612 238.211 336.155 238.247 336.152Z" fill="#263238"/>
<path d="M216.57 348.162C216.642 348.139 217.099 349.351 217.836 351.31C218.572 353.268 219.602 355.968 220.809 358.92C222.019 361.873 223.177 364.519 224.026 366.432C224.874 368.345 225.398 369.53 225.33 369.564C225.269 369.595 224.627 368.466 223.692 366.589C222.756 364.712 221.54 362.08 220.327 359.118C219.115 356.156 218.137 353.427 217.488 351.433C216.839 349.437 216.505 348.183 216.57 348.162Z" fill="#263238"/>
<path d="M210.77 374.048C210.774 374.066 210.557 374.129 210.139 374.234C209.667 374.346 209.059 374.491 208.305 374.67C207.509 374.861 206.531 375.077 205.384 375.271C204.239 375.473 202.94 375.741 201.486 375.92C200.037 376.13 198.447 376.35 196.73 376.495C195.018 376.692 193.179 376.778 191.245 376.892C187.374 377.041 183.109 377.018 178.648 376.693C174.188 376.338 169.968 375.713 166.164 374.978C164.27 374.571 162.465 374.208 160.802 373.753C159.127 373.349 157.589 372.891 156.188 372.464C154.778 372.066 153.535 371.604 152.434 371.231C151.33 370.865 150.396 370.503 149.638 370.193C148.921 369.902 148.341 369.667 147.892 369.484C147.495 369.317 147.29 369.221 147.297 369.204C147.304 369.187 147.522 369.251 147.93 369.386C148.388 369.545 148.977 369.749 149.708 370.002C150.475 370.282 151.417 370.615 152.527 370.954C153.634 371.3 154.881 371.736 156.292 372.11C157.695 372.514 159.232 372.949 160.905 373.333C162.565 373.768 164.366 374.114 166.254 374.506C170.046 375.212 174.247 375.818 178.686 376.172C183.125 376.495 187.369 376.533 191.223 376.411C193.149 376.31 194.981 376.242 196.688 376.063C198.4 375.938 199.985 375.74 201.433 375.554C202.885 375.399 204.183 375.157 205.33 374.983C206.478 374.816 207.46 374.63 208.261 374.47C209.022 374.33 209.636 374.218 210.112 374.13C210.541 374.06 210.766 374.03 210.77 374.048Z" fill="#263238"/>
<path d="M206.959 356.66C206.89 356.786 204.764 355.762 202.21 354.372C199.655 352.981 197.641 351.752 197.709 351.626C197.778 351.5 199.904 352.524 202.459 353.914C205.013 355.304 207.028 356.534 206.959 356.66Z" fill="#263238"/>
<path d="M350.152 262.119C350.154 262.126 350.07 262.154 349.905 262.201C349.717 262.252 349.474 262.317 349.168 262.4C348.489 262.573 347.53 262.818 346.301 263.131C343.766 263.758 340.118 264.66 335.545 265.791C326.321 268.032 313.371 271.178 298.343 274.828L298.08 274.892L298.039 274.624C296.983 267.752 295.547 260.338 294.16 252.624C293.247 247.475 292.457 242.425 291.919 237.518C291.387 232.61 291.132 227.85 291.069 223.315C291.011 218.783 291.18 214.453 291.818 210.456C292.446 206.461 293.561 202.814 295.098 199.726C296.665 196.653 298.618 194.166 300.614 192.296C302.618 190.429 304.635 189.153 306.387 188.36C308.143 187.559 309.615 187.238 310.602 187.035C311.102 186.961 311.486 186.922 311.743 186.892C312 186.864 312.132 186.854 312.133 186.863C312.134 186.872 312.004 186.9 311.749 186.945C311.47 186.993 311.097 187.057 310.621 187.139C309.646 187.374 308.196 187.724 306.471 188.545C304.75 189.358 302.773 190.644 300.812 192.509C298.859 194.376 296.951 196.849 295.425 199.892C293.93 202.949 292.846 206.562 292.242 210.524C291.629 214.489 291.475 218.791 291.547 223.31C291.623 227.831 291.888 232.572 292.425 237.464C292.968 242.355 293.76 247.392 294.672 252.535C296.058 260.24 297.487 267.665 298.53 274.55L298.226 274.346C313.271 270.768 326.237 267.686 335.471 265.489C340.058 264.418 343.718 263.564 346.261 262.97C347.498 262.691 348.463 262.473 349.147 262.318C349.457 262.253 349.704 262.201 349.894 262.16C350.064 262.125 350.151 262.112 350.152 262.119Z" fill="#263238"/>
<path d="M151.782 337.572C150.853 335.659 146.194 325.78 144.66 321.219C143.64 318.028 143.235 314.476 143.483 310.89C143.911 306.673 145.518 302.75 147.953 299.983C150.387 297.215 153.449 295.83 156.466 296.13L156.526 296.136C159.539 296.448 162.259 298.415 164.091 301.606C165.923 304.798 166.718 308.956 166.302 313.171C165.83 316.743 164.724 320.154 163.085 323.089C160.777 327.054 154.673 335.272 152.858 337.681L152.191 338.551L151.782 337.572Z" fill="white"/>
<path d="M156.432 297.065C159.269 297.353 161.831 299.203 163.554 302.21C165.278 305.217 166.022 309.134 165.623 313.102C165.164 316.486 164.113 319.716 162.565 322.503C160.145 326.677 153.387 335.724 152.399 337.045L152.364 337.091L152.339 337.039C151.632 335.546 146.808 325.344 145.268 320.783C144.305 317.744 143.92 314.368 144.146 310.958C144.345 308.991 144.818 307.072 145.539 305.31C146.261 303.547 147.216 301.975 148.351 300.685C149.486 299.394 150.777 298.409 152.153 297.787C153.528 297.165 154.96 296.917 156.366 297.058L156.437 297.065L156.432 297.065ZM156.627 295.188L156.557 295.18C153.36 294.867 150.117 296.339 147.539 299.272C144.961 302.205 143.257 306.361 142.803 310.828C142.542 314.593 142.965 318.323 144.035 321.674C145.6 326.28 150.252 336.173 151.186 338.137L151.182 338.172L152.013 340.004L153.26 338.432L153.295 338.386C155.118 335.95 161.252 327.684 163.592 323.652C165.306 320.568 166.462 316.986 166.951 313.237C167.397 308.767 166.556 304.356 164.613 300.97C162.67 297.584 159.784 295.501 156.588 295.176L156.627 295.188Z" fill="white"/>
<path d="M165.408 314.534C159.073 318.027 153.736 324.573 150.427 332.907C151.356 334.926 152.095 336.501 152.348 337.016L152.373 337.069L152.408 337.022C153.396 335.702 160.158 326.655 162.578 322.489C163.898 320.102 164.862 317.393 165.408 314.534Z" fill="#39B54A"/>
<path d="M165.631 313.081C165.063 312.971 164.487 312.886 163.903 312.827C157.353 312.149 150.686 314.887 145.19 320.512L145.275 320.776C145.661 321.973 146.308 323.56 147.029 325.267C152.064 318.314 158.7 314.128 165.571 313.572C165.589 313.396 165.604 313.241 165.619 313.101L165.631 313.081Z" fill="#39B54A"/>
<path d="M144.947 319.775C146.125 318.626 147.359 317.599 148.638 316.704C147.235 315.052 145.699 313.624 144.055 312.445C144.035 314.972 144.337 317.453 144.947 319.775Z" fill="#8DC63F"/>
<path d="M144.079 312.317C145.805 313.464 147.422 314.882 148.9 316.543C149.738 315.97 150.595 315.455 151.465 314.999C149.174 313.331 146.692 312.167 144.102 311.545C144.093 311.779 144.082 312.033 144.079 312.317Z" fill="#8DC63F"/>
<path d="M144.142 310.985L144.095 311.449C146.816 311.984 149.431 313.112 151.846 314.793C152.849 314.292 153.869 313.871 154.901 313.533C151.598 311.372 147.881 310.505 144.128 311.019L144.142 310.985Z" fill="#8DC63F"/>
<path d="M147.782 310.581C150.422 310.846 152.968 311.808 155.285 313.417C157.896 312.613 160.552 312.342 163.167 312.611C164.002 312.696 164.823 312.834 165.631 313.025C166.014 309.067 165.26 305.166 163.534 302.176C161.809 299.185 159.251 297.347 156.421 297.064L156.366 297.058C153.565 296.778 150.721 298.044 148.444 300.583C146.166 303.122 144.637 306.733 144.183 310.642C145.386 310.48 146.59 310.46 147.782 310.581Z" fill="white"/>
<path d="M165.446 314.342C165.468 314.117 165.52 313.909 165.549 313.72C158.727 314.527 152.204 318.894 147.306 325.935C148.204 328.044 149.216 330.3 150.101 332.237C153.567 323.983 159.036 317.606 165.446 314.342Z" fill="#39B54A"/>
<path d="M152.883 297.982L156.852 292.673L159.674 298.671L152.883 297.982Z" fill="#FBB040"/>
<path d="M156.696 294.134L158.328 297.582L154.425 297.186L156.696 294.134ZM156.993 291.209L155.813 292.823L153.516 295.872L151.346 298.778L161.024 299.76L159.507 296.48L157.86 293.03L156.993 291.209Z" fill="white"/>
<path d="M157.362 297.21L156.698 294.137L155.44 297.015C153.314 297.066 151.202 297.985 149.368 299.657C147.534 301.329 146.059 303.68 145.125 306.418L165.582 308.495C165.217 305.624 164.243 303.023 162.782 301.017C161.32 299.01 159.435 297.686 157.362 297.21Z" fill="#FBB040"/>
</svg>
