<svg width="410" height="410" viewBox="0 0 410 410" fill="none" xmlns="http://www.w3.org/2000/svg">
<path d="M0 12.281C0 5.65359 5.37258 0.281006 12 0.281006H397.315C403.942 0.281006 409.315 5.65359 409.315 12.281V409.052H0V12.281Z" fill="#469D52"/>
<path d="M122.915 136.619C119.935 128.468 116.982 120.251 115.337 111.664C113.694 103.077 113.405 94.0271 115.731 85.6281C116.083 84.3544 119.223 75.76 120.447 75.8061C121.322 75.8389 119.543 83.7776 120.03 84.5669C124.684 92.0977 126.376 101.426 126.236 110.494C126.096 119.56 124.845 127.795 122.915 136.619Z" fill="#263238"/>
<path d="M148.965 208.321C136.454 208.9 125.809 198.516 125.005 184.945L120.163 103.276C118.218 81.381 128.331 61.902 148.541 60.3976L150.416 60.3769C169.285 60.1705 185.144 75.7262 186.851 96.1341C188.439 115.121 189.97 136.124 189.948 146.32C189.905 167.429 170.496 170.925 170.496 170.925C170.452 170.927 170.673 175.812 170.978 181.998C171.659 195.893 161.767 207.728 148.965 208.321Z" fill="#B78876"/>
<path d="M170.497 170.927C170.497 170.927 158.254 171.841 145.116 163.08C145.116 163.08 151.428 178.361 170.804 176.249L170.497 170.927Z" fill="#995037"/>
<path d="M181.581 111.606C181.648 113.197 180.461 114.57 178.933 114.677C177.406 114.783 176.113 113.582 176.047 111.991C175.98 110.401 177.165 109.025 178.691 108.919C180.22 108.812 181.513 110.016 181.581 111.606Z" fill="#263238"/>
<path d="M182.778 104.943C182.437 105.34 180.319 103.673 177.332 103.715C174.349 103.71 172.172 105.402 171.844 105.008C171.683 104.834 172.028 104.12 172.975 103.355C173.907 102.594 175.503 101.845 177.364 101.834C179.224 101.825 180.796 102.551 181.702 103.303C182.628 104.057 182.947 104.765 182.778 104.943Z" fill="#263238"/>
<path d="M153.306 112.149C153.373 113.739 152.186 115.113 150.658 115.218C149.133 115.325 147.838 114.124 147.772 112.532C147.706 110.942 148.891 109.567 150.417 109.46C151.946 109.353 153.24 110.558 153.306 112.149Z" fill="#263238"/>
<path d="M153.535 106.578C153.194 106.975 151.073 105.309 148.088 105.35C145.105 105.345 142.928 107.038 142.601 106.643C142.441 106.469 142.781 105.757 143.732 104.991C144.665 104.228 146.26 103.48 148.12 103.468C149.98 103.46 151.553 104.186 152.459 104.936C153.383 105.693 153.702 106.399 153.535 106.578Z" fill="#263238"/>
<path d="M164.479 131.38C164.464 131.195 166.316 130.827 169.321 130.376C170.082 130.282 170.803 130.11 170.926 129.543C171.101 128.943 170.773 128.053 170.394 127.094C169.658 125.097 168.888 123.005 168.081 120.812C164.865 111.868 162.529 104.51 162.861 104.373C163.194 104.235 166.071 111.374 169.286 120.318C170.061 122.524 170.801 124.627 171.506 126.638C171.803 127.577 172.31 128.638 171.932 129.884C171.733 130.506 171.177 130.961 170.689 131.109C170.202 131.277 169.773 131.29 169.396 131.319C166.371 131.529 164.493 131.564 164.479 131.38Z" fill="#263238"/>
<path d="M155.709 133.72C156.194 133.684 156.233 137.205 159.031 139.672C161.824 142.149 165.276 141.716 165.306 142.208C165.353 142.427 164.542 142.9 163.084 142.959C161.654 143.028 159.56 142.551 157.848 141.042C156.142 139.528 155.395 137.491 155.271 136.048C155.133 134.578 155.486 133.703 155.709 133.72Z" fill="#263238"/>
<path d="M153.249 93.4169C152.963 94.3021 149.977 93.9172 146.477 94.4138C142.969 94.8339 140.153 95.979 139.681 95.1946C139.47 94.8181 139.955 93.9827 141.09 93.117C142.214 92.2524 144.014 91.4219 146.115 91.145C148.216 90.8731 150.146 91.2142 151.428 91.7631C152.718 92.3107 153.372 92.9968 153.249 93.4169Z" fill="#263238"/>
<path d="M181.444 94.1737C180.925 94.9156 178.861 94.1737 176.386 94.1652C173.913 94.062 171.822 94.7104 171.332 93.9455C171.118 93.5739 171.44 92.832 172.349 92.1253C173.244 91.421 174.748 90.8358 176.448 90.8734C178.149 90.9135 179.628 91.5643 180.496 92.3099C181.378 93.0554 181.672 93.8119 181.444 94.1737Z" fill="#263238"/>
<path d="M121.897 118.889C121.564 118.737 108.502 114.746 109.062 129.171C109.621 143.595 122.841 140.01 122.847 139.596C122.855 139.181 121.897 118.889 121.897 118.889Z" fill="#B78876"/>
<path d="M118.578 134.316C118.518 134.272 118.353 134.502 117.97 134.714C117.596 134.921 116.945 135.082 116.242 134.832C114.818 134.337 113.542 131.971 113.376 129.374C113.291 128.063 113.497 126.801 113.885 125.747C114.25 124.674 114.85 123.907 115.551 123.739C116.248 123.53 116.765 123.967 116.943 124.365C117.137 124.76 117.064 125.052 117.136 125.074C117.174 125.108 117.411 124.819 117.281 124.229C117.215 123.945 117.046 123.612 116.723 123.349C116.393 123.082 115.919 122.96 115.429 123.04C114.408 123.164 113.525 124.229 113.099 125.388C112.616 126.553 112.358 127.973 112.453 129.444C112.651 132.348 114.125 135.004 116.07 135.519C117.015 135.741 117.782 135.399 118.172 135.041C118.568 134.664 118.626 134.34 118.578 134.316Z" fill="#995037"/>
<path d="M177.138 72.727C179.227 71.3209 172.424 64.1204 167.021 61.8109C158.855 58.3199 146.555 56.5726 139.303 59.2452C130.571 62.4629 123.435 67.6563 119.398 76.6599C115.36 85.6624 114.166 95.958 114.892 105.94C115.114 108.986 115.554 112.149 117.176 114.645C119.18 117.731 122.833 119.542 122.883 123.948C122.901 125.558 123.399 127.157 124.468 128.273C127.029 130.945 129.877 128.144 131.12 125.425C133.774 119.616 133.783 112.857 133.737 106.373C133.703 101.763 133.655 97.0569 132.254 92.7062C131.492 90.3384 130.342 88.1261 129.701 85.7158C129.061 83.3055 128.999 80.5346 130.305 78.4655C130.518 78.1292 130.873 77.6993 131.328 77.2209C134.92 73.4337 140.134 72.0725 144.933 73.6219C152.544 76.0807 165.514 79.6652 168.72 76.7255C173.332 72.4963 174.357 69.848 174.357 69.848L177.138 72.727Z" fill="#263238"/>
<path d="M139.908 57.2484C147.08 54.1958 155.392 53.8752 162.402 57.3443C166.122 59.1863 169.55 62.2693 170.855 66.4767C172.16 70.6853 170.729 76.0304 167.025 77.9125L166.774 78.1043C161.207 80.4879 157.485 79.8674 151.738 78.057C146.902 76.5331 142.525 73.5825 137.683 72.0841C132.535 70.491 126.945 70.6233 121.866 72.4581C126.65 65.9023 132.737 60.301 139.908 57.2484Z" fill="#263238"/>
<path d="M123.281 70.2684C123.312 70.3182 123.845 69.915 124.905 69.4123C125.959 68.9072 127.583 68.3717 129.645 68.2673C131.703 68.1483 134.171 68.5077 136.751 69.4925C139.34 70.4505 142.022 71.9781 144.8 73.6549C147.581 75.333 150.268 76.9273 152.882 77.9813C155.486 79.0608 158.007 79.5465 160.12 79.5234C162.238 79.5161 163.927 79.0499 165.014 78.569C165.564 78.3371 165.972 78.11 166.237 77.9364C166.503 77.7652 166.637 77.6668 166.628 77.6474C166.603 77.5952 166.035 77.9388 164.937 78.3371C163.845 78.7378 162.188 79.1251 160.124 79.0754C158.061 79.0401 155.62 78.5241 153.073 77.4349C150.515 76.3712 147.865 74.7793 145.081 73.1C142.298 71.4219 139.574 69.8859 136.921 68.9388C134.28 67.9637 131.726 67.6371 129.618 67.8192C127.504 67.9844 125.852 68.6037 124.808 69.1877C124.28 69.4718 123.892 69.7402 123.644 69.9393C123.394 70.1385 123.269 70.2502 123.281 70.2684Z" fill="#455A64"/>
<path d="M128.66 65.2348C128.696 65.3903 130.764 63.8348 134.571 63.7814C136.45 63.7534 138.696 64.1129 141.048 64.9993C143.402 65.8796 145.833 67.3088 148.294 68.9602C150.757 70.6176 153.054 72.3091 155.259 73.6629C157.459 75.0253 159.557 76.0453 161.391 76.6682C163.227 77.2899 164.779 77.534 165.851 77.585C166.387 77.6068 166.803 77.6092 167.085 77.5813C167.367 77.5631 167.513 77.5425 167.513 77.5206C167.528 77.3858 165.109 77.5971 161.521 76.2444C159.734 75.5778 157.69 74.5336 155.529 73.159C153.363 71.7918 151.08 70.0918 148.602 68.4222C146.124 66.7587 143.647 65.3198 141.222 64.448C138.803 63.5701 136.49 63.2483 134.561 63.3345C132.629 63.4256 131.102 63.8943 130.116 64.3581C129.624 64.5961 129.251 64.7965 129.014 64.9653C128.771 65.1243 128.649 65.2166 128.66 65.2348Z" fill="#455A64"/>
<path d="M115.692 84.36C115.654 84.3746 115.75 84.7607 115.956 85.4504C116.153 86.1437 116.516 87.12 117.033 88.2905C118.057 90.634 119.854 93.7097 122.43 96.5438C125.015 99.3693 127.831 101.35 129.979 102.484C131.052 103.056 131.947 103.46 132.584 103.68C133.217 103.911 133.573 104.019 133.586 103.977C133.623 103.871 132.241 103.317 130.17 102.088C128.099 100.866 125.381 98.869 122.844 96.0981C120.318 93.3175 118.504 90.3474 117.4 88.0865C116.288 85.828 115.791 84.3211 115.692 84.36Z" fill="#455A64"/>
<path d="M114.506 94.6317C114.472 94.6366 114.484 95.0142 114.607 95.6796C114.724 96.3462 114.999 97.2958 115.507 98.385C116.503 100.571 118.647 103.197 121.645 105.016C124.638 106.839 127.646 107.702 129.79 108.265C131.948 108.812 133.298 109.053 133.316 108.974C133.336 108.883 132.015 108.488 129.895 107.833C127.786 107.163 124.841 106.239 121.934 104.466C119.027 102.699 116.925 100.228 115.87 98.1712C114.787 96.1131 114.619 94.6001 114.506 94.6317Z" fill="#455A64"/>
<path d="M159.522 58.9629C159.464 59.0334 160.28 59.8894 161.545 61.3113C162.796 62.7356 164.517 64.7598 165.798 67.4008C167.074 70.0405 167.461 72.7896 167.308 74.7215C167.175 76.6703 166.654 77.7935 166.758 77.8372C166.789 77.853 166.949 77.5932 167.157 77.0771C167.368 76.5623 167.593 75.773 167.717 74.7676C167.984 72.7641 167.644 69.8596 166.314 67.1093C164.982 64.3676 163.168 62.3495 161.833 60.9944C160.482 59.6381 159.571 58.9034 159.522 58.9629Z" fill="#455A64"/>
<path d="M169.063 65.3598C168.975 65.401 169.232 66.1235 169.445 67.3268C169.663 68.5265 169.775 70.2289 169.486 72.0636C169.188 73.8984 168.554 75.4599 167.977 76.509C167.402 77.563 166.936 78.1494 167.007 78.2211C167.051 78.2721 167.633 77.7876 168.323 76.753C169.013 75.727 169.747 74.1036 170.06 72.1717C170.366 70.2398 170.178 68.4427 169.847 67.2236C169.518 65.9972 169.12 65.3294 169.063 65.3598Z" fill="#455A64"/>
<path d="M207.236 223.699L243.16 272.909L300.434 232.721L313.667 258.564L264.888 302.335C257.231 311.628 245.433 315.492 234.322 312.347C227.768 310.491 221.964 306.33 217.819 300.514L179.378 246.582L207.236 223.699Z" fill="#B78876"/>
<path d="M187.929 274.149C188.09 274.15 188.284 262.099 188.362 247.236C188.44 232.368 188.373 220.319 188.212 220.318C188.051 220.316 187.858 232.364 187.779 247.233C187.702 262.095 187.769 274.148 187.929 274.149Z" fill="#263238"/>
<path d="M94.8827 187.82C94.8983 187.834 95.0784 187.636 95.4015 187.25C95.5681 187.061 95.7515 186.805 96.0053 186.542C96.2726 186.278 96.5711 185.984 96.9021 185.658C98.2774 184.377 100.613 182.883 103.798 182.157C106.961 181.439 110.982 181.556 114.987 183.232C118.99 184.913 122.777 188.259 125.849 192.481C128.924 196.733 131.094 201.373 132.779 205.69C134.47 210.017 135.781 214.017 136.974 217.339C138.158 220.666 139.207 223.323 140.007 225.12C140.408 226.018 140.73 226.709 140.965 227.168C141.197 227.63 141.327 227.867 141.345 227.858C141.362 227.848 141.267 227.591 141.071 227.112C140.85 226.573 140.565 225.879 140.213 225.018C139.478 223.195 138.491 220.523 137.358 217.181C136.216 213.844 134.945 209.827 133.273 205.463C131.604 201.108 129.427 196.408 126.304 192.088C123.182 187.797 119.308 184.389 115.178 182.688C111.051 180.996 106.935 180.931 103.709 181.72C100.461 182.52 98.103 184.113 96.7523 185.472C96.4302 185.818 96.1395 186.131 95.879 186.411C95.6352 186.691 95.4641 186.963 95.3098 187.166C95.0146 187.584 94.867 187.807 94.8827 187.82Z" fill="#263238"/>
<path d="M187.802 193.162C187.802 193.162 190.571 193.078 213.014 225.116L225.617 244.11L192.515 269.22L188.265 261.778L187.802 193.162Z" fill="#455A64"/>
<path d="M64.8866 290.923C60.1445 218.271 74.6359 197.458 83.2301 187.815C91.8243 178.172 115.5 172.632 124.079 169.406C139.916 185.862 153.633 190.684 170.806 186.644C174.424 185.791 181.984 189.594 187.801 193.161L190.577 409.053C190.577 409.053 86.0698 409.163 71.7204 409.051C62.1271 408.977 67.2594 396.346 67.2594 396.346C67.2594 396.346 69.6288 363.575 64.8866 290.923Z" fill="#455A64"/>
<path d="M72.1162 391.733C72.1889 391.795 72.9291 390.629 74.6399 388.927C76.3552 387.252 79.1327 385.101 83.0317 383.572C86.905 381.98 91.8395 381.169 97.3285 381.146C102.819 381.119 108.885 381.664 115.249 381.986C127.983 382.722 139.511 383.331 147.858 383.722C151.932 383.892 155.276 384.032 157.746 384.135C158.828 384.16 159.717 384.18 160.436 384.197C161.053 384.2 161.376 384.185 161.378 384.151C161.38 384.117 161.059 384.065 160.446 383.997C159.73 383.93 158.844 383.849 157.765 383.748C155.3 383.566 151.961 383.319 147.893 383.019C139.555 382.447 128.031 381.726 115.297 380.99C108.932 380.669 102.878 380.15 97.3173 380.227C91.769 380.299 86.7295 381.2 82.8014 382.913C78.8475 384.56 76.0611 386.854 74.3939 388.645C73.5642 389.554 72.9828 390.322 72.6194 390.866C72.2638 391.416 72.0905 391.713 72.1162 391.733Z" fill="#263238"/>
<path d="M189.631 409.05L188.11 241.221L138.463 237.955L83.141 409.05H189.631Z" fill="#FBB040"/>
<path d="M114.709 172.13C114.709 172.13 155.22 185.054 151.232 244.052L144.374 243.944C144.374 243.944 145.599 225.673 139.014 208.818C132.429 191.963 124.151 175.311 102.083 176.802C102.083 176.802 109.476 170.997 114.709 172.13Z" fill="#FBB040"/>
<path d="M186.434 243.311L180.259 242.684C180.259 242.684 183.028 194.244 175.811 187.254L173.066 186.607C173.066 186.607 178.79 184.36 181.102 189.444C183.416 194.528 188.219 220.318 186.434 243.311Z" fill="#FBB040"/>
<path d="M334.994 239.719C334.994 239.719 327.864 248.598 326.004 253.36C323.983 258.531 319.004 262.205 314.323 263.293C309.643 264.38 306.291 264.367 306.291 264.367L295.914 275.754C295.914 275.754 285.715 275.788 280.73 264.272C279.862 262.264 279.319 260.509 278.914 257.297C278.759 254.499 278.5 253.021 281.213 248.652L297.14 235.916C297.14 235.916 314.532 213.177 319.519 211.11C319.519 211.11 326.316 209.061 328.704 208.723C329.604 208.595 336.078 212.103 335.614 218.263C335.614 218.263 340.482 217.548 341.019 221.242L341.207 222.939C341.207 222.939 345.413 223.428 345.545 225.562C345.676 227.697 342.551 241.921 338.503 243.958C334.456 245.994 334.081 241.103 334.838 239.141" fill="#B78876"/>
<path d="M329.289 216.055C329.256 216.042 329.047 216.587 328.665 217.567C328.283 218.547 327.721 219.96 326.95 221.666C326.564 222.519 326.124 223.443 325.625 224.418C325.135 225.396 324.539 226.405 324.026 227.559C323.525 228.704 323.074 230.036 323.208 231.498C323.347 232.896 324.026 234.452 325.418 235.079C326.1 235.388 326.865 235.346 327.524 235.113C328.183 234.868 328.754 234.46 329.248 234.003C330.239 233.075 330.967 231.992 331.658 230.969C333.005 228.887 333.954 226.839 334.678 225.099C335.403 223.356 335.909 221.913 336.255 220.916C336.599 219.916 336.769 219.357 336.739 219.343C336.707 219.33 336.477 219.864 336.081 220.839C335.681 221.812 335.128 223.231 334.368 224.942C333.61 226.652 332.639 228.659 331.295 230.688C330.61 231.684 329.875 232.75 328.944 233.61C328.478 234.036 327.951 234.404 327.373 234.616C326.799 234.815 326.159 234.847 325.596 234.589C324.447 234.086 323.805 232.707 323.678 231.44C323.548 230.147 323.951 228.873 324.428 227.763C324.913 226.641 325.497 225.621 325.976 224.622C326.464 223.63 326.89 222.69 327.258 221.822C327.995 220.085 328.51 218.643 328.84 217.637C329.17 216.634 329.32 216.066 329.289 216.055Z" fill="#995037"/>
<path d="M322.538 210.586C322.504 210.573 322.297 211.117 321.923 212.096C321.545 213.073 320.998 214.487 320.251 216.197C319.505 217.908 318.561 219.916 317.398 222.074C316.837 223.151 316.118 224.321 316.026 225.805C315.983 226.533 316.174 227.319 316.609 227.926C317.035 228.537 317.641 228.98 318.304 229.242C319.66 229.778 321.116 229.455 322.258 228.806C323.421 228.155 324.331 227.169 325.02 226.137C326.387 224.039 327.113 221.9 327.884 220.202C328.583 218.539 329.161 217.16 329.6 216.111C329.996 215.141 330.201 214.596 330.17 214.58C330.14 214.564 329.879 215.079 329.431 216.023C328.955 217.052 328.331 218.406 327.576 220.042C326.769 221.719 325.996 223.855 324.663 225.85C323.99 226.836 323.127 227.75 322.042 228.35C320.979 228.947 319.654 229.222 318.47 228.749C317.278 228.311 316.389 227.12 316.499 225.829C316.565 224.545 317.227 223.397 317.783 222.316C318.933 220.129 319.852 218.092 320.562 216.352C321.273 214.612 321.774 213.172 322.1 212.169C322.42 211.164 322.567 210.599 322.538 210.586Z" fill="#995037"/>
<path d="M320.406 216.749C320.502 216.638 319.788 215.779 319.092 214.591C318.388 213.41 317.966 212.346 317.833 212.395C317.712 212.431 317.944 213.626 318.687 214.874C319.421 216.126 320.325 216.854 320.406 216.749Z" fill="#995037"/>
<path d="M292.416 248.99L296.683 237.925C296.683 237.925 306.853 205.451 307.709 205.615C308.566 205.779 309.583 204.504 311.867 207.394C314.15 210.283 307.684 228.644 308.191 229.966C308.699 231.288 313.72 235.193 312.616 243.312C311.512 251.43 308.504 254.987 308.504 254.987" fill="#B78876"/>
<path d="M308.504 254.987C308.51 254.993 308.573 254.933 308.68 254.801C308.786 254.669 308.939 254.469 309.123 254.189C309.491 253.635 309.99 252.779 310.512 251.608C311.035 250.44 311.573 248.952 312.021 247.17C312.447 245.386 312.9 243.327 312.93 240.976C312.975 238.636 312.354 236.038 311.012 233.693C310.358 232.514 309.479 231.422 308.656 230.323C308.551 230.184 308.471 230.045 308.407 229.912C308.366 229.817 308.38 229.674 308.395 229.493C308.433 229.148 308.508 228.787 308.584 228.43C308.74 227.712 308.925 226.985 309.113 226.251C309.876 223.311 310.74 220.235 311.479 216.995C311.849 215.375 312.19 213.714 312.42 211.997C312.526 211.137 312.61 210.263 312.588 209.364C312.581 208.916 312.528 208.458 312.415 208.001C312.339 207.772 312.265 207.543 312.115 207.332C311.983 207.118 311.839 206.986 311.7 206.807C311.13 206.162 310.472 205.52 309.597 205.282C309.163 205.159 308.697 205.226 308.31 205.31C308.114 205.351 307.935 205.383 307.79 205.363C307.747 205.366 307.813 205.352 307.65 205.367C307.499 205.409 307.503 205.45 307.465 205.478C307.39 205.552 307.381 205.589 307.336 205.647C307.274 205.749 307.221 205.849 307.173 205.947C306.445 207.522 305.913 209.103 305.349 210.659C304.252 213.772 303.251 216.796 302.305 219.679C300.419 225.447 298.775 230.661 297.41 235.046C297.061 236.136 296.763 237.2 296.426 238.163C296.063 239.124 295.718 240.033 295.396 240.884C294.761 242.574 294.212 244.037 293.757 245.248C293.326 246.42 292.985 247.344 292.739 248.014C292.637 248.309 292.553 248.547 292.486 248.739C292.431 248.903 292.407 248.989 292.414 248.993C292.422 248.996 292.461 248.917 292.53 248.759C292.609 248.572 292.707 248.342 292.828 248.055C293.095 247.393 293.463 246.481 293.93 245.324C294.407 244.122 294.981 242.67 295.647 240.991C295.98 240.143 296.335 239.238 296.711 238.282C297.067 237.302 297.371 236.259 297.731 235.167C299.155 230.792 300.846 225.602 302.722 219.843C303.68 216.967 304.688 213.948 305.788 210.844C306.349 209.305 306.897 207.697 307.592 206.199C307.637 206.106 307.684 206.021 307.731 205.943C307.75 205.918 307.785 205.856 307.789 205.861C307.781 205.844 307.813 205.889 307.771 205.821C307.728 205.729 307.712 205.769 307.699 205.718C307.694 205.702 307.694 205.684 307.698 205.666C307.632 206.086 307.694 205.783 307.685 205.878L307.731 205.883C307.981 205.915 308.201 205.864 308.395 205.826C308.785 205.745 309.136 205.697 309.487 205.794C310.188 205.98 310.809 206.553 311.348 207.17C311.636 207.507 311.857 207.765 311.952 208.156C312.047 208.545 312.099 208.96 312.105 209.384C312.126 210.229 312.047 211.084 311.943 211.926C311.718 213.613 311.383 215.263 311.018 216.874C310.289 220.099 309.436 223.173 308.682 226.123C308.495 226.863 308.313 227.594 308.158 228.326C308.082 228.694 308.007 229.058 307.965 229.444C307.952 229.625 307.92 229.864 308.016 230.105C308.106 230.297 308.208 230.462 308.315 230.604C309.18 231.745 310.022 232.775 310.671 233.926C311.989 236.197 312.609 238.698 312.587 240.981C312.58 243.264 312.155 245.327 311.758 247.097C311.338 248.87 310.832 250.352 310.339 251.524C309.848 252.697 309.38 253.563 309.04 254.132C308.871 254.418 308.731 254.628 308.639 254.77C308.547 254.91 308.498 254.981 308.504 254.987Z" fill="#995037"/>
<path d="M331.325 231.257C331.301 231.244 331.078 231.617 330.798 232.356C330.517 233.093 330.189 234.21 330.055 235.644C329.998 236.361 329.962 237.148 330.067 238.005C330.18 238.834 330.44 239.832 331.231 240.467C332.028 241.109 333.169 241.033 334.04 240.522C334.952 240.005 335.57 239.061 336.047 238.1C337.86 234.215 339.154 230.54 339.866 227.798C340.223 226.429 340.45 225.304 340.574 224.521C340.701 223.737 340.738 223.299 340.708 223.293C340.672 223.286 340.573 223.711 340.389 224.477C340.209 225.243 339.934 226.347 339.538 227.691C338.751 230.377 337.409 234.019 335.622 237.851C335.166 238.776 334.59 239.627 333.819 240.068C333.056 240.52 332.117 240.572 331.49 240.074C330.85 239.586 330.582 238.718 330.463 237.938C330.347 237.144 330.362 236.368 330.395 235.674C330.589 232.87 331.424 231.29 331.325 231.257Z" fill="#995037"/>
<path d="M170.798 296.285C169.876 294.412 165.24 284.741 163.67 280.264C162.621 277.131 162.128 273.628 162.237 270.08C162.491 265.905 163.846 261.996 166.004 259.214C168.161 256.431 170.945 255.002 173.744 255.24L173.8 255.244C176.595 255.493 179.175 257.383 180.974 260.502C182.774 263.62 183.648 267.713 183.404 271.886C183.088 275.426 182.179 278.818 180.762 281.751C178.761 285.714 173.394 293.955 171.797 296.371L171.209 297.244L170.798 296.285Z" fill="white"/>
<path d="M173.743 256.166C176.375 256.395 178.805 258.173 180.498 261.111C182.192 264.048 183.01 267.905 182.774 271.833C182.463 275.187 181.6 278.4 180.262 281.184C178.164 285.356 172.22 294.429 171.351 295.754L171.32 295.8L171.295 295.749C170.592 294.287 165.793 284.301 164.217 279.824C163.226 276.839 162.757 273.51 162.852 270.136C162.97 268.189 163.343 266.283 163.951 264.527C164.559 262.771 165.39 261.199 166.395 259.902C167.401 258.604 168.562 257.606 169.812 256.964C171.063 256.322 172.378 256.049 173.683 256.16L173.748 256.166L173.743 256.166ZM173.861 254.307L173.796 254.301C170.831 254.054 167.883 255.572 165.598 258.521C163.313 261.471 161.877 265.611 161.606 270.034C161.491 273.76 162.007 277.437 163.107 280.728C164.707 285.25 169.337 294.934 170.266 296.856L170.264 296.891L171.093 298.685L172.193 297.108L172.224 297.061C173.827 294.618 179.221 286.33 181.249 282.299C182.731 279.218 183.679 275.655 184.006 271.941C184.269 267.515 183.344 263.172 181.435 259.864C179.527 256.557 176.79 254.555 173.824 254.297L173.861 254.307Z" fill="white"/>
<path d="M182.525 273.253C176.787 276.829 172.074 283.401 169.295 291.701C170.22 293.679 170.956 295.22 171.207 295.725L171.232 295.776L171.263 295.729C172.131 294.405 178.078 285.333 180.175 281.169C181.315 278.784 182.115 276.089 182.525 273.253V273.253Z" fill="#39B54A"/>
<path d="M182.689 271.849C182.164 271.752 181.633 271.68 181.095 271.634C175.063 271.096 169.038 273.914 164.182 279.544L164.269 279.802C164.663 280.97 165.309 282.515 166.027 284.178C170.416 277.252 176.365 273.013 182.65 272.332C182.661 272.159 182.67 272.007 182.678 271.869L182.689 271.849Z" fill="#39B54A"/>
<path d="M163.988 278.895C165.036 277.737 166.139 276.699 167.289 275.791C165.941 274.188 164.476 272.809 162.922 271.677C162.988 274.172 163.349 276.615 163.988 278.895V278.895Z" fill="#8DC63F"/>
<path d="M162.963 271.54C164.584 272.63 166.112 273.987 167.522 275.587C168.271 275.009 169.039 274.487 169.822 274.024C167.667 272.434 165.353 271.342 162.958 270.783C162.958 271.012 162.957 271.261 162.963 271.54Z" fill="#8DC63F"/>
<path d="M162.989 270.217L162.962 270.669C165.469 271.136 167.898 272.181 170.162 273.766C171.064 273.26 171.983 272.832 172.915 272.484C169.823 270.45 166.394 269.679 162.978 270.251L162.989 270.217Z" fill="#8DC63F"/>
<path d="M166.329 269.605C168.761 269.815 171.129 270.71 173.308 272.245C175.678 271.405 178.106 271.087 180.515 271.3C181.284 271.367 182.042 271.486 182.789 271.658C183.009 267.762 182.188 263.945 180.506 261.04C178.823 258.136 176.415 256.38 173.809 256.157L173.758 256.153C171.178 255.933 168.61 257.231 166.605 259.77C164.599 262.309 163.315 265.887 163.028 269.735C164.127 269.553 165.231 269.51 166.329 269.605V269.605Z" fill="white"/>
<path d="M182.557 273.085C182.571 272.863 182.611 272.657 182.632 272.47C176.38 273.4 170.523 277.833 166.248 284.87C167.146 286.932 168.151 289.135 169.031 291.027C171.946 282.823 176.767 276.429 182.557 273.085V273.085Z" fill="#39B54A"/>
<path d="M170.657 257.031L174.125 251.733L176.914 257.576L170.657 257.031Z" fill="#FBB040"/>
<path d="M174.029 253.172L175.642 256.53L172.045 256.217L174.029 253.172ZM174.205 250.29L173.175 251.899L171.168 254.942L169.272 257.842L178.19 258.619L176.688 255.423L175.061 252.064L174.205 250.29Z" fill="white"/>
<path d="M174.703 256.242L173.993 253.241L172.935 256.088C170.987 256.181 169.081 257.123 167.455 258.799C165.828 260.475 164.553 262.81 163.788 265.514L182.615 267.152C182.186 264.343 181.206 261.811 179.8 259.871C178.393 257.931 176.621 256.669 174.703 256.242V256.242Z" fill="#FBB040"/>
<path d="M305.055 330.645C304.708 328.89 307.038 326.113 306.103 323.355C305.168 320.596 296.738 297.83 296.738 297.83L303.344 296.164L313.478 327.265C313.478 327.265 317.84 333.838 317.755 341.377C317.67 348.915 316 351.214 315.3 347.557C314.599 343.9 312.974 334.528 312.974 334.528C312.974 334.528 313.301 351.202 311.353 350.415C309.404 349.627 308.748 334.004 308.748 334.004C308.748 334.004 306.388 351.405 305.057 347.779C303.73 344.154 305.403 332.4 305.055 330.645Z" fill="#EB996E"/>
<path d="M276.908 332.334C276.56 330.579 278.89 327.802 277.956 325.043C277.021 322.285 268.591 299.519 268.591 299.519L274.751 298.164L285.331 328.953C285.331 328.953 289.693 335.527 289.608 343.065C289.523 350.603 287.852 352.903 287.152 349.246C286.451 345.589 284.827 336.217 284.827 336.217C284.827 336.217 285.154 352.891 283.205 352.104C281.256 351.316 280.601 335.692 280.601 335.692C280.601 335.692 278.241 353.094 276.91 349.468C275.582 345.842 277.254 334.088 276.908 332.334Z" fill="#EB996E"/>
<path d="M292.182 170.773C290.491 170.074 288.921 168.875 288.023 167.169C287.125 165.463 287.005 163.216 287.987 161.567C288.446 160.798 289.136 160.137 289.286 159.236C289.365 158.756 289.279 158.258 289.338 157.773C289.399 157.289 289.684 156.769 290.132 156.729C290.473 156.699 290.781 156.954 291.118 157.013C291.789 157.132 292.373 156.451 292.584 155.749C292.796 155.047 292.778 154.28 293.005 153.584C293.232 152.887 293.853 152.234 294.515 152.404C295.163 152.57 295.451 153.406 295.475 154.127C295.498 154.849 295.37 155.606 295.628 156.272C295.886 156.938 296.783 157.367 297.218 156.82C297.417 156.571 297.445 156.212 297.423 155.883C297.345 154.741 296.786 153.693 296.662 152.557C296.538 151.42 297.153 150.007 298.206 150.048C298.791 150.071 299.292 150.561 299.545 151.133C299.799 151.706 299.852 152.355 299.903 152.988C299.982 151.197 300.173 149.412 300.473 147.649C300.606 146.866 300.929 145.915 301.66 145.849C302.378 145.785 302.868 146.709 302.808 147.487C302.748 148.266 302.349 148.962 302.146 149.711C301.942 150.461 302.014 151.424 302.635 151.817C303.392 152.295 304.36 151.548 304.693 150.669C305.025 149.79 304.997 148.792 305.31 147.904C305.624 147.017 306.546 146.227 307.331 146.646C307.863 146.93 308.077 147.663 308 148.302C307.923 148.941 307.619 149.515 307.351 150.09C307.136 150.55 306.955 151.154 307.27 151.541C307.569 151.905 308.151 151.802 308.473 151.46C308.795 151.12 308.926 150.626 309.056 150.159C309.264 149.411 309.523 148.634 310.077 148.133C310.63 147.634 311.564 147.553 312.012 148.164C312.489 148.812 312.183 149.753 311.928 150.535C311.673 151.317 311.582 152.386 312.249 152.788C313.146 153.329 314.042 152.007 315.044 151.768C315.796 151.588 316.634 152.156 316.814 152.97C316.995 153.783 316.487 154.704 315.741 154.916C316.369 154.483 317.244 155.171 317.347 155.971C317.45 156.772 317.047 157.539 316.625 158.203C315.717 159.631 314.622 160.952 313.256 161.852C311.889 162.752 310.224 163.199 308.663 162.826" fill="#E8505B"/>
<g opacity="0.3">
<path opacity="0.3" d="M309.602 162.54C310.145 162.172 309.941 161.186 309.411 160.798C308.881 160.408 308.199 160.407 307.565 160.312C306.931 160.217 306.228 159.938 306.002 159.288C305.818 158.761 306.012 158.181 306.072 157.621C306.133 157.061 305.938 156.351 305.425 156.271C304.79 156.171 304.435 157.092 303.835 157.337C303.347 157.536 302.821 157.249 302.31 157.139C301.158 156.888 300.02 157.541 298.998 158.171C297.277 159.232 295.526 160.32 294.192 161.91C292.859 163.498 291.99 165.701 292.396 167.804C293.764 164.609 296.419 162.096 299.52 161.059C302.621 160.022 306.118 160.479 308.903 162.286" fill="black"/>
</g>
<path d="M305.78 160.753C305.78 160.753 311.023 162.778 312.301 165.259C313.58 167.74 330.22 206.092 331.107 210.373C331.993 214.655 340.771 222.61 340.754 227.7C340.737 232.792 341.569 257.69 322.666 275.95C322.666 275.95 310.548 299.466 304.044 300.813C297.54 302.159 290.186 294.641 290.186 294.641C290.186 294.641 275.247 301.502 269.379 301.29C263.511 301.077 243.204 286.578 240.892 281.86C238.581 277.141 240.229 266.368 240.229 266.368C240.229 266.368 230.391 271.955 232.768 267.253C235.144 262.553 243.45 253.989 243.45 253.989C243.45 253.989 230.984 258.435 234.308 253.942C237.631 249.448 243.526 244.824 243.526 244.824C243.526 244.824 237.815 242.821 238.561 232.859C238.561 232.859 221.577 213.865 231.215 209.052C231.215 209.052 226.782 198.586 230.426 196.113C230.426 196.113 225.336 186.699 230.563 182.873C235.789 179.046 238.144 184.78 245.964 192.275L248.623 194.176C248.623 194.176 253.11 194.968 256.259 197.354C259.408 199.74 267.185 206.219 267.185 206.219C267.185 206.219 280.923 209.597 285.523 207.584C290.124 205.571 295.872 192.046 295.872 192.046C295.872 192.046 290.602 172.971 292.256 167.798C293.909 162.625 300.448 157.683 305.78 160.753Z" fill="#FAFAFA"/>
<path d="M305.782 160.753C305.782 160.753 305.582 160.64 305.178 160.438C304.978 160.333 304.728 160.205 304.403 160.123C304.085 160.024 303.718 159.889 303.28 159.851C301.571 159.529 298.777 159.968 296.048 162.216C294.695 163.32 293.37 164.882 292.467 166.941C291.543 169.06 291.807 171.65 292.059 174.263C292.68 179.551 293.983 185.513 295.719 192.096L295.726 191.974C294.625 194.469 293.367 197.054 291.888 199.638C291.152 200.932 290.352 202.224 289.455 203.47C288.559 204.709 287.578 205.954 286.345 206.864C285.123 207.786 283.523 207.909 281.977 207.996C280.41 208.05 278.809 207.926 277.188 207.76C273.947 207.407 270.616 206.785 267.232 205.992L267.315 206.035C264.554 203.789 261.71 201.476 258.788 199.1C258.058 198.506 257.322 197.908 256.582 197.307C255.828 196.708 254.993 196.203 254.134 195.773C252.407 194.919 250.575 194.312 248.662 193.924L248.753 193.963C247.947 193.385 247.025 192.724 246.096 192.059L246.122 192.08C244.217 190.26 242.396 188.263 240.532 186.227C239.591 185.216 238.654 184.178 237.589 183.248C236.538 182.348 235.296 181.425 233.809 181.402C232.336 181.377 230.997 182.125 229.9 183.112C228.776 184.122 228.125 185.684 228 187.25C227.858 188.825 228.109 190.399 228.51 191.902C228.92 193.411 229.491 194.855 230.201 196.256L230.288 195.871C229.329 196.508 228.887 197.743 228.779 198.879C228.653 200.041 228.772 201.212 228.959 202.366C229.361 204.678 230.077 206.95 230.97 209.172L231.102 208.785C230.131 209.284 229.204 210.042 228.642 211.113C228.072 212.176 227.921 213.444 228.017 214.638C228.236 217.045 229.154 219.282 230.219 221.384C232.4 225.589 235.238 229.434 238.36 233.069L238.282 232.832C238.121 235.044 238.213 237.438 238.979 239.722C239.719 241.986 241.213 244.13 243.439 245.115L243.359 244.571C240.291 247.069 237.225 249.813 234.547 253.144C234.229 253.57 233.867 253.965 233.61 254.532C233.508 254.818 233.365 255.185 233.554 255.603C233.766 256.005 234.11 256.094 234.377 256.171C235.491 256.38 236.505 256.162 237.529 255.985C239.564 255.572 241.555 254.968 243.54 254.284L243.25 253.758C240.249 256.919 237.232 260.25 234.486 263.98C233.82 264.932 233.144 265.884 232.593 266.955C232.451 267.218 232.314 267.504 232.217 267.82C232.138 268.131 232.011 268.515 232.236 268.952C232.494 269.374 232.909 269.423 233.203 269.444C233.517 269.456 233.807 269.407 234.093 269.354C236.335 268.805 238.343 267.729 240.365 266.644L239.944 266.312C239.905 266.595 239.864 266.904 239.823 267.211C239.435 270.492 239.225 273.795 239.495 277.086C239.648 278.724 239.908 280.383 240.599 281.911C240.79 282.279 241.036 282.617 241.255 282.971C241.498 283.295 241.767 283.583 242.021 283.891C242.529 284.508 243.111 285.018 243.652 285.586C245.909 287.723 248.31 289.621 250.74 291.428C253.176 293.229 255.653 294.931 258.175 296.51C260.709 298.065 263.272 299.543 265.978 300.667C266.64 300.982 267.365 301.143 268.054 301.387L269.159 301.563C269.527 301.631 269.891 301.562 270.257 301.567C271.706 301.46 273.118 301.18 274.496 300.809C277.26 300.093 279.935 299.147 282.562 298.143C285.189 297.134 287.765 296.059 290.297 294.915L289.998 294.857C291.518 296.332 293.142 297.617 294.881 298.696C296.619 299.761 298.464 300.659 300.43 301.052C301.413 301.22 302.417 301.336 303.411 301.186C304.413 301.156 305.407 300.654 306.218 300.084C307.863 298.896 309.211 297.383 310.485 295.847C313.01 292.744 315.17 289.42 317.214 286.103C319.247 282.776 321.133 279.434 322.89 276.081L322.837 276.153C326.21 272.782 329.179 269.1 331.642 265.152C334.051 261.168 335.939 256.958 337.366 252.698C340.226 244.155 341.133 235.457 340.937 227.382C340.751 225.256 339.692 223.513 338.702 221.896C337.677 220.279 336.564 218.783 335.481 217.313C334.401 215.841 333.322 214.408 332.424 212.898C332.003 212.135 331.551 211.37 331.355 210.542C331.114 209.698 330.857 208.826 330.549 208.027C328.135 201.542 325.635 195.732 323.421 190.456C318.948 179.929 315.346 171.696 312.803 166.121C312.485 165.43 312.162 164.755 311.686 164.277C311.227 163.791 310.745 163.414 310.29 163.082C309.369 162.435 308.539 161.994 307.868 161.655C306.518 160.991 305.782 160.753 305.782 160.753C305.782 160.753 305.957 160.837 306.304 160.993C306.651 161.15 307.166 161.389 307.833 161.738C308.496 162.089 309.318 162.54 310.223 163.193C310.669 163.529 311.144 163.907 311.586 164.386C312.045 164.856 312.346 165.502 312.66 166.201C315.155 171.794 318.716 180.051 323.147 190.594C325.339 195.875 327.823 201.705 330.209 208.172C330.518 208.988 330.754 209.794 330.996 210.651C331.213 211.559 331.674 212.333 332.105 213.121C333.017 214.666 334.096 216.104 335.173 217.581C336.252 219.055 337.357 220.549 338.364 222.148C339.341 223.738 340.359 225.478 340.515 227.413C340.692 235.413 339.773 244.069 336.922 252.529C335.499 256.751 333.623 260.919 331.23 264.861C328.786 268.768 325.84 272.409 322.495 275.743L322.463 275.776L322.441 275.816C320.69 279.147 318.802 282.485 316.775 285.794C314.736 289.093 312.579 292.402 310.081 295.464C308.824 296.978 307.488 298.467 305.921 299.594C305.121 300.139 304.304 300.571 303.348 300.603C302.419 300.745 301.464 300.632 300.527 300.473C298.647 300.096 296.849 299.225 295.152 298.182C293.456 297.13 291.843 295.849 290.375 294.422L290.238 294.29L290.075 294.364C287.559 295.499 284.985 296.57 282.37 297.572C279.755 298.57 277.09 299.509 274.36 300.215C273 300.582 271.61 300.853 270.223 300.955C269.88 300.949 269.527 301.017 269.191 300.951L268.179 300.79C267.513 300.551 266.826 300.402 266.173 300.092C263.526 298.99 260.974 297.521 258.458 295.974C255.95 294.403 253.486 292.709 251.064 290.917C248.647 289.118 246.258 287.228 244.033 285.12C243.506 284.566 242.925 284.056 242.439 283.465C242.197 283.171 241.933 282.888 241.706 282.586C241.511 282.265 241.289 281.965 241.112 281.63C240.479 280.235 240.217 278.63 240.071 277.035C239.806 273.825 240.012 270.545 240.396 267.304C240.437 267.003 240.477 266.702 240.515 266.424L240.596 265.821L240.093 266.093C238.12 267.158 236.077 268.233 233.985 268.742C233.501 268.854 232.85 268.87 232.732 268.633C232.592 268.38 232.844 267.735 233.098 267.273C233.621 266.254 234.289 265.312 234.942 264.377C237.651 260.694 240.667 257.361 243.647 254.221L244.53 253.291L243.357 253.695C241.4 254.37 239.414 254.974 237.424 255.377C236.443 255.558 235.4 255.744 234.504 255.57C233.477 255.461 234.372 254.316 234.982 253.555C237.601 250.293 240.66 247.546 243.69 245.079L244.095 244.749L243.611 244.535C241.658 243.673 240.19 241.657 239.506 239.519C238.778 237.357 238.681 235.045 238.838 232.888L238.848 232.753L238.759 232.651C235.673 229.065 232.841 225.229 230.697 221.101C229.647 219.04 228.761 216.849 228.557 214.596C228.467 213.479 228.609 212.344 229.11 211.411C229.601 210.471 230.422 209.79 231.325 209.323L231.563 209.199L231.457 208.935C230.583 206.769 229.869 204.51 229.479 202.269C229.295 201.15 229.185 200.022 229.3 198.952C229.403 197.892 229.791 196.869 230.563 196.358L230.772 196.22L230.65 195.973C229.324 193.294 228.291 190.269 228.509 187.31C228.628 185.845 229.214 184.454 230.23 183.533C231.234 182.619 232.516 181.917 233.792 181.95C235.091 181.958 236.255 182.794 237.278 183.672C238.311 184.569 239.247 185.601 240.184 186.607C242.047 188.637 243.884 190.644 245.805 192.473L245.818 192.485L245.832 192.495C246.761 193.158 247.686 193.817 248.493 194.394L248.533 194.422L248.586 194.432C250.44 194.805 252.261 195.404 253.942 196.232C255.647 197.013 257.051 198.333 258.526 199.502C261.449 201.867 264.294 204.171 267.054 206.406L267.095 206.439L267.137 206.449C270.545 207.238 273.882 207.852 277.148 208.2C278.781 208.362 280.395 208.483 281.99 208.423C282.787 208.382 283.577 208.317 284.356 208.151C284.747 208.095 285.123 207.919 285.503 207.809C285.865 207.639 286.216 207.421 286.553 207.208C287.849 206.242 288.834 204.973 289.74 203.717C290.645 202.451 291.447 201.147 292.184 199.842C293.664 197.234 294.917 194.643 296.017 192.124L296.043 192.066L296.025 192C294.273 185.443 292.947 179.49 292.305 174.235C292.039 171.631 291.776 169.079 292.657 167.039C293.529 165.02 294.824 163.465 296.151 162.367C298.827 160.126 301.574 159.661 303.267 159.949C304.99 160.217 305.763 160.824 305.782 160.753Z" fill="#263238"/>
<path d="M318.74 245.198C318.751 245.212 318.947 245.05 319.295 244.744C319.647 244.444 320.126 243.969 320.686 243.348C321.809 242.11 323.194 240.2 324.295 237.822C325.39 235.438 325.971 233.09 326.211 231.373C326.333 230.514 326.397 229.813 326.408 229.327C326.424 228.841 326.427 228.574 326.411 228.573C326.395 228.572 326.363 228.839 326.317 229.32C326.279 229.8 326.191 230.495 326.049 231.342C325.769 233.039 325.171 235.351 324.088 237.709C322.997 240.061 321.651 241.966 320.566 243.225C320.026 243.857 319.567 244.348 319.235 244.67C318.907 244.997 318.73 245.185 318.74 245.198Z" fill="#263238"/>
<path d="M314.742 249.485C314.745 249.502 314.913 249.477 315.215 249.414C315.517 249.355 315.95 249.241 316.476 249.075C317.531 248.745 318.959 248.152 320.419 247.252C321.878 246.348 323.077 245.317 323.876 244.501C324.277 244.093 324.587 243.748 324.789 243.497C324.992 243.247 325.098 243.103 325.086 243.091C325.057 243.062 324.59 243.593 323.767 244.367C322.946 245.143 321.746 246.138 320.305 247.031C318.861 247.921 317.461 248.532 316.428 248.904C315.393 249.278 314.733 249.443 314.742 249.485Z" fill="#263238"/>
<path d="M306.578 255.751C306.578 255.768 306.705 255.778 306.934 255.78C307.163 255.785 307.494 255.767 307.901 255.722C308.715 255.634 309.837 255.399 311.013 254.926C312.188 254.452 313.181 253.837 313.851 253.327C314.186 253.072 314.449 252.852 314.62 252.687C314.792 252.523 314.883 252.427 314.873 252.414C314.849 252.381 314.448 252.713 313.761 253.178C313.076 253.644 312.089 254.222 310.932 254.69C309.775 255.153 308.68 255.412 307.88 255.544C307.08 255.677 306.577 255.71 306.578 255.751Z" fill="#263238"/>
<path d="M284.491 228.686C284.535 228.659 284.073 227.865 283.574 226.465C283.072 225.07 282.603 223.034 282.58 220.743C282.568 218.452 283.008 216.407 283.488 215.003C283.966 213.595 284.415 212.792 284.372 212.767C284.358 212.758 284.243 212.955 284.046 213.322C283.843 213.684 283.595 214.237 283.334 214.94C282.807 216.344 282.333 218.417 282.347 220.746C282.369 223.073 282.873 225.138 283.42 226.531C283.692 227.23 283.948 227.78 284.156 228.138C284.359 228.5 284.477 228.695 284.491 228.686Z" fill="#263238"/>
<path d="M277.652 221.869C277.686 221.88 277.843 221.391 278.127 220.616C278.41 219.84 278.835 218.785 279.393 217.667C279.952 216.55 280.536 215.588 280.98 214.907C281.424 214.226 281.717 213.817 281.69 213.792C281.669 213.772 281.33 214.141 280.848 214.8C280.367 215.458 279.754 216.416 279.188 217.546C278.624 218.676 278.219 219.757 277.973 220.553C277.724 221.351 277.624 221.861 277.652 221.869Z" fill="#263238"/>
<path d="M252.852 227.841C252.859 227.846 252.92 227.767 253.033 227.612C253.182 227.401 253.341 227.178 253.514 226.931C253.92 226.331 254.546 225.495 255.355 224.498C256.969 222.502 259.436 219.952 262.55 217.705C265.67 215.469 268.797 213.998 271.118 213.164C272.279 212.744 273.233 212.444 273.899 212.273C274.175 212.195 274.427 212.125 274.664 212.058C274.838 212.006 274.929 211.974 274.928 211.966C274.928 211.966 273.416 212.193 271.067 212.993C268.721 213.787 265.562 215.242 262.42 217.493C259.286 219.754 256.819 222.344 255.23 224.379C253.635 226.418 252.852 227.841 252.852 227.841Z" fill="#263238"/>
<path d="M244.006 199.309C244.023 199.342 244.471 199.086 245.197 198.684C245.922 198.291 246.936 197.738 248.141 197.477C249.345 197.221 250.481 197.421 251.208 197.778C251.945 198.129 252.286 198.558 252.316 198.52C252.326 198.51 252.251 198.396 252.086 198.221C251.922 198.045 251.65 197.821 251.277 197.617C250.538 197.2 249.35 196.961 248.096 197.229C246.847 197.5 245.828 198.092 245.119 198.527C244.409 198.972 243.992 199.282 244.006 199.309Z" fill="#263238"/>
<path d="M240.36 209.794C240.41 209.783 240.143 209.016 240.161 207.737C240.169 206.478 240.56 204.662 241.74 203.189C242.926 201.723 244.531 201.058 245.679 200.882C246.844 200.692 247.579 200.876 247.583 200.82C247.586 200.807 247.407 200.752 247.076 200.703C246.745 200.653 246.255 200.63 245.658 200.704C244.476 200.839 242.801 201.497 241.566 203.022C240.339 204.554 239.963 206.446 239.998 207.735C240.01 208.389 240.095 208.912 240.186 209.262C240.275 209.614 240.349 209.798 240.36 209.794Z" fill="#263238"/>
<path d="M239.961 213.361C239.948 213.358 239.896 213.575 239.844 213.975C239.79 214.376 239.752 214.964 239.788 215.689C239.849 217.127 240.304 219.163 241.52 220.972C242.737 222.78 244.384 223.87 245.628 224.372C246.253 224.629 246.779 224.769 247.147 224.834C247.515 224.901 247.721 224.913 247.722 224.9C247.732 224.848 246.905 224.754 245.689 224.205C244.482 223.67 242.893 222.582 241.707 220.822C240.524 219.062 240.054 217.086 239.951 215.675C239.839 214.251 240.009 213.367 239.961 213.361Z" fill="#263238"/>
<path d="M240.231 210.213C240.216 210.21 240.191 210.339 240.162 210.577C240.126 210.814 240.117 211.164 240.144 211.591C240.193 212.447 240.481 213.632 241.141 214.743C241.807 215.852 242.686 216.619 243.386 217.018C243.734 217.219 244.032 217.353 244.245 217.413C244.457 217.48 244.575 217.509 244.58 217.492C244.594 217.446 244.128 217.293 243.467 216.862C242.806 216.436 241.979 215.676 241.336 214.606C240.699 213.533 240.397 212.402 240.307 211.574C240.214 210.742 240.276 210.218 240.231 210.213Z" fill="#263238"/>
<path d="M230.323 191.84C230.31 191.851 230.44 192.055 230.686 192.413C230.933 192.771 231.295 193.286 231.757 193.91C232.682 195.154 233.996 196.867 235.727 198.452C237.458 200.039 239.315 201.077 240.735 201.538C241.444 201.776 242.035 201.899 242.446 201.952C242.856 202.006 243.085 202.01 243.086 201.996C243.094 201.944 242.173 201.883 240.785 201.369C239.398 200.87 237.585 199.826 235.874 198.258C234.163 196.692 232.837 195.008 231.882 193.797C231.484 193.286 231.112 192.809 230.755 192.352C230.489 192.012 230.335 191.829 230.323 191.84Z" fill="#263238"/>
<path d="M233.794 186.558C233.779 186.567 233.854 186.754 234.003 187.088C234.148 187.424 234.385 187.895 234.703 188.462C235.335 189.598 236.34 191.09 237.667 192.52C238.999 193.947 240.383 195.024 241.434 195.698C241.96 196.037 242.396 196.289 242.707 196.444C243.015 196.601 243.19 196.68 243.196 196.664C243.215 196.624 242.541 196.255 241.52 195.545C240.498 194.837 239.146 193.752 237.83 192.339C236.518 190.925 235.505 189.468 234.841 188.365C234.177 187.265 233.831 186.538 233.794 186.558Z" fill="#263238"/>
<path d="M230.886 208.468C230.878 208.482 230.985 208.573 231.186 208.726C231.386 208.882 231.689 209.085 232.074 209.315C232.843 209.778 233.965 210.313 235.269 210.68C236.573 211.043 237.794 211.162 238.673 211.16C239.113 211.16 239.468 211.14 239.713 211.11C239.958 211.082 240.092 211.058 240.09 211.041C240.088 210.999 239.547 211.026 238.678 210.981C237.809 210.937 236.611 210.793 235.327 210.436C234.043 210.075 232.929 209.575 232.15 209.157C231.37 208.74 230.908 208.433 230.886 208.468Z" fill="#263238"/>
<path d="M233.698 222.965C233.691 222.981 233.818 223.06 234.054 223.19C234.289 223.322 234.64 223.491 235.082 223.679C235.964 224.056 237.228 224.47 238.663 224.698C240.1 224.924 241.42 224.92 242.364 224.833C242.837 224.79 243.218 224.737 243.478 224.684C243.739 224.633 243.882 224.596 243.88 224.578C243.874 224.537 243.295 224.614 242.356 224.654C241.417 224.696 240.116 224.67 238.698 224.448C237.281 224.221 236.028 223.842 235.14 223.511C234.249 223.183 233.713 222.928 233.698 222.965Z" fill="#263238"/>
<path d="M306.539 282.519C306.54 282.536 306.793 282.533 307.252 282.514C307.712 282.502 308.375 282.429 309.187 282.289C310.81 282.016 313.03 281.354 315.272 280.109C317.511 278.854 319.298 277.279 320.449 276.006C321.026 275.369 321.466 274.827 321.744 274.428C322.025 274.035 322.175 273.813 322.163 273.802C322.151 273.791 321.976 273.992 321.674 274.365C321.378 274.743 320.921 275.264 320.334 275.878C319.163 277.109 317.38 278.643 315.165 279.884C312.947 281.116 310.762 281.798 309.159 282.113C308.357 282.274 307.701 282.373 307.245 282.416C306.79 282.465 306.539 282.502 306.539 282.519Z" fill="#263238"/>
<path d="M296.327 288.269C296.331 288.286 296.552 288.227 296.952 288.103C297.352 287.987 297.919 287.769 298.602 287.458C299.97 286.84 301.781 285.738 303.49 284.112C305.194 282.479 306.433 280.67 307.172 279.276C307.544 278.58 307.815 277.997 307.972 277.58C308.135 277.166 308.218 276.936 308.204 276.928C308.189 276.921 308.077 277.14 307.891 277.538C307.709 277.939 307.418 278.505 307.031 279.183C306.261 280.542 305.018 282.309 303.335 283.921C301.648 285.526 299.874 286.64 298.535 287.294C297.866 287.623 297.312 287.865 296.923 288.01C296.536 288.16 296.322 288.252 296.327 288.269Z" fill="#263238"/>
<path d="M278.006 293.258C278.006 293.275 278.267 293.292 278.743 293.307C279.218 293.329 279.907 293.311 280.754 293.244C282.449 293.115 284.788 292.688 287.238 291.737C289.687 290.778 291.742 289.491 293.124 288.418C293.818 287.884 294.359 287.422 294.713 287.077C295.071 286.737 295.263 286.544 295.253 286.53C295.243 286.517 295.031 286.686 294.656 287C294.286 287.32 293.733 287.758 293.032 288.27C291.634 289.298 289.586 290.547 287.16 291.498C284.731 292.44 282.421 292.892 280.74 293.064C279.899 293.153 279.214 293.198 278.741 293.206C278.268 293.224 278.007 293.241 278.006 293.258Z" fill="#263238"/>
<path d="M287.799 181.553C287.878 180.862 287.978 180.229 288.276 179.55C288.532 178.967 288.59 178.464 289.513 178.308L296.702 176.517C297.734 178.659 300.272 184.5 301.134 186.544C301.996 188.589 303.56 190.956 303.597 193.204C303.634 195.452 302.442 197.91 300.416 198.375C298.643 198.782 296.831 197.521 295.876 195.849C294.922 194.177 294.635 192.169 294.369 190.222C293.285 191.157 292.019 192.148 290.652 191.908C289.666 191.734 288.851 190.917 288.391 189.953C287.932 188.989 287.78 187.89 287.698 186.808C287.566 185.058 287.6 183.294 287.799 181.553Z" fill="#E8505B"/>
<path d="M302.407 169.356C302.451 170.404 303.271 171.215 304.236 171.167C305.201 171.118 305.948 170.228 305.903 169.18C305.858 168.132 305.039 167.321 304.074 167.37C303.109 167.418 302.362 168.308 302.407 169.356Z" fill="#263238"/>
<path d="M311.25 187.088C311.239 187.096 311.32 187.289 311.53 187.592C311.739 187.895 312.087 188.31 312.618 188.681C312.881 188.861 313.193 189.059 313.582 189.115C313.773 189.143 313.994 189.125 314.19 189.001C314.388 188.879 314.518 188.645 314.57 188.414C314.729 187.495 314.608 186.48 314.235 185.509L314.234 185.506C313.829 185.75 314.122 185.575 314.032 185.63L314.036 185.635L314.043 185.645L314.056 185.664L314.082 185.704L314.135 185.783L314.245 185.937L314.476 186.23C314.635 186.418 314.803 186.592 314.977 186.751C315.326 187.055 315.684 187.37 316.139 187.45C316.36 187.493 316.622 187.425 316.78 187.239C316.942 187.057 316.992 186.822 317.016 186.62C317.048 186.206 317.016 185.838 316.969 185.498C316.871 184.821 316.672 184.305 316.516 183.969C316.355 183.631 316.234 183.466 316.223 183.475C316.176 183.494 316.642 184.202 316.806 185.523C316.841 185.847 316.861 186.22 316.825 186.593C316.801 186.968 316.552 187.31 316.172 187.219C315.806 187.155 315.459 186.861 315.126 186.561C314.961 186.407 314.801 186.241 314.649 186.06L314.428 185.779L314.323 185.632L314.272 185.557L314.247 185.519L314.235 185.5L314.228 185.49L314.225 185.485C314.134 185.54 314.425 185.36 314.021 185.606L314.022 185.608C314.381 186.522 314.497 187.529 314.365 188.355C314.292 188.77 313.944 188.963 313.605 188.906C313.265 188.868 312.967 188.696 312.706 188.528C311.659 187.833 311.289 187.047 311.25 187.088Z" fill="#263238"/>
<path d="M299.947 194.386C299.947 194.386 299.951 194.131 299.836 193.693C299.72 193.254 299.457 192.657 299.1 191.953C298.764 191.25 298.283 190.4 298.266 189.364C298.249 188.851 298.411 188.321 298.487 187.733C298.587 187.147 298.465 186.467 298.138 185.938C297.827 185.399 297.424 184.976 297.092 184.534C296.755 184.094 296.466 183.639 296.224 183.183C295.742 182.27 295.438 181.372 295.258 180.599C294.904 179.045 294.983 178.034 294.932 178.037C294.932 178.037 294.887 178.285 294.891 178.738C294.894 179.19 294.935 179.848 295.097 180.641C295.259 181.432 295.553 182.358 296.036 183.299C296.279 183.769 296.572 184.239 296.915 184.691C297.255 185.147 297.649 185.568 297.941 186.073C298.242 186.574 298.348 187.143 298.26 187.702C298.193 188.259 298.03 188.81 298.051 189.369C298.086 190.493 298.605 191.349 298.957 192.041C299.333 192.735 299.61 193.305 299.751 193.725C299.889 194.142 299.924 194.39 299.947 194.386Z" fill="#263238"/>
<path d="M292.179 189.167C292.189 189.169 292.238 189.016 292.255 188.727C292.277 188.438 292.241 188.013 292.115 187.515C291.995 187.016 291.785 186.448 291.605 185.814C291.421 185.184 291.299 184.453 291.497 183.734C291.698 183.019 292.085 182.372 292.206 181.68C292.342 181.001 292.3 180.366 292.194 179.861C292.087 179.353 291.917 178.971 291.779 178.726C291.641 178.479 291.537 178.364 291.528 178.371C291.485 178.395 291.862 178.909 292.033 179.897C292.114 180.387 292.136 180.99 291.997 181.629C291.876 182.271 291.495 182.892 291.273 183.663C291.055 184.451 291.2 185.248 291.4 185.884C291.596 186.531 291.819 187.084 291.956 187.565C292.258 188.527 292.133 189.164 292.179 189.167Z" fill="#263238"/>
<g opacity="0.3">
<path opacity="0.3" d="M300.119 193.985C300.21 193.245 299.83 192.537 299.415 191.941C299 191.344 298.523 190.758 298.368 190.031C298.122 188.875 298.752 187.641 298.45 186.501C298.237 185.698 297.611 185.123 297.092 184.506C295.717 182.869 294.969 180.629 295.06 178.415C295.067 178.217 295.081 178.012 295.01 177.83C294.94 177.648 294.753 177.501 294.58 177.56C294.379 177.628 294.32 177.904 294.298 178.132C294.17 179.384 294.041 180.644 294.12 181.901C294.2 183.158 294.501 184.424 295.164 185.458C295.597 186.135 296.181 186.705 296.512 187.448C297.162 188.906 296.757 190.833 297.722 192.069C298.358 192.884 299.447 193.176 300.025 194.039" fill="black"/>
</g>
<g opacity="0.3">
<path opacity="0.3" d="M291.374 177.793C291.742 178.396 292.098 179.02 292.296 179.711C292.493 180.402 292.523 181.176 292.245 181.834C292.005 182.404 291.554 182.854 291.352 183.443C291.032 184.374 291.402 185.4 291.751 186.319C292.1 187.238 292.43 188.296 292.04 189.196C291.058 187.334 290.045 185.328 290.19 183.19C290.284 181.814 290.859 180.445 290.566 179.103C290.502 178.814 290.399 178.531 290.389 178.234C290.38 177.936 290.493 177.607 290.745 177.487C290.995 177.368 291.354 177.597 291.299 177.889" fill="black"/>
</g>
<path d="M296.329 178.125C293.507 177.866 290.638 178.215 287.94 179.15C287.94 177.702 288.07 176.225 288.6 174.896C289.13 173.566 290.108 172.392 291.378 171.952C293.01 171.386 294.831 172.126 296.128 173.341C296.583 173.768 297.01 174.285 297.14 174.922C297.388 176.146 297.149 177.245 296.329 178.125Z" fill="#EB996E"/>
<path d="M292.66 173.014C292.671 173.083 293.015 173.072 293.425 172.991C293.836 172.91 294.16 172.787 294.148 172.72C294.137 172.65 293.794 172.661 293.384 172.743C292.972 172.824 292.649 172.945 292.66 173.014Z" fill="#263238"/>
<path d="M296.247 244.239C292.179 250.458 287.052 255.859 281.204 260.087C276.05 263.812 270.115 266.68 263.924 266.616C257.733 266.552 251.313 263.029 248.812 256.879C248.45 255.988 248.168 255.015 248.293 254.051C248.419 253.087 249.048 252.145 249.931 251.976C250.71 251.828 251.466 252.281 252.162 252.687C258.672 256.482 266.584 257.336 273.654 255.005C280.724 252.675 286.865 247.191 290.335 240.107C289.978 241.074 289.615 242.107 289.783 243.133C289.95 244.159 290.88 245.112 291.804 244.83C292.323 244.672 292.693 244.189 293.03 243.731C294.79 241.335 296.55 238.939 298.309 236.543C298.235 239.973 298.519 241.453 296.034 244.559" fill="#E0E0E0"/>
<path d="M248.835 240.388C248.835 240.388 248.781 240.472 248.69 240.643C248.594 240.811 248.485 241.087 248.405 241.461C248.236 242.2 248.309 243.422 249.028 244.642C249.383 245.247 249.885 245.846 250.545 246.333C251.202 246.837 252.046 247.126 252.948 247.276C254.78 247.568 256.839 247.098 258.981 246.491L258.906 246.286C256.685 247.606 254.238 249.061 251.649 250.598L251.507 250.682L251.627 250.798C252.894 252.033 254.353 253.147 255.948 254.072C259.449 256.061 263.25 256.923 266.664 256.786C270.092 256.68 273.091 255.632 275.4 254.4C277.719 253.155 279.367 251.719 280.427 250.666C281.479 249.595 281.971 248.91 281.971 248.91C281.971 248.91 281.824 249.056 281.56 249.351C281.302 249.651 280.897 250.068 280.367 250.594C279.292 251.62 277.64 253.025 275.328 254.241C273.027 255.444 270.051 256.464 266.658 256.555C263.279 256.678 259.521 255.818 256.058 253.85C254.479 252.934 253.036 251.835 251.781 250.615L251.76 250.816C254.344 249.271 256.788 247.807 259.006 246.482L259.738 246.043L258.929 246.276C256.793 246.894 254.764 247.367 252.972 247.095C251.16 246.887 249.819 245.752 249.13 244.572C248.413 243.389 248.323 242.204 248.468 241.475C248.612 240.734 248.864 240.403 248.835 240.388Z" fill="#263238"/>
<path d="M322.122 273.901C317.767 280.277 313.179 286.872 306.666 290.478C305.536 291.105 304.282 291.644 303.027 291.439C301.771 291.235 300.578 290.028 300.727 288.659C294.491 292.158 287.459 293.964 280.44 293.874C285.947 292.468 290.418 291.372 295.329 288.324C298.426 288.544 303.551 284.724 306.011 281.441C309.221 284.266 319.336 277.911 322.122 273.901Z" fill="#E0E0E0"/>
<path d="M245.62 266.218L153.344 280.059L133.396 232.293C133.396 232.293 118.861 224.231 108.396 229.623C97.931 235.017 94.6179 249.928 94.6179 249.928L116.907 297.174C123.642 311.449 135.298 328.951 153.46 323.792L250.14 295.503L245.62 266.218Z" fill="#B78876"/>
<path d="M77.6554 213.427C74.5737 194.282 95.1792 175.629 111.123 184.458C117.377 187.921 124.683 199.033 127.038 204.641C132.907 218.613 140.03 240.173 140.03 240.173L104.202 261.649C99.8308 264.269 94.3328 262.346 92.2116 257.438C87.4605 246.439 79.9264 227.534 77.6554 213.427Z" fill="#455A64"/>
<path d="M81.1619 213.432C81.1295 213.434 81.1295 213.819 81.1586 214.552C81.1877 215.286 81.2279 216.37 81.3901 217.754C81.6629 220.528 82.3014 224.521 83.5079 229.337C84.6853 234.162 86.4766 239.773 88.4278 245.993C89.3972 249.105 90.3968 252.375 91.3081 255.8C91.8068 257.515 92.1222 259.231 92.5258 261.079C92.7472 261.989 93 262.919 93.4517 263.811C93.8956 264.668 94.666 265.6 95.7305 265.761C96.8498 265.97 97.6817 265.43 98.4957 265.106C99.3064 264.721 100.077 264.292 100.834 263.853C102.358 262.973 103.768 262.034 105.234 261.216C108.136 259.528 110.939 257.9 113.612 256.347C118.917 253.239 123.709 250.431 127.774 248.05C131.707 245.705 134.929 243.784 137.284 242.38C138.326 241.736 139.173 241.211 139.848 240.795C140.429 240.422 140.726 240.212 140.712 240.181C140.697 240.151 140.37 240.302 139.76 240.617C139.066 240.99 138.19 241.461 137.116 242.038C134.726 243.372 131.459 245.199 127.468 247.428C123.377 249.756 118.553 252.499 113.214 255.536C110.533 257.073 107.723 258.684 104.81 260.354C103.342 261.166 101.885 262.127 100.402 262.979C99.6575 263.409 98.9005 263.829 98.1289 264.193C97.3675 264.522 96.5356 264.948 95.8949 264.78C94.4379 264.5 93.8084 262.508 93.4081 260.83C93.0245 259.084 92.6723 257.227 92.1702 255.527C91.2411 252.08 90.2191 248.803 89.2261 245.694C87.228 239.482 85.3808 233.918 84.1307 229.146C82.8526 224.384 82.1213 220.445 81.7412 217.703C81.3476 214.963 81.2525 213.424 81.1619 213.432Z" fill="#263238"/>
<path d="M144.114 301.032C144.407 301.08 144.74 295.558 147.421 289.558C150.035 283.52 153.779 279.77 153.561 279.552C153.489 279.464 152.458 280.277 151.059 281.913C149.661 283.54 147.953 286.046 146.592 289.129C145.24 292.214 144.519 295.232 144.232 297.436C143.94 299.644 144.005 301.026 144.114 301.032Z" fill="#995037"/>
<path d="M241.162 266.891L224.96 269.32L224.549 302.995L244.388 297.19C244.388 297.19 269.521 296.023 286.957 286.786C289.933 284.179 291.358 274.337 291.501 273.898C294.507 271.451 294.588 265.271 294.085 262.821C296.555 258.689 296.877 255.014 293.276 254.878C295.196 251.563 291.096 248.432 288.471 250.477C283.342 256.118 278.589 261.257 278.207 260.891C276.323 260.458 258.133 268.745 260.193 257.152C263.283 254.893 274.85 249.032 269.466 243.055C260.572 248.195 246.678 252.237 241.194 266.885" fill="#B78876"/>
<path d="M268.723 273.182C268.724 273.25 269.167 273.291 269.976 273.306C270.786 273.339 271.959 273.238 273.389 272.983C276.248 272.488 280.142 271.062 283.814 268.314C287.476 265.549 290.075 262.094 291.51 259.361C292.234 257.998 292.734 256.841 292.99 256.007C293.263 255.178 293.384 254.715 293.325 254.689C293.171 254.62 292.511 256.418 290.958 258.989C289.418 261.559 286.833 264.817 283.29 267.493C279.737 270.15 276.02 271.63 273.262 272.29C270.5 272.963 268.719 273.001 268.723 273.182Z" fill="#995037"/>
<path d="M272.121 280.756C272.121 280.853 273.783 280.95 276.388 280.316C278.985 279.697 282.482 278.163 285.713 275.433C288.934 272.686 291.149 269.37 292.33 266.784C293.526 264.191 293.841 262.417 293.753 262.393C293.6 262.335 293.068 264.011 291.761 266.445C290.466 268.878 288.255 271.995 285.148 274.646C282.03 277.28 278.71 278.856 276.224 279.634C273.734 280.424 272.107 280.58 272.121 280.756Z" fill="#995037"/>
<path d="M270.914 287.475C270.939 287.603 272.342 287.452 274.587 286.994C276.817 286.514 279.956 285.762 283.11 283.977C286.301 282.214 288.517 279.528 289.832 277.506C291.182 275.46 291.608 273.936 291.5 273.896C291.372 273.834 290.755 275.203 289.316 277.078C287.89 278.951 285.721 281.416 282.682 283.093C279.665 284.804 276.618 285.655 274.441 286.306C272.251 286.936 270.886 287.333 270.914 287.475Z" fill="#995037"/>
<path d="M153.346 280.06C153.348 280.082 153.659 280.057 154.247 279.992C154.888 279.913 155.743 279.807 156.816 279.675C159.101 279.364 162.308 278.927 166.245 278.391C174.251 277.234 185.214 275.65 197.323 273.899C209.458 272.1 220.437 270.425 228.377 269.161C232.346 268.528 235.557 267.999 237.773 267.606C239.987 267.215 241.211 266.96 241.194 266.881C239.718 267.092 235.749 267.659 228.32 268.717C220.316 269.89 209.356 271.497 197.245 273.272C185.144 275.095 174.19 276.744 166.19 277.948C162.263 278.567 159.065 279.071 156.786 279.431C155.719 279.612 154.869 279.756 154.232 279.865C153.648 279.972 153.344 280.038 153.346 280.06Z" fill="#995037"/>
<path d="M156.675 322.852C156.677 322.863 156.789 322.841 157.005 322.789C157.251 322.726 157.565 322.644 157.959 322.542C158.833 322.301 160.057 321.964 161.612 321.534C164.819 320.621 169.388 319.32 175.018 317.716C186.357 314.422 201.957 309.892 219.189 304.887C227.245 302.523 234.941 300.263 241.955 298.204L241.934 298.209C244.87 297.706 247.782 297.577 250.537 297.552C251.921 297.531 253.253 297.626 254.605 297.537C255.937 297.43 257.21 297.203 258.439 296.948C263.34 295.865 267.541 294.466 271.007 293.29C274.471 292.097 277.191 291.069 279.046 290.345C279.941 289.985 280.645 289.702 281.161 289.493C281.378 289.398 281.554 289.322 281.701 289.258C281.821 289.203 281.881 289.171 281.879 289.162C281.877 289.155 281.811 289.171 281.686 289.211C281.535 289.262 281.355 289.324 281.131 289.4C280.608 289.587 279.894 289.841 278.989 290.164C277.117 290.831 274.383 291.806 270.91 292.946C267.437 294.073 263.226 295.424 258.355 296.463C257.136 296.705 255.874 296.92 254.577 297.015C253.296 297.094 251.922 296.992 250.537 297.004C247.756 297.015 244.851 297.126 241.837 297.629L241.829 297.631L241.815 297.634C234.798 299.68 227.097 301.927 219.038 304.276C201.824 309.351 186.239 313.944 174.911 317.283C169.302 318.969 164.748 320.336 161.554 321.296C160.011 321.774 158.797 322.15 157.93 322.418C157.543 322.545 157.233 322.647 156.991 322.726C156.779 322.8 156.672 322.842 156.675 322.852Z" fill="#995037"/>
</svg>
