<svg width="416" height="416" viewBox="0 0 416 416" fill="none" xmlns="http://www.w3.org/2000/svg">
<path d="M52.6732 148.18L53.0784 147L53.853 147.978C54.4737 148.761 55.3057 149.349 56.2508 149.673L57.4306 150.078L56.453 150.853C55.6701 151.474 55.081 152.306 54.7574 153.251L54.3522 154.431L53.5776 153.453C52.9569 152.67 52.1249 152.082 51.1798 151.757L50 151.352L50.9776 150.578C51.7597 149.957 52.3487 149.125 52.6732 148.18Z" fill="#FBB040"/>
<path d="M95.5525 86.6847L95.788 86L96.2381 86.5674C96.5983 87.0217 97.0817 87.3636 97.63 87.5525L98.3148 87.788L97.7473 88.2381C97.2922 88.5983 96.9511 89.0817 96.7622 89.63L96.5268 90.3148L96.0767 89.7473C95.7164 89.2931 95.233 88.9511 94.6847 88.7622L94 88.5268L94.5674 88.0767C95.0225 87.7173 95.3637 87.2339 95.5525 86.6847Z" fill="#FBB040"/>
<path d="M46.492 94.9818L47.1725 93L48.4738 94.6424C49.5163 95.9578 50.9149 96.947 52.5023 97.492L54.4842 98.1726L52.8418 99.4738C51.5264 100.516 50.5372 101.915 49.9922 103.502L49.3116 105.484L48.0104 103.842C46.9679 102.526 45.5693 101.537 43.9818 100.992L42 100.312L43.6424 99.0104C44.9586 97.9679 45.947 96.5701 46.492 94.9818Z" fill="#FBB040"/>
<path d="M334.734 291.135L334.811 292.38L333.722 291.772C332.849 291.286 331.856 291.06 330.858 291.121L329.613 291.198L330.221 290.108C330.707 289.236 330.933 288.242 330.872 287.245L330.796 286L331.885 286.607C332.757 287.094 333.751 287.32 334.748 287.259L335.993 287.182L335.386 288.271C334.899 289.144 334.673 290.138 334.734 291.135Z" fill="#FBB040"/>
<path d="M315.974 349.116L316.018 349.839L315.386 349.486C314.88 349.203 314.302 349.072 313.723 349.107L313 349.151L313.353 348.519C313.636 348.012 313.766 347.435 313.731 346.856L313.687 346.133L314.32 346.486C314.826 346.768 315.404 346.899 315.983 346.864L316.706 346.82L316.353 347.452C316.07 347.959 315.939 348.536 315.974 349.116Z" fill="#FBB040"/>
<path d="M357.644 325.636L357.773 327.727L355.942 326.707C354.476 325.89 352.806 325.51 351.131 325.613L349.039 325.741L350.059 323.911C350.876 322.445 351.256 320.775 351.153 319.099L351.025 317.008L352.855 318.028C354.321 318.845 355.991 319.225 357.667 319.122L359.759 318.994L358.739 320.824C357.921 322.29 357.541 323.961 357.644 325.636Z" fill="#FBB040"/>
<path d="M141.418 102.992L64.3203 111.908L70.3299 163.874L147.427 154.958L141.418 102.992Z" fill="#FBB040"/>
<path d="M70.3054 163.901L70.3029 163.878L64.2914 111.889L64.3146 111.887L141.434 102.97L141.436 102.993L147.448 154.982L147.425 154.984L70.3054 163.901ZM64.3428 111.93L70.3458 163.849L147.395 154.94L141.392 103.021L64.3428 111.93Z" fill="white"/>
<path d="M141.733 103.591C141.751 103.608 141.53 103.874 141.095 104.367C140.608 104.903 139.967 105.611 139.165 106.496C137.415 108.38 134.971 111.012 131.969 114.243C125.795 120.792 117.343 129.755 107.981 139.684L107.783 139.894L107.538 139.74C107.351 139.624 107.148 139.497 106.945 139.37C95.2585 132.018 84.6818 125.363 76.9491 120.498C73.1776 118.085 70.1028 116.119 67.9023 114.71C66.8879 114.044 66.0759 113.51 65.4615 113.106C64.9081 112.733 64.6231 112.527 64.6357 112.507C64.6483 112.486 64.9587 112.652 65.5365 112.986C66.1686 113.362 67.0042 113.858 68.0473 114.478C70.2772 115.84 73.3916 117.741 77.2128 120.075C84.9742 124.896 95.5887 131.488 107.319 138.773C107.522 138.899 107.724 139.027 107.91 139.143L107.468 139.199C116.889 129.327 125.395 120.414 131.609 113.903C134.677 110.736 137.177 108.156 138.967 106.309C139.808 105.462 140.48 104.784 140.991 104.27C141.46 103.809 141.715 103.575 141.733 103.591Z" fill="white"/>
<path d="M70.6423 164.471C70.4798 164.364 75.454 156.57 81.7499 147.066C88.0483 137.558 93.2839 129.94 93.4464 130.048C93.6088 130.155 88.6354 137.947 82.337 147.455C76.0412 156.959 70.8047 164.578 70.6423 164.471Z" fill="white"/>
<path d="M119.003 126.435C119.141 126.299 125.687 132.707 133.622 140.748C141.56 148.792 147.881 155.42 147.742 155.557C147.604 155.693 141.059 149.286 133.121 141.243C125.187 133.202 118.864 126.572 119.003 126.435Z" fill="white"/>
<path d="M269.552 388.479L146.737 388.406C131.966 388.398 119.997 376.419 120 361.648L120.06 53.748C120.063 38.9683 132.049 26.9917 146.829 27L269.644 27.0724C284.416 27.0815 296.384 39.0598 296.381 53.8303L296.32 361.731C296.317 376.511 284.332 388.487 269.552 388.479Z" fill="#263238"/>
<path d="M269.516 37.9622L245.704 37.948C242.511 37.9464 239.921 40.6512 239.921 43.9892L239.92 48.3081C239.92 51.6461 237.33 54.3509 234.137 54.3493L187.723 54.3218C184.529 54.3201 181.941 51.612 181.942 48.274L181.943 43.9551C181.943 40.6171 179.354 37.9089 176.161 37.9073L167.787 37.9023L146.946 37.8906C136.596 37.8848 128.201 46.273 128.2 56.6231L128.141 357.156C128.138 367.502 136.521 375.891 146.866 375.896L269.436 375.968C279.786 375.975 288.18 367.586 288.182 357.236L288.242 56.7021C288.242 46.3562 279.861 37.968 269.516 37.9622Z" fill="white"/>
<path d="M196.807 353.002C196.818 354.301 195.773 355.364 194.474 355.375C193.174 355.385 192.112 354.341 192.102 353.041C192.091 351.741 193.136 350.679 194.435 350.668C195.735 350.657 196.797 351.702 196.807 353.002Z" fill="#263238"/>
<path d="M209.988 352.892C209.999 354.192 208.954 355.255 207.654 355.265C206.355 355.276 205.292 354.231 205.281 352.932C205.271 351.632 206.316 350.569 207.615 350.559C208.915 350.548 209.977 351.593 209.988 352.892Z" fill="#263238"/>
<path d="M223.172 352.783C223.182 354.083 222.137 355.145 220.838 355.156C219.538 355.167 218.476 354.122 218.465 352.822C218.454 351.523 219.499 350.46 220.799 350.449C222.098 350.438 223.161 351.483 223.172 352.783Z" fill="#263238"/>
<path d="M172.912 152.885L174.846 146.469H176.803L173.832 155H171.998L169.039 146.469H170.99L172.912 152.885Z" fill="#39B54A"/>
<path d="M182.744 151.303H179.369V153.588H183.33V155H177.611V146.469H183.318V147.893H179.369V149.926H182.744V151.303Z" fill="#39B54A"/>
<path d="M187.52 151.877H186.119V155H184.361V146.469H187.531C188.539 146.469 189.316 146.693 189.863 147.143C190.41 147.592 190.684 148.227 190.684 149.047C190.684 149.629 190.557 150.115 190.303 150.506C190.053 150.893 189.672 151.201 189.16 151.432L191.006 154.918V155H189.119L187.52 151.877ZM186.119 150.453H187.537C187.979 150.453 188.32 150.342 188.562 150.119C188.805 149.893 188.926 149.582 188.926 149.188C188.926 148.785 188.811 148.469 188.58 148.238C188.354 148.008 188.004 147.893 187.531 147.893H186.119V150.453Z" fill="#39B54A"/>
<path d="M193.895 155H192.137V146.469H193.895V155Z" fill="#39B54A"/>
<path d="M200.662 151.514H197.287V155H195.529V146.469H201.084V147.893H197.287V150.096H200.662V151.514Z" fill="#39B54A"/>
<path d="M203.973 155H202.215V146.469H203.973V155Z" fill="#39B54A"/>
<path d="M212.305 152.158C212.238 153.076 211.898 153.799 211.285 154.326C210.676 154.854 209.871 155.117 208.871 155.117C207.777 155.117 206.916 154.75 206.287 154.016C205.662 153.277 205.35 152.266 205.35 150.98V150.459C205.35 149.639 205.494 148.916 205.783 148.291C206.072 147.666 206.484 147.188 207.02 146.855C207.559 146.52 208.184 146.352 208.895 146.352C209.879 146.352 210.672 146.615 211.273 147.143C211.875 147.67 212.223 148.41 212.316 149.363H210.559C210.516 148.812 210.361 148.414 210.096 148.168C209.834 147.918 209.434 147.793 208.895 147.793C208.309 147.793 207.869 148.004 207.576 148.426C207.287 148.844 207.139 149.494 207.131 150.377V151.021C207.131 151.943 207.27 152.617 207.547 153.043C207.828 153.469 208.27 153.682 208.871 153.682C209.414 153.682 209.818 153.559 210.084 153.312C210.354 153.062 210.508 152.678 210.547 152.158H212.305Z" fill="#39B54A"/>
<path d="M218.275 153.242H215.193L214.607 155H212.738L215.914 146.469H217.543L220.736 155H218.867L218.275 153.242ZM215.668 151.818H217.801L216.729 148.625L215.668 151.818Z" fill="#39B54A"/>
<path d="M227.252 147.893H224.639V155H222.881V147.893H220.303V146.469H227.252V147.893Z" fill="#39B54A"/>
<path d="M230.129 155H228.371V146.469H230.129V155Z" fill="#39B54A"/>
<path d="M238.771 150.928C238.771 151.768 238.623 152.504 238.326 153.137C238.029 153.77 237.604 154.258 237.049 154.602C236.498 154.945 235.865 155.117 235.15 155.117C234.443 155.117 233.812 154.947 233.258 154.607C232.703 154.268 232.273 153.783 231.969 153.154C231.664 152.521 231.51 151.795 231.506 150.975V150.553C231.506 149.713 231.656 148.975 231.957 148.338C232.262 147.697 232.689 147.207 233.24 146.867C233.795 146.523 234.428 146.352 235.139 146.352C235.85 146.352 236.48 146.523 237.031 146.867C237.586 147.207 238.014 147.697 238.314 148.338C238.619 148.975 238.771 149.711 238.771 150.547V150.928ZM236.99 150.541C236.99 149.646 236.83 148.967 236.51 148.502C236.189 148.037 235.732 147.805 235.139 147.805C234.549 147.805 234.094 148.035 233.773 148.496C233.453 148.953 233.291 149.625 233.287 150.512V150.928C233.287 151.799 233.447 152.475 233.768 152.955C234.088 153.436 234.549 153.676 235.15 153.676C235.74 153.676 236.193 153.445 236.51 152.984C236.826 152.52 236.986 151.844 236.99 150.957V150.541Z" fill="#39B54A"/>
<path d="M246.986 155H245.229L241.807 149.387V155H240.049V146.469H241.807L245.234 152.094V146.469H246.986V155Z" fill="#39B54A"/>
<path d="M278.1 169.724C278.1 169.844 247.292 169.94 209.298 169.94C171.29 169.94 140.488 169.843 140.488 169.724C140.488 169.604 171.29 169.508 209.298 169.508C247.292 169.508 278.1 169.604 278.1 169.724Z" fill="#E0E0E0"/>
<path d="M274.874 296.408C274.874 296.528 244.066 296.624 206.071 296.624C168.062 296.624 137.262 296.527 137.262 296.408C137.262 296.289 168.063 296.191 206.071 296.191C244.066 296.191 274.874 296.289 274.874 296.408Z" fill="#E0E0E0"/>
<path d="M243.748 305.921C243.748 306.041 226.635 306.138 205.528 306.138C184.415 306.138 167.305 306.04 167.305 305.921C167.305 305.802 184.415 305.705 205.528 305.705C226.634 305.704 243.748 305.802 243.748 305.921Z" fill="#E0E0E0"/>
<path d="M152.863 206.605L155.469 208.017L154.297 209.978L151.666 208.423L151.715 211.317H149.467L149.491 208.399L146.859 209.978L145.711 208.016L148.318 206.605L145.711 205.169L146.859 203.208L149.491 204.786L149.467 201.867H151.715L151.666 204.786L154.297 203.208L155.469 205.169L152.863 206.605Z" fill="#39B54A"/>
<path d="M182.746 206.605L185.352 208.017L184.18 209.978L181.549 208.423L181.597 211.317H179.349L179.374 208.399L176.742 209.978L175.594 208.016L178.201 206.605L175.594 205.169L176.742 203.208L179.374 204.786L179.349 201.867H181.597L181.549 204.786L184.18 203.208L185.352 205.169L182.746 206.605Z" fill="#39B54A"/>
<path d="M211.835 206.605L214.441 208.017L213.27 209.978L210.639 208.423L210.686 211.317H208.438L208.463 208.399L205.832 209.978L204.684 208.016L207.29 206.605L204.684 205.169L205.832 203.208L208.463 204.786L208.438 201.867H210.686L210.639 204.786L213.27 203.208L214.441 205.169L211.835 206.605Z" fill="#39B54A"/>
<path d="M240.014 206.605L242.621 208.017L241.45 209.978L238.819 208.423L238.866 211.317H236.618L236.642 208.399L234.011 209.978L232.863 208.016L235.47 206.605L232.863 205.169L234.011 203.208L236.642 204.786L236.618 201.867H238.866L238.819 204.786L241.45 203.208L242.621 205.169L240.014 206.605Z" fill="#39B54A"/>
<path d="M267.975 206.605L270.582 208.017L269.41 209.978L266.78 208.423L266.827 211.317H264.579L264.603 208.399L261.972 209.978L260.824 208.016L263.431 206.605L260.824 205.169L261.972 203.208L264.603 204.786L264.579 201.867H266.827L266.78 204.786L269.41 203.208L270.582 205.169L267.975 206.605Z" fill="#39B54A"/>
<path d="M157.502 224.727H144.891C141.649 224.727 139.012 222.089 139.012 218.848V196.469C139.012 193.227 141.649 190.59 144.891 190.59H157.502C160.744 190.59 163.381 193.227 163.381 196.469V218.848C163.381 222.089 160.744 224.727 157.502 224.727ZM144.891 191.005C141.878 191.005 139.428 193.456 139.428 196.468V218.847C139.428 221.86 141.879 224.31 144.891 224.31H157.502C160.515 224.31 162.965 221.86 162.965 218.847V196.468C162.965 193.455 160.514 191.005 157.502 191.005H144.891Z" fill="#263238"/>
<path d="M186.779 224.727H174.168C170.926 224.727 168.289 222.089 168.289 218.848V196.469C168.289 193.227 170.926 190.59 174.168 190.59H186.779C190.021 190.59 192.658 193.227 192.658 196.469V218.848C192.658 222.089 190.021 224.727 186.779 224.727ZM174.167 191.005C171.154 191.005 168.704 193.456 168.704 196.468V218.847C168.704 221.86 171.155 224.31 174.167 224.31H186.779C189.791 224.31 192.242 221.86 192.242 218.847V196.468C192.242 193.455 189.79 191.005 186.779 191.005H174.167Z" fill="#263238"/>
<path d="M215.252 224.727H202.641C199.399 224.727 196.762 222.089 196.762 218.848V196.469C196.762 193.227 199.399 190.59 202.641 190.59H215.252C218.494 190.59 221.131 193.227 221.131 196.469V218.848C221.132 222.089 218.494 224.727 215.252 224.727ZM202.641 191.005C199.628 191.005 197.178 193.456 197.178 196.468V218.847C197.178 221.86 199.629 224.31 202.641 224.31H215.252C218.265 224.31 220.715 221.86 220.715 218.847V196.468C220.715 193.455 218.264 191.005 215.252 191.005H202.641Z" fill="#263238"/>
<path d="M244.049 224.727H231.438C228.195 224.727 225.559 222.089 225.559 218.848V196.469C225.559 193.227 228.196 190.59 231.438 190.59H244.049C247.29 190.59 249.928 193.227 249.928 196.469V218.848C249.929 222.089 247.291 224.727 244.049 224.727ZM231.438 191.005C228.425 191.005 225.975 193.456 225.975 196.468V218.847C225.975 221.86 228.425 224.31 231.438 224.31H244.049C247.062 224.31 249.512 221.86 249.512 218.847V196.468C249.512 193.455 247.062 191.005 244.049 191.005H231.438Z" fill="#263238"/>
<path d="M272.01 224.727H259.398C256.156 224.727 253.52 222.089 253.52 218.848V196.469C253.52 193.227 256.157 190.59 259.398 190.59H272.01C275.251 190.59 277.889 193.227 277.889 196.469V218.848C277.889 222.089 275.251 224.727 272.01 224.727ZM259.398 191.005C256.386 191.005 253.936 193.456 253.936 196.468V218.847C253.936 221.86 256.386 224.31 259.398 224.31H272.01C275.023 224.31 277.473 221.86 277.473 218.847V196.468C277.473 193.455 275.023 191.005 272.01 191.005H259.398Z" fill="#263238"/>
<path d="M271.078 276.493H148.6C143.413 276.493 139.207 272.287 139.207 267.1V261.143C139.207 255.956 143.413 251.75 148.6 251.75H271.078C276.266 251.75 280.471 255.956 280.471 261.143V267.1C280.471 272.288 276.266 276.493 271.078 276.493Z" fill="#39B54A"/>
<path d="M192.012 259.15H195.815C198.554 259.15 200.431 260.8 200.431 263.335C200.431 265.871 198.554 267.521 195.815 267.521H192.012V259.15ZM195.719 265.931C197.381 265.931 198.47 264.939 198.47 263.336C198.47 261.734 197.381 260.741 195.719 260.741H193.949V265.931H195.719Z" fill="white"/>
<path d="M201.281 264.305C201.281 262.367 202.776 260.992 204.821 260.992C206.866 260.992 208.349 262.367 208.349 264.305C208.349 266.242 206.866 267.617 204.821 267.617C202.776 267.618 201.281 266.242 201.281 264.305ZM206.46 264.305C206.46 263.193 205.754 262.523 204.821 262.523C203.889 262.523 203.172 263.193 203.172 264.305C203.172 265.418 203.889 266.087 204.821 266.087C205.754 266.087 206.46 265.418 206.46 264.305Z" fill="white"/>
<path d="M216.175 263.838V267.522H214.309V264.126C214.309 263.085 213.831 262.607 213.006 262.607C212.109 262.607 211.463 263.157 211.463 264.341V267.522H209.598V261.088H211.38V261.842C211.882 261.292 212.635 260.992 213.509 260.992C215.026 260.992 216.175 261.877 216.175 263.838Z" fill="white"/>
<path d="M224.201 264.83H219.335C219.515 265.631 220.196 266.122 221.177 266.122C221.857 266.122 222.348 265.919 222.791 265.501L223.783 266.577C223.185 267.258 222.288 267.617 221.129 267.617C218.904 267.617 217.457 266.218 217.457 264.305C217.457 262.379 218.928 260.992 220.889 260.992C222.779 260.992 224.238 262.259 224.238 264.329C224.238 264.472 224.213 264.675 224.201 264.83ZM219.31 263.743H222.479C222.348 262.929 221.738 262.403 220.901 262.403C220.052 262.402 219.442 262.917 219.31 263.743Z" fill="white"/>
<path d="M208.08 131.08C213.445 131.08 217.793 130.4 217.793 129.561C217.793 128.721 213.445 128.041 208.08 128.041C202.716 128.041 198.367 128.721 198.367 129.561C198.367 130.4 202.716 131.08 208.08 131.08Z" fill="#E6E7E8"/>
<path d="M207.366 123.65C205.793 121.841 197.866 112.482 195.07 108.1C193.188 105.028 192.117 101.535 191.953 97.9428C191.953 93.7042 193.647 89.6389 196.662 86.6397C199.677 83.6406 203.768 81.9529 208.035 81.9473H208.12C212.384 81.9528 216.472 83.6348 219.491 86.6255C222.509 89.6162 224.213 93.6724 224.23 97.9074C224.077 101.509 223.013 105.015 221.135 108.1C218.467 112.277 211.087 121.07 208.889 123.65L208.078 124.583L207.366 123.65Z" fill="white"/>
<path d="M208.128 82.8806C212.142 82.8806 215.992 84.4632 218.833 87.2807C221.673 90.0982 223.272 93.9204 223.277 97.9078C223.115 101.321 222.103 104.641 220.331 107.57C217.535 111.967 209.359 121.65 208.163 123.064L208.121 123.113L208.078 123.064C206.875 121.65 198.671 111.988 195.867 107.605C194.087 104.679 193.067 101.359 192.9 97.9431C192.898 95.9669 193.288 94.0097 194.048 92.1833C194.807 90.3568 195.922 88.6969 197.327 87.2982C198.732 85.8995 200.402 84.7895 202.239 84.0315C204.076 83.2736 206.046 82.8825 208.035 82.8806H208.135H208.128ZM208.135 80.9934H208.035C203.515 81.0046 199.183 82.7959 195.989 85.9745C192.796 89.1531 191.002 93.4596 191 97.9502C191.169 101.722 192.293 105.39 194.266 108.616C197.112 113.041 205.032 122.413 206.619 124.272V124.308L208.042 126.047L209.565 124.357L209.608 124.308C211.814 121.7 219.228 112.857 221.932 108.609C223.895 105.368 225.003 101.687 225.156 97.9078C225.145 93.416 223.34 89.1121 220.139 85.9399C216.937 82.7677 212.6 80.9863 208.078 80.9863L208.135 80.9934Z" fill="white"/>
<path d="M223.178 99.3555C214.804 103.47 208.261 110.521 204.812 119.147C206.399 121.062 207.659 122.554 208.086 123.041L208.128 123.091L208.171 123.041C209.367 121.628 217.55 111.944 220.346 107.555C221.854 105.047 222.819 102.255 223.178 99.3555Z" fill="#39B54A"/>
<path d="M223.277 97.8864C222.466 97.8345 221.648 97.8086 220.823 97.8086C211.553 97.7956 202.608 101.192 195.711 107.344L195.867 107.598C196.579 108.75 197.71 110.263 198.963 111.889C205.024 104.463 213.721 99.6285 223.263 98.3812C223.263 98.2045 223.263 98.049 223.263 97.9076L223.277 97.8864Z" fill="#39B54A"/>
<path d="M195.272 106.636C196.757 105.374 198.339 104.227 200.004 103.208C197.804 101.706 195.45 100.44 192.98 99.4336C193.313 101.949 194.088 104.388 195.272 106.636Z" fill="#8DC63F"/>
<path d="M193 99.3017C195.58 100.269 198.046 101.516 200.351 103.02C201.444 102.365 202.569 101.765 203.724 101.224C200.278 99.7963 196.638 98.8886 192.922 98.5312C192.943 98.7645 192.965 99.019 193 99.3017Z" fill="#8DC63F"/>
<path d="M192.897 97.9699V98.4364C196.783 98.6943 200.605 99.5528 204.225 100.981C205.56 100.381 206.928 99.8594 208.324 99.4189C203.393 97.6028 198.065 97.1151 192.883 98.0053L192.897 97.9699Z" fill="#8DC63F"/>
<path d="M197.937 97.2012C201.672 97.1986 205.373 97.8989 208.846 99.2651C212.388 98.2023 216.068 97.664 219.768 97.6677C220.95 97.6677 222.119 97.7219 223.276 97.8303C223.25 93.8539 221.64 90.0495 218.799 87.2484C215.958 84.4472 212.116 82.877 208.113 82.8809H208.034C204.073 82.8856 200.27 84.4317 197.443 87.1878C194.615 89.944 192.986 93.6908 192.906 97.6253C194.568 97.343 196.251 97.2011 197.937 97.2012Z" fill="white"/>
<path d="M223.202 99.1603C223.202 98.9341 223.244 98.7221 223.259 98.5312C213.821 100.023 205.308 105.027 199.449 112.526C201.008 114.534 202.744 116.675 204.259 118.513C207.939 109.952 214.69 103.055 223.202 99.1603Z" fill="#39B54A"/>
<path d="M203.289 84.1516L208.092 78.4688L212.895 84.1516H203.289Z" fill="#FBB040"/>
<path d="M208.077 79.9404L210.852 83.2059H205.331L208.077 79.9404ZM208.077 77L206.654 78.7247L203.872 81.9902L201.246 85.1002H214.937L212.347 81.9902L209.55 78.7247L208.077 77Z" fill="white"/>
<path d="M209.443 82.9313L208.076 79.9414L206.724 82.9313C203.754 83.1975 200.928 84.3249 198.598 86.1735C196.268 88.0221 194.536 90.5103 193.617 93.3287H222.557C221.638 90.5092 219.905 88.0204 217.573 86.1717C215.242 84.323 212.414 83.1961 209.443 82.9313Z" fill="#FBB040"/>
</svg>
