<svg width="612" height="886" viewBox="0 0 612 886" fill="none" xmlns="http://www.w3.org/2000/svg">
<path d="M488.083 487.289C488.083 487.289 489.423 487.744 491.835 488.548C508.561 494.201 558.338 510.626 573.402 516.788C573.402 516.788 546.758 752.329 543.622 774.219C540.486 796.11 539.709 883.67 539.709 883.67H256.274C256.274 883.67 257.025 647.62 256.221 610.994C255.148 563.623 249.278 516.762 249.278 516.762L298.787 497.417L356.658 466.926L488.083 487.289Z" fill="#D2FFC5"/>
<path d="M425.033 538.248C448.166 624.148 472.558 709.699 498.157 794.875C501.186 804.923 504.188 815.935 500.087 825.607C496.441 834.235 487.489 839.915 478.214 841.148C468.94 842.38 459.451 839.647 451.275 835.092C432.11 824.402 419.672 804.28 413.561 783.22C407.449 762.161 406.886 739.949 406.404 718.005C405.064 659.542 403.723 601.052 402.383 542.589L425.033 538.248Z" fill="#B0E9A0"/>
<path d="M573.371 516.787C573.371 516.787 614.946 535.194 611.702 609.037C609.504 659.274 601.865 705.225 601.865 705.225L484.969 671.573L514.696 543.339L573.371 516.787Z" fill="#D2FFC5"/>
<path d="M296.157 635.615L302.402 720.845L184.89 682.799C184.89 682.799 210.086 532.354 249.999 516.76L293.021 590.254L296.157 635.615Z" fill="#D2FFC5"/>
<path d="M282.783 611.02C282.729 611.02 282.649 611.609 282.568 612.761C282.488 614.047 282.354 615.708 282.22 617.745C281.979 622.246 281.63 628.489 281.201 636.098C280.424 651.585 279.593 673.02 278.843 696.678C278.092 720.256 277.395 741.611 276.886 757.258C276.645 764.894 276.457 771.11 276.323 775.611C276.296 777.675 276.242 779.309 276.242 780.595C276.242 781.747 276.269 782.337 276.296 782.337C276.35 782.337 276.43 781.747 276.51 780.595C276.591 779.309 276.725 777.648 276.859 775.611C277.1 771.11 277.449 764.894 277.878 757.258C278.655 741.771 279.486 720.337 280.236 696.678C280.987 673.1 281.684 651.746 282.193 636.098C282.434 628.462 282.622 622.246 282.756 617.745C282.783 615.682 282.836 614.047 282.863 612.761C282.863 611.609 282.836 611.02 282.783 611.02Z" fill="#39B54A"/>
<path d="M515.228 575.142C515.308 575.169 515.845 574.204 516.756 572.436C517.774 570.373 519.061 567.854 520.535 564.88C523.779 558.557 528.282 549.715 535.171 541.356C542.06 532.996 550.369 527.37 556.936 524.771C563.504 522.091 568.034 521.957 567.98 521.663C567.98 521.582 566.854 521.555 564.871 521.797C562.86 522.011 559.992 522.627 556.588 523.86C549.78 526.271 541.148 531.924 534.125 540.472C527.103 548.992 522.68 557.994 519.678 564.452C518.177 567.694 517.051 570.373 516.273 572.222C515.496 574.044 515.121 575.089 515.228 575.142Z" fill="#39B54A"/>
<path d="M269.057 513.2C268.655 513.414 273.48 521.666 276.456 532.92C279.538 544.146 279.484 553.711 279.94 553.685C280.101 553.685 280.342 551.3 280.181 547.442C280.021 543.583 279.35 538.252 277.823 532.545C276.295 526.838 274.177 521.908 272.408 518.478C270.585 515.075 269.191 513.119 269.057 513.2Z" fill="#39B54A"/>
<path d="M326.042 193.123C344.189 189.211 361.29 206.6 379.732 204.591C390.937 203.358 399.997 195.266 410.29 190.631C425.649 183.692 446.503 184.12 460.844 192.989C475.184 201.858 484.137 210.78 484.78 227.633C499.067 220.961 520.377 240.038 526.703 257.24C533.056 274.441 529.652 291.401 523.755 308.763C513.596 338.665 497.486 366.53 476.658 390.269C474.809 392.359 471.968 394.636 469.528 393.243C467.84 392.278 467.464 390.055 467.33 388.125C466.097 371.674 469.555 355.303 472.343 339.067C475.131 322.803 477.248 306.004 473.415 289.954C469.555 273.932 458.565 258.66 442.697 254.105C430.983 250.756 418.278 253.569 407.207 258.606C396.11 263.643 386.138 270.824 375.497 276.718C364.855 282.64 353.035 287.382 340.865 286.873C328.696 286.364 316.178 279.559 311.916 268.145C307.681 256.731 314.784 241.619 326.873 240.092C316.044 238.163 307.332 227.928 307.118 216.969C306.957 205.984 315.32 195.454 326.042 193.123Z" fill="#263238"/>
<path d="M356.517 482.146L361.208 447.18C361.208 447.18 315.667 434.4 320.679 387.967C323.092 365.541 331.83 319.777 340.193 278.435C349.2 233.985 390.854 203.896 435.913 209.308L440.39 209.844C488.317 218.445 507.777 263.94 497.832 311.605L470.813 498.088C466.256 529.463 437.227 551.299 405.811 546.959C374.342 542.591 352.309 513.628 356.517 482.146Z" fill="#FFBE9D"/>
<path d="M361.16 447.126C361.16 447.126 390.189 453.021 423.695 437.213C423.695 437.213 405.388 468.856 359.605 459.13L361.16 447.126Z" fill="#EB996E"/>
<path d="M354.481 306.596C353.918 310.213 356.384 313.67 360.03 314.313C363.648 314.956 367.052 312.544 367.615 308.9C368.178 305.283 365.712 301.827 362.094 301.184C358.448 300.541 355.044 302.952 354.481 306.596Z" fill="#263238"/>
<path d="M347.458 305.39C348.182 306.354 353.65 303.246 360.78 304.104C367.91 304.881 372.708 309.168 373.593 308.391C374.022 308.042 373.379 306.381 371.288 304.452C369.251 302.523 365.605 300.46 361.155 299.951C356.706 299.442 352.792 300.621 350.433 302.041C348.021 303.461 347.083 304.934 347.458 305.39Z" fill="#263238"/>
<path d="M422.326 312.302C421.736 315.999 424.229 319.509 427.848 320.152C431.467 320.795 434.871 318.303 435.46 314.606C436.05 310.908 433.557 307.398 429.939 306.755C426.32 306.112 422.916 308.604 422.326 312.302Z" fill="#263238"/>
<path d="M415.892 310.935C416.615 311.9 422.084 308.792 429.214 309.676C436.344 310.453 441.142 314.74 442.027 313.963C442.455 313.615 441.812 311.953 439.721 310.024C437.684 308.095 434.039 306.032 429.616 305.523C425.166 305.014 421.253 306.193 418.894 307.613C416.455 309.033 415.516 310.507 415.892 310.935Z" fill="#263238"/>
<path d="M385.149 361.763C385.229 361.361 380.887 360.075 373.81 358.28C372.014 357.878 370.326 357.315 370.165 356.029C369.897 354.663 370.889 352.787 372.041 350.778C374.293 346.571 376.625 342.177 379.091 337.568C388.928 318.733 396.3 303.166 395.549 302.764C394.798 302.362 386.194 317.313 376.33 336.148C373.944 340.81 371.666 345.231 369.495 349.465C368.556 351.447 367.082 353.644 367.699 356.485C368.02 357.905 369.253 359.057 370.379 359.512C371.505 360.021 372.524 360.155 373.408 360.316C380.592 361.602 385.068 362.165 385.149 361.763Z" fill="#263238"/>
<path d="M405.549 369.209C404.396 368.995 403.458 376.738 396.167 381.427C388.903 386.143 380.754 384.294 380.567 385.366C380.406 385.848 382.229 387.081 385.686 387.59C389.091 388.126 394.21 387.617 398.66 384.75C403.109 381.856 405.388 377.596 406.031 374.434C406.701 371.246 406.085 369.236 405.549 369.209Z" fill="#263238"/>
<path d="M419.475 278.327C419.958 280.336 427.169 280.283 435.424 282.292C443.707 284.141 450.167 287.383 451.48 285.802C452.07 285.025 451.105 283.069 448.612 280.872C446.146 278.675 442.045 276.371 437.086 275.219C432.127 274.066 427.437 274.308 424.247 275.192C421.003 276.049 419.288 277.389 419.475 278.327Z" fill="#263238"/>
<path d="M352.554 281.973C353.627 283.741 358.72 282.643 364.643 283.286C370.567 283.714 375.419 285.67 376.786 284.116C377.376 283.366 376.786 281.651 374.802 279.856C372.846 278.061 369.388 276.4 365.314 276.025C361.239 275.676 357.54 276.721 355.289 278.114C352.983 279.534 352.099 281.115 352.554 281.973Z" fill="#263238"/>
<path d="M489.925 345.471C490.756 345.23 522.922 339.872 518.097 371.461C513.272 403.05 482.554 391.69 482.634 390.779C482.741 389.841 489.925 345.471 489.925 345.471Z" fill="#FFBE9D"/>
<path d="M494.129 380.277C494.29 380.197 494.611 380.732 495.496 381.322C496.327 381.885 497.855 382.394 499.597 382.045C503.108 381.322 506.754 376.472 507.772 370.792C508.282 367.925 508.094 365.112 507.424 362.674C506.808 360.209 505.575 358.387 503.939 357.824C502.331 357.181 500.991 358.012 500.455 358.842C499.892 359.673 499.999 360.316 499.811 360.343C499.704 360.396 499.222 359.7 499.677 358.44C499.892 357.824 500.374 357.154 501.232 356.645C502.09 356.136 503.242 356.002 504.395 356.297C506.808 356.833 508.657 359.405 509.408 362.057C510.292 364.737 510.56 367.925 509.971 371.14C508.791 377.464 504.636 382.929 499.865 383.546C497.56 383.787 495.791 382.822 494.96 381.938C494.075 381.054 493.995 380.304 494.129 380.277Z" fill="#EB996E"/>
<path d="M331.562 267.528C351.344 275.406 374.932 272.994 392.703 261.259C405.141 253.06 415.488 240.333 430.15 237.681C440.014 235.885 450.361 239.208 458.483 245.076C466.631 250.943 472.796 259.142 477.916 267.77C466.122 290.249 468.99 317.284 472.153 342.47C472.501 345.256 472.957 348.257 474.968 350.24C478.372 353.562 484.269 351.981 487.941 348.954C493.838 344.104 496.787 336.602 499.038 329.314C504.131 312.702 506.678 295.152 504.909 277.844C503.139 260.562 496.921 243.522 485.877 230.098C472.073 213.325 451.138 202.983 429.533 200.706C407.929 198.455 385.815 204.001 367.024 214.933C358.313 219.997 350.084 226.401 344.857 235.028" fill="#263238"/>
<path d="M311.383 202.713C311.383 202.713 311.089 203.651 311.33 205.5C311.571 207.295 312.509 210.028 314.975 212.573C317.415 215.146 321.462 217.155 326.341 217.959C328.78 218.361 331.433 218.602 334.275 218.414C337.089 218.2 340.145 217.503 342.799 215.628C345.399 213.806 347.677 210.832 347.838 207.161C348.026 203.437 345.452 199.954 342.075 198.266C340.386 197.382 338.456 196.872 336.446 196.846C334.436 196.846 332.398 197.489 330.71 198.641C327.225 200.892 325.161 204.964 324.652 209.171C324.116 213.431 325.536 217.932 328.244 221.415C330.951 224.925 334.73 227.605 338.966 229.319C347.463 232.803 357.354 232.293 366.414 229.614C375.581 226.988 383.81 222.594 391.557 218.307C399.303 214.02 406.836 209.948 414.448 207.295C422.034 204.589 429.807 203.571 436.884 204.616C443.96 205.634 450.206 208.42 455.272 211.77C465.485 218.602 470.899 227.417 474.009 233.419C475.563 236.473 476.582 238.965 477.225 240.626C477.895 242.314 478.217 243.225 478.271 243.198C478.297 243.198 478.244 242.957 478.136 242.502C478.002 242.046 477.842 241.376 477.547 240.519C476.984 238.777 476.073 236.259 474.571 233.124C471.596 226.988 466.262 217.959 455.888 210.832C450.742 207.349 444.362 204.428 437.071 203.303C429.78 202.178 421.739 203.196 413.966 205.902C406.165 208.581 398.553 212.681 390.779 216.941C383.033 221.201 374.911 225.515 365.931 228.087C357.059 230.686 347.597 231.141 339.502 227.872C335.508 226.265 331.943 223.746 329.423 220.504C326.877 217.262 325.59 213.243 326.072 209.358C326.501 205.527 328.405 201.829 331.46 199.847C334.436 197.703 338.43 197.891 341.459 199.471C344.514 200.999 346.739 204 346.605 207.161C346.498 210.323 344.514 213.083 342.129 214.771C339.716 216.485 336.848 217.209 334.168 217.45C331.46 217.664 328.86 217.477 326.475 217.128C321.703 216.432 317.79 214.583 315.377 212.198C312.938 209.814 311.946 207.242 311.598 205.5C311.303 203.678 311.491 202.713 311.383 202.713Z" fill="#455A64"/>
<path d="M529.089 285.212C529.009 284.863 525.31 286.605 519.091 286.551C516.008 286.498 512.336 285.828 508.584 284.167C504.831 282.559 500.998 280.041 497.379 277.013C490.169 270.797 486.711 262.464 485.505 256.436C484.272 250.327 484.888 246.388 484.566 246.361C484.459 246.361 484.245 247.299 484.084 249.094C483.923 250.863 483.923 253.462 484.406 256.65C485.344 262.92 488.775 271.708 496.334 278.219C500.086 281.38 504.054 283.899 508.021 285.506C511.961 287.168 515.874 287.757 519.091 287.65C522.334 287.543 524.881 286.9 526.543 286.31C528.232 285.748 529.116 285.292 529.089 285.212Z" fill="#455A64"/>
<path d="M524.934 307.987C524.934 307.692 521.127 308.067 515.177 307.023C509.28 306.004 501.184 303.164 494.188 297.243C487.192 291.295 483.064 283.766 481.108 278.112C479.097 272.432 478.856 268.628 478.561 268.654C478.454 268.654 478.427 269.619 478.588 271.334C478.749 273.049 479.151 275.514 480.035 278.461C481.778 284.329 485.879 292.259 493.143 298.422C500.434 304.584 508.904 307.344 514.989 308.094C518.045 308.496 520.564 308.496 522.28 308.362C524.022 308.282 524.934 308.094 524.934 307.987Z" fill="#455A64"/>
<path d="M279.88 708.279L277.494 777.46C277.494 777.46 478.155 817.195 503.968 830.484C529.781 843.774 540.316 845.837 538.761 884.151L218.095 883.589C218.095 883.589 178.584 868.799 179.362 825.795C180.139 782.792 190.888 679.477 190.888 679.477L279.88 708.279Z" fill="#FFBE9D"/>
<path d="M232.649 837.854C232.89 837.934 234.096 833.674 236.857 827.163C238.224 823.895 240.1 820.117 242.406 816.044C244.765 811.998 247.579 807.684 250.876 803.424C254.227 799.191 257.711 795.413 261.062 792.144C264.466 788.929 267.656 786.196 270.497 784.053C276.153 779.766 279.986 777.569 279.852 777.354C279.798 777.274 278.807 777.756 277.064 778.721C275.295 779.659 272.829 781.186 269.907 783.249C266.959 785.285 263.662 787.991 260.177 791.207C256.746 794.475 253.154 798.28 249.777 802.567C246.426 806.907 243.612 811.302 241.28 815.428C239.028 819.581 237.206 823.466 235.946 826.815C234.659 830.164 233.775 832.897 233.292 834.853C232.783 836.729 232.542 837.827 232.649 837.854Z" fill="#EB996E"/>
<path d="M505.574 885.223L478.929 882.784L453.492 822.044C457.62 821.347 543.422 808.674 548.488 810.04L569.074 883.133C569.047 883.16 507.396 885.223 505.574 885.223Z" fill="#FFBE9D"/>
<path d="M564.244 884.311C564.19 884.445 563.681 884.553 562.823 884.633C555.746 885.41 523.018 883.427 523.018 883.427C521.517 879.194 524.358 866.521 528.432 865.77C532.507 865.02 567.353 867.378 567.353 867.378C567.353 867.378 572.848 868.101 574.215 877.318C575.019 882.972 564.244 884.311 564.244 884.311Z" fill="#FFBE9D"/>
<path d="M575.288 865.718C575.234 865.852 574.725 865.959 573.867 866.039C566.79 866.816 535.831 866.468 534.491 862.717C532.989 858.483 535.375 847.927 539.449 847.177C543.524 846.426 578.343 848.784 578.343 848.784C578.343 848.784 583.838 849.508 585.205 858.725C586.063 864.378 575.288 865.718 575.288 865.718Z" fill="#FFBE9D"/>
<path d="M580.779 847.548C580.726 847.682 580.216 847.789 579.359 847.869C572.282 848.646 541.323 848.298 539.982 844.547C538.481 840.314 540.867 829.757 544.941 829.007C549.015 828.257 583.862 830.614 583.862 830.614C583.862 830.614 589.357 831.338 590.724 840.555C591.555 846.208 580.779 847.548 580.779 847.548Z" fill="#FFBE9D"/>
<path d="M585.932 829.462C585.878 829.596 585.369 829.703 584.511 829.783C577.434 830.56 546.475 830.212 545.135 826.461C543.634 822.228 546.019 811.671 550.094 810.921C554.168 810.171 589.014 812.528 589.014 812.528C589.014 812.528 594.509 813.252 595.876 822.469C596.707 828.149 585.932 829.462 585.932 829.462Z" fill="#FFBE9D"/>
<path d="M537.442 865.583C537.496 866.119 544.224 866.735 552.506 866.976C560.789 867.217 567.463 866.976 567.41 866.44C567.356 865.904 560.628 865.288 552.346 865.047C544.09 864.806 537.415 865.047 537.442 865.583Z" fill="#EB996E"/>
<path d="M537.276 847.338C537.249 847.874 546.846 848.624 558.693 848.999C570.541 849.374 580.164 849.24 580.164 848.704C580.191 848.168 570.595 847.418 558.747 847.043C546.926 846.668 537.303 846.802 537.276 847.338Z" fill="#EB996E"/>
<path d="M538.753 828.797C538.726 829.333 548.322 830.083 560.17 830.458C572.018 830.833 581.641 830.699 581.641 830.163C581.667 829.627 572.071 828.877 560.224 828.502C548.376 828.127 538.753 828.261 538.753 828.797Z" fill="#EB996E"/>
<path d="M489.086 817.354C489.086 817.354 547.494 791.391 551.14 795.142C554.785 798.893 560.414 810.95 560.414 810.95L489.086 817.354Z" fill="#FFBE9D"/>
<path d="M467.561 512.104L527.979 684.01L595.902 703.569C595.902 703.569 571.269 807.769 546.126 826.471C537.575 832.821 523.61 839.707 509.296 838.715C482.143 836.813 451.692 817.682 440.086 790.969C429.766 767.23 402.21 521.722 402.21 521.722L467.561 512.104Z" fill="#FFBE9D"/>
<path d="M403.044 529.005L399.533 487.127L409.263 453.501L413.016 440.64L405.671 448.142L392.269 433.861C392.269 433.861 396.611 408.488 400.257 408.488C402.535 408.488 409.183 410.765 413.82 412.48C416.581 413.498 418.618 414.302 418.618 414.302L429.956 420.089L418.618 402.701C418.618 402.701 406.931 412.427 400.953 403.987C396.37 397.529 413.418 383.061 419.824 377.943C421.298 376.765 423.202 376.336 425.051 376.684L431.672 378.024C431.457 374.3 435.505 369.289 441.348 369.209C450.006 369.075 454.027 376.818 454.027 376.818L460.996 378.077C465.875 378.077 470.217 381.105 471.906 385.687L487.238 427.377L467.564 512.125" fill="#FFBE9D"/>
<path d="M467.56 512.102C467.56 512.102 467.747 511.592 467.989 510.601C468.257 509.529 468.632 508.056 469.114 506.153C470.079 502.188 471.446 496.454 473.216 489.166C476.7 474.376 481.713 453.236 487.797 427.488L487.824 427.327L487.771 427.166C484.742 418.887 481.552 410.153 478.201 400.962C476.513 396.381 474.797 391.665 473.055 386.869C472.304 384.458 470.937 381.859 468.739 380.171C466.595 378.429 463.834 377.438 461.019 377.438H461.127C458.955 377.036 456.57 376.607 454.157 376.179L454.613 376.527C453.353 374.33 451.611 372.481 449.493 371.007C447.376 369.587 444.829 368.676 442.202 368.596C439.576 368.382 436.788 369.266 434.697 370.954C432.606 372.642 430.918 375.107 430.971 378.081L431.802 377.384C430.14 377.063 428.478 376.714 426.79 376.366C425.932 376.232 425.155 375.991 424.163 375.911C423.225 375.857 422.26 375.991 421.348 376.339C420.464 376.634 419.579 377.25 418.963 377.786L416.925 379.447C415.585 380.573 414.245 381.698 412.931 382.877C410.305 385.235 407.758 387.7 405.373 390.433C403.067 393.166 400.682 396.033 399.663 399.81C399.422 400.882 399.341 402.088 399.744 403.213C400.146 404.392 400.977 405.142 401.7 405.946C403.309 407.5 405.614 408.25 407.758 408.143C412.127 407.875 415.8 405.705 419.043 403.267L418.024 403.106C421.884 409 425.664 414.788 429.39 420.495L430.274 419.504C426.441 417.548 422.662 415.619 418.909 413.716L418.882 413.689H418.855C415.022 412.243 411.243 410.796 407.437 409.59C405.533 409.001 403.63 408.384 401.62 408.009C401.084 407.929 400.682 407.795 399.904 407.902C399.1 408.116 398.725 408.652 398.403 409.081C397.787 409.965 397.385 410.876 397.009 411.814C394.275 419.209 392.989 426.631 391.622 433.784L391.568 434.079L391.783 434.32C396.447 439.277 400.923 443.993 405.212 448.574L405.641 449.03L406.069 448.601C408.616 446.002 411.028 443.51 413.414 441.072L412.476 440.536C407.329 458.541 402.826 474.189 399.154 487.05L399.127 487.13V487.21C400.306 500.393 401.271 510.842 401.915 518.076C402.263 521.586 402.531 524.319 402.719 526.248C402.826 527.133 402.88 527.829 402.96 528.338C403.014 528.821 403.067 529.035 403.067 529.035C403.094 529.035 403.094 528.794 403.067 528.312C403.041 527.776 402.987 527.079 402.933 526.195C402.799 524.266 402.612 521.533 402.344 517.996C401.781 510.762 400.977 500.312 399.931 487.103L399.904 487.237C403.684 474.376 408.267 458.783 413.521 440.804L414.138 438.661L412.583 440.242C410.197 442.653 407.758 445.145 405.212 447.744H406.043C401.754 443.162 397.304 438.393 392.667 433.436L392.828 433.972C394.168 426.899 395.535 419.423 398.189 412.269C398.537 411.412 398.939 410.528 399.449 409.831C399.69 409.456 400.012 409.215 400.146 409.188C400.333 409.134 400.95 409.215 401.352 409.295C403.201 409.644 405.104 410.233 406.981 410.849C410.76 412.055 414.513 413.502 418.319 414.949L418.266 414.922C421.992 416.824 425.771 418.78 429.604 420.736L431.883 421.915L430.489 419.771C426.763 414.064 422.983 408.25 419.15 402.383L418.748 401.766L418.132 402.249C415.129 404.553 411.484 406.616 407.705 406.803C405.828 406.884 403.979 406.268 402.638 404.982C402.022 404.285 401.298 403.588 401.057 402.811C400.789 402.007 400.816 401.096 401.03 400.185C401.888 396.943 404.166 394.05 406.418 391.424C408.723 388.772 411.243 386.333 413.843 384.002C415.129 382.823 416.443 381.698 417.783 380.599C419.15 379.555 420.383 378.215 421.804 377.733C423.305 377.143 424.752 377.438 426.495 377.813C428.183 378.161 429.845 378.483 431.507 378.804L432.365 378.965L432.338 378.081C432.285 375.803 433.705 373.553 435.555 372.079C437.404 370.606 439.79 369.802 442.149 369.989C446.974 370.097 451.209 373.312 453.46 377.197L453.621 377.491L453.916 377.545C456.329 377.974 458.741 378.402 460.912 378.804H460.966H461.019C463.539 378.804 466.005 379.688 467.908 381.243C469.892 382.823 471.044 384.94 471.822 387.378C473.591 392.174 475.333 396.863 477.022 401.445C480.426 410.608 483.643 419.37 486.698 427.622L486.672 427.3C480.775 453.102 475.95 474.296 472.572 489.086C470.937 496.401 469.651 502.161 468.766 506.153C468.364 508.056 468.042 509.556 467.801 510.628C467.613 511.566 467.56 512.102 467.56 512.102Z" fill="#EB996E"/>
<path d="M419.158 435.233C419.292 434.938 414.306 432.259 407.417 428.91L403.048 426.793L406.666 430.035C407.605 430.866 408.436 431.911 409.079 433.116C410.151 435.126 410.58 437.35 410.419 439.306C410.258 441.288 409.588 443.003 408.838 444.316C407.256 446.968 405.514 447.987 405.648 448.174C405.675 448.308 407.712 447.585 409.669 444.852C410.607 443.512 411.465 441.663 411.706 439.439C411.947 437.242 411.518 434.724 410.312 432.473C409.588 431.107 408.623 429.928 407.551 429.017L406.827 430.142C413.77 433.331 419.023 435.528 419.158 435.233Z" fill="#EB996E"/>
<path d="M451.268 412.592C451.428 412.485 450.168 410.074 447.997 406.269C445.826 402.464 442.717 397.24 439.232 391.533C437.463 388.666 435.828 385.96 434.22 383.495C432.611 381.03 430.708 378.993 428.671 377.868C426.661 376.743 424.704 376.555 423.444 376.716C422.157 376.877 421.568 377.305 421.595 377.359C421.621 377.466 422.291 377.225 423.471 377.252C424.65 377.252 426.366 377.6 428.162 378.725C431.861 380.896 434.434 386.629 438.026 392.256C441.511 397.963 444.754 403.107 447.14 406.778C449.552 410.449 451.107 412.673 451.268 412.592Z" fill="#EB996E"/>
<path d="M472.044 412.429C472.205 412.349 471.481 410.178 470.061 406.722C468.64 403.292 466.549 398.577 464.03 393.513C461.51 388.422 459.044 383.921 457.168 380.706C455.291 377.49 454.005 375.588 453.844 375.668C453.683 375.776 454.648 377.839 456.31 381.161C458.213 384.966 460.384 389.306 462.797 394.102C465.155 398.925 467.3 403.292 469.176 407.097C470.811 410.473 471.857 412.509 472.044 412.429Z" fill="#EB996E"/>
<path d="M520.589 667.208C520.509 667.234 520.858 668.36 521.581 670.316C522.412 672.539 523.458 675.326 524.691 678.622C527.344 685.641 530.963 695.314 534.796 706.085C538.629 716.856 541.926 726.662 544.285 733.762C545.411 737.085 546.349 739.898 547.126 742.176C547.823 744.158 548.225 745.23 548.333 745.203C548.413 745.176 548.172 744.051 547.636 742.015C547.099 739.978 546.295 737.058 545.223 733.468C543.079 726.287 539.943 716.4 536.11 705.629C532.276 694.858 528.497 685.186 525.629 678.273C524.181 674.817 522.975 672.03 522.117 670.128C521.206 668.199 520.67 667.181 520.589 667.208Z" fill="#EB996E"/>
<path d="M431.004 746.463C430.977 746.463 431.004 746.731 431.057 747.266C431.138 747.856 431.245 748.633 431.379 749.571C431.674 751.687 432.103 754.661 432.666 758.413C433.255 762.244 433.952 766.96 435.051 772.372C436.15 777.784 437.625 783.947 440.091 790.484C442.583 796.995 446.283 803.908 451.912 809.963C457.46 816.045 464.322 821.672 472.283 826.387C480.244 831.13 489.304 834.801 498.981 837.48C503.859 838.766 508.979 839.623 514.206 839.623C519.46 839.65 524.767 838.659 529.833 836.891C539.992 833.193 548.436 826.361 554.708 818.51C561.088 810.687 565.618 801.952 569.129 793.458C572.641 784.884 574.705 776.364 577.117 768.594C579.529 760.797 581.781 753.536 583.818 746.891C587.973 733.629 591.136 722.831 593.093 715.302C594.084 711.551 594.808 708.604 595.264 706.621C595.478 705.683 595.639 704.933 595.773 704.343C595.88 703.834 595.934 703.566 595.907 703.566C595.88 703.566 595.8 703.808 595.639 704.317C595.478 704.906 595.264 705.629 594.996 706.567C594.406 708.63 593.602 711.524 592.583 715.168C590.439 722.643 587.142 733.387 582.88 746.597C580.762 753.215 578.484 760.476 575.991 768.246C573.498 776.043 571.408 784.536 567.896 792.976C564.385 801.389 559.908 809.99 553.609 817.653C547.417 825.342 539.188 831.987 529.324 835.578C524.392 837.319 519.272 838.284 514.179 838.23C509.086 838.257 504.074 837.426 499.303 836.167C489.733 833.541 480.754 829.924 472.9 825.289C465.046 820.654 458.211 815.161 452.716 809.186C447.167 803.265 443.495 796.54 440.975 790.136C438.456 783.706 436.928 777.597 435.775 772.238C434.622 766.852 433.845 762.164 433.175 758.332C432.532 754.581 431.996 751.634 431.647 749.517C431.459 748.579 431.325 747.829 431.191 747.24C431.084 746.704 431.004 746.463 431.004 746.463Z" fill="#EB996E"/>
<circle cx="260" cy="266" r="20" fill="white"/>
<circle cx="298" cy="301" r="9" fill="white"/>
<path d="M134.331 267.433C208.52 267.433 268.662 207.566 268.662 133.717C268.662 59.8669 208.52 0 134.331 0C60.142 0 0 59.8669 0 133.717C0 207.566 60.142 267.433 134.331 267.433Z" fill="white"/>
<path d="M131.173 215.029C125.424 208.417 96.4476 174.222 86.2251 158.21C79.3479 146.985 75.4296 134.221 74.832 121.096C74.832 105.609 81.023 90.7548 92.0453 79.7962C103.068 68.8377 118.02 62.6709 133.618 62.6504H133.93C149.516 62.6707 164.459 68.8165 175.494 79.7442C186.529 90.6719 192.759 105.493 192.82 120.967C192.26 134.128 188.369 146.937 181.505 158.21C171.751 173.473 144.777 205.602 136.74 215.029L133.774 218.438L131.173 215.029Z" fill="white"/>
<path d="M133.957 66.0642C148.631 66.0641 162.705 71.8466 173.088 82.1416C183.472 92.4366 189.315 106.402 189.336 120.972C188.744 133.444 185.044 145.575 178.567 156.277C168.345 172.342 138.457 207.724 134.088 212.89L133.931 213.07L133.775 212.89C129.379 207.724 99.3881 172.419 89.1396 156.406C82.6304 145.714 78.9028 133.581 78.2927 121.101C78.2859 113.88 79.7115 106.729 82.4883 100.055C85.265 93.3815 89.3384 87.3162 94.476 82.2055C99.6135 77.0948 105.715 73.039 112.431 70.2694C119.147 67.4999 126.347 66.0709 133.619 66.0642H133.983H133.957ZM133.983 59.1684H133.619C117.094 59.2094 101.259 65.7545 89.5863 77.3688C77.9133 88.983 71.3545 104.719 71.3477 121.127C71.9669 134.907 76.0731 148.311 83.287 160.1C93.6916 176.267 122.642 210.514 128.443 217.306V217.435L133.645 223.789L139.212 217.616L139.368 217.435C147.431 207.905 174.535 175.596 184.42 160.074C191.593 148.229 195.645 134.782 196.203 120.972C196.162 104.56 189.566 88.8334 177.863 77.2426C166.16 65.6517 150.305 59.1425 133.775 59.1426L133.983 59.1684Z" fill="white"/>
<path d="M188.972 126.26C158.358 141.294 134.44 167.057 121.836 198.575C127.637 205.574 132.241 211.023 133.801 212.805L133.957 212.986L134.113 212.805C138.483 207.64 168.397 172.257 178.619 156.219C184.132 147.057 187.658 136.853 188.972 126.26Z" fill="#39B54A"/>
<path d="M189.339 120.892C186.374 120.702 183.382 120.608 180.365 120.608C146.482 120.56 113.782 132.971 88.5703 155.448L89.1426 156.378C91.7437 160.587 95.8796 166.114 100.458 172.055C122.614 144.921 154.407 127.257 189.287 122.7C189.287 122.054 189.287 121.486 189.287 120.969L189.339 120.892Z" fill="#39B54A"/>
<path d="M86.9577 152.857C92.3885 148.243 98.1717 144.055 104.255 140.331C96.2155 134.841 87.6091 130.217 78.582 126.539C79.796 135.732 82.6312 144.64 86.9577 152.857Z" fill="#8DC63F"/>
<path d="M78.6533 126.059C88.0856 129.593 97.0966 134.149 105.523 139.644C109.518 137.251 113.633 135.061 117.853 133.084C105.259 127.867 91.9497 124.55 78.3672 123.244C78.4452 124.096 78.5233 125.026 78.6533 126.059Z" fill="#8DC63F"/>
<path d="M78.2903 121.193V122.898C92.4967 123.84 106.468 126.977 119.701 132.196C124.578 130.003 129.581 128.097 134.683 126.488C116.657 119.852 97.1828 118.07 78.2383 121.322L78.2903 121.193Z" fill="#8DC63F"/>
<path d="M96.7066 118.388C110.359 118.378 123.889 120.937 136.582 125.929C149.53 122.046 162.984 120.079 176.51 120.092C180.828 120.092 185.103 120.29 189.334 120.686C189.237 106.157 183.353 92.2562 172.967 82.0211C162.581 71.7859 148.537 66.0486 133.903 66.0625H133.617C119.135 66.0799 105.236 71.7292 94.8988 81.7998C84.5616 91.8705 78.6089 105.561 78.3164 119.937C84.3914 118.906 90.5434 118.387 96.7066 118.388Z" fill="white"/>
<path d="M189.053 125.543C189.053 124.716 189.209 123.941 189.261 123.244C154.761 128.695 123.644 146.978 102.227 174.381C107.923 181.716 114.27 189.542 119.81 196.257C133.261 164.975 157.939 139.773 189.053 125.543Z" fill="#39B54A"/>
<path d="M116.27 70.7042L133.827 49.9395L151.385 70.7042H116.27Z" fill="#FBB040"/>
<path d="M133.772 55.3162L143.916 67.2482H123.731L133.772 55.3162ZM133.772 44.5723L128.57 50.874L118.399 62.806L108.801 74.1698H158.847L149.379 62.806L139.156 50.874L133.772 44.5723Z" fill="white"/>
<path d="M138.768 66.2431L133.773 55.3184L128.831 66.2431C117.974 67.2157 107.643 71.3354 99.1249 78.09C90.6062 84.8445 84.2749 93.9361 80.918 104.234H186.707C183.348 93.9323 177.013 84.8381 168.489 78.0832C159.966 71.3283 149.63 67.2109 138.768 66.2431Z" fill="#FBB040"/>
</svg>
