<svg width="194" height="306" viewBox="0 0 194 306" fill="none" xmlns="http://www.w3.org/2000/svg">
<g opacity="0.5">
<path d="M96.7032 306C127.077 306 151.699 302.15 151.699 297.401C151.699 292.652 127.077 288.802 96.7032 288.802C66.3296 288.802 41.707 292.652 41.707 297.401C41.707 302.15 66.3296 306 96.7032 306Z" fill="#CCD5DE" fill-opacity="0.5"/>
<path d="M92.667 263.962C83.7629 253.724 38.8795 200.771 23.0454 175.975C12.393 158.593 6.3238 138.827 5.39819 118.503C5.39817 94.5197 14.9877 71.5171 32.0606 54.5471C49.1334 37.5772 72.2936 28.0276 96.4543 27.9958H96.9378C121.079 28.0274 144.225 37.5443 161.318 54.4665C178.41 71.3887 188.059 94.3397 188.155 118.303C187.288 138.683 181.26 158.518 170.629 175.975C155.52 199.611 113.739 249.364 101.289 263.962L96.6961 269.241L92.667 263.962Z" fill="white"/>
<path d="M96.9789 33.2778C119.708 33.2778 141.508 42.2322 157.591 58.1746C173.674 74.117 182.725 95.7438 182.757 118.306C181.84 137.619 176.109 156.405 166.077 172.978C150.243 197.854 103.949 252.646 97.1804 260.645L96.9386 260.925L96.6969 260.645C89.8878 252.646 43.433 197.974 27.5586 173.178C17.4763 156.619 11.7025 137.831 10.7575 118.506C10.7469 107.324 12.9552 96.2495 17.2562 85.9149C21.5571 75.5802 27.8666 66.1877 35.8244 58.2736C43.7821 50.3594 53.2323 44.0787 63.6354 39.7899C74.0384 35.5011 85.1906 33.2883 96.4551 33.2778H97.0192H96.9789ZM97.0192 22.5993H96.4551C70.8584 22.6628 46.3313 32.7982 28.2506 50.7836C10.1698 68.769 0.0105853 93.1369 0 118.546C0.959211 139.885 7.31939 160.641 18.4933 178.897C34.6094 203.933 79.4526 256.966 88.4374 267.484V267.684L96.4954 277.523L105.118 267.964L105.359 267.684C117.849 252.926 159.832 202.894 175.142 178.857C186.252 160.515 192.529 139.691 193.394 118.306C193.33 92.8901 183.114 68.5372 164.987 50.5882C146.859 32.6391 122.301 22.5592 96.6969 22.5593L97.0192 22.5993Z" fill="white"/>
<path d="M182.194 126.497C134.775 149.779 97.7274 189.675 78.2043 238.481C87.1891 249.32 94.3205 257.759 96.7379 260.518L96.9796 260.798L97.2214 260.518C103.99 252.519 150.324 197.727 166.158 172.891C174.698 158.703 180.159 142.901 182.194 126.497Z" fill="#39B54A"/>
<path d="M182.761 118.189C178.168 117.896 173.535 117.749 168.861 117.749C116.379 117.676 65.7275 136.895 26.6768 171.701L27.5631 173.141C31.5922 179.66 37.9983 188.219 45.0894 197.418C79.409 155.4 128.653 128.046 182.681 120.989C182.681 119.989 182.681 119.109 182.681 118.309L182.761 118.189Z" fill="#39B54A"/>
<path d="M24.1793 167.689C32.5912 160.545 41.5491 154.06 50.9724 148.292C38.5191 139.79 25.1882 132.631 11.2058 126.935C13.0862 141.17 17.4777 154.966 24.1793 167.689Z" fill="#8DC63F"/>
<path d="M11.3187 126.186C25.9287 131.658 39.8863 138.713 52.9386 147.223C59.1264 143.516 65.5005 140.126 72.0362 137.064C52.5292 128.984 31.914 123.848 10.8755 121.826C10.9964 123.146 11.1172 124.586 11.3187 126.186Z" fill="#8DC63F"/>
<path d="M10.7512 118.655V121.295C32.7562 122.754 54.3971 127.612 74.8935 135.693C82.4482 132.298 90.1973 129.347 98.1008 126.854C70.1787 116.578 40.0146 113.818 10.6707 118.855L10.7512 118.655Z" fill="#8DC63F"/>
<path d="M39.2821 114.305C60.4287 114.291 81.3866 118.253 101.047 125.983C121.103 119.97 141.942 116.924 162.893 116.945C169.581 116.945 176.202 117.251 182.756 117.865C182.607 95.3653 173.493 73.8391 157.405 57.9894C141.317 42.1397 119.563 33.255 96.8972 33.2767H96.454C74.0222 33.3035 52.4935 42.0518 36.4819 57.6468C20.4703 73.2417 11.2499 94.4422 10.7969 116.705C20.2066 115.107 29.7358 114.305 39.2821 114.305Z" fill="white"/>
<path d="M182.319 125.386C182.319 124.106 182.56 122.906 182.641 121.826C129.203 130.267 81.0031 158.58 47.8293 201.015C56.6529 212.373 66.4838 224.492 75.0656 234.89C95.8997 186.449 134.125 147.422 182.319 125.386Z" fill="#39B54A"/>
<path d="M69.5796 40.4666L96.7757 8.31128L123.972 40.4666H69.5796Z" fill="#FBB040"/>
<path d="M96.6905 16.6377L112.404 35.115H81.1384L96.6905 16.6377ZM96.6905 0L88.6324 9.75862L72.8789 28.236L58.0117 45.8335H135.53L120.865 28.236L105.031 9.75862L96.6905 0Z" fill="white"/>
<path d="M104.431 33.556L96.6956 16.6384L89.0404 33.556C72.2227 35.0622 56.2219 41.4417 43.027 51.9015C29.8322 62.3614 20.0254 76.4401 14.8257 92.3876H178.686C173.484 76.4343 163.671 62.3515 150.468 51.8911C137.266 41.4308 121.256 35.0547 104.431 33.556Z" fill="#FBB040"/>
</g>
</svg>
