<svg width="240" height="264" viewBox="0 0 240 264" fill="none" xmlns="http://www.w3.org/2000/svg">
<g clip-path="url(#clip0_3111_58846)">
<path d="M110.193 77.107C110.193 77.107 129.413 77.4031 136.608 60.6193C143.803 43.8355 144.69 32.7779 144.69 20.2393C144.69 7.70082 147.253 0 153.462 0C159.672 0 172.682 7.70082 172.682 30.6058C172.682 53.5108 166.669 77.107 166.669 77.107H224.526C231.425 77.107 237.043 82.7345 237.043 89.6455C237.043 96.5565 231.425 102.184 224.526 102.184H227.581C234.481 102.184 240.099 107.812 240.099 114.723V117.783C240.099 124.694 234.481 130.322 227.581 130.322H218.809C225.709 130.322 231.327 135.949 231.327 142.86V145.328C231.327 152.239 225.709 157.867 218.809 157.867H208.164C215.064 157.867 220.682 163.494 220.682 170.405V173.565C220.682 180.476 215.064 186.103 208.164 186.103H110.193V77.107Z" fill="#DDB78A" fill-opacity="0.8"/>
<path d="M105.659 63.4824H4.53388C2.02989 63.4824 0 65.5157 0 68.0239V191.829C0 194.338 2.02989 196.371 4.53388 196.371H105.659C108.163 196.371 110.193 194.338 110.193 191.829V68.0239C110.193 65.5157 108.163 63.4824 105.659 63.4824Z" fill="#39B54A" fill-opacity="0.8"/>
<path d="M78.5544 179.39C86.5019 179.39 92.9446 172.936 92.9446 164.975C92.9446 157.015 86.5019 150.561 78.5544 150.561C70.607 150.561 64.1643 157.015 64.1643 164.975C64.1643 172.936 70.607 179.39 78.5544 179.39Z" fill="#FBB040" fill-opacity="0.8"/>
<path opacity="0.1" d="M119.951 264C179.187 264 227.285 256.398 227.285 247.019C227.285 237.64 179.285 230.038 119.951 230.038C60.616 230.038 12.616 237.64 12.616 247.019C12.616 256.398 60.616 264 119.951 264Z" fill="#231F20" fill-opacity="0.5"/>
</g>
<defs>
<clipPath id="clip0_3111_58846">
<rect width="240" height="264" fill="white"/>
</clipPath>
</defs>
</svg>
