
  <svg width="72" height="69" viewBox="0 0 72 69" fill="none" xmlns="http://www.w3.org/2000/svg">
<path d="M36.0001 50.5998C45.2785 50.5998 52.8001 43.3916 52.8001 34.4998C52.8001 25.6081 45.2785 18.3999 36.0001 18.3999C26.7218 18.3999 19.2002 25.6081 19.2002 34.4998C19.2002 43.3916 26.7218 50.5998 36.0001 50.5998Z" fill="#39B54A"/>
<path d="M36.0001 9.19995C21.443 9.19995 9.60022 20.5493 9.60022 34.4999C9.60022 48.4504 21.443 59.7998 36.0001 59.7998C50.5573 59.7998 62.4 48.4504 62.4 34.4999C62.4 20.5493 50.5573 9.19995 36.0001 9.19995ZM36.0001 57.4998C22.7665 57.4998 12.0002 47.1821 12.0002 34.4999C12.0002 21.8176 22.7665 11.4999 36.0001 11.4999C49.2337 11.4999 60 21.8176 60 34.4999C60 47.1821 49.2337 57.4998 36.0001 57.4998Z" fill="#333333"/>
<path d="M37.2002 0H34.8002V8.05009H37.2002V0Z" fill="#333333"/>
<path d="M27.8404 0.877419L25.5223 1.47266L27.6961 9.24777L30.0142 8.65253L27.8404 0.877419Z" fill="#333333"/>
<path d="M19.0393 4.0491L16.9609 5.1991L21.1601 12.169L23.2385 11.019L19.0393 4.0491Z" fill="#333333"/>
<path d="M11.3934 9.29177L9.69635 10.9181L15.635 16.6093L17.332 14.9829L11.3934 9.29177Z" fill="#333333"/>
<path d="M5.4229 16.2534L4.2229 18.2452L11.4958 22.2694L12.6958 20.2776L5.4229 16.2534Z" fill="#333333"/>
<path d="M1.53732 24.4608L0.916199 26.6824L9.02911 28.7655L9.65023 26.544L1.53732 24.4608Z" fill="#333333"/>
<path d="M8.40009 33.35H0.000244141V35.65H8.40009V33.35Z" fill="#333333"/>
<path d="M9.03027 40.2337L0.917358 42.3169L1.53848 44.5385L9.65139 42.4553L9.03027 40.2337Z" fill="#333333"/>
<path d="M11.495 46.7296L4.22211 50.7538L5.4221 52.7456L12.695 48.7214L11.495 46.7296Z" fill="#333333"/>
<path d="M15.6341 52.3895L9.6955 58.0807L11.3925 59.707L17.3311 54.0158L15.6341 52.3895Z" fill="#333333"/>
<path d="M21.1596 56.8303L16.9604 63.8002L19.0388 64.9502L23.238 57.9803L21.1596 56.8303Z" fill="#333333"/>
<path d="M27.6954 59.7506L25.5216 67.5258L27.8398 68.121L30.0136 60.3459L27.6954 59.7506Z" fill="#333333"/>
<path d="M37.2002 60.95H34.8002V69.0001H37.2002V60.95Z" fill="#333333"/>
<path d="M44.3028 59.748L41.9846 60.3433L44.1585 68.1184L46.4766 67.5231L44.3028 59.748Z" fill="#333333"/>
<path d="M50.8368 56.8336L48.7584 57.9836L52.9576 64.9535L55.036 63.8036L50.8368 56.8336Z" fill="#333333"/>
<path d="M56.3641 52.3905L54.6671 54.0168L60.6057 59.708L62.3027 58.0817L56.3641 52.3905Z" fill="#333333"/>
<path d="M60.4999 46.7268L59.2999 48.7186L66.5728 52.7428L67.7728 50.751L60.4999 46.7268Z" fill="#333333"/>
<path d="M62.9698 40.238L62.3487 42.4596L70.4616 44.5428L71.0827 42.3212L62.9698 40.238Z" fill="#333333"/>
<path d="M71.9998 33.35H63.5999V35.65H71.9998V33.35Z" fill="#333333"/>
<path d="M70.4604 24.4572L62.3475 26.5404L62.9686 28.762L71.0815 26.6788L70.4604 24.4572Z" fill="#333333"/>
<path d="M66.5748 16.2569L59.3019 20.2811L60.5019 22.2729L67.7748 18.2487L66.5748 16.2569Z" fill="#333333"/>
<path d="M60.6068 9.29258L54.6681 14.9838L56.3652 16.6101L62.3038 10.9189L60.6068 9.29258Z" fill="#333333"/>
<path d="M52.9577 4.04793L48.7585 11.0178L50.8369 12.1678L55.0361 5.19792L52.9577 4.04793Z" fill="#333333"/>
<path d="M44.1573 0.87955L41.9835 8.65466L44.3017 9.2499L46.4755 1.47479L44.1573 0.87955Z" fill="#333333"/>
<path d="M32.9594 3.56693L30.5801 3.86731L31.2068 8.42627L33.5861 8.12589L32.9594 3.56693Z" fill="#333333"/>
<path d="M24.71 5.37454L22.4927 6.25452L24.3291 10.5044L26.5465 9.62447L24.71 5.37454Z" fill="#333333"/>
<path d="M17.2261 9.16692L15.3232 10.5658L18.2441 14.215L20.1471 12.8162L17.2261 9.16692Z" fill="#333333"/>
<path d="M11.0244 14.6862L9.5647 16.5099L13.3726 19.3091L14.8323 17.4855L11.0244 14.6862Z" fill="#333333"/>
<path d="M6.52517 21.5557L5.60693 23.6807L10.0416 25.4406L10.9599 23.3157L6.52517 21.5557Z" fill="#333333"/>
<path d="M4.03523 29.3065L3.72107 31.5867L8.4785 32.1886L8.79266 29.9084L4.03523 29.3065Z" fill="#333333"/>
<path d="M8.47869 36.8112L3.72125 37.4132L4.03541 39.6934L8.79285 39.0914L8.47869 36.8112Z" fill="#333333"/>
<path d="M10.0428 43.5585L5.60809 45.3185L6.52633 47.4434L10.961 45.6835L10.0428 43.5585Z" fill="#333333"/>
<path d="M13.3728 49.6914L9.56451 52.4915L11.0246 54.3153L14.8329 51.5153L13.3728 49.6914Z" fill="#333333"/>
<path d="M18.2474 54.7831L15.3257 58.4327L17.2288 59.832L20.1506 56.1824L18.2474 54.7831Z" fill="#333333"/>
<path d="M24.3287 58.4962L22.4922 62.7461L24.7095 63.6261L26.546 59.3762L24.3287 58.4962Z" fill="#333333"/>
<path d="M31.2093 60.5749L30.5811 65.134L32.9605 65.4351L33.5886 60.8759L31.2093 60.5749Z" fill="#333333"/>
<path d="M40.7879 60.5744L38.4085 60.8748L39.0352 65.4337L41.4145 65.1333L40.7879 60.5744Z" fill="#333333"/>
<path d="M47.6701 58.4959L45.4528 59.3759L47.2892 63.6258L49.5066 62.7458L47.6701 58.4959Z" fill="#333333"/>
<path d="M53.7493 54.7835L51.8464 56.1824L54.7673 59.8316L56.6703 58.4327L53.7493 54.7835Z" fill="#333333"/>
<path d="M58.6218 49.6908L57.1621 51.5144L60.97 54.3137L62.4297 52.49L58.6218 49.6908Z" fill="#333333"/>
<path d="M61.9572 43.5598L61.039 45.6848L65.4737 47.4448L66.3919 45.3198L61.9572 43.5598Z" fill="#333333"/>
<path d="M63.5233 36.812L63.2092 39.0922L67.9666 39.6941L68.2808 37.4139L63.5233 36.812Z" fill="#333333"/>
<path d="M67.962 29.3089L63.2049 29.9094L63.5183 32.1896L68.2755 31.5891L67.962 29.3089Z" fill="#333333"/>
<path d="M65.4738 21.5554L61.0391 23.3153L61.9573 25.4403L66.392 23.6803L65.4738 21.5554Z" fill="#333333"/>
<path d="M60.9752 14.6869L57.1669 17.4869L58.627 19.3108L62.4353 16.5108L60.9752 14.6869Z" fill="#333333"/>
<path d="M54.7719 9.16593L51.8501 12.8156L53.7533 14.2148L56.675 10.5652L54.7719 9.16593Z" fill="#333333"/>
<path d="M47.2894 5.37422L45.4529 9.62415L47.6703 10.5041L49.5068 6.25419L47.2894 5.37422Z" fill="#333333"/>
<path d="M39.0414 3.56555L38.4133 8.12476L40.7926 8.42582L41.4208 3.86662L39.0414 3.56555Z" fill="#333333"/>
<path d="M21.0001 27.5999H19.8003C17.4842 27.5999 15.6003 29.4053 15.6003 31.6248C15.6003 33.8443 17.4842 35.6497 19.8003 35.6497H21.0001C21.9926 35.6497 22.8001 36.4237 22.8001 37.3746C22.8001 38.3255 21.9924 39.0996 21.0001 39.0996H19.8003C18.8078 39.0996 18.0003 38.3255 18.0003 37.3746V36.7998H15.6003V37.3749C15.6003 39.5944 17.4842 41.3998 19.8003 41.3998H21.0001C23.3161 41.3998 25.2 39.5944 25.2 37.3749C25.2 35.1554 23.3161 33.35 21.0001 33.35H19.8003C18.8078 33.35 18.0003 32.5759 18.0003 31.625C18.0003 30.6739 18.808 29.9001 19.8003 29.9001H21.0001C21.9926 29.9001 22.8001 30.6741 22.8001 31.625V32.2001H25.2V31.625C25.2003 29.4053 23.3161 27.5999 21.0001 27.5999Z" fill="#333333"/>
<path d="M31.2001 27.5999C28.5528 27.5999 26.4001 29.6629 26.4001 32.1998V41.3998H28.8001V36.7998H33.6001V41.3998H36.0001V32.1998C36.0001 29.6629 33.8474 27.5999 31.2001 27.5999ZM28.8001 34.4998V32.1998C28.8001 30.9315 29.8766 29.8998 31.2001 29.8998C32.5236 29.8998 33.6001 30.9315 33.6001 32.1998V34.4998H28.8001Z" fill="#333333"/>
<path d="M40.8001 27.5999H38.4001V41.3998H45.6001V39.0998H40.8001V27.5999Z" fill="#333333"/>
<path d="M56.4 29.8998V27.5999H48.0001V41.3998H56.4V39.0998H50.4001V35.6499H56.4V33.35H50.4001V29.8998H56.4Z" fill="#333333"/>
</svg>