<svg width="231" height="247" viewBox="0 0 231 247" fill="none" xmlns="http://www.w3.org/2000/svg">
<g clip-path="url(#clip0_3111_58870)">
<path d="M55.4217 46.5141V46.0179C55.4217 24.0633 73.3024 6.20187 95.2807 6.20187C99.0886 6.20187 102.772 6.78072 106.291 7.77302C93.9562 16.0422 85.8023 30.0998 85.8023 46.0179V46.5141H92.0108V46.0179C92.0108 30.6373 100.786 17.3239 113.575 10.6672C126.365 17.3239 135.14 30.6373 135.14 46.0179V46.5141H141.348V46.0179C141.348 30.0998 133.194 16.0422 120.86 7.77302C124.378 6.78072 128.062 6.20187 131.87 6.20187C153.848 6.20187 171.729 24.0633 171.729 46.0179V46.5141H177.937V46.0179C177.937 20.6316 157.284 0 131.87 0C125.372 0 119.204 1.36441 113.575 3.80382C107.946 1.36441 101.779 0 95.2807 0C69.867 0 49.2131 20.6316 49.2131 46.0179V46.5141H55.4217Z" fill="#BC7904" fill-opacity="0.8"/>
<path d="M55.0907 46.5142H49.2132H14.6936L0 247H40.3971L55.0907 46.5142Z" fill="#E0990B" fill-opacity="0.8"/>
<path d="M215.189 46.5142H55.0906L40.397 247H231L215.147 46.5142H215.189ZM135.719 188.33C127.4 188.33 120.653 187.255 120.653 185.974C120.653 184.692 127.4 183.617 135.719 183.617C144.039 183.617 150.785 184.692 150.785 185.974C150.785 187.255 144.039 188.33 135.719 188.33ZM157.159 154.385C152.979 161.001 141.472 174.769 138.078 178.821V178.904L135.719 181.55L133.484 178.862H133.443C131.001 175.927 118.666 161.332 114.279 154.427C111.216 149.424 109.478 143.677 109.229 137.806C109.229 134.333 109.892 130.901 111.216 127.717C112.54 124.492 114.486 121.598 116.928 119.159C119.37 116.719 122.309 114.776 125.496 113.412C126.944 112.833 128.393 112.378 129.924 112.047L133.443 107.871L135.678 105.184L137.913 107.871L141.431 112.047C146.274 113.122 150.785 115.562 154.386 119.117C159.312 124.038 162.126 130.736 162.126 137.723C161.878 143.594 160.139 149.341 157.077 154.385H157.159Z" fill="#FBC751" fill-opacity="0.8"/>
<path d="M135.678 183.575C127.358 183.575 120.612 184.65 120.612 185.932C120.612 187.214 127.358 188.289 135.678 188.289C143.997 188.289 150.744 187.214 150.744 185.932C150.744 184.65 143.997 183.575 135.678 183.575Z" fill="#FBC751"/>
<path opacity="0.49" d="M135.678 183.575C127.358 183.575 120.612 184.65 120.612 185.932C120.612 187.214 127.358 188.289 135.678 188.289C143.997 188.289 150.744 187.214 150.744 185.932C150.744 184.65 143.997 183.575 135.678 183.575Z" fill="#F4F6F8" fill-opacity="0.8"/>
<path d="M141.514 112.089L137.996 107.913L135.76 105.225L133.525 107.913L130.007 112.089C128.517 112.419 127.027 112.874 125.578 113.453C122.35 114.776 119.453 116.719 117.011 119.2C114.569 121.639 112.623 124.575 111.299 127.759C109.974 130.984 109.312 134.415 109.312 137.847C109.56 143.718 111.299 149.424 114.362 154.468C118.749 161.373 131.042 175.968 133.525 178.862H133.567L135.802 181.632L138.078 178.986V178.903C141.555 174.851 153.062 161.083 157.242 154.468C160.305 149.424 162.043 143.677 162.292 137.806C162.292 130.818 159.477 124.161 154.552 119.2C150.992 115.644 146.481 113.205 141.597 112.13L141.514 112.089ZM154.676 152.814C150.371 159.636 137.664 174.727 135.843 176.877V176.96L135.719 176.877C135.098 176.133 133.112 173.818 130.669 170.8C136.009 157.362 146.149 146.406 159.146 139.997C158.567 144.504 157.077 148.886 154.717 152.773L154.676 152.814ZM112.375 140.162C116.183 141.733 119.825 143.718 123.261 146.033C120.694 147.605 118.252 149.424 115.934 151.367C114.113 147.853 112.913 144.049 112.375 140.162ZM121.026 119.489C124.088 117.05 127.689 115.479 131.497 114.776L135.719 109.773L139.941 114.776C143.749 115.479 147.35 117.05 150.413 119.489C154.014 122.384 156.704 126.229 158.111 130.611H113.285C114.693 126.229 117.383 122.342 121.026 119.448V119.489ZM159.229 137.764V138.508C144.452 140.452 130.959 147.977 121.564 159.554C119.618 157.031 117.921 154.675 116.762 152.855L116.514 152.442C127.193 142.85 141.058 137.558 155.421 137.599C156.704 137.599 157.946 137.599 159.229 137.723V137.764ZM159.229 138.757C159.229 139.046 159.146 139.377 159.146 139.749C145.984 145.827 135.512 156.535 129.842 169.89C127.524 167.037 124.792 163.688 122.391 160.587C131.456 148.928 144.659 141.113 159.27 138.798L159.229 138.757ZM112.209 137.888C120.239 136.524 128.476 137.309 136.133 140.121C133.981 140.824 131.828 141.609 129.8 142.56C124.213 140.328 118.252 139.005 112.251 138.591V137.847L112.209 137.888ZM128.972 142.932C127.193 143.759 125.454 144.71 123.757 145.744C120.198 143.387 116.348 141.444 112.375 139.956C112.334 139.542 112.292 139.129 112.251 138.757C118.004 139.294 123.633 140.741 128.972 142.932Z" fill="white" fill-opacity="0.8"/>
<path d="M159.105 140.038C146.15 146.447 136.009 157.404 130.628 170.841C133.07 173.818 135.057 176.133 135.678 176.919V177.002L135.802 176.919C137.665 174.769 150.371 159.678 154.635 152.856C156.994 148.928 158.484 144.586 159.063 140.038H159.105Z" fill="#39B54A" fill-opacity="0.8"/>
<path d="M116.514 152.484L116.763 152.897C117.921 154.675 119.618 157.032 121.564 159.595C130.959 148.018 144.453 140.493 159.229 138.55V137.806C157.987 137.682 156.704 137.64 155.421 137.64C141.059 137.64 127.193 142.933 116.514 152.484Z" fill="#39B54A" fill-opacity="0.8"/>
<path d="M123.219 146.033C119.825 143.677 116.183 141.733 112.334 140.162C112.83 144.09 114.031 147.894 115.893 151.367C118.211 149.382 120.653 147.605 123.219 146.033Z" fill="#8DC63F" fill-opacity="0.8"/>
<path d="M123.716 145.703C125.413 144.669 127.151 143.76 128.931 142.891C123.592 140.659 117.963 139.253 112.209 138.715C112.209 139.087 112.251 139.501 112.334 139.914C116.349 141.403 120.156 143.346 123.716 145.703Z" fill="#8DC63F" fill-opacity="0.8"/>
<path d="M129.718 142.56C131.787 141.609 133.898 140.824 136.05 140.121C128.435 137.268 120.156 136.524 112.127 137.888V138.632C118.128 139.046 124.089 140.369 129.676 142.602L129.718 142.56Z" fill="#8DC63F" fill-opacity="0.8"/>
<path d="M122.35 160.504C124.751 163.647 127.482 166.954 129.8 169.807C135.512 156.494 145.943 145.744 159.105 139.666C159.105 139.335 159.187 139.005 159.187 138.674C144.577 140.989 131.414 148.804 122.309 160.463L122.35 160.504Z" fill="#39B54A" fill-opacity="0.8"/>
<path d="M113.286 130.653H158.111C156.704 126.27 154.014 122.384 150.413 119.531C147.35 117.091 143.749 115.52 139.941 114.817L135.719 109.814L131.497 114.817C127.69 115.52 124.047 117.091 121.026 119.531C117.425 122.425 114.734 126.27 113.286 130.694V130.653Z" fill="#FBB040" fill-opacity="0.8"/>
</g>
<defs>
<clipPath id="clip0_3111_58870">
<rect width="231" height="247" fill="white"/>
</clipPath>
</defs>
</svg>
