<svg width="32" height="32" viewBox="0 0 32 32" fill="none" xmlns="http://www.w3.org/2000/svg">
<path d="M29.4817 8.62383L19.4817 3.12383C19.334 3.0426 19.1682 3 18.9997 3C18.8312 3 18.6654 3.0426 18.5177 3.12383L8.51769 8.62383C8.3609 8.71015 8.23016 8.83698 8.1391 8.99106C8.04804 9.14515 8 9.32085 8 9.49983C8 9.67881 8.04804 9.85451 8.1391 10.0086C8.23016 10.1627 8.3609 10.2895 8.51769 10.3758L17.9997 15.5908V26.3098L14.9637 24.6398L13.9997 26.3908L18.5177 28.8758C18.6653 28.9572 18.8311 28.9999 18.9997 28.9999C19.1683 28.9999 19.3341 28.9572 19.4817 28.8758L29.4817 23.3758C29.6385 23.2895 29.7693 23.1627 29.8605 23.0087C29.9516 22.8546 29.9997 22.6788 29.9997 22.4998V9.49983C29.9997 9.32082 29.9516 9.14509 29.8605 8.99101C29.7693 8.83692 29.6385 8.71011 29.4817 8.62383ZM18.9997 5.14183L26.9247 9.49983L18.9997 13.8578L11.0747 9.49983L18.9997 5.14183ZM27.9997 21.9088L19.9997 26.3088V15.5898L27.9997 11.1898V21.9088Z" fill="#FF7F37"/>
<path d="M10 16H2V14H10V16ZM12 24H4V22H12V24ZM14 20H6V18H14V20Z" fill="#FF7F37"/>
</svg>
